<?xml version="1.0" encoding="utf-8" standalone="no"?>
<!DOCTYPE svg PUBLIC "-//W3C//DTD SVG 1.1//EN"
  "http://www.w3.org/Graphics/SVG/1.1/DTD/svg11.dtd">
<svg height="288pt" version="1.1" viewBox="0 0 432 288" width="432pt" xmlns="http://www.w3.org/2000/svg" xmlns:xlink="http://www.w3.org/1999/xlink">
 <metadata>
  <rdf:RDF xmlns:cc="http://creativecommons.org/ns#" xmlns:dc="http://purl.org/dc/elements/1.1/" xmlns:rdf="http://www.w3.org/1999/02/22-rdf-syntax-ns#">
   <cc:Work>
    <dc:type rdf:resource="http://purl.org/dc/dcmitype/StillImage"/>
    <dc:date>2022-04-22T21:35:34.468844</dc:date>
    <dc:format>image/svg+xml</dc:format>
    <dc:creator>
     <cc:Agent>
      <dc:title>Matplotlib v3.4.3, https://matplotlib.org/</dc:title>
     </cc:Agent>
    </dc:creator>
   </cc:Work>
  </rdf:RDF>
 </metadata>
 <defs>
  <style type="text/css">*{stroke-linecap:butt;stroke-linejoin:round;}</style>
 </defs>
 <g id="figure_1">
  <g id="patch_1">
   <path d="M 0 288 
L 432 288 
L 432 0 
L 0 0 
z
" style="fill:none;"/>
  </g>
  <g id="axes_1">
   <g id="patch_2">
    <path d="M 54 252 
L 388.8 252 
L 388.8 34.56 
L 54 34.56 
z
" style="fill:#ffffff;"/>
   </g>
   <g id="matplotlib.axis_1">
    <g id="xtick_1">
     <g id="line2d_1">
      <defs>
       <path d="M 0 0 
L 0 3.5 
" id="m07dfec35a3" style="stroke:#000000;stroke-width:0.8;"/>
      </defs>
      <g>
       <use style="stroke:#000000;stroke-width:0.8;" x="69.218182" xlink:href="#m07dfec35a3" y="252"/>
      </g>
     </g>
     <g id="text_1">
      <!-- 0 -->
      <g transform="translate(66.036932 266.598437)scale(0.1 -0.1)">
       <defs>
        <path d="M 2034 4250 
Q 1547 4250 1301 3770 
Q 1056 3291 1056 2328 
Q 1056 1369 1301 889 
Q 1547 409 2034 409 
Q 2525 409 2770 889 
Q 3016 1369 3016 2328 
Q 3016 3291 2770 3770 
Q 2525 4250 2034 4250 
z
M 2034 4750 
Q 2819 4750 3233 4129 
Q 3647 3509 3647 2328 
Q 3647 1150 3233 529 
Q 2819 -91 2034 -91 
Q 1250 -91 836 529 
Q 422 1150 422 2328 
Q 422 3509 836 4129 
Q 1250 4750 2034 4750 
z
" id="DejaVuSans-30" transform="scale(0.015625)"/>
       </defs>
       <use xlink:href="#DejaVuSans-30"/>
      </g>
     </g>
    </g>
    <g id="xtick_2">
     <g id="line2d_2">
      <g>
       <use style="stroke:#000000;stroke-width:0.8;" x="107.263636" xlink:href="#m07dfec35a3" y="252"/>
      </g>
     </g>
     <g id="text_2">
      <!-- 250 -->
      <g transform="translate(97.719886 266.598437)scale(0.1 -0.1)">
       <defs>
        <path d="M 1228 531 
L 3431 531 
L 3431 0 
L 469 0 
L 469 531 
Q 828 903 1448 1529 
Q 2069 2156 2228 2338 
Q 2531 2678 2651 2914 
Q 2772 3150 2772 3378 
Q 2772 3750 2511 3984 
Q 2250 4219 1831 4219 
Q 1534 4219 1204 4116 
Q 875 4013 500 3803 
L 500 4441 
Q 881 4594 1212 4672 
Q 1544 4750 1819 4750 
Q 2544 4750 2975 4387 
Q 3406 4025 3406 3419 
Q 3406 3131 3298 2873 
Q 3191 2616 2906 2266 
Q 2828 2175 2409 1742 
Q 1991 1309 1228 531 
z
" id="DejaVuSans-32" transform="scale(0.015625)"/>
        <path d="M 691 4666 
L 3169 4666 
L 3169 4134 
L 1269 4134 
L 1269 2991 
Q 1406 3038 1543 3061 
Q 1681 3084 1819 3084 
Q 2600 3084 3056 2656 
Q 3513 2228 3513 1497 
Q 3513 744 3044 326 
Q 2575 -91 1722 -91 
Q 1428 -91 1123 -41 
Q 819 9 494 109 
L 494 744 
Q 775 591 1075 516 
Q 1375 441 1709 441 
Q 2250 441 2565 725 
Q 2881 1009 2881 1497 
Q 2881 1984 2565 2268 
Q 2250 2553 1709 2553 
Q 1456 2553 1204 2497 
Q 953 2441 691 2322 
L 691 4666 
z
" id="DejaVuSans-35" transform="scale(0.015625)"/>
       </defs>
       <use xlink:href="#DejaVuSans-32"/>
       <use x="63.623047" xlink:href="#DejaVuSans-35"/>
       <use x="127.246094" xlink:href="#DejaVuSans-30"/>
      </g>
     </g>
    </g>
    <g id="xtick_3">
     <g id="line2d_3">
      <g>
       <use style="stroke:#000000;stroke-width:0.8;" x="145.309091" xlink:href="#m07dfec35a3" y="252"/>
      </g>
     </g>
     <g id="text_3">
      <!-- 500 -->
      <g transform="translate(135.765341 266.598437)scale(0.1 -0.1)">
       <use xlink:href="#DejaVuSans-35"/>
       <use x="63.623047" xlink:href="#DejaVuSans-30"/>
       <use x="127.246094" xlink:href="#DejaVuSans-30"/>
      </g>
     </g>
    </g>
    <g id="xtick_4">
     <g id="line2d_4">
      <g>
       <use style="stroke:#000000;stroke-width:0.8;" x="183.354545" xlink:href="#m07dfec35a3" y="252"/>
      </g>
     </g>
     <g id="text_4">
      <!-- 750 -->
      <g transform="translate(173.810795 266.598437)scale(0.1 -0.1)">
       <defs>
        <path d="M 525 4666 
L 3525 4666 
L 3525 4397 
L 1831 0 
L 1172 0 
L 2766 4134 
L 525 4134 
L 525 4666 
z
" id="DejaVuSans-37" transform="scale(0.015625)"/>
       </defs>
       <use xlink:href="#DejaVuSans-37"/>
       <use x="63.623047" xlink:href="#DejaVuSans-35"/>
       <use x="127.246094" xlink:href="#DejaVuSans-30"/>
      </g>
     </g>
    </g>
    <g id="xtick_5">
     <g id="line2d_5">
      <g>
       <use style="stroke:#000000;stroke-width:0.8;" x="221.4" xlink:href="#m07dfec35a3" y="252"/>
      </g>
     </g>
     <g id="text_5">
      <!-- 1000 -->
      <g transform="translate(208.675 266.598437)scale(0.1 -0.1)">
       <defs>
        <path d="M 794 531 
L 1825 531 
L 1825 4091 
L 703 3866 
L 703 4441 
L 1819 4666 
L 2450 4666 
L 2450 531 
L 3481 531 
L 3481 0 
L 794 0 
L 794 531 
z
" id="DejaVuSans-31" transform="scale(0.015625)"/>
       </defs>
       <use xlink:href="#DejaVuSans-31"/>
       <use x="63.623047" xlink:href="#DejaVuSans-30"/>
       <use x="127.246094" xlink:href="#DejaVuSans-30"/>
       <use x="190.869141" xlink:href="#DejaVuSans-30"/>
      </g>
     </g>
    </g>
    <g id="xtick_6">
     <g id="line2d_6">
      <g>
       <use style="stroke:#000000;stroke-width:0.8;" x="259.445455" xlink:href="#m07dfec35a3" y="252"/>
      </g>
     </g>
     <g id="text_6">
      <!-- 1250 -->
      <g transform="translate(246.720455 266.598437)scale(0.1 -0.1)">
       <use xlink:href="#DejaVuSans-31"/>
       <use x="63.623047" xlink:href="#DejaVuSans-32"/>
       <use x="127.246094" xlink:href="#DejaVuSans-35"/>
       <use x="190.869141" xlink:href="#DejaVuSans-30"/>
      </g>
     </g>
    </g>
    <g id="xtick_7">
     <g id="line2d_7">
      <g>
       <use style="stroke:#000000;stroke-width:0.8;" x="297.490909" xlink:href="#m07dfec35a3" y="252"/>
      </g>
     </g>
     <g id="text_7">
      <!-- 1500 -->
      <g transform="translate(284.765909 266.598437)scale(0.1 -0.1)">
       <use xlink:href="#DejaVuSans-31"/>
       <use x="63.623047" xlink:href="#DejaVuSans-35"/>
       <use x="127.246094" xlink:href="#DejaVuSans-30"/>
       <use x="190.869141" xlink:href="#DejaVuSans-30"/>
      </g>
     </g>
    </g>
    <g id="xtick_8">
     <g id="line2d_8">
      <g>
       <use style="stroke:#000000;stroke-width:0.8;" x="335.536364" xlink:href="#m07dfec35a3" y="252"/>
      </g>
     </g>
     <g id="text_8">
      <!-- 1750 -->
      <g transform="translate(322.811364 266.598437)scale(0.1 -0.1)">
       <use xlink:href="#DejaVuSans-31"/>
       <use x="63.623047" xlink:href="#DejaVuSans-37"/>
       <use x="127.246094" xlink:href="#DejaVuSans-35"/>
       <use x="190.869141" xlink:href="#DejaVuSans-30"/>
      </g>
     </g>
    </g>
    <g id="xtick_9">
     <g id="line2d_9">
      <g>
       <use style="stroke:#000000;stroke-width:0.8;" x="373.581818" xlink:href="#m07dfec35a3" y="252"/>
      </g>
     </g>
     <g id="text_9">
      <!-- 2000 -->
      <g transform="translate(360.856818 266.598437)scale(0.1 -0.1)">
       <use xlink:href="#DejaVuSans-32"/>
       <use x="63.623047" xlink:href="#DejaVuSans-30"/>
       <use x="127.246094" xlink:href="#DejaVuSans-30"/>
       <use x="190.869141" xlink:href="#DejaVuSans-30"/>
      </g>
     </g>
    </g>
   </g>
   <g id="matplotlib.axis_2">
    <g id="ytick_1">
     <g id="line2d_10">
      <defs>
       <path d="M 0 0 
L -3.5 0 
" id="m103e49ee06" style="stroke:#000000;stroke-width:0.8;"/>
      </defs>
      <g>
       <use style="stroke:#000000;stroke-width:0.8;" x="54" xlink:href="#m103e49ee06" y="236.005514"/>
      </g>
     </g>
     <g id="text_10">
      <!-- −0.75 -->
      <g transform="translate(16.354687 239.804733)scale(0.1 -0.1)">
       <defs>
        <path d="M 678 2272 
L 4684 2272 
L 4684 1741 
L 678 1741 
L 678 2272 
z
" id="DejaVuSans-2212" transform="scale(0.015625)"/>
        <path d="M 684 794 
L 1344 794 
L 1344 0 
L 684 0 
L 684 794 
z
" id="DejaVuSans-2e" transform="scale(0.015625)"/>
       </defs>
       <use xlink:href="#DejaVuSans-2212"/>
       <use x="83.789062" xlink:href="#DejaVuSans-30"/>
       <use x="147.412109" xlink:href="#DejaVuSans-2e"/>
       <use x="179.199219" xlink:href="#DejaVuSans-37"/>
       <use x="242.822266" xlink:href="#DejaVuSans-35"/>
      </g>
     </g>
    </g>
    <g id="ytick_2">
     <g id="line2d_11">
      <g>
       <use style="stroke:#000000;stroke-width:0.8;" x="54" xlink:href="#m103e49ee06" y="208.639532"/>
      </g>
     </g>
     <g id="text_11">
      <!-- −0.50 -->
      <g transform="translate(16.354687 212.43875)scale(0.1 -0.1)">
       <use xlink:href="#DejaVuSans-2212"/>
       <use x="83.789062" xlink:href="#DejaVuSans-30"/>
       <use x="147.412109" xlink:href="#DejaVuSans-2e"/>
       <use x="179.199219" xlink:href="#DejaVuSans-35"/>
       <use x="242.822266" xlink:href="#DejaVuSans-30"/>
      </g>
     </g>
    </g>
    <g id="ytick_3">
     <g id="line2d_12">
      <g>
       <use style="stroke:#000000;stroke-width:0.8;" x="54" xlink:href="#m103e49ee06" y="181.273549"/>
      </g>
     </g>
     <g id="text_12">
      <!-- −0.25 -->
      <g transform="translate(16.354687 185.072768)scale(0.1 -0.1)">
       <use xlink:href="#DejaVuSans-2212"/>
       <use x="83.789062" xlink:href="#DejaVuSans-30"/>
       <use x="147.412109" xlink:href="#DejaVuSans-2e"/>
       <use x="179.199219" xlink:href="#DejaVuSans-32"/>
       <use x="242.822266" xlink:href="#DejaVuSans-35"/>
      </g>
     </g>
    </g>
    <g id="ytick_4">
     <g id="line2d_13">
      <g>
       <use style="stroke:#000000;stroke-width:0.8;" x="54" xlink:href="#m103e49ee06" y="153.907567"/>
      </g>
     </g>
     <g id="text_13">
      <!-- 0.00 -->
      <g transform="translate(24.734375 157.706785)scale(0.1 -0.1)">
       <use xlink:href="#DejaVuSans-30"/>
       <use x="63.623047" xlink:href="#DejaVuSans-2e"/>
       <use x="95.410156" xlink:href="#DejaVuSans-30"/>
       <use x="159.033203" xlink:href="#DejaVuSans-30"/>
      </g>
     </g>
    </g>
    <g id="ytick_5">
     <g id="line2d_14">
      <g>
       <use style="stroke:#000000;stroke-width:0.8;" x="54" xlink:href="#m103e49ee06" y="126.541584"/>
      </g>
     </g>
     <g id="text_14">
      <!-- 0.25 -->
      <g transform="translate(24.734375 130.340803)scale(0.1 -0.1)">
       <use xlink:href="#DejaVuSans-30"/>
       <use x="63.623047" xlink:href="#DejaVuSans-2e"/>
       <use x="95.410156" xlink:href="#DejaVuSans-32"/>
       <use x="159.033203" xlink:href="#DejaVuSans-35"/>
      </g>
     </g>
    </g>
    <g id="ytick_6">
     <g id="line2d_15">
      <g>
       <use style="stroke:#000000;stroke-width:0.8;" x="54" xlink:href="#m103e49ee06" y="99.175601"/>
      </g>
     </g>
     <g id="text_15">
      <!-- 0.50 -->
      <g transform="translate(24.734375 102.97482)scale(0.1 -0.1)">
       <use xlink:href="#DejaVuSans-30"/>
       <use x="63.623047" xlink:href="#DejaVuSans-2e"/>
       <use x="95.410156" xlink:href="#DejaVuSans-35"/>
       <use x="159.033203" xlink:href="#DejaVuSans-30"/>
      </g>
     </g>
    </g>
    <g id="ytick_7">
     <g id="line2d_16">
      <g>
       <use style="stroke:#000000;stroke-width:0.8;" x="54" xlink:href="#m103e49ee06" y="71.809619"/>
      </g>
     </g>
     <g id="text_16">
      <!-- 0.75 -->
      <g transform="translate(24.734375 75.608838)scale(0.1 -0.1)">
       <use xlink:href="#DejaVuSans-30"/>
       <use x="63.623047" xlink:href="#DejaVuSans-2e"/>
       <use x="95.410156" xlink:href="#DejaVuSans-37"/>
       <use x="159.033203" xlink:href="#DejaVuSans-35"/>
      </g>
     </g>
    </g>
    <g id="ytick_8">
     <g id="line2d_17">
      <g>
       <use style="stroke:#000000;stroke-width:0.8;" x="54" xlink:href="#m103e49ee06" y="44.443636"/>
      </g>
     </g>
     <g id="text_17">
      <!-- 1.00 -->
      <g transform="translate(24.734375 48.242855)scale(0.1 -0.1)">
       <use xlink:href="#DejaVuSans-31"/>
       <use x="63.623047" xlink:href="#DejaVuSans-2e"/>
       <use x="95.410156" xlink:href="#DejaVuSans-30"/>
       <use x="159.033203" xlink:href="#DejaVuSans-30"/>
      </g>
     </g>
    </g>
   </g>
   <g id="line2d_18">
    <path clip-path="url(#p8b6ce7e740)" d="M 69.218182 191.104046 
L 69.370364 133.715191 
L 69.522545 209.170911 
L 69.674727 180.476481 
L 69.826909 192.166805 
L 70.131273 160.284106 
L 70.283455 148.593784 
L 70.435636 194.292317 
L 70.587818 139.028974 
L 70.74 192.166805 
L 70.892182 165.597889 
L 71.044364 178.350968 
L 71.196545 170.911671 
L 71.348727 200.668857 
L 71.500909 159.221349 
L 71.653091 190.04129 
L 71.805273 170.911671 
L 71.957455 192.166805 
L 72.109636 185.790266 
L 72.261818 190.04129 
L 72.414 187.915778 
L 72.566182 215.547447 
L 72.718364 170.911671 
L 72.870545 207.045396 
L 73.022727 152.84481 
L 73.174909 168.786159 
L 73.327091 170.911671 
L 73.479273 210.233664 
L 73.631455 180.476481 
L 73.783636 225.112261 
L 73.935818 193.229561 
L 74.088 201.731613 
L 74.240182 182.601995 
L 74.392364 217.672966 
L 74.544545 176.225456 
L 74.696727 205.98264 
L 74.848909 185.790266 
L 75.001091 193.229561 
L 75.153273 174.099942 
L 75.305455 196.417829 
L 75.457636 139.028974 
L 75.762 205.98264 
L 75.914182 211.296423 
L 76.066364 163.472376 
L 76.218545 181.539239 
L 76.370727 154.970323 
L 76.522909 200.668857 
L 76.675091 143.280001 
L 76.827273 148.593784 
L 76.979455 148.593784 
L 77.131636 163.472376 
L 77.283818 131.589677 
L 77.436 181.539239 
L 77.892545 98.644222 
L 78.044727 149.65654 
L 78.196909 113.522816 
L 78.349091 149.65654 
L 78.501273 133.715191 
L 78.653455 149.65654 
L 78.805636 113.522816 
L 78.957818 166.660646 
L 79.11 173.037186 
L 79.262182 162.409619 
L 79.414364 130.526921 
L 79.566545 165.597889 
L 79.718727 123.087626 
L 79.870909 171.974428 
L 80.023091 145.405514 
L 80.175273 153.907567 
L 80.327455 147.531027 
L 80.631818 117.773843 
L 80.784 165.597889 
L 80.936182 133.715191 
L 81.088364 187.915778 
L 81.240545 115.648328 
L 81.392727 132.652435 
L 81.697091 128.401408 
L 81.849273 103.958005 
L 82.001455 167.723403 
L 82.153636 116.711087 
L 82.305818 131.589677 
L 82.458 120.962111 
L 82.610182 148.593784 
L 83.066727 103.958005 
L 83.218909 139.028974 
L 83.371091 92.267686 
L 83.523273 164.535132 
L 83.979818 89.079415 
L 84.436364 146.46827 
L 84.588545 101.832493 
L 84.740727 111.397304 
L 84.892909 92.267686 
L 85.045091 145.405514 
L 85.197273 91.204927 
L 85.349455 131.589677 
L 85.501636 139.028974 
L 85.653818 137.966217 
L 85.806 116.711087 
L 85.958182 176.225456 
L 86.110364 106.08352 
L 86.262545 145.405514 
L 86.719091 100.769737 
L 86.871273 130.526921 
L 87.023455 101.832493 
L 87.175636 149.65654 
L 87.327818 120.962111 
L 87.48 147.531027 
L 87.632182 115.648328 
L 87.936545 122.024867 
L 88.088727 143.280001 
L 88.240909 110.334544 
L 88.393091 144.342757 
L 88.545273 112.46006 
L 88.697455 173.037186 
L 88.849636 142.217244 
L 89.154 125.213138 
L 89.306182 164.535132 
L 89.458364 94.393198 
L 89.762727 139.028974 
L 89.914909 168.786159 
L 90.067091 145.405514 
L 90.219273 150.719297 
L 90.371455 123.087626 
L 90.523636 144.342757 
L 90.675818 126.275894 
L 90.828 178.350968 
L 90.980182 151.782053 
L 91.132364 195.355073 
L 91.436727 145.405514 
L 91.588909 140.09173 
L 91.741091 163.472376 
L 91.893273 125.213138 
L 92.045455 178.350968 
L 92.197636 133.715191 
L 92.349818 165.597889 
L 92.502 147.531027 
L 92.654182 178.350968 
L 92.806364 140.09173 
L 92.958545 177.288212 
L 93.110727 182.601995 
L 93.262909 168.786159 
L 93.415091 127.338652 
L 93.567273 183.664751 
L 93.719455 157.095836 
L 93.871636 163.472376 
L 94.023818 150.719297 
L 94.176 185.790266 
L 94.328182 188.978534 
L 94.480364 203.857128 
L 94.632545 163.472376 
L 94.784727 199.606101 
L 94.936909 173.037186 
L 95.089091 184.727507 
L 95.241273 157.095836 
L 95.393455 209.170911 
L 95.545636 160.284106 
L 95.697818 191.104046 
L 95.85 157.095836 
L 96.002182 184.727507 
L 96.154364 161.346863 
L 96.610909 207.045396 
L 96.763091 165.597889 
L 96.915273 164.535132 
L 97.067455 147.531027 
L 97.219636 226.175014 
L 97.371818 127.338652 
L 97.524 170.911671 
L 97.676182 174.099942 
L 97.980545 197.480589 
L 98.132727 221.92399 
L 98.284909 177.288212 
L 98.437091 192.166805 
L 98.589273 181.539239 
L 98.741455 207.045396 
L 98.893636 173.037186 
L 99.045818 211.296423 
L 99.198 195.355073 
L 99.350182 222.986743 
L 99.502364 173.037186 
L 99.654545 215.547447 
L 99.806727 183.664751 
L 99.958909 197.480589 
L 100.111091 167.723403 
L 100.263273 192.166805 
L 100.415455 191.104046 
L 100.567636 196.417829 
L 100.719818 196.417829 
L 100.872 208.108152 
L 101.024182 147.531027 
L 101.176364 164.535132 
L 101.328545 156.03308 
L 101.480727 201.731613 
L 101.632909 139.028974 
L 101.785091 182.601995 
L 101.937273 146.46827 
L 102.089455 191.104046 
L 102.393818 147.531027 
L 102.546 142.217244 
L 102.698182 183.664751 
L 102.850364 149.65654 
L 103.002545 194.292317 
L 103.154727 171.974428 
L 103.306909 168.786159 
L 103.459091 108.209032 
L 103.611273 131.589677 
L 103.763455 123.087626 
L 103.915636 161.346863 
L 104.067818 93.330439 
L 104.22 136.903462 
L 104.372182 123.087626 
L 104.524364 141.154487 
L 104.676545 114.585572 
L 104.828727 115.648328 
L 104.980909 95.455951 
L 105.133091 116.711087 
L 105.285273 77.389089 
L 105.437455 110.334544 
L 105.589636 97.581469 
L 105.741818 125.213138 
L 106.198364 63.573257 
L 106.350545 80.57736 
L 106.502727 71.012553 
L 106.654909 132.652435 
L 106.807091 85.891143 
L 106.959273 103.958005 
L 107.111455 56.133962 
L 107.263636 119.899355 
L 107.415818 92.267686 
L 107.568 105.020764 
L 107.720182 101.832493 
L 108.024545 45.506396 
L 108.176727 100.769737 
L 108.328909 88.016655 
L 108.481091 89.079415 
L 108.633273 44.443636 
L 108.785455 124.150382 
L 108.937636 77.389089 
L 109.089818 107.146276 
L 109.242 92.267686 
L 109.394182 103.958005 
L 109.546364 90.142167 
L 109.698545 102.895249 
L 109.850727 105.020764 
L 110.002909 144.342757 
L 110.155091 97.581469 
L 110.307273 142.217244 
L 110.459455 123.087626 
L 110.611636 166.660646 
L 110.763818 143.280001 
L 110.916 154.970323 
L 111.068182 141.154487 
L 111.220364 168.786159 
L 111.372545 147.531027 
L 111.524727 190.04129 
L 111.676909 179.413725 
L 111.829091 185.790266 
L 111.981273 149.65654 
L 112.133455 188.978534 
L 112.285636 178.350968 
L 112.437818 186.853022 
L 112.59 157.095836 
L 112.742182 227.237773 
L 112.894364 179.413725 
L 113.046545 176.225456 
L 113.198727 185.790266 
L 113.350909 219.798478 
L 113.503091 175.162698 
L 113.655273 233.614309 
L 113.807455 176.225456 
L 114.111818 215.547447 
L 114.264 177.288212 
L 114.416182 169.848916 
L 114.568364 213.421935 
L 114.720545 185.790266 
L 114.872727 242.116364 
L 115.024909 199.606101 
L 115.177091 216.610207 
L 115.329273 187.915778 
L 115.481455 201.731613 
L 115.633636 198.543345 
L 115.785818 221.92399 
L 115.938 178.350968 
L 116.090182 198.543345 
L 116.242364 159.221349 
L 116.394545 224.049502 
L 116.546727 200.668857 
L 116.698909 213.421935 
L 116.851091 181.539239 
L 117.003273 200.668857 
L 117.155455 191.104046 
L 117.307636 213.421935 
L 117.459818 174.099942 
L 117.612 164.535132 
L 117.764182 118.836599 
L 117.916364 199.606101 
L 118.068545 162.409619 
L 118.220727 157.095836 
L 118.372909 173.037186 
L 118.525091 174.099942 
L 118.677273 160.284106 
L 118.829455 181.539239 
L 118.981636 134.777947 
L 119.133818 167.723403 
L 119.286 145.405514 
L 119.438182 174.099942 
L 119.590364 141.154487 
L 119.742545 174.099942 
L 119.894727 152.84481 
L 120.046909 166.660646 
L 120.199091 134.777947 
L 120.351273 174.099942 
L 120.503455 143.280001 
L 120.655636 153.907567 
L 120.807818 109.271788 
L 120.96 158.158593 
L 121.112182 114.585572 
L 121.264364 131.589677 
L 121.416545 117.773843 
L 121.568727 142.217244 
L 121.720909 137.966217 
L 121.873091 173.037186 
L 122.177455 150.719297 
L 122.329636 141.154487 
L 122.481818 166.660646 
L 122.634 117.773843 
L 122.786182 143.280001 
L 122.938364 120.962111 
L 123.090545 166.660646 
L 123.242727 141.154487 
L 123.394909 174.099942 
L 123.547091 95.455951 
L 123.699273 144.342757 
L 123.851455 141.154487 
L 124.003636 129.464165 
L 124.308 188.978534 
L 124.460182 160.284106 
L 124.612364 212.359183 
L 124.764545 144.342757 
L 124.916727 199.606101 
L 125.068909 154.970323 
L 125.221091 169.848916 
L 125.525455 167.723403 
L 125.677636 163.472376 
L 125.829818 191.104046 
L 125.982 134.777947 
L 126.134182 185.790266 
L 126.286364 145.405514 
L 126.438545 166.660646 
L 126.590727 160.284106 
L 126.742909 179.413725 
L 126.895091 167.723403 
L 127.047273 207.045396 
L 127.199455 158.158593 
L 127.351636 164.535132 
L 127.503818 153.907567 
L 127.656 190.04129 
L 127.808182 124.150382 
L 127.960364 160.284106 
L 128.112545 139.028974 
L 128.264727 145.405514 
L 128.569091 178.350968 
L 128.721273 151.782053 
L 128.873455 174.099942 
L 129.025636 146.46827 
L 129.177818 203.857128 
L 129.33 141.154487 
L 129.482182 146.46827 
L 129.634364 164.535132 
L 129.786545 197.480589 
L 129.938727 151.782053 
L 130.090909 170.911671 
L 130.243091 166.660646 
L 130.395273 201.731613 
L 130.547455 154.970323 
L 130.699636 163.472376 
L 130.851818 139.028974 
L 131.004 178.350968 
L 131.156182 149.65654 
L 131.308364 195.355073 
L 131.460545 161.346863 
L 131.612727 190.04129 
L 131.764909 158.158593 
L 132.069273 179.413725 
L 132.221455 208.108152 
L 132.373636 149.65654 
L 132.525818 184.727507 
L 132.678 166.660646 
L 132.830182 183.664751 
L 132.982364 152.84481 
L 133.134545 159.221349 
L 133.286727 135.840705 
L 133.438909 171.974428 
L 133.591091 153.907567 
L 133.743273 188.978534 
L 133.895455 149.65654 
L 134.047636 163.472376 
L 134.199818 127.338652 
L 134.352 150.719297 
L 134.656364 140.09173 
L 134.808545 103.958005 
L 134.960727 175.162698 
L 135.112909 122.024867 
L 135.265091 132.652435 
L 135.417273 134.777947 
L 135.569455 174.099942 
L 135.721636 128.401408 
L 135.873818 152.84481 
L 136.026 141.154487 
L 136.178182 156.03308 
L 136.330364 136.903462 
L 136.482545 135.840705 
L 136.634727 129.464165 
L 136.786909 196.417829 
L 136.939091 154.970323 
L 137.091273 165.597889 
L 137.243455 117.773843 
L 137.395636 163.472376 
L 137.547818 142.217244 
L 137.7 157.095836 
L 138.156545 120.962111 
L 138.308727 175.162698 
L 138.460909 150.719297 
L 138.613091 191.104046 
L 138.765273 131.589677 
L 138.917455 161.346863 
L 139.069636 160.284106 
L 139.221818 164.535132 
L 139.374 119.899355 
L 139.678364 185.790266 
L 139.830545 188.978534 
L 139.982727 117.773843 
L 140.134909 185.790266 
L 140.287091 146.46827 
L 140.439273 159.221349 
L 140.591455 145.405514 
L 140.743636 161.346863 
L 140.895818 128.401408 
L 141.048 181.539239 
L 141.200182 173.037186 
L 141.352364 179.413725 
L 141.504545 125.213138 
L 141.656727 184.727507 
L 141.961091 145.405514 
L 142.113273 141.154487 
L 142.265455 176.225456 
L 142.417636 159.221349 
L 142.569818 168.786159 
L 142.722 119.899355 
L 142.874182 153.907567 
L 143.026364 141.154487 
L 143.178545 173.037186 
L 143.330727 146.46827 
L 143.482909 151.782053 
L 143.635091 125.213138 
L 143.787273 196.417829 
L 143.939455 149.65654 
L 144.091636 152.84481 
L 144.243818 144.342757 
L 144.396 163.472376 
L 144.548182 141.154487 
L 144.700364 174.099942 
L 144.852545 148.593784 
L 145.004727 178.350968 
L 145.156909 131.589677 
L 145.309091 142.217244 
L 145.461273 125.213138 
L 145.613455 164.535132 
L 145.765636 126.275894 
L 145.917818 151.782053 
L 146.374364 128.401408 
L 146.526545 154.970323 
L 146.678727 126.275894 
L 146.830909 179.413725 
L 146.983091 123.087626 
L 147.135273 171.974428 
L 147.287455 159.221349 
L 147.439636 166.660646 
L 147.591818 122.024867 
L 147.744 125.213138 
L 147.896182 141.154487 
L 148.048364 175.162698 
L 148.200545 110.334544 
L 148.352727 157.095836 
L 148.504909 151.782053 
L 148.657091 134.777947 
L 148.809273 130.526921 
L 148.961455 166.660646 
L 149.113636 134.777947 
L 149.265818 192.166805 
L 149.418 146.46827 
L 149.570182 181.539239 
L 149.722364 148.593784 
L 149.874545 140.09173 
L 150.026727 139.028974 
L 150.178909 158.158593 
L 150.331091 147.531027 
L 150.483273 178.350968 
L 150.635455 135.840705 
L 150.787636 185.790266 
L 150.939818 124.150382 
L 151.092 166.660646 
L 151.244182 159.221349 
L 151.396364 164.535132 
L 151.548545 141.154487 
L 151.700727 152.84481 
L 151.852909 145.405514 
L 152.005091 193.229561 
L 152.157273 163.472376 
L 152.309455 177.288212 
L 152.461636 149.65654 
L 152.613818 169.848916 
L 152.766 147.531027 
L 152.918182 170.911671 
L 153.070364 146.46827 
L 153.222545 197.480589 
L 153.374727 157.095836 
L 153.831273 171.974428 
L 153.983455 135.840705 
L 154.135636 191.104046 
L 154.287818 142.217244 
L 154.44 171.974428 
L 154.592182 152.84481 
L 154.744364 170.911671 
L 154.896545 160.284106 
L 155.048727 168.786159 
L 155.200909 118.836599 
L 155.353091 166.660646 
L 155.505273 148.593784 
L 155.657455 160.284106 
L 155.809636 109.271788 
L 155.961818 145.405514 
L 156.114 133.715191 
L 156.266182 167.723403 
L 156.418364 135.840705 
L 156.570545 157.095836 
L 156.722727 150.719297 
L 156.874909 154.970323 
L 157.027091 120.962111 
L 157.179273 166.660646 
L 157.331455 124.150382 
L 157.483636 164.535132 
L 157.635818 147.531027 
L 157.788 146.46827 
L 158.092364 202.794369 
L 158.244545 142.217244 
L 158.396727 198.543345 
L 158.548909 136.903462 
L 158.701091 149.65654 
L 158.853273 136.903462 
L 159.005455 148.593784 
L 159.157636 132.652435 
L 159.309818 152.84481 
L 159.462 118.836599 
L 159.614182 167.723403 
L 159.766364 134.777947 
L 159.918545 164.535132 
L 160.070727 141.154487 
L 160.222909 135.840705 
L 160.375091 123.087626 
L 160.527273 136.903462 
L 160.679455 113.522816 
L 160.831636 150.719297 
L 160.983818 102.895249 
L 161.136 125.213138 
L 161.288182 90.142167 
L 161.440364 130.526921 
L 161.592545 93.330439 
L 161.744727 126.275894 
L 161.896909 98.644222 
L 162.201273 125.213138 
L 162.353455 111.397304 
L 162.505636 84.828391 
L 162.657818 108.209032 
L 162.81 91.204927 
L 162.962182 160.284106 
L 163.114364 96.51871 
L 163.266545 139.028974 
L 163.418727 101.832493 
L 163.570909 110.334544 
L 163.723091 106.08352 
L 163.875273 157.095836 
L 164.027455 98.644222 
L 164.179636 102.895249 
L 164.331818 127.338652 
L 164.484 128.401408 
L 164.636182 86.953903 
L 164.788364 132.652435 
L 164.940545 94.393198 
L 165.092727 146.46827 
L 165.244909 83.765631 
L 165.397091 133.715191 
L 165.549273 133.715191 
L 165.701455 122.024867 
L 166.005818 164.535132 
L 166.158 130.526921 
L 166.310182 171.974428 
L 166.462364 118.836599 
L 166.614545 161.346863 
L 166.766727 127.338652 
L 166.918909 160.284106 
L 167.071091 117.773843 
L 167.223273 142.217244 
L 167.375455 190.04129 
L 167.527636 191.104046 
L 167.679818 142.217244 
L 167.832 199.606101 
L 167.984182 154.970323 
L 168.136364 149.65654 
L 168.288545 149.65654 
L 168.440727 210.233664 
L 168.592909 146.46827 
L 168.745091 142.217244 
L 168.897273 154.970323 
L 169.049455 190.04129 
L 169.201636 166.660646 
L 169.353818 167.723403 
L 169.506 136.903462 
L 169.658182 195.355073 
L 169.810364 152.84481 
L 169.962545 156.03308 
L 170.114727 148.593784 
L 170.266909 195.355073 
L 170.419091 144.342757 
L 170.571273 164.535132 
L 170.723455 154.970323 
L 170.875636 153.907567 
L 171.027818 150.719297 
L 171.18 182.601995 
L 171.332182 145.405514 
L 171.484364 216.610207 
L 171.636545 173.037186 
L 171.788727 178.350968 
L 171.940909 152.84481 
L 172.093091 195.355073 
L 172.397455 173.037186 
L 172.549636 154.970323 
L 172.701818 217.672966 
L 172.854 145.405514 
L 173.006182 175.162698 
L 173.158364 150.719297 
L 173.310545 166.660646 
L 173.614909 207.045396 
L 173.767091 145.405514 
L 173.919273 188.978534 
L 174.071455 186.853022 
L 174.223636 187.915778 
L 174.375818 136.903462 
L 174.528 214.484695 
L 174.832364 160.284106 
L 174.984545 157.095836 
L 175.136727 207.045396 
L 175.288909 147.531027 
L 175.593273 197.480589 
L 175.745455 212.359183 
L 175.897636 162.409619 
L 176.049818 178.350968 
L 176.202 164.535132 
L 176.354182 192.166805 
L 176.506364 141.154487 
L 176.658545 203.857128 
L 176.962909 173.037186 
L 177.115091 174.099942 
L 177.267273 220.861231 
L 177.419455 163.472376 
L 177.571636 187.915778 
L 177.723818 136.903462 
L 177.876 139.028974 
L 178.028182 158.158593 
L 178.180364 204.919884 
L 178.332545 136.903462 
L 178.484727 173.037186 
L 178.636909 147.531027 
L 178.789091 142.217244 
L 179.093455 187.915778 
L 179.245636 113.522816 
L 179.397818 146.46827 
L 179.55 148.593784 
L 179.702182 180.476481 
L 179.854364 98.644222 
L 180.006545 168.786159 
L 180.158727 146.46827 
L 180.310909 147.531027 
L 180.463091 151.782053 
L 180.615273 161.346863 
L 181.071818 105.020764 
L 181.224 163.472376 
L 181.376182 117.773843 
L 181.528364 150.719297 
L 181.680545 122.024867 
L 181.832727 142.217244 
L 181.984909 133.715191 
L 182.137091 166.660646 
L 182.289273 136.903462 
L 182.441455 153.907567 
L 182.593636 101.832493 
L 182.745818 137.966217 
L 182.898 118.836599 
L 183.050182 147.531027 
L 183.202364 120.962111 
L 183.658909 163.472376 
L 183.811091 115.648328 
L 183.963273 154.970323 
L 184.115455 118.836599 
L 184.267636 135.840705 
L 184.419818 166.660646 
L 184.572 163.472376 
L 184.724182 96.51871 
L 184.876364 157.095836 
L 185.028545 115.648328 
L 185.180727 150.719297 
L 185.332909 113.522816 
L 185.485091 125.213138 
L 185.637273 93.330439 
L 185.789455 131.589677 
L 185.941636 135.840705 
L 186.093818 131.589677 
L 186.246 132.652435 
L 186.398182 159.221349 
L 186.550364 112.46006 
L 186.702545 180.476481 
L 186.854727 148.593784 
L 187.006909 159.221349 
L 187.159091 118.836599 
L 187.311273 156.03308 
L 187.615636 143.280001 
L 187.767818 115.648328 
L 187.92 163.472376 
L 188.072182 135.840705 
L 188.224364 143.280001 
L 188.376545 129.464165 
L 188.528727 175.162698 
L 188.680909 132.652435 
L 188.833091 157.095836 
L 188.985273 144.342757 
L 189.137455 142.217244 
L 189.289636 123.087626 
L 189.441818 187.915778 
L 189.594 175.162698 
L 189.746182 190.04129 
L 189.898364 133.715191 
L 190.050545 198.543345 
L 190.202727 162.409619 
L 190.354909 180.476481 
L 190.507091 160.284106 
L 190.811455 193.229561 
L 191.115818 150.719297 
L 191.268 202.794369 
L 191.420182 123.087626 
L 191.572364 168.786159 
L 191.876727 181.539239 
L 192.028909 147.531027 
L 192.181091 175.162698 
L 192.333273 160.284106 
L 192.485455 183.664751 
L 192.637636 171.974428 
L 192.789818 185.790266 
L 192.942 127.338652 
L 193.094182 184.727507 
L 193.246364 161.346863 
L 193.398545 177.288212 
L 193.855091 124.150382 
L 194.007273 201.731613 
L 194.159455 165.597889 
L 194.311636 180.476481 
L 194.463818 161.346863 
L 194.616 173.037186 
L 194.768182 146.46827 
L 194.920364 194.292317 
L 195.224727 150.719297 
L 195.376909 145.405514 
L 195.529091 164.535132 
L 195.681273 126.275894 
L 195.833455 164.535132 
L 196.137818 151.782053 
L 196.29 131.589677 
L 196.442182 180.476481 
L 196.594364 122.024867 
L 196.746545 178.350968 
L 196.898727 132.652435 
L 197.203091 162.409619 
L 197.355273 174.099942 
L 197.507455 134.777947 
L 197.659636 161.346863 
L 197.811818 156.03308 
L 197.964 202.794369 
L 198.116182 126.275894 
L 198.268364 162.409619 
L 198.420545 170.911671 
L 198.572727 165.597889 
L 198.724909 156.03308 
L 198.877091 174.099942 
L 199.029273 167.723403 
L 199.181455 185.790266 
L 199.333636 131.589677 
L 199.485818 146.46827 
L 199.638 128.401408 
L 199.790182 170.911671 
L 199.942364 126.275894 
L 200.094545 160.284106 
L 200.246727 149.65654 
L 200.398909 184.727507 
L 200.551091 145.405514 
L 200.703273 150.719297 
L 200.855455 123.087626 
L 201.007636 148.593784 
L 201.159818 123.087626 
L 201.312 158.158593 
L 201.464182 137.966217 
L 201.616364 150.719297 
L 201.768545 126.275894 
L 201.920727 136.903462 
L 202.072909 73.138065 
L 202.225091 139.028974 
L 202.529455 125.213138 
L 202.681636 99.706981 
L 202.833818 144.342757 
L 202.986 113.522816 
L 203.290364 98.644222 
L 203.442545 154.970323 
L 203.594727 108.209032 
L 203.746909 120.962111 
L 203.899091 81.640119 
L 204.051273 131.589677 
L 204.203455 102.895249 
L 204.355636 134.777947 
L 204.66 139.028974 
L 204.812182 115.648328 
L 204.964364 131.589677 
L 205.116545 123.087626 
L 205.268727 126.275894 
L 205.420909 97.581469 
L 205.573091 152.84481 
L 205.725273 90.142167 
L 205.877455 139.028974 
L 206.029636 99.706981 
L 206.181818 124.150382 
L 206.334 109.271788 
L 206.486182 115.648328 
L 206.638364 112.46006 
L 206.790545 169.848916 
L 206.942727 152.84481 
L 207.094909 152.84481 
L 207.247091 140.09173 
L 207.399273 148.593784 
L 207.551455 98.644222 
L 207.703636 153.907567 
L 207.855818 149.65654 
L 208.008 151.782053 
L 208.160182 140.09173 
L 208.312364 197.480589 
L 208.464545 140.09173 
L 208.616727 182.601995 
L 208.768909 148.593784 
L 208.921091 177.288212 
L 209.225455 160.284106 
L 209.377636 115.648328 
L 209.529818 145.405514 
L 209.682 134.777947 
L 209.834182 176.225456 
L 209.986364 159.221349 
L 210.138545 174.099942 
L 210.290727 149.65654 
L 210.442909 166.660646 
L 210.595091 139.028974 
L 210.747273 183.664751 
L 210.899455 160.284106 
L 211.051636 184.727507 
L 211.203818 161.346863 
L 211.356 213.421935 
L 211.508182 156.03308 
L 211.660364 162.409619 
L 211.964727 190.04129 
L 212.116909 152.84481 
L 212.269091 208.108152 
L 212.421273 159.221349 
L 212.573455 185.790266 
L 212.725636 169.848916 
L 212.877818 175.162698 
L 213.03 156.03308 
L 213.182182 177.288212 
L 213.334364 165.597889 
L 213.486545 167.723403 
L 213.638727 156.03308 
L 213.790909 219.798478 
L 213.943091 167.723403 
L 214.095273 217.672966 
L 214.247455 184.727507 
L 214.399636 208.108152 
L 214.551818 156.03308 
L 215.008364 200.668857 
L 215.160545 188.978534 
L 215.312727 219.798478 
L 215.464909 165.597889 
L 215.617091 185.790266 
L 215.769273 178.350968 
L 215.921455 198.543345 
L 216.073636 168.786159 
L 216.225818 171.974428 
L 216.378 156.03308 
L 216.530182 212.359183 
L 216.682364 176.225456 
L 216.834545 196.417829 
L 216.986727 161.346863 
L 217.138909 221.92399 
L 217.291091 179.413725 
L 217.595455 198.543345 
L 217.747636 220.861231 
L 217.899818 168.786159 
L 218.052 188.978534 
L 218.204182 184.727507 
L 218.356364 210.233664 
L 218.508545 144.342757 
L 218.812909 193.229561 
L 218.965091 193.229561 
L 219.117273 176.225456 
L 219.269455 212.359183 
L 219.421636 176.225456 
L 219.573818 197.480589 
L 219.726 163.472376 
L 219.878182 207.045396 
L 220.030364 180.476481 
L 220.182545 217.672966 
L 220.334727 219.798478 
L 220.486909 216.610207 
L 220.639091 165.597889 
L 220.791273 218.735719 
L 220.943455 177.288212 
L 221.095636 209.170911 
L 221.4 227.237773 
L 221.552182 200.668857 
L 221.704364 217.672966 
L 221.856545 185.790266 
L 222.008727 179.413725 
L 222.160909 156.03308 
L 222.313091 229.363285 
L 222.465273 211.296423 
L 222.617455 242.116364 
L 222.769636 195.355073 
L 222.921818 209.170911 
L 223.074 173.037186 
L 223.226182 199.606101 
L 223.378364 188.978534 
L 223.530545 209.170911 
L 223.682727 157.095836 
L 223.834909 186.853022 
L 223.987091 167.723403 
L 224.139273 178.350968 
L 224.291455 145.405514 
L 224.443636 146.46827 
L 224.748 213.421935 
L 224.900182 141.154487 
L 225.052364 182.601995 
L 225.204545 120.962111 
L 225.661091 170.911671 
L 225.813273 134.777947 
L 225.965455 128.401408 
L 226.117636 109.271788 
L 226.269818 186.853022 
L 226.422 114.585572 
L 226.574182 119.899355 
L 226.726364 120.962111 
L 226.878545 145.405514 
L 227.030727 80.57736 
L 227.182909 125.213138 
L 227.335091 130.526921 
L 227.487273 156.03308 
L 227.943818 83.765631 
L 228.096 162.409619 
L 228.248182 131.589677 
L 228.400364 126.275894 
L 228.552545 136.903462 
L 228.704727 165.597889 
L 228.856909 92.267686 
L 229.009091 106.08352 
L 229.161273 101.832493 
L 229.313455 125.213138 
L 229.465636 83.765631 
L 229.617818 110.334544 
L 229.77 80.57736 
L 229.922182 109.271788 
L 230.074364 92.267686 
L 230.226545 103.958005 
L 230.378727 60.384986 
L 230.530909 106.08352 
L 230.683091 112.46006 
L 230.835273 139.028974 
L 230.987455 92.267686 
L 231.139636 115.648328 
L 231.291818 105.020764 
L 231.444 115.648328 
L 231.596182 88.016655 
L 231.748364 113.522816 
L 231.900545 91.204927 
L 232.052727 140.09173 
L 232.204909 106.08352 
L 232.357091 114.585572 
L 232.509273 97.581469 
L 232.661455 117.773843 
L 232.813636 94.393198 
L 232.965818 140.09173 
L 233.118 95.455951 
L 233.270182 130.526921 
L 233.422364 123.087626 
L 233.574545 139.028974 
L 233.726727 109.271788 
L 233.878909 126.275894 
L 234.031091 111.397304 
L 234.183273 141.154487 
L 234.335455 125.213138 
L 234.487636 157.095836 
L 234.639818 146.46827 
L 234.792 175.162698 
L 234.944182 136.903462 
L 235.096364 175.162698 
L 235.248545 118.836599 
L 235.400727 178.350968 
L 235.552909 143.280001 
L 235.705091 157.095836 
L 235.857273 144.342757 
L 236.009455 149.65654 
L 236.161636 139.028974 
L 236.466 186.853022 
L 236.618182 198.543345 
L 236.770364 156.03308 
L 236.922545 205.98264 
L 237.074727 170.911671 
L 237.379091 200.668857 
L 237.531273 213.421935 
L 237.683455 146.46827 
L 237.835636 196.417829 
L 237.987818 179.413725 
L 238.14 178.350968 
L 238.292182 175.162698 
L 238.444364 232.551556 
L 238.596545 175.162698 
L 238.748727 195.355073 
L 238.900909 149.65654 
L 239.053091 151.782053 
L 239.357455 199.606101 
L 239.509636 144.342757 
L 239.661818 212.359183 
L 239.814 187.915778 
L 239.966182 184.727507 
L 240.270545 166.660646 
L 240.422727 125.213138 
L 240.574909 181.539239 
L 240.727091 185.790266 
L 240.879273 181.539239 
L 241.031455 141.154487 
L 241.183636 195.355073 
L 241.335818 152.84481 
L 241.488 201.731613 
L 241.640182 179.413725 
L 241.792364 182.601995 
L 241.944545 160.284106 
L 242.096727 201.731613 
L 242.248909 171.974428 
L 242.401091 178.350968 
L 242.553273 159.221349 
L 242.705455 197.480589 
L 242.857636 147.531027 
L 243.009818 194.292317 
L 243.162 154.970323 
L 243.314182 179.413725 
L 243.466364 160.284106 
L 243.618545 161.346863 
L 243.770727 150.719297 
L 243.922909 182.601995 
L 244.075091 151.782053 
L 244.227273 191.104046 
L 244.379455 162.409619 
L 244.531636 186.853022 
L 244.683818 175.162698 
L 244.836 190.04129 
L 244.988182 153.907567 
L 245.140364 187.915778 
L 245.292545 175.162698 
L 245.444727 182.601995 
L 245.596909 149.65654 
L 245.749091 182.601995 
L 245.901273 134.777947 
L 246.053455 143.280001 
L 246.205636 112.46006 
L 246.357818 145.405514 
L 246.51 142.217244 
L 246.662182 173.037186 
L 246.814364 123.087626 
L 246.966545 129.464165 
L 247.118727 85.891143 
L 247.270909 139.028974 
L 247.575273 124.150382 
L 247.727455 116.711087 
L 247.879636 132.652435 
L 248.031818 76.326336 
L 248.184 144.342757 
L 248.640545 123.087626 
L 248.792727 134.777947 
L 248.944909 125.213138 
L 249.097091 159.221349 
L 249.249273 101.832493 
L 249.401455 135.840705 
L 249.553636 118.836599 
L 249.705818 158.158593 
L 249.858 128.401408 
L 250.010182 160.284106 
L 250.162364 154.970323 
L 250.314545 145.405514 
L 250.466727 105.020764 
L 250.618909 152.84481 
L 250.771091 83.765631 
L 250.923273 109.271788 
L 251.075455 115.648328 
L 251.227636 142.217244 
L 251.379818 114.585572 
L 251.532 146.46827 
L 251.684182 108.209032 
L 251.836364 160.284106 
L 251.988545 125.213138 
L 252.140727 116.711087 
L 252.292909 122.024867 
L 252.445091 160.284106 
L 252.597273 150.719297 
L 252.749455 186.853022 
L 252.901636 142.217244 
L 253.053818 174.099942 
L 253.206 108.209032 
L 253.510364 117.773843 
L 253.966909 173.037186 
L 254.119091 101.832493 
L 254.271273 184.727507 
L 254.423455 132.652435 
L 254.575636 139.028974 
L 254.727818 130.526921 
L 255.032182 176.225456 
L 255.184364 194.292317 
L 255.336545 136.903462 
L 255.488727 153.907567 
L 255.640909 130.526921 
L 255.793091 174.099942 
L 255.945273 147.531027 
L 256.097455 159.221349 
L 256.249636 124.150382 
L 256.401818 182.601995 
L 256.554 159.221349 
L 256.706182 167.723403 
L 256.858364 143.280001 
L 257.010545 151.782053 
L 257.162727 115.648328 
L 257.619273 179.413725 
L 257.771455 136.903462 
L 257.923636 200.668857 
L 258.075818 165.597889 
L 258.228 181.539239 
L 258.380182 160.284106 
L 258.532364 177.288212 
L 258.684545 140.09173 
L 258.836727 190.04129 
L 258.988909 143.280001 
L 259.141091 175.162698 
L 259.597636 156.03308 
L 259.749818 202.794369 
L 259.902 173.037186 
L 260.054182 197.480589 
L 260.206364 168.786159 
L 260.358545 211.296423 
L 260.510727 142.217244 
L 260.662909 168.786159 
L 260.815091 162.409619 
L 260.967273 164.535132 
L 261.119455 164.535132 
L 261.271636 177.288212 
L 261.423818 153.907567 
L 261.576 216.610207 
L 261.728182 158.158593 
L 261.880364 160.284106 
L 262.032545 156.03308 
L 262.184727 225.112261 
L 262.336909 168.786159 
L 262.489091 184.727507 
L 262.641273 175.162698 
L 262.793455 197.480589 
L 263.097818 159.221349 
L 263.402182 180.476481 
L 263.554364 151.782053 
L 263.706545 203.857128 
L 263.858727 144.342757 
L 264.010909 184.727507 
L 264.163091 153.907567 
L 264.315273 170.911671 
L 264.467455 146.46827 
L 264.619636 167.723403 
L 264.771818 151.782053 
L 264.924 196.417829 
L 265.076182 165.597889 
L 265.228364 179.413725 
L 265.380545 156.03308 
L 265.532727 151.782053 
L 265.684909 144.342757 
L 265.837091 195.355073 
L 265.989273 151.782053 
L 266.141455 186.853022 
L 266.293636 174.099942 
L 266.445818 193.229561 
L 266.598 167.723403 
L 266.750182 184.727507 
L 266.902364 147.531027 
L 267.054545 176.225456 
L 267.206727 142.217244 
L 267.358909 145.405514 
L 267.511091 133.715191 
L 267.663273 183.664751 
L 267.815455 120.962111 
L 268.272 180.476481 
L 268.424182 124.150382 
L 268.576364 157.095836 
L 269.032909 123.087626 
L 269.185091 149.65654 
L 269.337273 108.209032 
L 269.489455 139.028974 
L 269.641636 98.644222 
L 269.793818 137.966217 
L 269.946 100.769737 
L 270.098182 132.652435 
L 270.250364 107.146276 
L 270.402545 130.526921 
L 270.554727 93.330439 
L 270.706909 117.773843 
L 270.859091 110.334544 
L 271.011273 123.087626 
L 271.163455 124.150382 
L 271.315636 149.65654 
L 271.467818 71.012553 
L 271.62 140.09173 
L 271.924364 120.962111 
L 272.076545 128.401408 
L 272.228727 147.531027 
L 272.380909 130.526921 
L 272.533091 162.409619 
L 272.685273 91.204927 
L 272.837455 127.338652 
L 272.989636 101.832493 
L 273.446182 137.966217 
L 273.598364 88.016655 
L 273.750545 137.966217 
L 273.902727 127.338652 
L 274.054909 173.037186 
L 274.207091 124.150382 
L 274.359273 141.154487 
L 274.663636 129.464165 
L 274.815818 107.146276 
L 274.968 151.782053 
L 275.120182 124.150382 
L 275.272364 170.911671 
L 275.424545 148.593784 
L 275.576727 173.037186 
L 275.728909 146.46827 
L 275.881091 156.03308 
L 276.033273 158.158593 
L 276.185455 178.350968 
L 276.337636 148.593784 
L 276.489818 200.668857 
L 276.642 169.848916 
L 276.794182 166.660646 
L 276.946364 157.095836 
L 277.098545 219.798478 
L 277.250727 170.911671 
L 277.402909 193.229561 
L 277.555091 185.790266 
L 277.707273 202.794369 
L 277.859455 156.03308 
L 278.163818 175.162698 
L 278.316 217.672966 
L 278.468182 194.292317 
L 278.620364 209.170911 
L 278.772545 154.970323 
L 278.924727 181.539239 
L 279.076909 171.974428 
L 279.229091 213.421935 
L 279.381273 149.65654 
L 279.533455 160.284106 
L 279.685636 148.593784 
L 279.837818 177.288212 
L 279.99 182.601995 
L 280.142182 205.98264 
L 280.294364 145.405514 
L 280.446545 179.413725 
L 280.598727 149.65654 
L 280.750909 175.162698 
L 280.903091 173.037186 
L 281.055273 222.986743 
L 281.359636 160.284106 
L 281.511818 162.409619 
L 281.664 182.601995 
L 281.816182 153.907567 
L 281.968364 181.539239 
L 282.120545 129.464165 
L 282.272727 174.099942 
L 282.424909 132.652435 
L 282.577091 163.472376 
L 282.729273 147.531027 
L 282.881455 164.535132 
L 283.033636 158.158593 
L 283.185818 180.476481 
L 283.338 154.970323 
L 283.490182 183.664751 
L 283.642364 154.970323 
L 283.794545 163.472376 
L 283.946727 107.146276 
L 284.098909 176.225456 
L 284.251091 168.786159 
L 284.403273 154.970323 
L 284.555455 129.464165 
L 284.707636 150.719297 
L 284.859818 128.401408 
L 285.012 160.284106 
L 285.164182 124.150382 
L 285.316364 140.09173 
L 285.468545 123.087626 
L 285.620727 145.405514 
L 285.772909 99.706981 
L 285.925091 113.522816 
L 286.077273 98.644222 
L 286.229455 156.03308 
L 286.381636 118.836599 
L 286.533818 131.589677 
L 286.686 117.773843 
L 286.838182 143.280001 
L 286.990364 94.393198 
L 287.142545 127.338652 
L 287.294727 115.648328 
L 287.446909 136.903462 
L 287.599091 115.648328 
L 287.751273 139.028974 
L 287.903455 109.271788 
L 288.055636 140.09173 
L 288.207818 139.028974 
L 288.36 158.158593 
L 288.512182 106.08352 
L 288.664364 143.280001 
L 288.816545 102.895249 
L 288.968727 149.65654 
L 289.120909 131.589677 
L 289.273091 147.531027 
L 289.425273 124.150382 
L 289.577455 129.464165 
L 289.729636 126.275894 
L 289.881818 157.095836 
L 290.034 129.464165 
L 290.186182 150.719297 
L 290.338364 125.213138 
L 290.490545 149.65654 
L 290.642727 124.150382 
L 290.794909 152.84481 
L 290.947091 107.146276 
L 291.099273 150.719297 
L 291.251455 128.401408 
L 291.403636 159.221349 
L 291.555818 132.652435 
L 291.860182 159.221349 
L 292.012364 156.03308 
L 292.164545 124.150382 
L 292.316727 180.476481 
L 292.468909 174.099942 
L 292.621091 178.350968 
L 292.773273 159.221349 
L 292.925455 187.915778 
L 293.077636 137.966217 
L 293.229818 187.915778 
L 293.382 136.903462 
L 293.534182 161.346863 
L 293.686364 162.409619 
L 293.838545 167.723403 
L 293.990727 129.464165 
L 294.142909 192.166805 
L 294.295091 156.03308 
L 294.447273 179.413725 
L 294.599455 158.158593 
L 294.751636 186.853022 
L 294.903818 173.037186 
L 295.056 198.543345 
L 295.208182 168.786159 
L 295.360364 170.911671 
L 295.512545 159.221349 
L 295.664727 177.288212 
L 295.816909 135.840705 
L 295.969091 158.158593 
L 296.121273 127.338652 
L 296.577818 191.104046 
L 296.73 137.966217 
L 296.882182 179.413725 
L 297.034364 136.903462 
L 297.186545 153.907567 
L 297.338727 131.589677 
L 297.643091 156.03308 
L 297.795273 184.727507 
L 297.947455 113.522816 
L 298.099636 164.535132 
L 298.251818 166.660646 
L 298.404 190.04129 
L 298.556182 156.03308 
L 298.708364 177.288212 
L 298.860545 150.719297 
L 299.012727 187.915778 
L 299.164909 164.535132 
L 299.317091 190.04129 
L 299.621455 163.472376 
L 299.773636 131.589677 
L 299.925818 216.610207 
L 300.078 136.903462 
L 300.230182 177.288212 
L 300.382364 185.790266 
L 300.686727 166.660646 
L 300.838909 176.225456 
L 300.991091 152.84481 
L 301.143273 171.974428 
L 301.295455 156.03308 
L 301.447636 190.04129 
L 301.599818 140.09173 
L 301.752 157.095836 
L 301.904182 137.966217 
L 302.056364 196.417829 
L 302.208545 135.840705 
L 302.512909 176.225456 
L 302.665091 174.099942 
L 302.817273 130.526921 
L 302.969455 160.284106 
L 303.121636 144.342757 
L 303.273818 161.346863 
L 303.426 127.338652 
L 303.578182 163.472376 
L 303.730364 143.280001 
L 303.882545 167.723403 
L 304.034727 112.46006 
L 304.186909 163.472376 
L 304.339091 131.589677 
L 304.491273 178.350968 
L 304.643455 175.162698 
L 304.947818 128.401408 
L 305.1 154.970323 
L 305.252182 128.401408 
L 305.404364 187.915778 
L 305.556545 149.65654 
L 305.708727 152.84481 
L 305.860909 133.715191 
L 306.013091 154.970323 
L 306.165273 134.777947 
L 306.317455 162.409619 
L 306.469636 134.777947 
L 306.621818 166.660646 
L 306.774 149.65654 
L 306.926182 191.104046 
L 307.078364 161.346863 
L 307.230545 178.350968 
L 307.382727 132.652435 
L 307.534909 130.526921 
L 307.839273 205.98264 
L 307.991455 145.405514 
L 308.143636 210.233664 
L 308.295818 165.597889 
L 308.448 193.229561 
L 308.600182 192.166805 
L 308.904545 178.350968 
L 309.056727 195.355073 
L 309.208909 154.970323 
L 309.361091 210.233664 
L 309.513273 154.970323 
L 309.665455 146.46827 
L 309.969818 196.417829 
L 310.122 157.095836 
L 310.274182 191.104046 
L 310.426364 136.903462 
L 310.578545 184.727507 
L 310.730727 159.221349 
L 310.882909 201.731613 
L 311.035091 154.970323 
L 311.339455 182.601995 
L 311.491636 166.660646 
L 311.796 181.539239 
L 311.948182 153.907567 
L 312.100364 201.731613 
L 312.252545 167.723403 
L 312.404727 169.848916 
L 312.556909 108.209032 
L 312.709091 185.790266 
L 312.861273 165.597889 
L 313.013455 177.288212 
L 313.165636 170.911671 
L 313.317818 204.919884 
L 313.47 159.221349 
L 313.622182 156.03308 
L 313.774364 149.65654 
L 313.926545 169.848916 
L 314.078727 145.405514 
L 314.230909 179.413725 
L 314.383091 118.836599 
L 314.535273 134.777947 
L 314.687455 131.589677 
L 314.839636 184.727507 
L 314.991818 126.275894 
L 315.144 133.715191 
L 315.448364 159.221349 
L 315.600545 140.09173 
L 315.752727 166.660646 
L 315.904909 122.024867 
L 316.057091 142.217244 
L 316.209273 117.773843 
L 316.361455 165.597889 
L 316.513636 133.715191 
L 316.665818 129.464165 
L 316.818 80.57736 
L 316.970182 128.401408 
L 317.122364 81.640119 
L 317.426727 119.899355 
L 317.578909 127.338652 
L 317.731091 101.832493 
L 317.883273 136.903462 
L 318.035455 84.828391 
L 318.187636 128.401408 
L 318.339818 90.142167 
L 318.492 102.895249 
L 318.644182 105.020764 
L 318.796364 102.895249 
L 318.948545 103.958005 
L 319.100727 122.024867 
L 319.252909 71.012553 
L 319.405091 119.899355 
L 319.557273 62.510498 
L 319.709455 126.275894 
L 319.861636 92.267686 
L 320.013818 118.836599 
L 320.166 105.020764 
L 320.318182 107.146276 
L 320.622545 154.970323 
L 320.774727 115.648328 
L 320.926909 153.907567 
L 321.079091 106.08352 
L 321.231273 164.535132 
L 321.383455 122.024867 
L 321.535636 134.777947 
L 321.687818 128.401408 
L 321.84 127.338652 
L 321.992182 118.836599 
L 322.144364 176.225456 
L 322.296545 107.146276 
L 322.448727 160.284106 
L 322.753091 143.280001 
L 322.905273 148.593784 
L 323.057455 182.601995 
L 323.209636 152.84481 
L 323.361818 190.04129 
L 323.514 163.472376 
L 323.666182 178.350968 
L 323.818364 152.84481 
L 323.970545 196.417829 
L 324.122727 181.539239 
L 324.274909 180.476481 
L 324.427091 168.786159 
L 324.579273 214.484695 
L 324.731455 159.221349 
L 324.883636 217.672966 
L 325.035818 182.601995 
L 325.188 201.731613 
L 325.492364 171.974428 
L 325.644545 174.099942 
L 325.796727 195.355073 
L 325.948909 150.719297 
L 326.101091 202.794369 
L 326.253273 175.162698 
L 326.405455 196.417829 
L 326.557636 163.472376 
L 326.862 204.919884 
L 327.014182 221.92399 
L 327.166364 166.660646 
L 327.318545 201.731613 
L 327.470727 175.162698 
L 327.775091 196.417829 
L 327.927273 192.166805 
L 328.079455 140.09173 
L 328.231636 214.484695 
L 328.383818 182.601995 
L 328.536 184.727507 
L 328.688182 135.840705 
L 328.992545 181.539239 
L 329.144727 191.104046 
L 329.296909 159.221349 
L 329.449091 208.108152 
L 329.601273 210.233664 
L 329.753455 207.045396 
L 329.905636 171.974428 
L 330.057818 224.049502 
L 330.21 140.09173 
L 330.362182 173.037186 
L 330.514364 164.535132 
L 330.666545 187.915778 
L 330.818727 180.476481 
L 330.970909 198.543345 
L 331.123091 134.777947 
L 331.275273 157.095836 
L 331.427455 127.338652 
L 331.579636 151.782053 
L 331.731818 122.024867 
L 332.188364 165.597889 
L 332.340545 92.267686 
L 332.492727 150.719297 
L 332.644909 118.836599 
L 332.797091 132.652435 
L 332.949273 97.581469 
L 333.101455 118.836599 
L 333.253636 116.711087 
L 333.405818 153.907567 
L 333.558 86.953903 
L 333.710182 81.640119 
L 334.014545 130.526921 
L 334.166727 90.142167 
L 334.318909 136.903462 
L 334.471091 69.949793 
L 334.623273 144.342757 
L 334.775455 88.016655 
L 334.927636 84.828391 
L 335.536364 154.970323 
L 335.688545 56.133962 
L 335.840727 96.51871 
L 335.992909 89.079415 
L 336.145091 126.275894 
L 336.297273 109.271788 
L 336.449455 125.213138 
L 336.601636 117.773843 
L 336.753818 116.711087 
L 336.906 84.828391 
L 337.058182 158.158593 
L 337.210364 81.640119 
L 337.362545 105.020764 
L 337.514727 110.334544 
L 337.666909 131.589677 
L 337.819091 108.209032 
L 337.971273 145.405514 
L 338.123455 106.08352 
L 338.275636 151.782053 
L 338.58 112.46006 
L 338.732182 109.271788 
L 338.884364 153.907567 
L 339.036545 131.589677 
L 339.188727 134.777947 
L 339.340909 112.46006 
L 339.493091 164.535132 
L 339.645273 123.087626 
L 339.797455 145.405514 
L 339.949636 127.338652 
L 340.101818 160.284106 
L 340.254 125.213138 
L 340.406182 183.664751 
L 340.558364 147.531027 
L 340.710545 157.095836 
L 341.167091 122.024867 
L 341.319273 159.221349 
L 341.471455 125.213138 
L 341.623636 165.597889 
L 341.775818 134.777947 
L 342.080182 165.597889 
L 342.232364 207.045396 
L 342.384545 117.773843 
L 342.536727 150.719297 
L 342.688909 146.46827 
L 342.841091 175.162698 
L 342.993273 173.037186 
L 343.145455 204.919884 
L 343.297636 169.848916 
L 343.449818 197.480589 
L 343.602 156.03308 
L 343.754182 187.915778 
L 343.906364 167.723403 
L 344.058545 188.978534 
L 344.362909 170.911671 
L 344.515091 154.970323 
L 344.667273 192.166805 
L 344.819455 166.660646 
L 344.971636 216.610207 
L 345.123818 181.539239 
L 345.276 195.355073 
L 345.428182 174.099942 
L 345.580364 208.108152 
L 345.732545 188.978534 
L 345.884727 199.606101 
L 346.036909 168.786159 
L 346.189091 212.359183 
L 346.341273 194.292317 
L 346.493455 215.547447 
L 346.645636 212.359183 
L 346.797818 227.237773 
L 346.95 182.601995 
L 347.102182 232.551556 
L 347.254364 188.978534 
L 347.406545 219.798478 
L 347.558727 179.413725 
L 347.710909 208.108152 
L 348.015273 177.288212 
L 348.167455 180.476481 
L 348.319636 213.421935 
L 348.471818 160.284106 
L 348.624 194.292317 
L 348.776182 198.543345 
L 348.928364 182.601995 
L 349.080545 137.966217 
L 349.232727 188.978534 
L 349.384909 153.907567 
L 349.537091 197.480589 
L 349.689273 158.158593 
L 349.841455 194.292317 
L 349.993636 154.970323 
L 350.145818 163.472376 
L 350.298 147.531027 
L 350.450182 179.413725 
L 350.602364 144.342757 
L 350.754545 152.84481 
L 350.906727 143.280001 
L 351.058909 147.531027 
L 351.211091 137.966217 
L 351.363273 160.284106 
L 351.515455 97.581469 
L 351.667636 158.158593 
L 351.819818 143.280001 
L 351.972 168.786159 
L 352.124182 140.09173 
L 352.276364 160.284106 
L 352.428545 128.401408 
L 352.580727 157.095836 
L 352.732909 131.589677 
L 352.885091 161.346863 
L 353.341636 97.581469 
L 353.493818 147.531027 
L 353.646 130.526921 
L 353.798182 129.464165 
L 353.950364 99.706981 
L 354.102545 160.284106 
L 354.254727 135.840705 
L 354.406909 158.158593 
L 354.559091 117.773843 
L 354.711273 132.652435 
L 354.863455 135.840705 
L 355.015636 146.46827 
L 355.167818 116.711087 
L 355.32 167.723403 
L 355.472182 144.342757 
L 355.624364 152.84481 
L 355.776545 112.46006 
L 355.928727 110.334544 
L 356.080909 100.769737 
L 356.233091 144.342757 
L 356.385273 106.08352 
L 356.537455 141.154487 
L 356.689636 83.765631 
L 356.841818 133.715191 
L 356.994 102.895249 
L 357.298364 140.09173 
L 357.602727 115.648328 
L 357.754909 156.03308 
L 357.907091 107.146276 
L 358.059273 144.342757 
L 358.211455 136.903462 
L 358.363636 156.03308 
L 358.515818 134.777947 
L 358.668 147.531027 
L 358.820182 95.455951 
L 358.972364 149.65654 
L 359.124545 140.09173 
L 359.276727 162.409619 
L 359.428909 130.526921 
L 359.581091 170.911671 
L 359.885455 126.275894 
L 360.037636 124.150382 
L 360.189818 158.158593 
L 360.342 162.409619 
L 360.494182 182.601995 
L 360.646364 125.213138 
L 360.798545 187.915778 
L 360.950727 167.723403 
L 361.102909 176.225456 
L 361.255091 137.966217 
L 361.407273 175.162698 
L 361.711636 164.535132 
L 361.863818 168.786159 
L 362.016 183.664751 
L 362.168182 132.652435 
L 362.320364 199.606101 
L 362.472545 152.84481 
L 362.624727 192.166805 
L 362.776909 136.903462 
L 362.929091 200.668857 
L 363.081273 185.790266 
L 363.233455 157.095836 
L 363.385636 190.04129 
L 363.537818 193.229561 
L 363.69 170.911671 
L 363.842182 215.547447 
L 363.994364 169.848916 
L 364.146545 200.668857 
L 364.298727 152.84481 
L 364.450909 192.166805 
L 364.755273 183.664751 
L 364.907455 134.777947 
L 365.059636 194.292317 
L 365.364 168.786159 
L 365.516182 125.213138 
L 365.668364 195.355073 
L 365.820545 164.535132 
L 365.972727 167.723403 
L 366.124909 148.593784 
L 366.277091 177.288212 
L 366.429273 165.597889 
L 366.581455 175.162698 
L 366.733636 145.405514 
L 366.885818 175.162698 
L 367.038 154.970323 
L 367.190182 179.413725 
L 367.342364 127.338652 
L 367.494545 154.970323 
L 367.646727 146.46827 
L 367.798909 161.346863 
L 367.951091 133.715191 
L 368.103273 163.472376 
L 368.255455 132.652435 
L 368.407636 158.158593 
L 368.559818 115.648328 
L 368.712 154.970323 
L 368.864182 135.840705 
L 369.016364 164.535132 
L 369.168545 124.150382 
L 369.472909 147.531027 
L 369.777273 107.146276 
L 369.929455 182.601995 
L 370.081636 115.648328 
L 370.233818 131.589677 
L 370.386 132.652435 
L 370.538182 166.660646 
L 370.690364 150.719297 
L 370.842545 161.346863 
L 370.994727 126.275894 
L 371.146909 166.660646 
L 371.299091 132.652435 
L 371.451273 150.719297 
L 371.603455 129.464165 
L 371.755636 151.782053 
L 371.907818 156.03308 
L 372.06 195.355073 
L 372.212182 133.715191 
L 372.364364 157.095836 
L 372.516545 112.46006 
L 372.668727 145.405514 
L 372.820909 145.405514 
L 372.973091 146.46827 
L 373.125273 128.401408 
L 373.277455 169.848916 
L 373.429636 132.652435 
L 373.581818 171.974428 
L 373.581818 171.974428 
" style="fill:none;stroke:#1f77b4;stroke-linecap:square;stroke-width:1.5;"/>
   </g>
   <g id="patch_3">
    <path d="M 54 252 
L 54 34.56 
" style="fill:none;stroke:#000000;stroke-linecap:square;stroke-linejoin:miter;stroke-width:0.8;"/>
   </g>
   <g id="patch_4">
    <path d="M 388.8 252 
L 388.8 34.56 
" style="fill:none;stroke:#000000;stroke-linecap:square;stroke-linejoin:miter;stroke-width:0.8;"/>
   </g>
   <g id="patch_5">
    <path d="M 54 252 
L 388.8 252 
" style="fill:none;stroke:#000000;stroke-linecap:square;stroke-linejoin:miter;stroke-width:0.8;"/>
   </g>
   <g id="patch_6">
    <path d="M 54 34.56 
L 388.8 34.56 
" style="fill:none;stroke:#000000;stroke-linecap:square;stroke-linejoin:miter;stroke-width:0.8;"/>
   </g>
  </g>
 </g>
 <defs>
  <clipPath id="p8b6ce7e740">
   <rect height="217.44" width="334.8" x="54" y="34.56"/>
  </clipPath>
 </defs>
</svg>
