<?xml version="1.0" encoding="utf-8" standalone="no"?>
<!DOCTYPE svg PUBLIC "-//W3C//DTD SVG 1.1//EN"
  "http://www.w3.org/Graphics/SVG/1.1/DTD/svg11.dtd">
<svg height="288pt" version="1.1" viewBox="0 0 432 288" width="432pt" xmlns="http://www.w3.org/2000/svg" xmlns:xlink="http://www.w3.org/1999/xlink">
 <metadata>
  <rdf:RDF xmlns:cc="http://creativecommons.org/ns#" xmlns:dc="http://purl.org/dc/elements/1.1/" xmlns:rdf="http://www.w3.org/1999/02/22-rdf-syntax-ns#">
   <cc:Work>
    <dc:type rdf:resource="http://purl.org/dc/dcmitype/StillImage"/>
    <dc:date>2022-04-22T21:35:34.538861</dc:date>
    <dc:format>image/svg+xml</dc:format>
    <dc:creator>
     <cc:Agent>
      <dc:title>Matplotlib v3.4.3, https://matplotlib.org/</dc:title>
     </cc:Agent>
    </dc:creator>
   </cc:Work>
  </rdf:RDF>
 </metadata>
 <defs>
  <style type="text/css">*{stroke-linecap:butt;stroke-linejoin:round;}</style>
 </defs>
 <g id="figure_1">
  <g id="patch_1">
   <path d="M 0 288 
L 432 288 
L 432 0 
L 0 0 
z
" style="fill:none;"/>
  </g>
  <g id="axes_1">
   <g id="patch_2">
    <path d="M 54 252 
L 388.8 252 
L 388.8 34.56 
L 54 34.56 
z
" style="fill:#ffffff;"/>
   </g>
   <g id="matplotlib.axis_1">
    <g id="xtick_1">
     <g id="line2d_1">
      <defs>
       <path d="M 0 0 
L 0 3.5 
" id="m56b2f61365" style="stroke:#000000;stroke-width:0.8;"/>
      </defs>
      <g>
       <use style="stroke:#000000;stroke-width:0.8;" x="69.218182" xlink:href="#m56b2f61365" y="252"/>
      </g>
     </g>
     <g id="text_1">
      <!-- 0 -->
      <g transform="translate(66.036932 266.598437)scale(0.1 -0.1)">
       <defs>
        <path d="M 2034 4250 
Q 1547 4250 1301 3770 
Q 1056 3291 1056 2328 
Q 1056 1369 1301 889 
Q 1547 409 2034 409 
Q 2525 409 2770 889 
Q 3016 1369 3016 2328 
Q 3016 3291 2770 3770 
Q 2525 4250 2034 4250 
z
M 2034 4750 
Q 2819 4750 3233 4129 
Q 3647 3509 3647 2328 
Q 3647 1150 3233 529 
Q 2819 -91 2034 -91 
Q 1250 -91 836 529 
Q 422 1150 422 2328 
Q 422 3509 836 4129 
Q 1250 4750 2034 4750 
z
" id="DejaVuSans-30" transform="scale(0.015625)"/>
       </defs>
       <use xlink:href="#DejaVuSans-30"/>
      </g>
     </g>
    </g>
    <g id="xtick_2">
     <g id="line2d_2">
      <g>
       <use style="stroke:#000000;stroke-width:0.8;" x="107.263636" xlink:href="#m56b2f61365" y="252"/>
      </g>
     </g>
     <g id="text_2">
      <!-- 250 -->
      <g transform="translate(97.719886 266.598437)scale(0.1 -0.1)">
       <defs>
        <path d="M 1228 531 
L 3431 531 
L 3431 0 
L 469 0 
L 469 531 
Q 828 903 1448 1529 
Q 2069 2156 2228 2338 
Q 2531 2678 2651 2914 
Q 2772 3150 2772 3378 
Q 2772 3750 2511 3984 
Q 2250 4219 1831 4219 
Q 1534 4219 1204 4116 
Q 875 4013 500 3803 
L 500 4441 
Q 881 4594 1212 4672 
Q 1544 4750 1819 4750 
Q 2544 4750 2975 4387 
Q 3406 4025 3406 3419 
Q 3406 3131 3298 2873 
Q 3191 2616 2906 2266 
Q 2828 2175 2409 1742 
Q 1991 1309 1228 531 
z
" id="DejaVuSans-32" transform="scale(0.015625)"/>
        <path d="M 691 4666 
L 3169 4666 
L 3169 4134 
L 1269 4134 
L 1269 2991 
Q 1406 3038 1543 3061 
Q 1681 3084 1819 3084 
Q 2600 3084 3056 2656 
Q 3513 2228 3513 1497 
Q 3513 744 3044 326 
Q 2575 -91 1722 -91 
Q 1428 -91 1123 -41 
Q 819 9 494 109 
L 494 744 
Q 775 591 1075 516 
Q 1375 441 1709 441 
Q 2250 441 2565 725 
Q 2881 1009 2881 1497 
Q 2881 1984 2565 2268 
Q 2250 2553 1709 2553 
Q 1456 2553 1204 2497 
Q 953 2441 691 2322 
L 691 4666 
z
" id="DejaVuSans-35" transform="scale(0.015625)"/>
       </defs>
       <use xlink:href="#DejaVuSans-32"/>
       <use x="63.623047" xlink:href="#DejaVuSans-35"/>
       <use x="127.246094" xlink:href="#DejaVuSans-30"/>
      </g>
     </g>
    </g>
    <g id="xtick_3">
     <g id="line2d_3">
      <g>
       <use style="stroke:#000000;stroke-width:0.8;" x="145.309091" xlink:href="#m56b2f61365" y="252"/>
      </g>
     </g>
     <g id="text_3">
      <!-- 500 -->
      <g transform="translate(135.765341 266.598437)scale(0.1 -0.1)">
       <use xlink:href="#DejaVuSans-35"/>
       <use x="63.623047" xlink:href="#DejaVuSans-30"/>
       <use x="127.246094" xlink:href="#DejaVuSans-30"/>
      </g>
     </g>
    </g>
    <g id="xtick_4">
     <g id="line2d_4">
      <g>
       <use style="stroke:#000000;stroke-width:0.8;" x="183.354545" xlink:href="#m56b2f61365" y="252"/>
      </g>
     </g>
     <g id="text_4">
      <!-- 750 -->
      <g transform="translate(173.810795 266.598437)scale(0.1 -0.1)">
       <defs>
        <path d="M 525 4666 
L 3525 4666 
L 3525 4397 
L 1831 0 
L 1172 0 
L 2766 4134 
L 525 4134 
L 525 4666 
z
" id="DejaVuSans-37" transform="scale(0.015625)"/>
       </defs>
       <use xlink:href="#DejaVuSans-37"/>
       <use x="63.623047" xlink:href="#DejaVuSans-35"/>
       <use x="127.246094" xlink:href="#DejaVuSans-30"/>
      </g>
     </g>
    </g>
    <g id="xtick_5">
     <g id="line2d_5">
      <g>
       <use style="stroke:#000000;stroke-width:0.8;" x="221.4" xlink:href="#m56b2f61365" y="252"/>
      </g>
     </g>
     <g id="text_5">
      <!-- 1000 -->
      <g transform="translate(208.675 266.598437)scale(0.1 -0.1)">
       <defs>
        <path d="M 794 531 
L 1825 531 
L 1825 4091 
L 703 3866 
L 703 4441 
L 1819 4666 
L 2450 4666 
L 2450 531 
L 3481 531 
L 3481 0 
L 794 0 
L 794 531 
z
" id="DejaVuSans-31" transform="scale(0.015625)"/>
       </defs>
       <use xlink:href="#DejaVuSans-31"/>
       <use x="63.623047" xlink:href="#DejaVuSans-30"/>
       <use x="127.246094" xlink:href="#DejaVuSans-30"/>
       <use x="190.869141" xlink:href="#DejaVuSans-30"/>
      </g>
     </g>
    </g>
    <g id="xtick_6">
     <g id="line2d_6">
      <g>
       <use style="stroke:#000000;stroke-width:0.8;" x="259.445455" xlink:href="#m56b2f61365" y="252"/>
      </g>
     </g>
     <g id="text_6">
      <!-- 1250 -->
      <g transform="translate(246.720455 266.598437)scale(0.1 -0.1)">
       <use xlink:href="#DejaVuSans-31"/>
       <use x="63.623047" xlink:href="#DejaVuSans-32"/>
       <use x="127.246094" xlink:href="#DejaVuSans-35"/>
       <use x="190.869141" xlink:href="#DejaVuSans-30"/>
      </g>
     </g>
    </g>
    <g id="xtick_7">
     <g id="line2d_7">
      <g>
       <use style="stroke:#000000;stroke-width:0.8;" x="297.490909" xlink:href="#m56b2f61365" y="252"/>
      </g>
     </g>
     <g id="text_7">
      <!-- 1500 -->
      <g transform="translate(284.765909 266.598437)scale(0.1 -0.1)">
       <use xlink:href="#DejaVuSans-31"/>
       <use x="63.623047" xlink:href="#DejaVuSans-35"/>
       <use x="127.246094" xlink:href="#DejaVuSans-30"/>
       <use x="190.869141" xlink:href="#DejaVuSans-30"/>
      </g>
     </g>
    </g>
    <g id="xtick_8">
     <g id="line2d_8">
      <g>
       <use style="stroke:#000000;stroke-width:0.8;" x="335.536364" xlink:href="#m56b2f61365" y="252"/>
      </g>
     </g>
     <g id="text_8">
      <!-- 1750 -->
      <g transform="translate(322.811364 266.598437)scale(0.1 -0.1)">
       <use xlink:href="#DejaVuSans-31"/>
       <use x="63.623047" xlink:href="#DejaVuSans-37"/>
       <use x="127.246094" xlink:href="#DejaVuSans-35"/>
       <use x="190.869141" xlink:href="#DejaVuSans-30"/>
      </g>
     </g>
    </g>
    <g id="xtick_9">
     <g id="line2d_9">
      <g>
       <use style="stroke:#000000;stroke-width:0.8;" x="373.581818" xlink:href="#m56b2f61365" y="252"/>
      </g>
     </g>
     <g id="text_9">
      <!-- 2000 -->
      <g transform="translate(360.856818 266.598437)scale(0.1 -0.1)">
       <use xlink:href="#DejaVuSans-32"/>
       <use x="63.623047" xlink:href="#DejaVuSans-30"/>
       <use x="127.246094" xlink:href="#DejaVuSans-30"/>
       <use x="190.869141" xlink:href="#DejaVuSans-30"/>
      </g>
     </g>
    </g>
   </g>
   <g id="matplotlib.axis_2">
    <g id="ytick_1">
     <g id="line2d_10">
      <defs>
       <path d="M 0 0 
L -3.5 0 
" id="ma735e5d514" style="stroke:#000000;stroke-width:0.8;"/>
      </defs>
      <g>
       <use style="stroke:#000000;stroke-width:0.8;" x="54" xlink:href="#ma735e5d514" y="230.287545"/>
      </g>
     </g>
     <g id="text_10">
      <!-- −0.75 -->
      <g transform="translate(16.354687 234.086764)scale(0.1 -0.1)">
       <defs>
        <path d="M 678 2272 
L 4684 2272 
L 4684 1741 
L 678 1741 
L 678 2272 
z
" id="DejaVuSans-2212" transform="scale(0.015625)"/>
        <path d="M 684 794 
L 1344 794 
L 1344 0 
L 684 0 
L 684 794 
z
" id="DejaVuSans-2e" transform="scale(0.015625)"/>
       </defs>
       <use xlink:href="#DejaVuSans-2212"/>
       <use x="83.789062" xlink:href="#DejaVuSans-30"/>
       <use x="147.412109" xlink:href="#DejaVuSans-2e"/>
       <use x="179.199219" xlink:href="#DejaVuSans-37"/>
       <use x="242.822266" xlink:href="#DejaVuSans-35"/>
      </g>
     </g>
    </g>
    <g id="ytick_2">
     <g id="line2d_11">
      <g>
       <use style="stroke:#000000;stroke-width:0.8;" x="54" xlink:href="#ma735e5d514" y="203.738415"/>
      </g>
     </g>
     <g id="text_11">
      <!-- −0.50 -->
      <g transform="translate(16.354687 207.537634)scale(0.1 -0.1)">
       <use xlink:href="#DejaVuSans-2212"/>
       <use x="83.789062" xlink:href="#DejaVuSans-30"/>
       <use x="147.412109" xlink:href="#DejaVuSans-2e"/>
       <use x="179.199219" xlink:href="#DejaVuSans-35"/>
       <use x="242.822266" xlink:href="#DejaVuSans-30"/>
      </g>
     </g>
    </g>
    <g id="ytick_3">
     <g id="line2d_12">
      <g>
       <use style="stroke:#000000;stroke-width:0.8;" x="54" xlink:href="#ma735e5d514" y="177.189286"/>
      </g>
     </g>
     <g id="text_12">
      <!-- −0.25 -->
      <g transform="translate(16.354687 180.988504)scale(0.1 -0.1)">
       <use xlink:href="#DejaVuSans-2212"/>
       <use x="83.789062" xlink:href="#DejaVuSans-30"/>
       <use x="147.412109" xlink:href="#DejaVuSans-2e"/>
       <use x="179.199219" xlink:href="#DejaVuSans-32"/>
       <use x="242.822266" xlink:href="#DejaVuSans-35"/>
      </g>
     </g>
    </g>
    <g id="ytick_4">
     <g id="line2d_13">
      <g>
       <use style="stroke:#000000;stroke-width:0.8;" x="54" xlink:href="#ma735e5d514" y="150.640156"/>
      </g>
     </g>
     <g id="text_13">
      <!-- 0.00 -->
      <g transform="translate(24.734375 154.439375)scale(0.1 -0.1)">
       <use xlink:href="#DejaVuSans-30"/>
       <use x="63.623047" xlink:href="#DejaVuSans-2e"/>
       <use x="95.410156" xlink:href="#DejaVuSans-30"/>
       <use x="159.033203" xlink:href="#DejaVuSans-30"/>
      </g>
     </g>
    </g>
    <g id="ytick_5">
     <g id="line2d_14">
      <g>
       <use style="stroke:#000000;stroke-width:0.8;" x="54" xlink:href="#ma735e5d514" y="124.091026"/>
      </g>
     </g>
     <g id="text_14">
      <!-- 0.25 -->
      <g transform="translate(24.734375 127.890245)scale(0.1 -0.1)">
       <use xlink:href="#DejaVuSans-30"/>
       <use x="63.623047" xlink:href="#DejaVuSans-2e"/>
       <use x="95.410156" xlink:href="#DejaVuSans-32"/>
       <use x="159.033203" xlink:href="#DejaVuSans-35"/>
      </g>
     </g>
    </g>
    <g id="ytick_6">
     <g id="line2d_15">
      <g>
       <use style="stroke:#000000;stroke-width:0.8;" x="54" xlink:href="#ma735e5d514" y="97.541896"/>
      </g>
     </g>
     <g id="text_15">
      <!-- 0.50 -->
      <g transform="translate(24.734375 101.341115)scale(0.1 -0.1)">
       <use xlink:href="#DejaVuSans-30"/>
       <use x="63.623047" xlink:href="#DejaVuSans-2e"/>
       <use x="95.410156" xlink:href="#DejaVuSans-35"/>
       <use x="159.033203" xlink:href="#DejaVuSans-30"/>
      </g>
     </g>
    </g>
    <g id="ytick_7">
     <g id="line2d_16">
      <g>
       <use style="stroke:#000000;stroke-width:0.8;" x="54" xlink:href="#ma735e5d514" y="70.992766"/>
      </g>
     </g>
     <g id="text_16">
      <!-- 0.75 -->
      <g transform="translate(24.734375 74.791985)scale(0.1 -0.1)">
       <use xlink:href="#DejaVuSans-30"/>
       <use x="63.623047" xlink:href="#DejaVuSans-2e"/>
       <use x="95.410156" xlink:href="#DejaVuSans-37"/>
       <use x="159.033203" xlink:href="#DejaVuSans-35"/>
      </g>
     </g>
    </g>
    <g id="ytick_8">
     <g id="line2d_17">
      <g>
       <use style="stroke:#000000;stroke-width:0.8;" x="54" xlink:href="#ma735e5d514" y="44.443636"/>
      </g>
     </g>
     <g id="text_17">
      <!-- 1.00 -->
      <g transform="translate(24.734375 48.242855)scale(0.1 -0.1)">
       <use xlink:href="#DejaVuSans-31"/>
       <use x="63.623047" xlink:href="#DejaVuSans-2e"/>
       <use x="95.410156" xlink:href="#DejaVuSans-30"/>
       <use x="159.033203" xlink:href="#DejaVuSans-30"/>
      </g>
     </g>
    </g>
   </g>
   <g id="line2d_18">
    <path clip-path="url(#p065d78ed34)" d="M 69.218182 158.000311 
L 69.370364 135.919846 
L 69.522545 144.331452 
L 69.674727 187.440928 
L 69.826909 188.492382 
L 70.131273 154.845958 
L 70.283455 183.235127 
L 70.435636 161.154663 
L 70.74 211.624296 
L 71.196545 164.309015 
L 71.348727 179.029325 
L 71.500909 181.132226 
L 71.805273 242.116364 
L 71.957455 193.749634 
L 72.109636 181.132226 
L 72.261818 191.646733 
L 72.414 193.749634 
L 72.566182 189.543832 
L 72.718364 218.984449 
L 73.022727 190.595283 
L 73.174909 208.469945 
L 73.327091 205.315594 
L 73.479273 210.572846 
L 73.631455 210.572846 
L 73.783636 184.286577 
L 73.935818 180.080776 
L 74.088 163.257564 
L 74.240182 203.21269 
L 74.392364 210.572846 
L 74.544545 189.543832 
L 74.696727 187.440928 
L 75.001091 195.852535 
L 75.153273 195.852535 
L 75.305455 208.469945 
L 75.609818 149.588705 
L 75.762 188.492382 
L 75.914182 179.029325 
L 76.066364 184.286577 
L 76.218545 180.080776 
L 76.675091 125.405339 
L 76.827273 129.611142 
L 76.979455 140.125649 
L 77.131636 114.890834 
L 77.283818 134.868395 
L 77.436 127.508241 
L 77.588182 112.78793 
L 77.740364 147.485804 
L 77.892545 121.199536 
L 78.044727 116.993734 
L 78.196909 118.045185 
L 78.349091 98.067621 
L 78.501273 131.714043 
L 78.653455 64.4212 
L 78.805636 52.855239 
L 78.957818 72.832803 
L 79.262182 78.090061 
L 79.414364 44.443636 
L 79.718727 114.890834 
L 79.870909 77.038611 
L 80.175273 101.221972 
L 80.327455 50.752339 
L 80.479636 65.47265 
L 80.631818 95.964717 
L 80.784 64.4212 
L 80.936182 79.141511 
L 81.088364 80.192962 
L 81.240545 70.729902 
L 81.697091 94.913267 
L 81.849273 73.884253 
L 82.001455 74.935704 
L 82.153636 102.273423 
L 82.305818 99.119072 
L 82.458 88.604565 
L 82.610182 68.627001 
L 82.762364 90.707465 
L 82.914545 92.810366 
L 83.066727 92.810366 
L 83.218909 113.839383 
L 83.371091 111.736479 
L 83.523273 89.656015 
L 83.827636 118.045185 
L 83.979818 120.148085 
L 84.132 126.456789 
L 84.284182 120.148085 
L 84.436364 131.714043 
L 84.588545 152.743057 
L 84.740727 125.405339 
L 84.892909 139.074199 
L 85.197273 126.456789 
L 85.349455 158.000311 
L 85.501636 156.94886 
L 85.653818 149.588705 
L 85.958182 163.257564 
L 86.110364 194.801084 
L 86.262545 186.389478 
L 86.566909 194.801084 
L 86.719091 191.646733 
L 86.871273 207.418495 
L 87.023455 166.411916 
L 87.175636 169.566269 
L 87.327818 208.469945 
L 87.48 186.389478 
L 87.632182 195.852535 
L 87.784364 220.035899 
L 87.936545 223.190251 
L 88.088727 179.029325 
L 88.240909 194.801084 
L 88.393091 230.55041 
L 88.545273 228.447509 
L 88.697455 213.727197 
L 88.849636 235.807661 
L 89.306182 170.617719 
L 89.458364 166.411916 
L 89.610545 193.749634 
L 89.762727 192.698183 
L 89.914909 196.903985 
L 90.067091 204.264144 
L 90.219273 168.514817 
L 90.371455 169.566269 
L 90.523636 188.492382 
L 90.675818 175.874973 
L 90.828 139.074199 
L 90.980182 152.743057 
L 91.132364 188.492382 
L 91.284545 132.765495 
L 91.436727 128.559692 
L 91.588909 161.154663 
L 91.741091 119.096635 
L 91.893273 154.845958 
L 92.045455 158.000311 
L 92.197636 150.640156 
L 92.349818 154.845958 
L 92.502 129.611142 
L 92.806364 167.463365 
L 92.958545 147.485804 
L 93.110727 147.485804 
L 93.262909 148.537254 
L 93.567273 103.324876 
L 93.719455 124.353889 
L 93.871636 110.685029 
L 94.176 158.000311 
L 94.480364 114.890834 
L 94.632545 126.456789 
L 94.784727 123.302437 
L 94.936909 141.177099 
L 95.241273 119.096635 
L 95.393455 134.868395 
L 95.697818 143.280001 
L 95.85 133.816947 
L 96.002182 133.816947 
L 96.154364 134.868395 
L 96.306545 146.434353 
L 96.458727 169.566269 
L 96.610909 132.765495 
L 96.763091 131.714043 
L 96.915273 146.434353 
L 97.067455 149.588705 
L 97.219636 134.868395 
L 97.371818 138.022747 
L 97.524 145.382902 
L 97.676182 173.77207 
L 97.980545 141.177099 
L 98.132727 172.72062 
L 98.284909 166.411916 
L 98.437091 152.743057 
L 98.589273 177.977875 
L 98.893636 158.000311 
L 99.198 169.566269 
L 99.350182 162.206113 
L 99.502364 171.66917 
L 99.654545 190.595283 
L 99.806727 158.000311 
L 100.111091 195.852535 
L 100.263273 143.280001 
L 100.415455 131.714043 
L 100.719818 184.286577 
L 100.872 181.132226 
L 101.024182 185.338028 
L 101.176364 153.794508 
L 101.328545 155.897409 
L 101.480727 163.257564 
L 101.632909 176.926423 
L 101.785091 167.463365 
L 101.937273 125.405339 
L 102.089455 145.382902 
L 102.241636 144.331452 
L 102.393818 106.479227 
L 102.546 138.022747 
L 102.698182 136.971296 
L 102.850364 156.94886 
L 103.154727 83.347313 
L 103.306909 130.662592 
L 103.459091 134.868395 
L 103.763455 151.691606 
L 103.915636 120.148085 
L 104.067818 112.78793 
L 104.22 94.913267 
L 104.372182 102.273423 
L 104.524364 138.022747 
L 104.676545 126.456789 
L 104.828727 103.324876 
L 104.980909 116.993734 
L 105.285273 85.450214 
L 105.437455 109.633579 
L 105.589636 95.964717 
L 105.741818 62.318299 
L 105.894 130.662592 
L 106.046182 136.971296 
L 106.198364 107.530678 
L 106.350545 110.685029 
L 106.502727 118.045185 
L 106.807091 89.656015 
L 107.111455 77.038611 
L 107.263636 99.119072 
L 107.568 79.141511 
L 107.720182 132.765495 
L 107.872364 104.376327 
L 108.024545 105.427777 
L 108.328909 138.022747 
L 108.633273 104.376327 
L 108.785455 130.662592 
L 108.937636 125.405339 
L 109.089818 126.456789 
L 109.242 135.919846 
L 109.394182 113.839383 
L 109.546364 141.177099 
L 109.698545 121.199536 
L 109.850727 118.045185 
L 110.002909 132.765495 
L 110.155091 134.868395 
L 110.307273 163.257564 
L 110.459455 156.94886 
L 110.763818 131.714043 
L 110.916 132.765495 
L 111.068182 152.743057 
L 111.220364 191.646733 
L 111.372545 194.801084 
L 111.524727 172.72062 
L 111.676909 188.492382 
L 111.829091 183.235127 
L 111.981273 183.235127 
L 112.133455 177.977875 
L 112.285636 207.418495 
L 112.59 164.309015 
L 112.742182 201.10979 
L 112.894364 204.264144 
L 113.046545 203.21269 
L 113.350909 220.035899 
L 113.655273 189.543832 
L 113.807455 197.955435 
L 113.959636 193.749634 
L 114.111818 217.932999 
L 114.264 212.675747 
L 114.416182 201.10979 
L 114.568364 174.823522 
L 114.720545 176.926423 
L 114.872727 221.08735 
L 115.024909 215.830098 
L 115.177091 201.10979 
L 115.329273 224.241701 
L 115.481455 201.10979 
L 115.633636 197.955435 
L 115.785818 168.514817 
L 115.938 169.566269 
L 116.090182 187.440928 
L 116.242364 155.897409 
L 116.394545 170.617719 
L 116.698909 151.691606 
L 116.851091 187.440928 
L 117.003273 141.177099 
L 117.155455 150.640156 
L 117.307636 150.640156 
L 117.459818 130.662592 
L 117.612 163.257564 
L 117.764182 159.051761 
L 117.916364 160.103212 
L 118.068545 175.874973 
L 118.525091 113.839383 
L 118.677273 132.765495 
L 118.829455 111.736479 
L 119.133818 141.177099 
L 119.286 106.479227 
L 119.438182 109.633579 
L 119.590364 147.485804 
L 119.742545 147.485804 
L 119.894727 116.993734 
L 120.046909 129.611142 
L 120.199091 174.823522 
L 120.351273 123.302437 
L 120.503455 110.685029 
L 120.655636 161.154663 
L 120.96 100.170522 
L 121.416545 153.794508 
L 121.568727 120.148085 
L 121.873091 145.382902 
L 122.025273 108.582128 
L 122.177455 103.324876 
L 122.481818 145.382902 
L 122.634 140.125649 
L 122.938364 155.897409 
L 123.090545 186.389478 
L 123.394909 135.919846 
L 123.547091 208.469945 
L 123.699273 172.72062 
L 123.851455 165.360466 
L 124.003636 148.537254 
L 124.308 199.006889 
L 124.460182 158.000311 
L 124.764545 199.006889 
L 124.916727 181.132226 
L 125.068909 189.543832 
L 125.221091 210.572846 
L 125.525455 176.926423 
L 125.677636 195.852535 
L 125.829818 196.903985 
L 125.982 201.10979 
L 126.134182 215.830098 
L 126.286364 210.572846 
L 126.438545 159.051761 
L 126.590727 159.051761 
L 126.895091 203.21269 
L 127.047273 211.624296 
L 127.199455 208.469945 
L 127.351636 193.749634 
L 127.503818 196.903985 
L 127.808182 174.823522 
L 127.960364 210.572846 
L 128.264727 186.389478 
L 128.416909 196.903985 
L 128.569091 172.72062 
L 128.721273 210.572846 
L 128.873455 209.521396 
L 129.33 162.206113 
L 129.482182 167.463365 
L 129.786545 141.177099 
L 130.090909 213.727197 
L 130.395273 164.309015 
L 130.547455 176.926423 
L 130.851818 126.456789 
L 131.004 158.000311 
L 131.156182 143.280001 
L 131.308364 147.485804 
L 131.460545 147.485804 
L 131.612727 116.993734 
L 131.917091 158.000311 
L 132.069273 145.382902 
L 132.221455 120.148085 
L 132.373636 150.640156 
L 132.525818 129.611142 
L 132.678 127.508241 
L 132.830182 142.22855 
L 132.982364 121.199536 
L 133.134545 133.816947 
L 133.438909 77.038611 
L 133.743273 102.273423 
L 133.895455 104.376327 
L 134.047636 86.501664 
L 134.199818 105.427777 
L 134.352 108.582128 
L 134.504182 81.244412 
L 134.808545 104.376327 
L 134.960727 83.347313 
L 135.112909 88.604565 
L 135.265091 83.347313 
L 135.417273 94.913267 
L 135.569455 97.016168 
L 135.721636 94.913267 
L 135.873818 97.016168 
L 136.026 92.810366 
L 136.330364 65.47265 
L 136.786909 121.199536 
L 136.939091 126.456789 
L 137.091273 107.530678 
L 137.243455 126.456789 
L 137.395636 120.148085 
L 137.547818 119.096635 
L 137.7 103.324876 
L 137.852182 116.993734 
L 138.004364 148.537254 
L 138.308727 101.221972 
L 138.460909 148.537254 
L 138.765273 120.148085 
L 139.069636 154.845958 
L 139.374 128.559692 
L 139.526182 152.743057 
L 139.678364 153.794508 
L 139.830545 133.816947 
L 139.982727 159.051761 
L 140.134909 164.309015 
L 140.287091 151.691606 
L 140.439273 124.353889 
L 140.743636 194.801084 
L 140.895818 143.280001 
L 141.048 144.331452 
L 141.200182 191.646733 
L 141.352364 171.66917 
L 141.504545 179.029325 
L 141.656727 164.309015 
L 141.808909 164.309015 
L 141.961091 175.874973 
L 142.113273 154.845958 
L 142.417636 192.698183 
L 142.722 180.080776 
L 142.874182 156.94886 
L 143.178545 202.16124 
L 143.330727 197.955435 
L 143.482909 170.617719 
L 144.091636 199.006889 
L 144.243818 223.190251 
L 144.396 203.21269 
L 144.548182 199.006889 
L 144.700364 226.344608 
L 145.004727 189.543832 
L 145.156909 181.132226 
L 145.309091 180.080776 
L 145.461273 168.514817 
L 145.613455 168.514817 
L 145.765636 171.66917 
L 146.07 210.572846 
L 146.222182 176.926423 
L 146.374364 193.749634 
L 146.526545 175.874973 
L 146.678727 171.66917 
L 146.830909 148.537254 
L 147.287455 158.000311 
L 147.439636 155.897409 
L 147.591818 145.382902 
L 147.744 156.94886 
L 147.896182 151.691606 
L 148.048364 153.794508 
L 148.200545 158.000311 
L 148.352727 135.919846 
L 148.657091 150.640156 
L 148.809273 145.382902 
L 148.961455 133.816947 
L 149.113636 133.816947 
L 149.265818 108.582128 
L 149.418 118.045185 
L 149.570182 142.22855 
L 149.722364 110.685029 
L 149.874545 118.045185 
L 150.026727 134.868395 
L 150.178909 118.045185 
L 150.331091 145.382902 
L 150.483273 131.714043 
L 150.635455 105.427777 
L 150.939818 102.273423 
L 151.244182 123.302437 
L 151.548545 84.398763 
L 151.700727 126.456789 
L 151.852909 122.250986 
L 152.005091 124.353889 
L 152.157273 160.103212 
L 152.461636 108.582128 
L 152.766 129.611142 
L 152.918182 114.890834 
L 153.222545 161.154663 
L 153.526909 141.177099 
L 153.679091 143.280001 
L 153.831273 126.456789 
L 153.983455 156.94886 
L 154.135636 152.743057 
L 154.44 165.360466 
L 154.592182 150.640156 
L 154.744364 176.926423 
L 154.896545 162.206113 
L 155.048727 159.051761 
L 155.200909 169.566269 
L 155.353091 164.309015 
L 155.505273 192.698183 
L 155.657455 165.360466 
L 155.961818 204.264144 
L 156.114 166.411916 
L 156.266182 186.389478 
L 156.418364 186.389478 
L 156.570545 156.94886 
L 156.722727 173.77207 
L 156.874909 161.154663 
L 157.331455 176.926423 
L 157.483636 171.66917 
L 157.635818 180.080776 
L 157.788 175.874973 
L 157.940182 194.801084 
L 158.092364 195.852535 
L 158.244545 173.77207 
L 158.396727 193.749634 
L 158.548909 185.338028 
L 158.701091 160.103212 
L 158.853273 197.955435 
L 159.005455 183.235127 
L 159.157636 153.794508 
L 159.309818 159.051761 
L 159.462 160.103212 
L 159.766364 143.280001 
L 159.918545 160.103212 
L 160.070727 164.309015 
L 160.222909 147.485804 
L 160.375091 177.977875 
L 160.527273 171.66917 
L 160.679455 154.845958 
L 160.831636 170.617719 
L 160.983818 159.051761 
L 161.136 136.971296 
L 161.288182 142.22855 
L 161.440364 143.280001 
L 161.592545 145.382902 
L 161.744727 125.405339 
L 161.896909 122.250986 
L 162.049091 140.125649 
L 162.201273 144.331452 
L 162.353455 127.508241 
L 162.505636 123.302437 
L 162.657818 102.273423 
L 162.81 142.22855 
L 162.962182 152.743057 
L 163.114364 125.405339 
L 163.266545 119.096635 
L 163.418727 119.096635 
L 163.723091 136.971296 
L 163.875273 122.250986 
L 164.027455 124.353889 
L 164.179636 123.302437 
L 164.331818 118.045185 
L 164.484 108.582128 
L 164.636182 110.685029 
L 164.788364 133.816947 
L 165.092727 101.221972 
L 165.397091 138.022747 
L 165.701455 104.376327 
L 165.853636 131.714043 
L 166.005818 108.582128 
L 166.158 132.765495 
L 166.310182 116.993734 
L 166.462364 120.148085 
L 166.614545 148.537254 
L 166.918909 95.964717 
L 167.223273 134.868395 
L 167.375455 164.309015 
L 167.527636 162.206113 
L 167.832 123.302437 
L 167.984182 165.360466 
L 168.136364 174.823522 
L 168.288545 194.801084 
L 168.440727 196.903985 
L 168.745091 158.000311 
L 168.897273 155.897409 
L 169.049455 158.000311 
L 169.201636 176.926423 
L 169.506 142.22855 
L 169.658182 169.566269 
L 169.810364 156.94886 
L 169.962545 174.823522 
L 170.114727 225.293158 
L 170.266909 161.154663 
L 170.419091 149.588705 
L 170.571273 199.006889 
L 170.723455 177.977875 
L 171.027818 196.903985 
L 171.18 200.058339 
L 171.332182 220.035899 
L 171.484364 177.977875 
L 171.636545 205.315594 
L 171.788727 184.286577 
L 171.940909 183.235127 
L 172.093091 215.830098 
L 172.245273 207.418495 
L 172.397455 213.727197 
L 172.549636 209.521396 
L 172.854 186.389478 
L 173.006182 210.572846 
L 173.158364 211.624296 
L 173.310545 176.926423 
L 173.614909 228.447509 
L 173.919273 174.823522 
L 174.223636 209.521396 
L 174.680182 189.543832 
L 174.832364 192.698183 
L 174.984545 215.830098 
L 175.288909 185.338028 
L 175.441091 160.103212 
L 175.593273 159.051761 
L 175.745455 187.440928 
L 176.049818 150.640156 
L 176.202 155.897409 
L 176.354182 114.890834 
L 176.506364 153.794508 
L 176.658545 158.000311 
L 176.810727 130.662592 
L 176.962909 149.588705 
L 177.115091 149.588705 
L 177.267273 116.993734 
L 177.419455 110.685029 
L 177.571636 142.22855 
L 177.723818 146.434353 
L 178.180364 90.707465 
L 178.332545 91.758916 
L 178.484727 82.295862 
L 178.636909 84.398763 
L 178.789091 70.729902 
L 179.093455 94.913267 
L 179.245636 101.221972 
L 179.397818 90.707465 
L 179.55 69.678452 
L 179.854364 114.890834 
L 180.006545 92.810366 
L 180.158727 101.221972 
L 180.310909 97.016168 
L 180.463091 106.479227 
L 180.615273 87.553114 
L 180.919636 128.559692 
L 181.071818 97.016168 
L 181.224 88.604565 
L 181.528364 115.942284 
L 181.680545 127.508241 
L 181.832727 128.559692 
L 181.984909 142.22855 
L 182.137091 134.868395 
L 182.289273 112.78793 
L 182.593636 128.559692 
L 182.745818 125.405339 
L 182.898 136.971296 
L 183.050182 122.250986 
L 183.202364 126.456789 
L 183.506727 164.309015 
L 183.811091 124.353889 
L 184.115455 164.309015 
L 184.267636 151.691606 
L 184.572 171.66917 
L 184.724182 173.77207 
L 184.876364 152.743057 
L 185.028545 187.440928 
L 185.332909 162.206113 
L 185.789455 218.984449 
L 186.093818 180.080776 
L 186.398182 199.006889 
L 186.550364 187.440928 
L 186.702545 195.852535 
L 186.854727 222.1388 
L 187.159091 169.566269 
L 187.311273 195.852535 
L 187.463455 191.646733 
L 187.615636 202.16124 
L 187.767818 236.859112 
L 187.92 181.132226 
L 188.072182 189.543832 
L 188.224364 191.646733 
L 188.376545 201.10979 
L 188.528727 201.10979 
L 188.680909 185.338028 
L 188.833091 218.984449 
L 189.137455 144.331452 
L 189.289636 171.66917 
L 189.441818 159.051761 
L 189.594 175.874973 
L 189.746182 161.154663 
L 189.898364 160.103212 
L 190.050545 170.617719 
L 190.202727 156.94886 
L 190.354909 168.514817 
L 190.507091 146.434353 
L 190.811455 168.514817 
L 190.963636 134.868395 
L 191.115818 134.868395 
L 191.268 116.993734 
L 191.420182 159.051761 
L 191.572364 165.360466 
L 191.724545 126.456789 
L 192.028909 128.559692 
L 192.333273 126.456789 
L 192.485455 134.868395 
L 192.637636 162.206113 
L 192.789818 114.890834 
L 192.942 115.942284 
L 193.094182 141.177099 
L 193.246364 114.890834 
L 193.398545 121.199536 
L 193.550727 149.588705 
L 193.702909 116.993734 
L 193.855091 109.633579 
L 194.007273 131.714043 
L 194.159455 130.662592 
L 194.311636 122.250986 
L 194.616 136.971296 
L 194.920364 123.302437 
L 195.072545 144.331452 
L 195.224727 142.22855 
L 195.376909 133.816947 
L 195.681273 169.566269 
L 195.833455 130.662592 
L 195.985636 127.508241 
L 196.29 199.006889 
L 196.442182 151.691606 
L 196.594364 141.177099 
L 196.746545 173.77207 
L 196.898727 160.103212 
L 197.050909 168.514817 
L 197.203091 184.286577 
L 197.355273 172.72062 
L 197.507455 174.823522 
L 197.659636 166.411916 
L 197.811818 171.66917 
L 197.964 196.903985 
L 198.116182 185.338028 
L 198.268364 155.897409 
L 198.420545 165.360466 
L 198.572727 202.16124 
L 198.724909 202.16124 
L 198.877091 188.492382 
L 199.029273 189.543832 
L 199.181455 164.309015 
L 199.333636 203.21269 
L 199.485818 188.492382 
L 199.638 156.94886 
L 199.790182 201.10979 
L 199.942364 193.749634 
L 200.094545 195.852535 
L 200.246727 215.830098 
L 200.398909 203.21269 
L 200.551091 223.190251 
L 200.703273 195.852535 
L 200.855455 189.543832 
L 201.159818 144.331452 
L 201.312 175.874973 
L 201.464182 174.823522 
L 201.616364 164.309015 
L 201.768545 177.977875 
L 201.920727 174.823522 
L 202.225091 136.971296 
L 202.529455 158.000311 
L 202.681636 133.816947 
L 202.833818 133.816947 
L 202.986 141.177099 
L 203.290364 115.942284 
L 203.442545 114.890834 
L 203.594727 138.022747 
L 203.746909 132.765495 
L 203.899091 106.479227 
L 204.051273 105.427777 
L 204.203455 102.273423 
L 204.355636 84.398763 
L 204.507818 90.707465 
L 204.66 89.656015 
L 204.812182 107.530678 
L 204.964364 81.244412 
L 205.116545 79.141511 
L 205.268727 91.758916 
L 205.420909 80.192962 
L 205.573091 84.398763 
L 205.725273 99.119072 
L 206.181818 82.295862 
L 206.334 115.942284 
L 206.486182 108.582128 
L 206.638364 70.729902 
L 206.942727 128.559692 
L 207.094909 93.861817 
L 207.247091 102.273423 
L 207.399273 90.707465 
L 207.551455 99.119072 
L 207.703636 126.456789 
L 207.855818 97.016168 
L 208.160182 141.177099 
L 208.312364 118.045185 
L 208.464545 139.074199 
L 208.768909 119.096635 
L 209.073273 151.691606 
L 209.225455 134.868395 
L 209.377636 141.177099 
L 209.529818 134.868395 
L 209.682 156.94886 
L 209.986364 141.177099 
L 210.138545 182.183676 
L 210.290727 185.338028 
L 210.595091 150.640156 
L 210.747273 166.411916 
L 210.899455 166.411916 
L 211.051636 158.000311 
L 211.203818 188.492382 
L 211.356 164.309015 
L 211.508182 163.257564 
L 211.660364 191.646733 
L 211.812545 188.492382 
L 211.964727 188.492382 
L 212.116909 187.440928 
L 212.269091 146.434353 
L 212.573455 215.830098 
L 212.725636 194.801084 
L 212.877818 212.675747 
L 213.03 181.132226 
L 213.182182 175.874973 
L 213.334364 193.749634 
L 213.486545 188.492382 
L 213.638727 190.595283 
L 213.790909 141.177099 
L 213.943091 143.280001 
L 214.247455 207.418495 
L 214.399636 163.257564 
L 214.551818 158.000311 
L 214.704 183.235127 
L 214.856182 146.434353 
L 215.160545 186.389478 
L 215.312727 144.331452 
L 215.617091 150.640156 
L 215.769273 166.411916 
L 216.073636 150.640156 
L 216.225818 155.897409 
L 216.378 174.823522 
L 216.530182 169.566269 
L 216.682364 140.125649 
L 217.138909 151.691606 
L 217.291091 146.434353 
L 217.747636 106.479227 
L 218.052 158.000311 
L 218.356364 128.559692 
L 218.508545 160.103212 
L 218.812909 109.633579 
L 218.965091 118.045185 
L 219.269455 145.382902 
L 219.421636 141.177099 
L 219.726 125.405339 
L 220.030364 144.331452 
L 220.182545 142.22855 
L 220.486909 97.016168 
L 220.639091 99.119072 
L 220.943455 123.302437 
L 221.095636 115.942284 
L 221.247818 142.22855 
L 221.4 147.485804 
L 221.704364 113.839383 
L 221.856545 132.765495 
L 222.160909 98.067621 
L 222.465273 139.074199 
L 222.617455 136.971296 
L 222.769636 126.456789 
L 223.074 92.810366 
L 223.378364 127.508241 
L 223.530545 122.250986 
L 223.834909 128.559692 
L 224.139273 111.736479 
L 224.291455 144.331452 
L 224.443636 148.537254 
L 224.595818 147.485804 
L 224.748 140.125649 
L 224.900182 155.897409 
L 225.052364 143.280001 
L 225.204545 104.376327 
L 225.356727 138.022747 
L 225.508909 138.022747 
L 225.661091 97.016168 
L 225.965455 180.080776 
L 226.269818 132.765495 
L 226.422 155.897409 
L 226.726364 112.78793 
L 227.030727 144.331452 
L 227.182909 132.765495 
L 227.335091 151.691606 
L 227.487273 147.485804 
L 227.639455 160.103212 
L 227.791636 182.183676 
L 228.096 122.250986 
L 228.400364 147.485804 
L 228.552545 156.94886 
L 228.704727 147.485804 
L 228.856909 148.537254 
L 229.161273 142.22855 
L 229.313455 173.77207 
L 229.617818 141.177099 
L 229.77 156.94886 
L 229.922182 109.633579 
L 230.074364 139.074199 
L 230.378727 119.096635 
L 230.530909 160.103212 
L 230.683091 166.411916 
L 230.835273 138.022747 
L 230.987455 153.794508 
L 231.139636 149.588705 
L 231.291818 127.508241 
L 231.444 149.588705 
L 231.596182 149.588705 
L 231.748364 138.022747 
L 231.900545 143.280001 
L 232.052727 125.405339 
L 232.204909 127.508241 
L 232.357091 125.405339 
L 232.661455 141.177099 
L 232.813636 116.993734 
L 233.118 148.537254 
L 233.270182 100.170522 
L 233.422364 128.559692 
L 233.574545 116.993734 
L 233.726727 122.250986 
L 233.878909 134.868395 
L 234.031091 116.993734 
L 234.639818 160.103212 
L 234.792 145.382902 
L 234.944182 148.537254 
L 235.096364 170.617719 
L 235.248545 174.823522 
L 235.400727 161.154663 
L 235.552909 187.440928 
L 235.705091 188.492382 
L 235.857273 171.66917 
L 236.161636 193.749634 
L 236.313818 204.264144 
L 236.466 191.646733 
L 236.618182 168.514817 
L 236.922545 208.469945 
L 237.074727 225.293158 
L 237.226909 217.932999 
L 237.379091 221.08735 
L 237.683455 206.367045 
L 237.835636 206.367045 
L 237.987818 230.55041 
L 238.292182 209.521396 
L 238.444364 221.08735 
L 238.596545 206.367045 
L 238.900909 232.65331 
L 239.053091 228.447509 
L 239.357455 184.286577 
L 239.509636 205.315594 
L 239.661818 201.10979 
L 239.814 217.932999 
L 239.966182 211.624296 
L 240.118364 196.903985 
L 240.270545 194.801084 
L 240.422727 186.389478 
L 240.574909 206.367045 
L 240.727091 191.646733 
L 240.879273 163.257564 
L 241.183636 192.698183 
L 241.335818 186.389478 
L 241.488 159.051761 
L 241.640182 185.338028 
L 241.792364 176.926423 
L 241.944545 162.206113 
L 242.096727 183.235127 
L 242.248909 175.874973 
L 242.401091 128.559692 
L 242.553273 171.66917 
L 242.857636 150.640156 
L 243.009818 163.257564 
L 243.162 141.177099 
L 243.314182 150.640156 
L 243.466364 145.382902 
L 243.618545 171.66917 
L 243.770727 165.360466 
L 243.922909 129.611142 
L 244.075091 148.537254 
L 244.227273 147.485804 
L 244.379455 152.743057 
L 244.683818 113.839383 
L 244.836 135.919846 
L 245.292545 105.427777 
L 245.444727 104.376327 
L 245.596909 134.868395 
L 245.749091 116.993734 
L 245.901273 129.611142 
L 246.205636 122.250986 
L 246.357818 123.302437 
L 246.51 99.119072 
L 246.662182 119.096635 
L 246.966545 115.942284 
L 247.118727 120.148085 
L 247.270909 110.685029 
L 247.423091 123.302437 
L 247.575273 109.633579 
L 247.727455 112.78793 
L 247.879636 132.765495 
L 248.031818 124.353889 
L 248.184 85.450214 
L 248.336182 120.148085 
L 248.488364 124.353889 
L 248.640545 123.302437 
L 248.792727 152.743057 
L 249.097091 121.199536 
L 249.401455 145.382902 
L 249.553636 121.199536 
L 249.705818 115.942284 
L 249.858 140.125649 
L 250.010182 120.148085 
L 250.162364 132.765495 
L 250.314545 155.897409 
L 250.618909 126.456789 
L 250.771091 160.103212 
L 251.075455 144.331452 
L 251.227636 169.566269 
L 251.379818 169.566269 
L 251.684182 141.177099 
L 251.836364 146.434353 
L 251.988545 179.029325 
L 252.292909 129.611142 
L 252.597273 163.257564 
L 252.749455 162.206113 
L 252.901636 170.617719 
L 253.053818 164.309015 
L 253.206 145.382902 
L 253.358182 158.000311 
L 253.510364 159.051761 
L 253.662545 134.868395 
L 253.814727 165.360466 
L 253.966909 170.617719 
L 254.119091 159.051761 
L 254.271273 159.051761 
L 254.423455 158.000311 
L 254.575636 142.22855 
L 254.727818 145.382902 
L 255.032182 160.103212 
L 255.336545 213.727197 
L 255.488727 167.463365 
L 255.640909 155.897409 
L 255.793091 187.440928 
L 255.945273 154.845958 
L 256.097455 151.691606 
L 256.401818 183.235127 
L 256.554 175.874973 
L 256.706182 162.206113 
L 256.858364 173.77207 
L 257.010545 172.72062 
L 257.314909 128.559692 
L 257.467091 176.926423 
L 257.619273 180.080776 
L 258.075818 141.177099 
L 258.532364 193.749634 
L 258.684545 185.338028 
L 258.836727 165.360466 
L 258.988909 199.006889 
L 259.141091 155.897409 
L 259.293273 164.309015 
L 259.445455 179.029325 
L 259.597636 142.22855 
L 259.749818 147.485804 
L 259.902 184.286577 
L 260.054182 158.000311 
L 260.206364 170.617719 
L 260.358545 164.309015 
L 260.510727 129.611142 
L 260.815091 183.235127 
L 261.119455 125.405339 
L 261.271636 162.206113 
L 261.423818 138.022747 
L 261.576 151.691606 
L 261.728182 183.235127 
L 261.880364 148.537254 
L 262.032545 147.485804 
L 262.184727 136.971296 
L 262.336909 150.640156 
L 262.489091 143.280001 
L 262.641273 151.691606 
L 262.793455 148.537254 
L 262.945636 128.559692 
L 263.25 141.177099 
L 263.402182 146.434353 
L 263.554364 140.125649 
L 263.706545 122.250986 
L 263.858727 126.456789 
L 264.163091 145.382902 
L 264.467455 115.942284 
L 264.619636 135.919846 
L 264.771818 128.559692 
L 264.924 108.582128 
L 265.076182 145.382902 
L 265.228364 131.714043 
L 265.380545 105.427777 
L 265.532727 132.765495 
L 265.684909 127.508241 
L 265.837091 131.714043 
L 265.989273 152.743057 
L 266.141455 118.045185 
L 266.293636 142.22855 
L 266.445818 127.508241 
L 266.750182 150.640156 
L 266.902364 118.045185 
L 267.054545 150.640156 
L 267.206727 123.302437 
L 267.358909 116.993734 
L 267.511091 158.000311 
L 267.663273 140.125649 
L 267.815455 156.94886 
L 267.967636 148.537254 
L 268.119818 172.72062 
L 268.272 175.874973 
L 268.424182 153.794508 
L 268.576364 168.514817 
L 268.728545 171.66917 
L 268.880727 162.206113 
L 269.032909 164.309015 
L 269.185091 171.66917 
L 269.337273 189.543832 
L 269.641636 182.183676 
L 269.793818 160.103212 
L 269.946 179.029325 
L 270.098182 161.154663 
L 270.402545 205.315594 
L 270.554727 187.440928 
L 270.706909 213.727197 
L 270.859091 182.183676 
L 271.011273 184.286577 
L 271.163455 176.926423 
L 271.315636 136.971296 
L 271.467818 167.463365 
L 271.62 173.77207 
L 271.772182 164.309015 
L 271.924364 164.309015 
L 272.228727 179.029325 
L 272.380909 153.794508 
L 272.533091 161.154663 
L 272.685273 184.286577 
L 272.837455 158.000311 
L 272.989636 172.72062 
L 273.141818 169.566269 
L 273.294 161.154663 
L 273.446182 165.360466 
L 273.598364 159.051761 
L 273.750545 164.309015 
L 274.054909 154.845958 
L 274.207091 162.206113 
L 274.663636 109.633579 
L 274.815818 115.942284 
L 274.968 112.78793 
L 275.120182 103.324876 
L 275.424545 111.736479 
L 275.881091 74.935704 
L 276.033273 94.913267 
L 276.185455 95.964717 
L 276.337636 107.530678 
L 276.489818 77.038611 
L 276.642 87.553114 
L 276.794182 88.604565 
L 276.946364 67.575551 
L 277.250727 92.810366 
L 277.402909 93.861817 
L 277.707273 61.266849 
L 278.011636 65.47265 
L 278.163818 97.016168 
L 278.316 104.376327 
L 278.468182 101.221972 
L 278.620364 90.707465 
L 278.772545 94.913267 
L 279.229091 81.244412 
L 279.381273 106.479227 
L 279.685636 88.604565 
L 279.837818 93.861817 
L 280.142182 134.868395 
L 280.294364 131.714043 
L 280.446545 136.971296 
L 280.598727 120.148085 
L 280.750909 141.177099 
L 280.903091 144.331452 
L 281.055273 131.714043 
L 281.207455 173.77207 
L 281.359636 166.411916 
L 281.511818 171.66917 
L 281.664 182.183676 
L 281.816182 155.897409 
L 281.968364 163.257564 
L 282.120545 200.058339 
L 282.272727 174.823522 
L 282.577091 195.852535 
L 282.729273 192.698183 
L 282.881455 155.897409 
L 283.185818 195.852535 
L 283.338 187.440928 
L 283.490182 197.955435 
L 283.642364 195.852535 
L 283.794545 202.16124 
L 283.946727 195.852535 
L 284.098909 209.521396 
L 284.251091 208.469945 
L 284.403273 192.698183 
L 284.555455 202.16124 
L 284.707636 188.492382 
L 285.012 202.16124 
L 285.164182 201.10979 
L 285.316364 191.646733 
L 285.468545 165.360466 
L 285.620727 168.514817 
L 285.772909 209.521396 
L 285.925091 172.72062 
L 286.077273 166.411916 
L 286.229455 190.595283 
L 286.381636 181.132226 
L 286.533818 180.080776 
L 286.686 183.235127 
L 286.838182 164.309015 
L 286.990364 189.543832 
L 287.294727 160.103212 
L 287.446909 191.646733 
L 287.599091 163.257564 
L 287.751273 173.77207 
L 287.903455 170.617719 
L 288.055636 128.559692 
L 288.207818 166.411916 
L 288.36 162.206113 
L 288.816545 131.714043 
L 288.968727 151.691606 
L 289.273091 97.016168 
L 289.425273 142.22855 
L 289.577455 110.685029 
L 289.881818 127.508241 
L 290.034 123.302437 
L 290.186182 138.022747 
L 290.338364 113.839383 
L 290.947091 152.743057 
L 291.099273 99.119072 
L 291.251455 138.022747 
L 291.403636 132.765495 
L 291.555818 111.736479 
L 291.708 135.919846 
L 292.012364 126.456789 
L 292.164545 146.434353 
L 292.316727 138.022747 
L 292.468909 120.148085 
L 292.621091 139.074199 
L 292.773273 142.22855 
L 292.925455 126.456789 
L 293.077636 172.72062 
L 293.229818 154.845958 
L 293.534182 179.029325 
L 293.686364 139.074199 
L 294.142909 160.103212 
L 294.295091 165.360466 
L 294.599455 150.640156 
L 294.751636 161.154663 
L 295.056 156.94886 
L 295.360364 129.611142 
L 295.512545 168.514817 
L 295.816909 146.434353 
L 295.969091 184.286577 
L 296.121273 165.360466 
L 296.273455 116.993734 
L 296.425636 145.382902 
L 296.577818 150.640156 
L 296.73 120.148085 
L 296.882182 148.537254 
L 297.034364 154.845958 
L 297.186545 122.250986 
L 297.643091 161.154663 
L 297.947455 136.971296 
L 298.099636 162.206113 
L 298.404 150.640156 
L 298.556182 187.440928 
L 298.708364 150.640156 
L 298.860545 146.434353 
L 299.012727 150.640156 
L 299.164909 136.971296 
L 299.621455 179.029325 
L 299.773636 148.537254 
L 299.925818 144.331452 
L 300.078 183.235127 
L 300.230182 148.537254 
L 300.382364 164.309015 
L 300.534545 151.691606 
L 300.838909 170.617719 
L 300.991091 132.765495 
L 301.295455 174.823522 
L 301.447636 145.382902 
L 301.599818 158.000311 
L 301.752 149.588705 
L 301.904182 160.103212 
L 302.056364 155.897409 
L 302.208545 131.714043 
L 302.512909 159.051761 
L 302.665091 154.845958 
L 302.817273 163.257564 
L 302.969455 156.94886 
L 303.121636 179.029325 
L 303.273818 159.051761 
L 303.426 158.000311 
L 303.578182 180.080776 
L 303.730364 141.177099 
L 304.034727 181.132226 
L 304.186909 170.617719 
L 304.339091 184.286577 
L 304.491273 172.72062 
L 304.643455 181.132226 
L 304.795636 173.77207 
L 304.947818 179.029325 
L 305.252182 144.331452 
L 305.404364 150.640156 
L 305.860909 181.132226 
L 306.013091 167.463365 
L 306.165273 165.360466 
L 306.469636 119.096635 
L 306.621818 149.588705 
L 306.774 151.691606 
L 306.926182 142.22855 
L 307.078364 162.206113 
L 307.230545 152.743057 
L 307.382727 171.66917 
L 307.534909 163.257564 
L 307.687091 172.72062 
L 307.991455 169.566269 
L 308.143636 182.183676 
L 308.295818 163.257564 
L 308.448 189.543832 
L 308.752364 152.743057 
L 308.904545 183.235127 
L 309.056727 173.77207 
L 309.208909 190.595283 
L 309.513273 175.874973 
L 309.817636 195.852535 
L 310.122 186.389478 
L 310.274182 149.588705 
L 310.426364 151.691606 
L 310.578545 129.611142 
L 310.730727 136.971296 
L 310.882909 201.10979 
L 311.035091 191.646733 
L 311.187273 193.749634 
L 311.491636 166.411916 
L 311.643818 199.006889 
L 311.948182 164.309015 
L 312.100364 170.617719 
L 312.252545 170.617719 
L 312.404727 167.463365 
L 312.709091 154.845958 
L 312.861273 176.926423 
L 313.165636 139.074199 
L 313.47 171.66917 
L 313.622182 168.514817 
L 313.774364 145.382902 
L 313.926545 159.051761 
L 314.078727 140.125649 
L 314.230909 135.919846 
L 314.383091 174.823522 
L 314.535273 147.485804 
L 314.687455 148.537254 
L 314.839636 158.000311 
L 314.991818 142.22855 
L 315.448364 131.714043 
L 315.600545 165.360466 
L 315.752727 151.691606 
L 315.904909 126.456789 
L 316.057091 124.353889 
L 316.209273 138.022747 
L 316.361455 116.993734 
L 316.665818 145.382902 
L 316.818 116.993734 
L 316.970182 126.456789 
L 317.122364 154.845958 
L 317.274545 110.685029 
L 317.426727 122.250986 
L 317.578909 147.485804 
L 317.731091 122.250986 
L 317.883273 118.045185 
L 318.035455 118.045185 
L 318.187636 112.78793 
L 318.339818 118.045185 
L 318.492 91.758916 
L 318.796364 123.302437 
L 318.948545 103.324876 
L 319.100727 100.170522 
L 319.252909 116.993734 
L 319.405091 112.78793 
L 319.557273 119.096635 
L 319.709455 162.206113 
L 319.861636 155.897409 
L 320.013818 127.508241 
L 320.470364 185.338028 
L 320.774727 116.993734 
L 321.079091 154.845958 
L 321.383455 139.074199 
L 321.535636 141.177099 
L 321.687818 169.566269 
L 321.992182 166.411916 
L 322.144364 184.286577 
L 322.296545 164.309015 
L 322.448727 188.492382 
L 322.600909 182.183676 
L 322.753091 146.434353 
L 322.905273 177.977875 
L 323.057455 166.411916 
L 323.361818 202.16124 
L 323.514 193.749634 
L 323.666182 195.852535 
L 323.970545 169.566269 
L 324.122727 190.595283 
L 324.427091 170.617719 
L 324.579273 166.411916 
L 324.731455 193.749634 
L 324.883636 184.286577 
L 325.035818 161.154663 
L 325.188 188.492382 
L 325.340182 186.389478 
L 325.492364 190.595283 
L 325.796727 181.132226 
L 325.948909 196.903985 
L 326.101091 154.845958 
L 326.253273 180.080776 
L 326.405455 179.029325 
L 326.709818 164.309015 
L 326.862 136.971296 
L 327.166364 179.029325 
L 327.318545 172.72062 
L 327.470727 177.977875 
L 327.622909 151.691606 
L 327.927273 183.235127 
L 328.383818 154.845958 
L 328.688182 130.662592 
L 328.840364 124.353889 
L 328.992545 175.874973 
L 329.144727 170.617719 
L 329.449091 104.376327 
L 329.753455 142.22855 
L 329.905636 164.309015 
L 330.21 99.119072 
L 330.362182 107.530678 
L 330.666545 133.816947 
L 330.818727 112.78793 
L 330.970909 115.942284 
L 331.123091 145.382902 
L 331.275273 142.22855 
L 331.427455 121.199536 
L 331.579636 121.199536 
L 331.731818 147.485804 
L 332.036182 108.582128 
L 332.188364 134.868395 
L 332.340545 140.125649 
L 332.492727 119.096635 
L 332.644909 118.045185 
L 332.797091 121.199536 
L 332.949273 145.382902 
L 333.253636 130.662592 
L 333.405818 109.633579 
L 333.558 131.714043 
L 333.710182 132.765495 
L 334.014545 161.154663 
L 334.166727 138.022747 
L 334.318909 160.103212 
L 334.775455 135.919846 
L 334.927636 128.559692 
L 335.079818 175.874973 
L 335.232 142.22855 
L 335.384182 145.382902 
L 335.688545 104.376327 
L 335.840727 172.72062 
L 336.145091 144.331452 
L 336.297273 170.617719 
L 336.753818 111.736479 
L 337.058182 146.434353 
L 337.362545 141.177099 
L 337.514727 141.177099 
L 337.666909 138.022747 
L 337.819091 123.302437 
L 338.123455 162.206113 
L 338.275636 153.794508 
L 338.427818 162.206113 
L 338.58 161.154663 
L 338.732182 146.434353 
L 338.884364 120.148085 
L 339.036545 136.971296 
L 339.188727 132.765495 
L 339.340909 121.199536 
L 339.645273 171.66917 
L 339.797455 138.022747 
L 339.949636 129.611142 
L 340.254 170.617719 
L 340.406182 153.794508 
L 340.558364 150.640156 
L 340.862727 138.022747 
L 341.014909 133.816947 
L 341.319273 150.640156 
L 341.471455 133.816947 
L 341.623636 131.714043 
L 341.775818 132.765495 
L 341.928 134.868395 
L 342.080182 147.485804 
L 342.232364 148.537254 
L 342.384545 166.411916 
L 342.688909 128.559692 
L 342.841091 125.405339 
L 342.993273 141.177099 
L 343.145455 121.199536 
L 343.449818 168.514817 
L 343.602 144.331452 
L 343.754182 147.485804 
L 343.906364 154.845958 
L 344.058545 187.440928 
L 344.210727 140.125649 
L 344.362909 131.714043 
L 344.515091 167.463365 
L 344.667273 145.382902 
L 344.819455 146.434353 
L 344.971636 138.022747 
L 345.276 168.514817 
L 345.428182 151.691606 
L 345.580364 119.096635 
L 345.732545 114.890834 
L 346.036909 153.794508 
L 346.341273 128.559692 
L 346.493455 113.839383 
L 346.645636 111.736479 
L 346.95 139.074199 
L 347.102182 111.736479 
L 347.406545 149.588705 
L 347.558727 131.714043 
L 347.710909 134.868395 
L 347.863091 130.662592 
L 348.015273 133.816947 
L 348.167455 171.66917 
L 348.471818 119.096635 
L 348.624 154.845958 
L 348.928364 118.045185 
L 349.080545 148.537254 
L 349.232727 151.691606 
L 349.537091 145.382902 
L 349.689273 121.199536 
L 349.841455 134.868395 
L 349.993636 159.051761 
L 350.145818 119.096635 
L 350.298 156.94886 
L 350.602364 141.177099 
L 350.754545 170.617719 
L 351.058909 124.353889 
L 351.211091 142.22855 
L 351.363273 118.045185 
L 351.515455 122.250986 
L 351.667636 144.331452 
L 351.819818 129.611142 
L 351.972 156.94886 
L 352.124182 163.257564 
L 352.276364 124.353889 
L 352.428545 159.051761 
L 352.732909 122.250986 
L 352.885091 142.22855 
L 353.037273 141.177099 
L 353.189455 134.868395 
L 353.341636 140.125649 
L 353.493818 182.183676 
L 353.646 165.360466 
L 353.798182 124.353889 
L 354.102545 165.360466 
L 354.254727 177.977875 
L 354.559091 109.633579 
L 354.863455 169.566269 
L 355.015636 141.177099 
L 355.167818 145.382902 
L 355.32 146.434353 
L 355.472182 141.177099 
L 355.624364 143.280001 
L 355.776545 166.411916 
L 355.928727 170.617719 
L 356.233091 159.051761 
L 356.385273 135.919846 
L 356.689636 167.463365 
L 356.841818 138.022747 
L 356.994 170.617719 
L 357.298364 123.302437 
L 357.450545 152.743057 
L 357.602727 150.640156 
L 357.754909 140.125649 
L 357.907091 167.463365 
L 358.211455 127.508241 
L 358.515818 151.691606 
L 358.668 152.743057 
L 358.972364 135.919846 
L 359.276727 149.588705 
L 359.581091 138.022747 
L 359.733273 147.485804 
L 359.885455 130.662592 
L 360.189818 161.154663 
L 360.342 174.823522 
L 360.494182 156.94886 
L 360.798545 152.743057 
L 361.102909 188.492382 
L 361.255091 147.485804 
L 361.559455 183.235127 
L 361.711636 154.845958 
L 362.016 187.440928 
L 362.320364 141.177099 
L 362.624727 190.595283 
L 362.776909 200.058339 
L 362.929091 195.852535 
L 363.081273 226.344608 
L 363.537818 204.264144 
L 363.69 170.617719 
L 363.842182 173.77207 
L 363.994364 197.955435 
L 364.298727 156.94886 
L 364.450909 172.72062 
L 364.603091 161.154663 
L 364.755273 162.206113 
L 364.907455 180.080776 
L 365.059636 173.77207 
L 365.211818 180.080776 
L 365.516182 174.823522 
L 365.668364 173.77207 
L 365.820545 173.77207 
L 365.972727 166.411916 
L 366.124909 148.537254 
L 366.277091 150.640156 
L 366.429273 181.132226 
L 366.581455 171.66917 
L 366.733636 176.926423 
L 366.885818 143.280001 
L 367.038 142.22855 
L 367.190182 181.132226 
L 367.494545 138.022747 
L 367.646727 180.080776 
L 367.798909 175.874973 
L 368.255455 149.588705 
L 368.407636 161.154663 
L 368.559818 153.794508 
L 368.712 163.257564 
L 368.864182 186.389478 
L 369.016364 146.434353 
L 369.168545 149.588705 
L 369.472909 187.440928 
L 369.625091 151.691606 
L 369.777273 167.463365 
L 370.081636 131.714043 
L 370.233818 155.897409 
L 370.386 124.353889 
L 370.690364 143.280001 
L 370.842545 134.868395 
L 370.994727 155.897409 
L 371.146909 128.559692 
L 371.299091 142.22855 
L 371.451273 141.177099 
L 371.603455 138.022747 
L 371.907818 177.977875 
L 372.364364 114.890834 
L 372.516545 132.765495 
L 372.668727 118.045185 
L 372.820909 138.022747 
L 372.973091 136.971296 
L 373.125273 118.045185 
L 373.277455 140.125649 
L 373.429636 131.714043 
L 373.581818 169.566269 
L 373.581818 169.566269 
" style="fill:none;stroke:#1f77b4;stroke-linecap:square;stroke-width:1.5;"/>
   </g>
   <g id="patch_3">
    <path d="M 54 252 
L 54 34.56 
" style="fill:none;stroke:#000000;stroke-linecap:square;stroke-linejoin:miter;stroke-width:0.8;"/>
   </g>
   <g id="patch_4">
    <path d="M 388.8 252 
L 388.8 34.56 
" style="fill:none;stroke:#000000;stroke-linecap:square;stroke-linejoin:miter;stroke-width:0.8;"/>
   </g>
   <g id="patch_5">
    <path d="M 54 252 
L 388.8 252 
" style="fill:none;stroke:#000000;stroke-linecap:square;stroke-linejoin:miter;stroke-width:0.8;"/>
   </g>
   <g id="patch_6">
    <path d="M 54 34.56 
L 388.8 34.56 
" style="fill:none;stroke:#000000;stroke-linecap:square;stroke-linejoin:miter;stroke-width:0.8;"/>
   </g>
  </g>
 </g>
 <defs>
  <clipPath id="p065d78ed34">
   <rect height="217.44" width="334.8" x="54" y="34.56"/>
  </clipPath>
 </defs>
</svg>
