<?xml version="1.0" encoding="utf-8" standalone="no"?>
<!DOCTYPE svg PUBLIC "-//W3C//DTD SVG 1.1//EN"
  "http://www.w3.org/Graphics/SVG/1.1/DTD/svg11.dtd">
<svg height="288pt" version="1.1" viewBox="0 0 432 288" width="432pt" xmlns="http://www.w3.org/2000/svg" xmlns:xlink="http://www.w3.org/1999/xlink">
 <metadata>
  <rdf:RDF xmlns:cc="http://creativecommons.org/ns#" xmlns:dc="http://purl.org/dc/elements/1.1/" xmlns:rdf="http://www.w3.org/1999/02/22-rdf-syntax-ns#">
   <cc:Work>
    <dc:type rdf:resource="http://purl.org/dc/dcmitype/StillImage"/>
    <dc:date>2022-04-22T21:35:34.602875</dc:date>
    <dc:format>image/svg+xml</dc:format>
    <dc:creator>
     <cc:Agent>
      <dc:title>Matplotlib v3.4.3, https://matplotlib.org/</dc:title>
     </cc:Agent>
    </dc:creator>
   </cc:Work>
  </rdf:RDF>
 </metadata>
 <defs>
  <style type="text/css">*{stroke-linecap:butt;stroke-linejoin:round;}</style>
 </defs>
 <g id="figure_1">
  <g id="patch_1">
   <path d="M 0 288 
L 432 288 
L 432 0 
L 0 0 
z
" style="fill:none;"/>
  </g>
  <g id="axes_1">
   <g id="patch_2">
    <path d="M 54 252 
L 388.8 252 
L 388.8 34.56 
L 54 34.56 
z
" style="fill:#ffffff;"/>
   </g>
   <g id="matplotlib.axis_1">
    <g id="xtick_1">
     <g id="line2d_1">
      <defs>
       <path d="M 0 0 
L 0 3.5 
" id="m96f2fb1e62" style="stroke:#000000;stroke-width:0.8;"/>
      </defs>
      <g>
       <use style="stroke:#000000;stroke-width:0.8;" x="69.218182" xlink:href="#m96f2fb1e62" y="252"/>
      </g>
     </g>
     <g id="text_1">
      <!-- 0 -->
      <g transform="translate(66.036932 266.598437)scale(0.1 -0.1)">
       <defs>
        <path d="M 2034 4250 
Q 1547 4250 1301 3770 
Q 1056 3291 1056 2328 
Q 1056 1369 1301 889 
Q 1547 409 2034 409 
Q 2525 409 2770 889 
Q 3016 1369 3016 2328 
Q 3016 3291 2770 3770 
Q 2525 4250 2034 4250 
z
M 2034 4750 
Q 2819 4750 3233 4129 
Q 3647 3509 3647 2328 
Q 3647 1150 3233 529 
Q 2819 -91 2034 -91 
Q 1250 -91 836 529 
Q 422 1150 422 2328 
Q 422 3509 836 4129 
Q 1250 4750 2034 4750 
z
" id="DejaVuSans-30" transform="scale(0.015625)"/>
       </defs>
       <use xlink:href="#DejaVuSans-30"/>
      </g>
     </g>
    </g>
    <g id="xtick_2">
     <g id="line2d_2">
      <g>
       <use style="stroke:#000000;stroke-width:0.8;" x="107.263636" xlink:href="#m96f2fb1e62" y="252"/>
      </g>
     </g>
     <g id="text_2">
      <!-- 250 -->
      <g transform="translate(97.719886 266.598437)scale(0.1 -0.1)">
       <defs>
        <path d="M 1228 531 
L 3431 531 
L 3431 0 
L 469 0 
L 469 531 
Q 828 903 1448 1529 
Q 2069 2156 2228 2338 
Q 2531 2678 2651 2914 
Q 2772 3150 2772 3378 
Q 2772 3750 2511 3984 
Q 2250 4219 1831 4219 
Q 1534 4219 1204 4116 
Q 875 4013 500 3803 
L 500 4441 
Q 881 4594 1212 4672 
Q 1544 4750 1819 4750 
Q 2544 4750 2975 4387 
Q 3406 4025 3406 3419 
Q 3406 3131 3298 2873 
Q 3191 2616 2906 2266 
Q 2828 2175 2409 1742 
Q 1991 1309 1228 531 
z
" id="DejaVuSans-32" transform="scale(0.015625)"/>
        <path d="M 691 4666 
L 3169 4666 
L 3169 4134 
L 1269 4134 
L 1269 2991 
Q 1406 3038 1543 3061 
Q 1681 3084 1819 3084 
Q 2600 3084 3056 2656 
Q 3513 2228 3513 1497 
Q 3513 744 3044 326 
Q 2575 -91 1722 -91 
Q 1428 -91 1123 -41 
Q 819 9 494 109 
L 494 744 
Q 775 591 1075 516 
Q 1375 441 1709 441 
Q 2250 441 2565 725 
Q 2881 1009 2881 1497 
Q 2881 1984 2565 2268 
Q 2250 2553 1709 2553 
Q 1456 2553 1204 2497 
Q 953 2441 691 2322 
L 691 4666 
z
" id="DejaVuSans-35" transform="scale(0.015625)"/>
       </defs>
       <use xlink:href="#DejaVuSans-32"/>
       <use x="63.623047" xlink:href="#DejaVuSans-35"/>
       <use x="127.246094" xlink:href="#DejaVuSans-30"/>
      </g>
     </g>
    </g>
    <g id="xtick_3">
     <g id="line2d_3">
      <g>
       <use style="stroke:#000000;stroke-width:0.8;" x="145.309091" xlink:href="#m96f2fb1e62" y="252"/>
      </g>
     </g>
     <g id="text_3">
      <!-- 500 -->
      <g transform="translate(135.765341 266.598437)scale(0.1 -0.1)">
       <use xlink:href="#DejaVuSans-35"/>
       <use x="63.623047" xlink:href="#DejaVuSans-30"/>
       <use x="127.246094" xlink:href="#DejaVuSans-30"/>
      </g>
     </g>
    </g>
    <g id="xtick_4">
     <g id="line2d_4">
      <g>
       <use style="stroke:#000000;stroke-width:0.8;" x="183.354545" xlink:href="#m96f2fb1e62" y="252"/>
      </g>
     </g>
     <g id="text_4">
      <!-- 750 -->
      <g transform="translate(173.810795 266.598437)scale(0.1 -0.1)">
       <defs>
        <path d="M 525 4666 
L 3525 4666 
L 3525 4397 
L 1831 0 
L 1172 0 
L 2766 4134 
L 525 4134 
L 525 4666 
z
" id="DejaVuSans-37" transform="scale(0.015625)"/>
       </defs>
       <use xlink:href="#DejaVuSans-37"/>
       <use x="63.623047" xlink:href="#DejaVuSans-35"/>
       <use x="127.246094" xlink:href="#DejaVuSans-30"/>
      </g>
     </g>
    </g>
    <g id="xtick_5">
     <g id="line2d_5">
      <g>
       <use style="stroke:#000000;stroke-width:0.8;" x="221.4" xlink:href="#m96f2fb1e62" y="252"/>
      </g>
     </g>
     <g id="text_5">
      <!-- 1000 -->
      <g transform="translate(208.675 266.598437)scale(0.1 -0.1)">
       <defs>
        <path d="M 794 531 
L 1825 531 
L 1825 4091 
L 703 3866 
L 703 4441 
L 1819 4666 
L 2450 4666 
L 2450 531 
L 3481 531 
L 3481 0 
L 794 0 
L 794 531 
z
" id="DejaVuSans-31" transform="scale(0.015625)"/>
       </defs>
       <use xlink:href="#DejaVuSans-31"/>
       <use x="63.623047" xlink:href="#DejaVuSans-30"/>
       <use x="127.246094" xlink:href="#DejaVuSans-30"/>
       <use x="190.869141" xlink:href="#DejaVuSans-30"/>
      </g>
     </g>
    </g>
    <g id="xtick_6">
     <g id="line2d_6">
      <g>
       <use style="stroke:#000000;stroke-width:0.8;" x="259.445455" xlink:href="#m96f2fb1e62" y="252"/>
      </g>
     </g>
     <g id="text_6">
      <!-- 1250 -->
      <g transform="translate(246.720455 266.598437)scale(0.1 -0.1)">
       <use xlink:href="#DejaVuSans-31"/>
       <use x="63.623047" xlink:href="#DejaVuSans-32"/>
       <use x="127.246094" xlink:href="#DejaVuSans-35"/>
       <use x="190.869141" xlink:href="#DejaVuSans-30"/>
      </g>
     </g>
    </g>
    <g id="xtick_7">
     <g id="line2d_7">
      <g>
       <use style="stroke:#000000;stroke-width:0.8;" x="297.490909" xlink:href="#m96f2fb1e62" y="252"/>
      </g>
     </g>
     <g id="text_7">
      <!-- 1500 -->
      <g transform="translate(284.765909 266.598437)scale(0.1 -0.1)">
       <use xlink:href="#DejaVuSans-31"/>
       <use x="63.623047" xlink:href="#DejaVuSans-35"/>
       <use x="127.246094" xlink:href="#DejaVuSans-30"/>
       <use x="190.869141" xlink:href="#DejaVuSans-30"/>
      </g>
     </g>
    </g>
    <g id="xtick_8">
     <g id="line2d_8">
      <g>
       <use style="stroke:#000000;stroke-width:0.8;" x="335.536364" xlink:href="#m96f2fb1e62" y="252"/>
      </g>
     </g>
     <g id="text_8">
      <!-- 1750 -->
      <g transform="translate(322.811364 266.598437)scale(0.1 -0.1)">
       <use xlink:href="#DejaVuSans-31"/>
       <use x="63.623047" xlink:href="#DejaVuSans-37"/>
       <use x="127.246094" xlink:href="#DejaVuSans-35"/>
       <use x="190.869141" xlink:href="#DejaVuSans-30"/>
      </g>
     </g>
    </g>
    <g id="xtick_9">
     <g id="line2d_9">
      <g>
       <use style="stroke:#000000;stroke-width:0.8;" x="373.581818" xlink:href="#m96f2fb1e62" y="252"/>
      </g>
     </g>
     <g id="text_9">
      <!-- 2000 -->
      <g transform="translate(360.856818 266.598437)scale(0.1 -0.1)">
       <use xlink:href="#DejaVuSans-32"/>
       <use x="63.623047" xlink:href="#DejaVuSans-30"/>
       <use x="127.246094" xlink:href="#DejaVuSans-30"/>
       <use x="190.869141" xlink:href="#DejaVuSans-30"/>
      </g>
     </g>
    </g>
   </g>
   <g id="matplotlib.axis_2">
    <g id="ytick_1">
     <g id="line2d_10">
      <defs>
       <path d="M 0 0 
L -3.5 0 
" id="m4db287e20a" style="stroke:#000000;stroke-width:0.8;"/>
      </defs>
      <g>
       <use style="stroke:#000000;stroke-width:0.8;" x="54" xlink:href="#m4db287e20a" y="242.116364"/>
      </g>
     </g>
     <g id="text_10">
      <!-- −1.00 -->
      <g transform="translate(16.354687 245.915582)scale(0.1 -0.1)">
       <defs>
        <path d="M 678 2272 
L 4684 2272 
L 4684 1741 
L 678 1741 
L 678 2272 
z
" id="DejaVuSans-2212" transform="scale(0.015625)"/>
        <path d="M 684 794 
L 1344 794 
L 1344 0 
L 684 0 
L 684 794 
z
" id="DejaVuSans-2e" transform="scale(0.015625)"/>
       </defs>
       <use xlink:href="#DejaVuSans-2212"/>
       <use x="83.789062" xlink:href="#DejaVuSans-31"/>
       <use x="147.412109" xlink:href="#DejaVuSans-2e"/>
       <use x="179.199219" xlink:href="#DejaVuSans-30"/>
       <use x="242.822266" xlink:href="#DejaVuSans-30"/>
      </g>
     </g>
    </g>
    <g id="ytick_2">
     <g id="line2d_11">
      <g>
       <use style="stroke:#000000;stroke-width:0.8;" x="54" xlink:href="#m4db287e20a" y="215.953797"/>
      </g>
     </g>
     <g id="text_11">
      <!-- −0.75 -->
      <g transform="translate(16.354687 219.753016)scale(0.1 -0.1)">
       <use xlink:href="#DejaVuSans-2212"/>
       <use x="83.789062" xlink:href="#DejaVuSans-30"/>
       <use x="147.412109" xlink:href="#DejaVuSans-2e"/>
       <use x="179.199219" xlink:href="#DejaVuSans-37"/>
       <use x="242.822266" xlink:href="#DejaVuSans-35"/>
      </g>
     </g>
    </g>
    <g id="ytick_3">
     <g id="line2d_12">
      <g>
       <use style="stroke:#000000;stroke-width:0.8;" x="54" xlink:href="#m4db287e20a" y="189.79123"/>
      </g>
     </g>
     <g id="text_12">
      <!-- −0.50 -->
      <g transform="translate(16.354687 193.590449)scale(0.1 -0.1)">
       <use xlink:href="#DejaVuSans-2212"/>
       <use x="83.789062" xlink:href="#DejaVuSans-30"/>
       <use x="147.412109" xlink:href="#DejaVuSans-2e"/>
       <use x="179.199219" xlink:href="#DejaVuSans-35"/>
       <use x="242.822266" xlink:href="#DejaVuSans-30"/>
      </g>
     </g>
    </g>
    <g id="ytick_4">
     <g id="line2d_13">
      <g>
       <use style="stroke:#000000;stroke-width:0.8;" x="54" xlink:href="#m4db287e20a" y="163.628663"/>
      </g>
     </g>
     <g id="text_13">
      <!-- −0.25 -->
      <g transform="translate(16.354687 167.427882)scale(0.1 -0.1)">
       <use xlink:href="#DejaVuSans-2212"/>
       <use x="83.789062" xlink:href="#DejaVuSans-30"/>
       <use x="147.412109" xlink:href="#DejaVuSans-2e"/>
       <use x="179.199219" xlink:href="#DejaVuSans-32"/>
       <use x="242.822266" xlink:href="#DejaVuSans-35"/>
      </g>
     </g>
    </g>
    <g id="ytick_5">
     <g id="line2d_14">
      <g>
       <use style="stroke:#000000;stroke-width:0.8;" x="54" xlink:href="#m4db287e20a" y="137.466097"/>
      </g>
     </g>
     <g id="text_14">
      <!-- 0.00 -->
      <g transform="translate(24.734375 141.265315)scale(0.1 -0.1)">
       <use xlink:href="#DejaVuSans-30"/>
       <use x="63.623047" xlink:href="#DejaVuSans-2e"/>
       <use x="95.410156" xlink:href="#DejaVuSans-30"/>
       <use x="159.033203" xlink:href="#DejaVuSans-30"/>
      </g>
     </g>
    </g>
    <g id="ytick_6">
     <g id="line2d_15">
      <g>
       <use style="stroke:#000000;stroke-width:0.8;" x="54" xlink:href="#m4db287e20a" y="111.30353"/>
      </g>
     </g>
     <g id="text_15">
      <!-- 0.25 -->
      <g transform="translate(24.734375 115.102749)scale(0.1 -0.1)">
       <use xlink:href="#DejaVuSans-30"/>
       <use x="63.623047" xlink:href="#DejaVuSans-2e"/>
       <use x="95.410156" xlink:href="#DejaVuSans-32"/>
       <use x="159.033203" xlink:href="#DejaVuSans-35"/>
      </g>
     </g>
    </g>
    <g id="ytick_7">
     <g id="line2d_16">
      <g>
       <use style="stroke:#000000;stroke-width:0.8;" x="54" xlink:href="#m4db287e20a" y="85.140963"/>
      </g>
     </g>
     <g id="text_16">
      <!-- 0.50 -->
      <g transform="translate(24.734375 88.940182)scale(0.1 -0.1)">
       <use xlink:href="#DejaVuSans-30"/>
       <use x="63.623047" xlink:href="#DejaVuSans-2e"/>
       <use x="95.410156" xlink:href="#DejaVuSans-35"/>
       <use x="159.033203" xlink:href="#DejaVuSans-30"/>
      </g>
     </g>
    </g>
    <g id="ytick_8">
     <g id="line2d_17">
      <g>
       <use style="stroke:#000000;stroke-width:0.8;" x="54" xlink:href="#m4db287e20a" y="58.978396"/>
      </g>
     </g>
     <g id="text_17">
      <!-- 0.75 -->
      <g transform="translate(24.734375 62.777615)scale(0.1 -0.1)">
       <use xlink:href="#DejaVuSans-30"/>
       <use x="63.623047" xlink:href="#DejaVuSans-2e"/>
       <use x="95.410156" xlink:href="#DejaVuSans-37"/>
       <use x="159.033203" xlink:href="#DejaVuSans-35"/>
      </g>
     </g>
    </g>
   </g>
   <g id="line2d_18">
    <path clip-path="url(#pc9e0ce5a6d)" d="M 69.218182 157.81476 
L 69.370364 90.954866 
L 69.522545 156.361283 
L 69.674727 89.50139 
L 69.826909 170.896043 
L 69.979091 134.559145 
L 70.131273 134.559145 
L 70.283455 162.175187 
L 70.435636 137.466097 
L 70.587818 137.466097 
L 70.74 173.802994 
L 70.892182 118.57091 
L 71.044364 141.826525 
L 71.196545 83.687486 
L 71.348727 201.419037 
L 71.500909 118.57091 
L 71.805273 144.733477 
L 71.957455 140.373049 
L 72.109636 153.454332 
L 72.414 111.30353 
L 72.566182 146.186952 
L 72.718364 125.838289 
L 72.870545 152.000857 
L 73.022727 102.582673 
L 73.174909 183.977327 
L 73.327091 117.117433 
L 73.479273 118.57091 
L 73.631455 154.907808 
L 73.783636 140.373049 
L 73.935818 89.50139 
L 74.088 157.81476 
L 74.240182 105.489626 
L 74.392364 122.931337 
L 74.544545 127.291765 
L 74.696727 199.96556 
L 75.001091 134.559145 
L 75.153273 138.919572 
L 75.305455 188.337754 
L 75.457636 111.30353 
L 75.609818 176.709947 
L 75.762 150.54738 
L 75.914182 163.628663 
L 76.066364 134.559145 
L 76.370727 169.442567 
L 76.522909 170.896043 
L 76.675091 117.117433 
L 76.827273 185.430803 
L 76.979455 144.733477 
L 77.131636 146.186952 
L 77.283818 152.000857 
L 77.436 179.6169 
L 77.588182 114.210485 
L 77.740364 147.640428 
L 77.892545 146.186952 
L 78.044727 138.919572 
L 78.196909 137.466097 
L 78.349091 144.733477 
L 78.501273 92.408343 
L 78.653455 156.361283 
L 78.805636 96.76877 
L 78.957818 150.54738 
L 79.11 121.477862 
L 79.262182 114.210485 
L 79.414364 130.198717 
L 79.566545 99.675723 
L 79.718727 105.489626 
L 79.870909 154.907808 
L 80.023091 61.88535 
L 80.175273 118.57091 
L 80.327455 117.117433 
L 80.479636 124.384813 
L 80.631818 111.30353 
L 80.784 153.454332 
L 80.936182 95.315293 
L 81.088364 152.000857 
L 81.240545 134.559145 
L 81.392727 137.466097 
L 81.544909 104.03615 
L 81.697091 128.745241 
L 81.849273 134.559145 
L 82.001455 188.337754 
L 82.153636 143.28 
L 82.305818 143.28 
L 82.458 111.30353 
L 82.610182 178.163423 
L 82.762364 154.907808 
L 82.914545 170.896043 
L 83.066727 201.419037 
L 83.218909 178.163423 
L 83.371091 133.105669 
L 83.523273 178.163423 
L 83.675455 125.838289 
L 83.827636 122.931337 
L 83.979818 117.117433 
L 84.132 169.442567 
L 84.284182 109.850053 
L 84.436364 152.000857 
L 84.588545 127.291765 
L 84.740727 175.25647 
L 84.892909 125.838289 
L 85.197273 172.34952 
L 85.501636 77.873586 
L 85.653818 101.1292 
L 85.806 102.582673 
L 85.958182 172.34952 
L 86.110364 98.222246 
L 86.262545 153.454332 
L 86.414727 133.105669 
L 86.566909 157.81476 
L 86.871273 104.03615 
L 87.023455 69.152726 
L 87.175636 124.384813 
L 87.327818 127.291765 
L 87.48 162.175187 
L 87.632182 121.477862 
L 87.784364 182.52385 
L 87.936545 157.81476 
L 88.088727 172.34952 
L 88.240909 120.024385 
L 88.393091 167.98909 
L 88.545273 137.466097 
L 88.697455 165.08214 
L 89.001818 115.663958 
L 89.306182 166.535617 
L 89.458364 111.30353 
L 89.610545 183.977327 
L 89.762727 188.337754 
L 90.067091 115.663958 
L 90.219273 178.163423 
L 90.371455 117.117433 
L 90.523636 131.652193 
L 90.675818 130.198717 
L 90.828 124.384813 
L 90.980182 96.76877 
L 91.132364 162.175187 
L 91.284545 93.86182 
L 91.436727 131.652193 
L 91.588909 50.257543 
L 92.045455 124.384813 
L 92.197636 120.024385 
L 92.349818 152.000857 
L 92.502 111.30353 
L 92.654182 109.850053 
L 92.806364 128.745241 
L 92.958545 197.058607 
L 93.110727 146.186952 
L 93.262909 134.559145 
L 93.415091 114.210485 
L 93.567273 152.000857 
L 93.719455 130.198717 
L 93.871636 165.08214 
L 94.023818 167.98909 
L 94.176 150.54738 
L 94.328182 108.396577 
L 94.480364 154.907808 
L 94.632545 137.466097 
L 94.784727 202.872514 
L 94.936909 143.28 
L 95.089091 160.721709 
L 95.241273 127.291765 
L 95.393455 147.640428 
L 95.545636 138.919572 
L 95.697818 170.896043 
L 95.85 127.291765 
L 96.002182 198.512084 
L 96.154364 160.721709 
L 96.306545 163.628663 
L 96.458727 163.628663 
L 96.610909 153.454332 
L 96.763091 128.745241 
L 96.915273 163.628663 
L 97.067455 141.826525 
L 97.219636 205.779467 
L 97.371818 149.093904 
L 97.524 186.884277 
L 97.676182 150.54738 
L 97.828364 167.98909 
L 97.980545 125.838289 
L 98.132727 188.337754 
L 98.437091 124.384813 
L 98.589273 136.012621 
L 98.741455 136.012621 
L 98.893636 134.559145 
L 99.045818 166.535617 
L 99.198 146.186952 
L 99.350182 188.337754 
L 99.502364 114.210485 
L 99.654545 192.698183 
L 99.806727 99.675723 
L 99.958909 109.850053 
L 100.111091 111.30353 
L 100.263273 127.291765 
L 100.415455 202.872514 
L 100.567636 185.430803 
L 100.719818 95.315293 
L 100.872 137.466097 
L 101.024182 82.23401 
L 101.176364 104.03615 
L 101.328545 86.59444 
L 101.480727 130.198717 
L 101.632909 104.03615 
L 101.785091 122.931337 
L 101.937273 104.03615 
L 102.089455 167.98909 
L 102.241636 133.105669 
L 102.393818 141.826525 
L 102.546 133.105669 
L 102.698182 160.721709 
L 102.850364 137.466097 
L 103.002545 201.419037 
L 103.154727 144.733477 
L 103.306909 147.640428 
L 103.459091 144.733477 
L 103.763455 120.024385 
L 103.915636 175.25647 
L 104.067818 112.757006 
L 104.22 122.931337 
L 104.372182 102.582673 
L 104.524364 170.896043 
L 104.676545 82.23401 
L 104.980909 128.745241 
L 105.133091 122.931337 
L 105.285273 124.384813 
L 105.437455 182.52385 
L 105.589636 141.826525 
L 105.741818 175.25647 
L 105.894 127.291765 
L 106.046182 144.733477 
L 106.198364 131.652193 
L 106.350545 150.54738 
L 106.502727 136.012621 
L 106.654909 140.373049 
L 106.959273 162.175187 
L 107.111455 121.477862 
L 107.263636 150.54738 
L 107.415818 99.675723 
L 107.568 136.012621 
L 107.872364 147.640428 
L 108.024545 98.222246 
L 108.176727 198.512084 
L 108.328909 133.105669 
L 108.481091 166.535617 
L 108.633273 138.919572 
L 108.785455 159.268235 
L 108.937636 141.826525 
L 109.089818 176.709947 
L 109.394182 134.559145 
L 109.546364 118.57091 
L 109.698545 149.093904 
L 109.850727 138.919572 
L 110.002909 172.34952 
L 110.155091 102.582673 
L 110.307273 143.28 
L 110.459455 137.466097 
L 110.611636 163.628663 
L 110.763818 118.57091 
L 110.916 121.477862 
L 111.068182 118.57091 
L 111.372545 137.466097 
L 111.524727 191.244707 
L 111.676909 131.652193 
L 111.829091 167.98909 
L 111.981273 105.489626 
L 112.133455 140.373049 
L 112.285636 144.733477 
L 112.437818 140.373049 
L 112.59 144.733477 
L 112.742182 175.25647 
L 112.894364 121.477862 
L 113.046545 165.08214 
L 113.198727 120.024385 
L 113.350909 150.54738 
L 113.503091 147.640428 
L 113.655273 150.54738 
L 113.807455 127.291765 
L 113.959636 183.977327 
L 114.111818 88.047916 
L 114.264 165.08214 
L 114.568364 101.1292 
L 114.720545 102.582673 
L 114.872727 124.384813 
L 115.024909 124.384813 
L 115.177091 147.640428 
L 115.329273 130.198717 
L 115.481455 186.884277 
L 115.633636 144.733477 
L 115.785818 154.907808 
L 116.090182 130.198717 
L 116.242364 138.919572 
L 116.394545 192.698183 
L 116.546727 109.850053 
L 116.698909 182.52385 
L 116.851091 130.198717 
L 117.003273 127.291765 
L 117.155455 175.25647 
L 117.459818 134.559145 
L 117.612 173.802994 
L 117.764182 120.024385 
L 117.916364 181.070374 
L 118.068545 69.152726 
L 118.372909 176.709947 
L 118.525091 112.757006 
L 118.677273 154.907808 
L 118.829455 137.466097 
L 118.981636 44.443636 
L 119.133818 146.186952 
L 119.286 98.222246 
L 119.438182 125.838289 
L 119.590364 99.675723 
L 119.742545 93.86182 
L 119.894727 79.327057 
L 120.046909 122.931337 
L 120.199091 111.30353 
L 120.351273 134.559145 
L 120.503455 108.396577 
L 120.655636 178.163423 
L 120.807818 112.757006 
L 120.96 165.08214 
L 121.112182 141.826525 
L 121.264364 138.919572 
L 121.416545 115.663958 
L 121.568727 152.000857 
L 122.025273 120.024385 
L 122.481818 159.268235 
L 122.634 120.024385 
L 122.786182 149.093904 
L 122.938364 102.582673 
L 123.090545 134.559145 
L 123.242727 98.222246 
L 123.394909 194.15166 
L 123.547091 149.093904 
L 123.699273 173.802994 
L 123.851455 169.442567 
L 124.003636 176.709947 
L 124.308 150.54738 
L 124.460182 98.222246 
L 124.612364 152.000857 
L 124.764545 111.30353 
L 124.916727 137.466097 
L 125.068909 130.198717 
L 125.221091 192.698183 
L 125.677636 102.582673 
L 125.829818 154.907808 
L 126.134182 178.163423 
L 126.286364 162.175187 
L 126.438545 194.15166 
L 126.590727 141.826525 
L 126.742909 141.826525 
L 126.895091 90.954866 
L 127.047273 118.57091 
L 127.199455 125.838289 
L 127.351636 188.337754 
L 127.503818 85.140963 
L 127.656 150.54738 
L 127.960364 93.86182 
L 128.112545 115.663958 
L 128.264727 154.907808 
L 128.416909 154.907808 
L 128.569091 163.628663 
L 128.721273 133.105669 
L 128.873455 185.430803 
L 129.025636 112.757006 
L 129.177818 140.373049 
L 129.482182 112.757006 
L 129.786545 172.34952 
L 129.938727 106.943103 
L 130.090909 175.25647 
L 130.243091 99.675723 
L 130.395273 141.826525 
L 130.547455 134.559145 
L 130.699636 149.093904 
L 130.851818 150.54738 
L 131.156182 105.489626 
L 131.308364 178.163423 
L 131.460545 89.50139 
L 131.612727 125.838289 
L 131.764909 112.757006 
L 132.069273 144.733477 
L 132.221455 163.628663 
L 132.373636 67.69925 
L 132.678 118.57091 
L 132.830182 125.838289 
L 133.134545 117.117433 
L 133.286727 96.76877 
L 133.438909 167.98909 
L 133.591091 66.245773 
L 133.743273 133.105669 
L 133.895455 131.652193 
L 134.047636 125.838289 
L 134.199818 131.652193 
L 134.352 179.6169 
L 134.504182 106.943103 
L 134.656364 143.28 
L 134.808545 133.105669 
L 134.960727 141.826525 
L 135.265091 170.896043 
L 135.417273 140.373049 
L 135.569455 179.6169 
L 135.721636 120.024385 
L 135.873818 167.98909 
L 136.026 134.559145 
L 136.178182 202.872514 
L 136.482545 111.30353 
L 136.634727 169.442567 
L 136.786909 183.977327 
L 136.939091 159.268235 
L 137.091273 189.79123 
L 137.243455 88.047916 
L 137.395636 166.535617 
L 137.7 136.012621 
L 137.852182 102.582673 
L 138.308727 183.977327 
L 138.460909 150.54738 
L 138.613091 186.884277 
L 138.765273 109.850053 
L 138.917455 131.652193 
L 139.069636 170.896043 
L 139.374 96.76877 
L 139.526182 156.361283 
L 139.678364 109.850053 
L 139.830545 150.54738 
L 139.982727 70.606203 
L 140.134909 130.198717 
L 140.287091 137.466097 
L 140.439273 133.105669 
L 140.591455 122.931337 
L 140.743636 150.54738 
L 140.895818 146.186952 
L 141.048 173.802994 
L 141.200182 112.757006 
L 141.352364 162.175187 
L 141.504545 131.652193 
L 141.656727 144.733477 
L 141.808909 109.850053 
L 141.961091 182.52385 
L 142.265455 112.757006 
L 142.417636 149.093904 
L 142.569818 156.361283 
L 142.722 128.745241 
L 142.874182 195.605137 
L 143.026364 90.954866 
L 143.178545 136.012621 
L 143.330727 137.466097 
L 143.482909 133.105669 
L 143.787273 194.15166 
L 143.939455 127.291765 
L 144.091636 137.466097 
L 144.243818 122.931337 
L 144.396 194.15166 
L 144.548182 105.489626 
L 144.700364 169.442567 
L 144.852545 146.186952 
L 145.004727 141.826525 
L 145.156909 133.105669 
L 145.309091 186.884277 
L 145.613455 90.954866 
L 145.917818 156.361283 
L 146.07 96.76877 
L 146.222182 115.663958 
L 146.374364 80.780533 
L 146.526545 152.000857 
L 146.678727 121.477862 
L 146.830909 152.000857 
L 146.983091 90.954866 
L 147.135273 169.442567 
L 147.287455 160.721709 
L 147.439636 112.757006 
L 147.591818 115.663958 
L 147.744 162.175187 
L 147.896182 136.012621 
L 148.048364 136.012621 
L 148.200545 102.582673 
L 148.352727 150.54738 
L 148.504909 152.000857 
L 148.657091 159.268235 
L 148.809273 96.76877 
L 148.961455 125.838289 
L 149.113636 93.86182 
L 149.265818 138.919572 
L 149.418 124.384813 
L 149.570182 166.535617 
L 149.722364 130.198717 
L 149.874545 140.373049 
L 150.026727 95.315293 
L 150.178909 137.466097 
L 150.483273 118.57091 
L 150.635455 122.931337 
L 150.787636 175.25647 
L 150.939818 93.86182 
L 151.092 167.98909 
L 151.396364 154.907808 
L 151.548545 120.024385 
L 151.852909 166.535617 
L 152.005091 156.361283 
L 152.157273 112.757006 
L 152.309455 150.54738 
L 152.461636 104.03615 
L 152.613818 115.663958 
L 152.766 83.687486 
L 152.918182 166.535617 
L 153.070364 133.105669 
L 153.222545 149.093904 
L 153.374727 101.1292 
L 153.526909 152.000857 
L 153.831273 138.919572 
L 153.983455 106.943103 
L 154.135636 152.000857 
L 154.287818 105.489626 
L 154.44 131.652193 
L 154.592182 128.745241 
L 154.744364 146.186952 
L 155.048727 122.931337 
L 155.200909 85.140963 
L 155.353091 152.000857 
L 155.657455 167.98909 
L 155.809636 128.745241 
L 155.961818 169.442567 
L 156.114 124.384813 
L 156.266182 136.012621 
L 156.418364 122.931337 
L 156.570545 195.605137 
L 156.722727 112.757006 
L 157.179273 175.25647 
L 157.331455 85.140963 
L 157.483636 140.373049 
L 157.635818 109.850053 
L 157.788 111.30353 
L 157.940182 160.721709 
L 158.092364 127.291765 
L 158.244545 67.69925 
L 158.396727 134.559145 
L 158.548909 144.733477 
L 158.701091 181.070374 
L 158.853273 137.466097 
L 159.005455 138.919572 
L 159.157636 99.675723 
L 159.309818 144.733477 
L 159.462 89.50139 
L 159.614182 127.291765 
L 159.766364 125.838289 
L 159.918545 170.896043 
L 160.222909 152.000857 
L 160.375091 99.675723 
L 160.527273 138.919572 
L 160.679455 112.757006 
L 160.831636 170.896043 
L 161.136 98.222246 
L 161.288182 99.675723 
L 161.440364 144.733477 
L 161.592545 109.850053 
L 161.744727 157.81476 
L 161.896909 112.757006 
L 162.049091 154.907808 
L 162.201273 111.30353 
L 162.657818 181.070374 
L 162.81 105.489626 
L 163.114364 167.98909 
L 163.266545 114.210485 
L 163.418727 109.850053 
L 163.570909 197.058607 
L 163.723091 124.384813 
L 163.875273 178.163423 
L 164.027455 106.943103 
L 164.179636 185.430803 
L 164.484 79.327057 
L 164.636182 162.175187 
L 164.788364 152.000857 
L 164.940545 109.850053 
L 165.092727 197.058607 
L 165.244909 111.30353 
L 165.397091 175.25647 
L 165.549273 138.919572 
L 165.701455 143.28 
L 166.005818 182.52385 
L 166.158 182.52385 
L 166.310182 154.907808 
L 166.462364 82.23401 
L 166.614545 179.6169 
L 166.766727 112.757006 
L 167.223273 141.826525 
L 167.375455 131.652193 
L 167.527636 181.070374 
L 167.679818 141.826525 
L 167.832 163.628663 
L 167.984182 73.513156 
L 168.288545 117.117433 
L 168.440727 120.024385 
L 168.592909 88.047916 
L 168.897273 152.000857 
L 169.049455 160.721709 
L 169.201636 106.943103 
L 169.353818 130.198717 
L 169.506 80.780533 
L 169.810364 169.442567 
L 169.962545 165.08214 
L 170.114727 127.291765 
L 170.266909 175.25647 
L 170.419091 133.105669 
L 170.723455 157.81476 
L 170.875636 197.058607 
L 171.027818 114.210485 
L 171.18 178.163423 
L 171.332182 172.34952 
L 171.636545 115.663958 
L 171.788727 182.52385 
L 171.940909 143.28 
L 172.093091 179.6169 
L 172.245273 173.802994 
L 172.549636 128.745241 
L 172.701818 141.826525 
L 172.854 98.222246 
L 173.006182 144.733477 
L 173.158364 108.396577 
L 173.310545 160.721709 
L 173.462727 138.919572 
L 173.614909 156.361283 
L 173.767091 120.024385 
L 173.919273 154.907808 
L 174.071455 95.315293 
L 174.223636 101.1292 
L 174.375818 95.315293 
L 174.528 152.000857 
L 174.680182 127.291765 
L 174.832364 121.477862 
L 174.984545 108.396577 
L 175.136727 108.396577 
L 175.288909 125.838289 
L 175.441091 159.268235 
L 175.593273 106.943103 
L 175.745455 120.024385 
L 175.897636 82.23401 
L 176.049818 169.442567 
L 176.202 109.850053 
L 176.354182 138.919572 
L 176.506364 146.186952 
L 176.658545 137.466097 
L 176.810727 109.850053 
L 176.962909 122.931337 
L 177.115091 76.42011 
L 177.267273 141.826525 
L 177.419455 95.315293 
L 177.571636 160.721709 
L 177.723818 160.721709 
L 177.876 124.384813 
L 178.028182 124.384813 
L 178.180364 166.535617 
L 178.332545 114.210485 
L 178.484727 173.802994 
L 178.636909 181.070374 
L 178.789091 162.175187 
L 178.941273 114.210485 
L 179.245636 150.54738 
L 179.397818 195.605137 
L 179.55 128.745241 
L 179.702182 175.25647 
L 179.854364 133.105669 
L 180.006545 192.698183 
L 180.158727 121.477862 
L 180.310909 140.373049 
L 180.615273 137.466097 
L 180.767455 144.733477 
L 180.919636 163.628663 
L 181.071818 147.640428 
L 181.224 167.98909 
L 181.376182 125.838289 
L 181.528364 154.907808 
L 181.680545 104.03615 
L 181.832727 153.454332 
L 181.984909 152.000857 
L 182.137091 169.442567 
L 182.289273 108.396577 
L 182.441455 170.896043 
L 182.593636 111.30353 
L 182.745818 105.489626 
L 182.898 141.826525 
L 183.050182 150.54738 
L 183.202364 150.54738 
L 183.354545 191.244707 
L 183.506727 98.222246 
L 183.658909 144.733477 
L 183.811091 121.477862 
L 183.963273 150.54738 
L 184.115455 149.093904 
L 184.267636 156.361283 
L 184.419818 120.024385 
L 184.572 122.931337 
L 184.876364 172.34952 
L 185.028545 50.257543 
L 185.180727 140.373049 
L 185.637273 89.50139 
L 185.941636 163.628663 
L 186.093818 167.98909 
L 186.246 134.559145 
L 186.398182 153.454332 
L 186.550364 117.117433 
L 186.702545 137.466097 
L 186.854727 125.838289 
L 187.006909 183.977327 
L 187.159091 121.477862 
L 187.311273 197.058607 
L 187.463455 140.373049 
L 187.615636 130.198717 
L 187.92 150.54738 
L 188.072182 152.000857 
L 188.224364 157.81476 
L 188.376545 114.210485 
L 188.528727 165.08214 
L 188.680909 112.757006 
L 188.833091 152.000857 
L 189.137455 122.931337 
L 189.289636 130.198717 
L 189.441818 144.733477 
L 189.594 72.05968 
L 189.746182 111.30353 
L 189.898364 69.152726 
L 190.050545 183.977327 
L 190.202727 117.117433 
L 190.354909 120.024385 
L 190.507091 166.535617 
L 190.811455 112.757006 
L 190.963636 153.454332 
L 191.115818 149.093904 
L 191.268 191.244707 
L 191.420182 104.03615 
L 191.724545 147.640428 
L 191.876727 140.373049 
L 192.028909 114.210485 
L 192.181091 141.826525 
L 192.333273 83.687486 
L 192.485455 175.25647 
L 192.637636 133.105669 
L 192.942 143.28 
L 193.094182 172.34952 
L 193.246364 137.466097 
L 193.398545 137.466097 
L 193.550727 114.210485 
L 193.702909 122.931337 
L 193.855091 85.140963 
L 194.007273 181.070374 
L 194.159455 160.721709 
L 194.463818 105.489626 
L 194.616 138.919572 
L 194.768182 92.408343 
L 194.920364 170.896043 
L 195.072545 167.98909 
L 195.376909 124.384813 
L 195.529091 130.198717 
L 195.681273 112.757006 
L 195.833455 162.175187 
L 195.985636 128.745241 
L 196.137818 169.442567 
L 196.29 125.838289 
L 196.442182 152.000857 
L 196.594364 104.03615 
L 196.746545 160.721709 
L 196.898727 137.466097 
L 197.050909 146.186952 
L 197.203091 138.919572 
L 197.355273 189.79123 
L 197.507455 109.850053 
L 197.659636 128.745241 
L 197.811818 133.105669 
L 197.964 173.802994 
L 198.116182 127.291765 
L 198.268364 138.919572 
L 198.420545 166.535617 
L 198.572727 154.907808 
L 198.724909 89.50139 
L 198.877091 167.98909 
L 199.029273 109.850053 
L 199.181455 150.54738 
L 199.333636 159.268235 
L 199.485818 178.163423 
L 199.942364 136.012621 
L 200.094545 144.733477 
L 200.246727 118.57091 
L 200.398909 172.34952 
L 200.551091 105.489626 
L 200.703273 154.907808 
L 200.855455 117.117433 
L 201.007636 147.640428 
L 201.159818 82.23401 
L 201.312 138.919572 
L 201.464182 112.757006 
L 201.616364 134.559145 
L 201.768545 188.337754 
L 202.072909 85.140963 
L 202.225091 143.28 
L 202.377273 90.954866 
L 202.529455 186.884277 
L 202.833818 105.489626 
L 202.986 104.03615 
L 203.138182 149.093904 
L 203.290364 122.931337 
L 203.442545 131.652193 
L 203.594727 85.140963 
L 203.746909 121.477862 
L 203.899091 122.931337 
L 204.051273 175.25647 
L 204.203455 70.606203 
L 204.355636 159.268235 
L 204.507818 167.98909 
L 204.66 122.931337 
L 204.812182 156.361283 
L 204.964364 165.08214 
L 205.116545 153.454332 
L 205.268727 191.244707 
L 205.420909 114.210485 
L 205.573091 118.57091 
L 205.725273 79.327057 
L 205.877455 166.535617 
L 206.029636 152.000857 
L 206.181818 166.535617 
L 206.486182 128.745241 
L 206.638364 127.291765 
L 206.790545 186.884277 
L 206.942727 80.780533 
L 207.094909 149.093904 
L 207.247091 136.012621 
L 207.399273 141.826525 
L 207.703636 98.222246 
L 207.855818 104.03615 
L 208.008 141.826525 
L 208.160182 127.291765 
L 208.312364 157.81476 
L 208.464545 163.628663 
L 208.616727 157.81476 
L 208.768909 138.919572 
L 208.921091 181.070374 
L 209.073273 117.117433 
L 209.225455 127.291765 
L 209.377636 115.663958 
L 209.529818 170.896043 
L 209.682 106.943103 
L 209.834182 134.559145 
L 209.986364 137.466097 
L 210.138545 170.896043 
L 210.290727 131.652193 
L 210.442909 152.000857 
L 210.595091 104.03615 
L 210.747273 101.1292 
L 210.899455 122.931337 
L 211.051636 186.884277 
L 211.203818 114.210485 
L 211.356 162.175187 
L 211.508182 165.08214 
L 211.660364 162.175187 
L 211.812545 138.919572 
L 211.964727 140.373049 
L 212.116909 120.024385 
L 212.269091 173.802994 
L 212.421273 104.03615 
L 212.573455 159.268235 
L 212.725636 146.186952 
L 212.877818 181.070374 
L 213.03 154.907808 
L 213.334364 178.163423 
L 213.486545 146.186952 
L 213.638727 157.81476 
L 213.790909 202.872514 
L 213.943091 73.513156 
L 214.095273 149.093904 
L 214.247455 143.28 
L 214.399636 176.709947 
L 214.704 125.838289 
L 214.856182 137.466097 
L 215.008364 131.652193 
L 215.160545 60.431873 
L 215.312727 197.058607 
L 215.464909 156.361283 
L 215.617091 153.454332 
L 215.769273 120.024385 
L 215.921455 114.210485 
L 216.073636 137.466097 
L 216.225818 117.117433 
L 216.378 117.117433 
L 216.530182 170.896043 
L 216.682364 95.315293 
L 216.834545 176.709947 
L 216.986727 105.489626 
L 217.138909 111.30353 
L 217.291091 108.396577 
L 217.443273 121.477862 
L 217.595455 108.396577 
L 217.747636 154.907808 
L 217.899818 163.628663 
L 218.052 165.08214 
L 218.204182 120.024385 
L 218.356364 163.628663 
L 218.508545 120.024385 
L 218.660727 127.291765 
L 218.812909 127.291765 
L 218.965091 179.6169 
L 219.117273 133.105669 
L 219.269455 140.373049 
L 219.421636 99.675723 
L 219.573818 152.000857 
L 219.726 133.105669 
L 220.182545 176.709947 
L 220.334727 120.024385 
L 220.486909 159.268235 
L 220.639091 93.86182 
L 220.791273 133.105669 
L 221.095636 160.721709 
L 221.247818 115.663958 
L 221.4 130.198717 
L 221.552182 92.408343 
L 221.704364 138.919572 
L 221.856545 117.117433 
L 222.008727 124.384813 
L 222.160909 125.838289 
L 222.313091 140.373049 
L 222.465273 125.838289 
L 222.617455 144.733477 
L 222.769636 93.86182 
L 222.921818 153.454332 
L 223.074 74.966633 
L 223.226182 122.931337 
L 223.378364 131.652193 
L 223.530545 120.024385 
L 223.682727 143.28 
L 223.834909 208.68642 
L 223.987091 105.489626 
L 224.443636 149.093904 
L 224.595818 118.57091 
L 224.748 156.361283 
L 224.900182 136.012621 
L 225.052364 140.373049 
L 225.204545 136.012621 
L 225.356727 199.96556 
L 225.508909 150.54738 
L 225.661091 160.721709 
L 225.965455 137.466097 
L 226.117636 141.826525 
L 226.269818 214.50032 
L 226.422 133.105669 
L 226.574182 117.117433 
L 226.726364 134.559145 
L 226.878545 136.012621 
L 227.030727 92.408343 
L 227.182909 159.268235 
L 227.335091 67.69925 
L 227.487273 165.08214 
L 227.791636 114.210485 
L 228.096 154.907808 
L 228.400364 138.919572 
L 228.552545 85.140963 
L 228.704727 121.477862 
L 229.161273 92.408343 
L 229.313455 162.175187 
L 229.465636 121.477862 
L 229.617818 163.628663 
L 229.77 109.850053 
L 229.922182 183.977327 
L 230.226545 144.733477 
L 230.378727 147.640428 
L 230.530909 131.652193 
L 230.683091 130.198717 
L 230.835273 183.977327 
L 230.987455 120.024385 
L 231.139636 160.721709 
L 231.291818 111.30353 
L 231.444 199.96556 
L 231.748364 115.663958 
L 232.052727 140.373049 
L 232.204909 121.477862 
L 232.357091 160.721709 
L 232.509273 167.98909 
L 232.661455 201.419037 
L 232.813636 122.931337 
L 233.270182 169.442567 
L 233.422364 149.093904 
L 233.574545 197.058607 
L 233.726727 122.931337 
L 233.878909 157.81476 
L 234.031091 101.1292 
L 234.183273 159.268235 
L 234.335455 163.628663 
L 234.639818 147.640428 
L 234.792 149.093904 
L 234.944182 88.047916 
L 235.096364 156.361283 
L 235.248545 112.757006 
L 235.400727 156.361283 
L 235.552909 125.838289 
L 235.705091 127.291765 
L 235.857273 124.384813 
L 236.009455 125.838289 
L 236.161636 167.98909 
L 236.313818 152.000857 
L 236.466 76.42011 
L 236.618182 130.198717 
L 236.770364 77.873586 
L 236.922545 183.977327 
L 237.074727 109.850053 
L 237.226909 114.210485 
L 237.379091 127.291765 
L 237.531273 125.838289 
L 237.683455 89.50139 
L 237.987818 134.559145 
L 238.14 131.652193 
L 238.444364 153.454332 
L 238.596545 83.687486 
L 238.748727 144.733477 
L 238.900909 115.663958 
L 239.053091 167.98909 
L 239.205273 124.384813 
L 239.509636 167.98909 
L 239.661818 157.81476 
L 239.814 117.117433 
L 239.966182 211.593367 
L 240.118364 136.012621 
L 240.270545 163.628663 
L 240.422727 140.373049 
L 240.574909 141.826525 
L 240.727091 140.373049 
L 241.031455 125.838289 
L 241.183636 131.652193 
L 241.335818 149.093904 
L 241.488 185.430803 
L 241.640182 109.850053 
L 241.792364 192.698183 
L 241.944545 111.30353 
L 242.096727 156.361283 
L 242.248909 112.757006 
L 242.553273 141.826525 
L 242.705455 137.466097 
L 242.857636 159.268235 
L 243.009818 163.628663 
L 243.162 80.780533 
L 243.314182 156.361283 
L 243.466364 101.1292 
L 243.618545 147.640428 
L 243.922909 120.024385 
L 244.227273 140.373049 
L 244.379455 122.931337 
L 244.531636 136.012621 
L 244.683818 53.16449 
L 244.836 147.640428 
L 244.988182 98.222246 
L 245.140364 120.024385 
L 245.444727 108.396577 
L 245.749091 159.268235 
L 245.901273 127.291765 
L 246.053455 125.838289 
L 246.205636 73.513156 
L 246.357818 179.6169 
L 246.51 149.093904 
L 246.662182 182.52385 
L 246.814364 156.361283 
L 246.966545 153.454332 
L 247.118727 176.709947 
L 247.270909 169.442567 
L 247.423091 128.745241 
L 247.575273 166.535617 
L 247.727455 108.396577 
L 247.879636 141.826525 
L 248.031818 115.663958 
L 248.184 204.32599 
L 248.488364 105.489626 
L 248.640545 153.454332 
L 248.792727 163.628663 
L 248.944909 136.012621 
L 249.097091 218.86075 
L 249.249273 138.919572 
L 249.401455 170.896043 
L 249.705818 111.30353 
L 250.010182 169.442567 
L 250.162364 128.745241 
L 250.314545 199.96556 
L 250.466727 154.907808 
L 250.618909 160.721709 
L 250.771091 96.76877 
L 251.075455 89.50139 
L 251.227636 122.931337 
L 251.379818 83.687486 
L 251.532 125.838289 
L 251.684182 122.931337 
L 251.836364 140.373049 
L 252.140727 80.780533 
L 252.292909 98.222246 
L 252.445091 210.13989 
L 252.597273 108.396577 
L 252.749455 150.54738 
L 252.901636 124.384813 
L 253.053818 197.058607 
L 253.358182 152.000857 
L 253.510364 109.850053 
L 253.662545 105.489626 
L 253.966909 211.593367 
L 254.119091 118.57091 
L 254.271273 176.709947 
L 254.423455 167.98909 
L 254.575636 172.34952 
L 254.727818 191.244707 
L 255.032182 144.733477 
L 255.184364 226.128127 
L 255.336545 138.919572 
L 255.488727 197.058607 
L 255.640909 149.093904 
L 255.793091 153.454332 
L 255.945273 152.000857 
L 256.097455 178.163423 
L 256.249636 146.186952 
L 256.401818 169.442567 
L 256.554 104.03615 
L 256.706182 146.186952 
L 256.858364 101.1292 
L 257.010545 121.477862 
L 257.162727 98.222246 
L 257.314909 105.489626 
L 257.467091 120.024385 
L 257.619273 157.81476 
L 257.771455 85.140963 
L 257.923636 114.210485 
L 258.075818 63.338826 
L 258.228 89.50139 
L 258.380182 153.454332 
L 258.532364 133.105669 
L 258.684545 74.966633 
L 258.836727 181.070374 
L 258.988909 95.315293 
L 259.141091 99.675723 
L 259.597636 178.163423 
L 259.749818 96.76877 
L 259.902 90.954866 
L 260.054182 223.221174 
L 260.206364 115.663958 
L 260.358545 204.32599 
L 260.510727 90.954866 
L 260.815091 166.535617 
L 260.967273 134.559145 
L 261.119455 159.268235 
L 261.271636 138.919572 
L 261.576 213.046844 
L 261.728182 141.826525 
L 261.880364 176.709947 
L 262.032545 102.582673 
L 262.184727 215.953797 
L 262.336909 169.442567 
L 262.489091 185.430803 
L 262.641273 153.454332 
L 262.945636 160.721709 
L 263.097818 159.268235 
L 263.25 138.919572 
L 263.402182 141.826525 
L 263.554364 131.652193 
L 263.706545 157.81476 
L 263.858727 83.687486 
L 264.163091 128.745241 
L 264.315273 133.105669 
L 264.467455 72.05968 
L 264.619636 134.559145 
L 264.771818 51.711019 
L 265.076182 128.745241 
L 265.380545 108.396577 
L 265.532727 120.024385 
L 265.684909 85.140963 
L 265.837091 147.640428 
L 265.989273 108.396577 
L 266.141455 127.291765 
L 266.293636 114.210485 
L 266.445818 167.98909 
L 266.598 109.850053 
L 266.750182 186.884277 
L 266.902364 105.489626 
L 267.054545 120.024385 
L 267.206727 182.52385 
L 267.358909 170.896043 
L 267.511091 169.442567 
L 267.663273 186.884277 
L 267.815455 150.54738 
L 267.967636 188.337754 
L 268.119818 115.663958 
L 268.424182 205.779467 
L 268.576364 202.872514 
L 268.728545 152.000857 
L 268.880727 195.605137 
L 269.032909 138.919572 
L 269.185091 128.745241 
L 269.337273 166.535617 
L 269.489455 169.442567 
L 269.641636 114.210485 
L 269.793818 157.81476 
L 269.946 117.117433 
L 270.098182 128.745241 
L 270.250364 74.966633 
L 270.402545 131.652193 
L 270.554727 111.30353 
L 270.706909 157.81476 
L 270.859091 128.745241 
L 271.011273 146.186952 
L 271.163455 141.826525 
L 271.315636 131.652193 
L 271.467818 105.489626 
L 271.62 141.826525 
L 271.772182 105.489626 
L 271.924364 124.384813 
L 272.076545 127.291765 
L 272.228727 149.093904 
L 272.380909 106.943103 
L 272.533091 152.000857 
L 272.685273 104.03615 
L 272.837455 138.919572 
L 272.989636 117.117433 
L 273.141818 191.244707 
L 273.294 138.919572 
L 273.446182 133.105669 
L 273.750545 183.977327 
L 273.902727 159.268235 
L 274.054909 185.430803 
L 274.207091 114.210485 
L 274.511455 166.535617 
L 274.663636 173.802994 
L 274.815818 114.210485 
L 274.968 182.52385 
L 275.120182 121.477862 
L 275.272364 143.28 
L 275.424545 128.745241 
L 275.576727 167.98909 
L 276.033273 104.03615 
L 276.185455 121.477862 
L 276.337636 92.408343 
L 276.489818 133.105669 
L 276.642 112.757006 
L 276.794182 112.757006 
L 276.946364 96.76877 
L 277.098545 175.25647 
L 277.250727 122.931337 
L 277.402909 150.54738 
L 277.555091 133.105669 
L 277.707273 183.977327 
L 277.859455 157.81476 
L 278.011636 170.896043 
L 278.163818 130.198717 
L 278.316 157.81476 
L 278.468182 138.919572 
L 278.620364 163.628663 
L 278.924727 120.024385 
L 279.076909 102.582673 
L 279.229091 147.640428 
L 279.381273 93.86182 
L 279.533455 160.721709 
L 279.685636 162.175187 
L 279.837818 118.57091 
L 279.99 120.024385 
L 280.142182 172.34952 
L 280.294364 109.850053 
L 280.446545 160.721709 
L 280.598727 106.943103 
L 280.750909 143.28 
L 280.903091 136.012621 
L 281.055273 181.070374 
L 281.511818 124.384813 
L 281.664 137.466097 
L 281.816182 133.105669 
L 282.120545 112.757006 
L 282.272727 165.08214 
L 282.424909 80.780533 
L 282.577091 173.802994 
L 282.729273 137.466097 
L 282.881455 165.08214 
L 283.033636 136.012621 
L 283.338 163.628663 
L 283.490182 189.79123 
L 283.642364 149.093904 
L 283.794545 182.52385 
L 283.946727 118.57091 
L 284.098909 175.25647 
L 284.251091 147.640428 
L 284.403273 181.070374 
L 284.555455 149.093904 
L 284.707636 147.640428 
L 284.859818 150.54738 
L 285.164182 109.850053 
L 285.316364 152.000857 
L 285.468545 140.373049 
L 285.620727 191.244707 
L 285.772909 127.291765 
L 285.925091 163.628663 
L 286.077273 137.466097 
L 286.229455 150.54738 
L 286.381636 137.466097 
L 286.533818 106.943103 
L 286.686 122.931337 
L 286.838182 185.430803 
L 286.990364 109.850053 
L 287.142545 188.337754 
L 287.294727 98.222246 
L 287.446909 106.943103 
L 287.599091 127.291765 
L 287.751273 128.745241 
L 288.055636 143.28 
L 288.207818 88.047916 
L 288.512182 144.733477 
L 288.664364 154.907808 
L 288.816545 89.50139 
L 288.968727 170.896043 
L 289.120909 131.652193 
L 289.273091 150.54738 
L 289.425273 99.675723 
L 289.577455 153.454332 
L 289.729636 120.024385 
L 289.881818 134.559145 
L 290.338364 114.210485 
L 290.490545 173.802994 
L 290.642727 140.373049 
L 290.794909 144.733477 
L 290.947091 154.907808 
L 291.099273 201.419037 
L 291.251455 127.291765 
L 291.403636 194.15166 
L 291.555818 160.721709 
L 291.708 166.535617 
L 291.860182 146.186952 
L 292.012364 173.802994 
L 292.164545 167.98909 
L 292.316727 131.652193 
L 292.468909 127.291765 
L 292.621091 167.98909 
L 292.773273 114.210485 
L 292.925455 229.03508 
L 293.077636 154.907808 
L 293.229818 143.28 
L 293.382 166.535617 
L 293.534182 153.454332 
L 293.686364 105.489626 
L 293.838545 167.98909 
L 294.142909 98.222246 
L 294.295091 115.663958 
L 294.447273 153.454332 
L 294.599455 112.757006 
L 294.751636 163.628663 
L 294.903818 101.1292 
L 295.208182 152.000857 
L 295.360364 162.175187 
L 295.512545 127.291765 
L 295.664727 147.640428 
L 295.816909 96.76877 
L 295.969091 156.361283 
L 296.121273 121.477862 
L 296.273455 117.117433 
L 296.425636 101.1292 
L 296.577818 183.977327 
L 296.73 138.919572 
L 296.882182 134.559145 
L 297.034364 89.50139 
L 297.338727 150.54738 
L 297.490909 156.361283 
L 297.643091 111.30353 
L 297.795273 124.384813 
L 297.947455 124.384813 
L 298.099636 185.430803 
L 298.251818 134.559145 
L 298.404 122.931337 
L 298.556182 125.838289 
L 298.708364 182.52385 
L 298.860545 127.291765 
L 299.012727 137.466097 
L 299.164909 121.477862 
L 299.317091 162.175187 
L 299.469273 144.733477 
L 299.621455 150.54738 
L 299.773636 112.757006 
L 299.925818 134.559145 
L 300.078 125.838289 
L 300.230182 173.802994 
L 300.382364 117.117433 
L 300.534545 179.6169 
L 300.686727 140.373049 
L 300.838909 163.628663 
L 300.991091 130.198717 
L 301.295455 149.093904 
L 301.447636 141.826525 
L 301.599818 105.489626 
L 301.752 124.384813 
L 301.904182 128.745241 
L 302.056364 170.896043 
L 302.208545 86.59444 
L 302.512909 159.268235 
L 302.665091 153.454332 
L 302.817273 83.687486 
L 302.969455 153.454332 
L 303.121636 124.384813 
L 303.273818 144.733477 
L 303.426 124.384813 
L 303.578182 189.79123 
L 303.730364 188.337754 
L 303.882545 154.907808 
L 304.034727 147.640428 
L 304.186909 185.430803 
L 304.339091 131.652193 
L 304.491273 160.721709 
L 304.643455 138.919572 
L 304.795636 138.919572 
L 304.947818 111.30353 
L 305.252182 130.198717 
L 305.404364 160.721709 
L 305.556545 162.175187 
L 305.708727 221.767703 
L 306.013091 93.86182 
L 306.165273 79.327057 
L 306.317455 167.98909 
L 306.469636 138.919572 
L 306.621818 189.79123 
L 306.774 108.396577 
L 306.926182 122.931337 
L 307.078364 112.757006 
L 307.230545 178.163423 
L 307.534909 88.047916 
L 307.839273 167.98909 
L 307.991455 127.291765 
L 308.143636 192.698183 
L 308.295818 146.186952 
L 308.448 202.872514 
L 308.600182 195.605137 
L 308.752364 146.186952 
L 308.904545 134.559145 
L 309.208909 140.373049 
L 309.361091 204.32599 
L 309.513273 90.954866 
L 309.665455 147.640428 
L 309.817636 149.093904 
L 309.969818 146.186952 
L 310.122 138.919572 
L 310.274182 159.268235 
L 310.426364 114.210485 
L 310.578545 156.361283 
L 310.730727 104.03615 
L 310.882909 146.186952 
L 311.035091 137.466097 
L 311.187273 153.454332 
L 311.339455 95.315293 
L 311.491636 80.780533 
L 311.796 176.709947 
L 311.948182 92.408343 
L 312.100364 102.582673 
L 312.252545 92.408343 
L 312.404727 170.896043 
L 312.556909 144.733477 
L 312.709091 162.175187 
L 312.861273 127.291765 
L 313.013455 165.08214 
L 313.317818 72.05968 
L 313.622182 152.000857 
L 313.774364 73.513156 
L 313.926545 146.186952 
L 314.078727 88.047916 
L 314.230909 104.03615 
L 314.383091 98.222246 
L 314.535273 138.919572 
L 314.687455 109.850053 
L 314.839636 172.34952 
L 314.991818 117.117433 
L 315.144 122.931337 
L 315.296182 138.919572 
L 315.600545 92.408343 
L 315.752727 150.54738 
L 315.904909 109.850053 
L 316.361455 153.454332 
L 316.513636 104.03615 
L 316.665818 189.79123 
L 316.818 153.454332 
L 316.970182 208.68642 
L 317.122364 127.291765 
L 317.274545 109.850053 
L 317.578909 195.605137 
L 317.731091 136.012621 
L 317.883273 140.373049 
L 318.035455 128.745241 
L 318.187636 210.13989 
L 318.339818 131.652193 
L 318.492 138.919572 
L 318.796364 172.34952 
L 318.948545 138.919572 
L 319.100727 163.628663 
L 319.252909 130.198717 
L 319.405091 172.34952 
L 319.557273 138.919572 
L 319.709455 191.244707 
L 320.013818 106.943103 
L 320.318182 140.373049 
L 320.470364 121.477862 
L 320.622545 124.384813 
L 320.774727 88.047916 
L 320.926909 160.721709 
L 321.079091 61.88535 
L 321.231273 117.117433 
L 321.383455 108.396577 
L 321.535636 79.327057 
L 321.687818 99.675723 
L 321.84 170.896043 
L 321.992182 82.23401 
L 322.144364 185.430803 
L 322.448727 120.024385 
L 322.600909 144.733477 
L 322.753091 108.396577 
L 322.905273 122.931337 
L 323.057455 162.175187 
L 323.209636 118.57091 
L 323.361818 173.802994 
L 323.514 120.024385 
L 323.666182 143.28 
L 323.818364 95.315293 
L 324.427091 181.070374 
L 324.579273 189.79123 
L 324.731455 153.454332 
L 324.883636 242.116364 
L 325.035818 137.466097 
L 325.188 137.466097 
L 325.340182 173.802994 
L 325.492364 178.163423 
L 325.644545 141.826525 
L 325.796727 167.98909 
L 325.948909 106.943103 
L 326.101091 152.000857 
L 326.253273 104.03615 
L 326.405455 152.000857 
L 326.709818 128.745241 
L 326.862 183.977327 
L 327.014182 183.977327 
L 327.166364 143.28 
L 327.318545 175.25647 
L 327.470727 109.850053 
L 327.622909 153.454332 
L 327.775091 114.210485 
L 328.079455 122.931337 
L 328.231636 153.454332 
L 328.383818 111.30353 
L 328.536 165.08214 
L 328.688182 58.978396 
L 328.840364 77.873586 
L 329.144727 160.721709 
L 329.296909 138.919572 
L 329.449091 179.6169 
L 329.601273 80.780533 
L 329.905636 141.826525 
L 330.21 118.57091 
L 330.362182 156.361283 
L 330.514364 96.76877 
L 330.666545 134.559145 
L 330.818727 136.012621 
L 330.970909 157.81476 
L 331.123091 101.1292 
L 331.275273 128.745241 
L 331.427455 133.105669 
L 331.579636 183.977327 
L 331.731818 169.442567 
L 331.884 167.98909 
L 332.036182 131.652193 
L 332.188364 163.628663 
L 332.340545 106.943103 
L 332.492727 157.81476 
L 332.644909 137.466097 
L 332.797091 160.721709 
L 332.949273 106.943103 
L 333.101455 149.093904 
L 333.405818 118.57091 
L 333.558 120.024385 
L 333.710182 122.931337 
L 333.862364 136.012621 
L 334.014545 217.407274 
L 334.166727 134.559145 
L 334.318909 138.919572 
L 334.471091 109.850053 
L 334.623273 182.52385 
L 334.775455 143.28 
L 334.927636 149.093904 
L 335.232 102.582673 
L 335.384182 136.012621 
L 335.536364 195.605137 
L 335.688545 93.86182 
L 335.840727 157.81476 
L 335.992909 173.802994 
L 336.297273 106.943103 
L 336.449455 140.373049 
L 336.601636 128.745241 
L 336.753818 192.698183 
L 336.906 141.826525 
L 337.058182 188.337754 
L 337.210364 114.210485 
L 337.514727 165.08214 
L 337.819091 133.105669 
L 337.971273 194.15166 
L 338.123455 159.268235 
L 338.275636 172.34952 
L 338.58 120.024385 
L 338.732182 125.838289 
L 338.884364 175.25647 
L 339.036545 140.373049 
L 339.188727 215.953797 
L 339.340909 130.198717 
L 339.493091 154.907808 
L 339.949636 120.024385 
L 340.101818 153.454332 
L 340.254 131.652193 
L 340.406182 186.884277 
L 340.558364 104.03615 
L 340.710545 160.721709 
L 340.862727 146.186952 
L 341.014909 147.640428 
L 341.167091 146.186952 
L 341.319273 128.745241 
L 341.471455 150.54738 
L 341.623636 149.093904 
L 341.775818 86.59444 
L 341.928 163.628663 
L 342.080182 122.931337 
L 342.232364 112.757006 
L 342.384545 112.757006 
L 342.536727 150.54738 
L 342.688909 89.50139 
L 342.841091 162.175187 
L 342.993273 172.34952 
L 343.145455 198.512084 
L 343.297636 120.024385 
L 343.449818 115.663958 
L 343.602 98.222246 
L 343.754182 188.337754 
L 343.906364 117.117433 
L 344.058545 124.384813 
L 344.210727 143.28 
L 344.362909 109.850053 
L 344.515091 101.1292 
L 344.667273 147.640428 
L 344.819455 130.198717 
L 344.971636 147.640428 
L 345.123818 98.222246 
L 345.276 140.373049 
L 345.428182 102.582673 
L 345.580364 147.640428 
L 345.732545 115.663958 
L 345.884727 141.826525 
L 346.189091 104.03615 
L 346.493455 153.454332 
L 346.645636 111.30353 
L 346.797818 136.012621 
L 346.95 99.675723 
L 347.102182 179.6169 
L 347.254364 95.315293 
L 347.406545 131.652193 
L 347.558727 133.105669 
L 347.710909 137.466097 
L 348.015273 114.210485 
L 348.167455 85.140963 
L 348.319636 160.721709 
L 348.471818 115.663958 
L 348.776182 192.698183 
L 348.928364 189.79123 
L 349.080545 128.745241 
L 349.232727 143.28 
L 349.384909 101.1292 
L 349.537091 98.222246 
L 349.841455 185.430803 
L 349.993636 98.222246 
L 350.145818 138.919572 
L 350.298 90.954866 
L 350.450182 152.000857 
L 350.754545 118.57091 
L 350.906727 117.117433 
L 351.058909 124.384813 
L 351.363273 167.98909 
L 351.515455 101.1292 
L 351.667636 140.373049 
L 351.819818 108.396577 
L 351.972 183.977327 
L 352.124182 128.745241 
L 352.276364 130.198717 
L 352.428545 121.477862 
L 352.580727 163.628663 
L 352.732909 134.559145 
L 352.885091 162.175187 
L 353.037273 160.721709 
L 353.189455 150.54738 
L 353.341636 92.408343 
L 353.493818 157.81476 
L 353.646 144.733477 
L 353.798182 178.163423 
L 353.950364 118.57091 
L 354.102545 173.802994 
L 354.406909 154.907808 
L 354.711273 175.25647 
L 354.863455 134.559145 
L 355.015636 178.163423 
L 355.167818 141.826525 
L 355.32 156.361283 
L 355.472182 134.559145 
L 355.624364 137.466097 
L 355.928727 170.896043 
L 356.080909 115.663958 
L 356.233091 169.442567 
L 356.385273 99.675723 
L 356.537455 117.117433 
L 356.689636 114.210485 
L 356.841818 156.361283 
L 356.994 92.408343 
L 357.146182 120.024385 
L 357.298364 90.954866 
L 357.450545 85.140963 
L 357.602727 99.675723 
L 357.754909 146.186952 
L 357.907091 105.489626 
L 358.059273 105.489626 
L 358.211455 89.50139 
L 358.363636 114.210485 
L 358.515818 90.954866 
L 358.668 120.024385 
L 358.820182 98.222246 
L 358.972364 149.093904 
L 359.124545 82.23401 
L 359.428909 133.105669 
L 359.581091 162.175187 
L 359.733273 146.186952 
L 359.885455 172.34952 
L 360.037636 130.198717 
L 360.189818 211.593367 
L 360.342 144.733477 
L 360.494182 144.733477 
L 360.798545 189.79123 
L 360.950727 152.000857 
L 361.102909 178.163423 
L 361.255091 157.81476 
L 361.407273 176.709947 
L 361.559455 117.117433 
L 361.711636 124.384813 
L 362.016 176.709947 
L 362.168182 131.652193 
L 362.320364 167.98909 
L 362.472545 120.024385 
L 362.624727 154.907808 
L 362.776909 114.210485 
L 362.929091 152.000857 
L 363.081273 118.57091 
L 363.233455 143.28 
L 363.385636 95.315293 
L 363.537818 108.396577 
L 363.69 80.780533 
L 363.842182 125.838289 
L 363.994364 117.117433 
L 364.146545 157.81476 
L 364.298727 99.675723 
L 364.603091 131.652193 
L 364.907455 98.222246 
L 365.059636 141.826525 
L 365.211818 120.024385 
L 365.364 125.838289 
L 365.516182 102.582673 
L 365.668364 205.779467 
L 365.820545 105.489626 
L 365.972727 92.408343 
L 366.124909 111.30353 
L 366.277091 172.34952 
L 366.429273 137.466097 
L 366.581455 143.28 
L 366.733636 131.652193 
L 366.885818 172.34952 
L 367.038 165.08214 
L 367.190182 128.745241 
L 367.342364 141.826525 
L 367.494545 189.79123 
L 367.646727 121.477862 
L 367.798909 202.872514 
L 367.951091 152.000857 
L 368.255455 127.291765 
L 368.407636 185.430803 
L 368.559818 179.6169 
L 368.712 162.175187 
L 368.864182 131.652193 
L 369.016364 172.34952 
L 369.168545 134.559145 
L 369.320727 166.535617 
L 369.472909 144.733477 
L 369.625091 189.79123 
L 369.777273 134.559145 
L 369.929455 165.08214 
L 370.081636 98.222246 
L 370.233818 108.396577 
L 370.386 134.559145 
L 370.538182 131.652193 
L 370.690364 96.76877 
L 370.842545 169.442567 
L 371.146909 128.745241 
L 371.299091 128.745241 
L 371.451273 127.291765 
L 371.603455 114.210485 
L 371.755636 176.709947 
L 371.907818 95.315293 
L 372.06 112.757006 
L 372.212182 89.50139 
L 372.364364 165.08214 
L 372.516545 111.30353 
L 372.820909 141.826525 
L 372.973091 136.012621 
L 373.277455 153.454332 
L 373.429636 108.396577 
L 373.581818 163.628663 
L 373.581818 163.628663 
" style="fill:none;stroke:#1f77b4;stroke-linecap:square;stroke-width:1.5;"/>
   </g>
   <g id="patch_3">
    <path d="M 54 252 
L 54 34.56 
" style="fill:none;stroke:#000000;stroke-linecap:square;stroke-linejoin:miter;stroke-width:0.8;"/>
   </g>
   <g id="patch_4">
    <path d="M 388.8 252 
L 388.8 34.56 
" style="fill:none;stroke:#000000;stroke-linecap:square;stroke-linejoin:miter;stroke-width:0.8;"/>
   </g>
   <g id="patch_5">
    <path d="M 54 252 
L 388.8 252 
" style="fill:none;stroke:#000000;stroke-linecap:square;stroke-linejoin:miter;stroke-width:0.8;"/>
   </g>
   <g id="patch_6">
    <path d="M 54 34.56 
L 388.8 34.56 
" style="fill:none;stroke:#000000;stroke-linecap:square;stroke-linejoin:miter;stroke-width:0.8;"/>
   </g>
  </g>
 </g>
 <defs>
  <clipPath id="pc9e0ce5a6d">
   <rect height="217.44" width="334.8" x="54" y="34.56"/>
  </clipPath>
 </defs>
</svg>
