<?xml version="1.0" encoding="utf-8" standalone="no"?>
<!DOCTYPE svg PUBLIC "-//W3C//DTD SVG 1.1//EN"
  "http://www.w3.org/Graphics/SVG/1.1/DTD/svg11.dtd">
<svg height="288pt" version="1.1" viewBox="0 0 432 288" width="432pt" xmlns="http://www.w3.org/2000/svg" xmlns:xlink="http://www.w3.org/1999/xlink">
 <metadata>
  <rdf:RDF xmlns:cc="http://creativecommons.org/ns#" xmlns:dc="http://purl.org/dc/elements/1.1/" xmlns:rdf="http://www.w3.org/1999/02/22-rdf-syntax-ns#">
   <cc:Work>
    <dc:type rdf:resource="http://purl.org/dc/dcmitype/StillImage"/>
    <dc:date>2022-04-22T21:35:34.745920</dc:date>
    <dc:format>image/svg+xml</dc:format>
    <dc:creator>
     <cc:Agent>
      <dc:title>Matplotlib v3.4.3, https://matplotlib.org/</dc:title>
     </cc:Agent>
    </dc:creator>
   </cc:Work>
  </rdf:RDF>
 </metadata>
 <defs>
  <style type="text/css">*{stroke-linecap:butt;stroke-linejoin:round;}</style>
 </defs>
 <g id="figure_1">
  <g id="patch_1">
   <path d="M 0 288 
L 432 288 
L 432 0 
L 0 0 
z
" style="fill:none;"/>
  </g>
  <g id="axes_1">
   <g id="patch_2">
    <path d="M 54 252 
L 388.8 252 
L 388.8 34.56 
L 54 34.56 
z
" style="fill:#ffffff;"/>
   </g>
   <g id="matplotlib.axis_1">
    <g id="xtick_1">
     <g id="line2d_1">
      <defs>
       <path d="M 0 0 
L 0 3.5 
" id="m3b9908e3e5" style="stroke:#000000;stroke-width:0.8;"/>
      </defs>
      <g>
       <use style="stroke:#000000;stroke-width:0.8;" x="69.218182" xlink:href="#m3b9908e3e5" y="252"/>
      </g>
     </g>
     <g id="text_1">
      <!-- 0 -->
      <g transform="translate(66.036932 266.598437)scale(0.1 -0.1)">
       <defs>
        <path d="M 2034 4250 
Q 1547 4250 1301 3770 
Q 1056 3291 1056 2328 
Q 1056 1369 1301 889 
Q 1547 409 2034 409 
Q 2525 409 2770 889 
Q 3016 1369 3016 2328 
Q 3016 3291 2770 3770 
Q 2525 4250 2034 4250 
z
M 2034 4750 
Q 2819 4750 3233 4129 
Q 3647 3509 3647 2328 
Q 3647 1150 3233 529 
Q 2819 -91 2034 -91 
Q 1250 -91 836 529 
Q 422 1150 422 2328 
Q 422 3509 836 4129 
Q 1250 4750 2034 4750 
z
" id="DejaVuSans-30" transform="scale(0.015625)"/>
       </defs>
       <use xlink:href="#DejaVuSans-30"/>
      </g>
     </g>
    </g>
    <g id="xtick_2">
     <g id="line2d_2">
      <g>
       <use style="stroke:#000000;stroke-width:0.8;" x="107.263636" xlink:href="#m3b9908e3e5" y="252"/>
      </g>
     </g>
     <g id="text_2">
      <!-- 250 -->
      <g transform="translate(97.719886 266.598437)scale(0.1 -0.1)">
       <defs>
        <path d="M 1228 531 
L 3431 531 
L 3431 0 
L 469 0 
L 469 531 
Q 828 903 1448 1529 
Q 2069 2156 2228 2338 
Q 2531 2678 2651 2914 
Q 2772 3150 2772 3378 
Q 2772 3750 2511 3984 
Q 2250 4219 1831 4219 
Q 1534 4219 1204 4116 
Q 875 4013 500 3803 
L 500 4441 
Q 881 4594 1212 4672 
Q 1544 4750 1819 4750 
Q 2544 4750 2975 4387 
Q 3406 4025 3406 3419 
Q 3406 3131 3298 2873 
Q 3191 2616 2906 2266 
Q 2828 2175 2409 1742 
Q 1991 1309 1228 531 
z
" id="DejaVuSans-32" transform="scale(0.015625)"/>
        <path d="M 691 4666 
L 3169 4666 
L 3169 4134 
L 1269 4134 
L 1269 2991 
Q 1406 3038 1543 3061 
Q 1681 3084 1819 3084 
Q 2600 3084 3056 2656 
Q 3513 2228 3513 1497 
Q 3513 744 3044 326 
Q 2575 -91 1722 -91 
Q 1428 -91 1123 -41 
Q 819 9 494 109 
L 494 744 
Q 775 591 1075 516 
Q 1375 441 1709 441 
Q 2250 441 2565 725 
Q 2881 1009 2881 1497 
Q 2881 1984 2565 2268 
Q 2250 2553 1709 2553 
Q 1456 2553 1204 2497 
Q 953 2441 691 2322 
L 691 4666 
z
" id="DejaVuSans-35" transform="scale(0.015625)"/>
       </defs>
       <use xlink:href="#DejaVuSans-32"/>
       <use x="63.623047" xlink:href="#DejaVuSans-35"/>
       <use x="127.246094" xlink:href="#DejaVuSans-30"/>
      </g>
     </g>
    </g>
    <g id="xtick_3">
     <g id="line2d_3">
      <g>
       <use style="stroke:#000000;stroke-width:0.8;" x="145.309091" xlink:href="#m3b9908e3e5" y="252"/>
      </g>
     </g>
     <g id="text_3">
      <!-- 500 -->
      <g transform="translate(135.765341 266.598437)scale(0.1 -0.1)">
       <use xlink:href="#DejaVuSans-35"/>
       <use x="63.623047" xlink:href="#DejaVuSans-30"/>
       <use x="127.246094" xlink:href="#DejaVuSans-30"/>
      </g>
     </g>
    </g>
    <g id="xtick_4">
     <g id="line2d_4">
      <g>
       <use style="stroke:#000000;stroke-width:0.8;" x="183.354545" xlink:href="#m3b9908e3e5" y="252"/>
      </g>
     </g>
     <g id="text_4">
      <!-- 750 -->
      <g transform="translate(173.810795 266.598437)scale(0.1 -0.1)">
       <defs>
        <path d="M 525 4666 
L 3525 4666 
L 3525 4397 
L 1831 0 
L 1172 0 
L 2766 4134 
L 525 4134 
L 525 4666 
z
" id="DejaVuSans-37" transform="scale(0.015625)"/>
       </defs>
       <use xlink:href="#DejaVuSans-37"/>
       <use x="63.623047" xlink:href="#DejaVuSans-35"/>
       <use x="127.246094" xlink:href="#DejaVuSans-30"/>
      </g>
     </g>
    </g>
    <g id="xtick_5">
     <g id="line2d_5">
      <g>
       <use style="stroke:#000000;stroke-width:0.8;" x="221.4" xlink:href="#m3b9908e3e5" y="252"/>
      </g>
     </g>
     <g id="text_5">
      <!-- 1000 -->
      <g transform="translate(208.675 266.598437)scale(0.1 -0.1)">
       <defs>
        <path d="M 794 531 
L 1825 531 
L 1825 4091 
L 703 3866 
L 703 4441 
L 1819 4666 
L 2450 4666 
L 2450 531 
L 3481 531 
L 3481 0 
L 794 0 
L 794 531 
z
" id="DejaVuSans-31" transform="scale(0.015625)"/>
       </defs>
       <use xlink:href="#DejaVuSans-31"/>
       <use x="63.623047" xlink:href="#DejaVuSans-30"/>
       <use x="127.246094" xlink:href="#DejaVuSans-30"/>
       <use x="190.869141" xlink:href="#DejaVuSans-30"/>
      </g>
     </g>
    </g>
    <g id="xtick_6">
     <g id="line2d_6">
      <g>
       <use style="stroke:#000000;stroke-width:0.8;" x="259.445455" xlink:href="#m3b9908e3e5" y="252"/>
      </g>
     </g>
     <g id="text_6">
      <!-- 1250 -->
      <g transform="translate(246.720455 266.598437)scale(0.1 -0.1)">
       <use xlink:href="#DejaVuSans-31"/>
       <use x="63.623047" xlink:href="#DejaVuSans-32"/>
       <use x="127.246094" xlink:href="#DejaVuSans-35"/>
       <use x="190.869141" xlink:href="#DejaVuSans-30"/>
      </g>
     </g>
    </g>
    <g id="xtick_7">
     <g id="line2d_7">
      <g>
       <use style="stroke:#000000;stroke-width:0.8;" x="297.490909" xlink:href="#m3b9908e3e5" y="252"/>
      </g>
     </g>
     <g id="text_7">
      <!-- 1500 -->
      <g transform="translate(284.765909 266.598437)scale(0.1 -0.1)">
       <use xlink:href="#DejaVuSans-31"/>
       <use x="63.623047" xlink:href="#DejaVuSans-35"/>
       <use x="127.246094" xlink:href="#DejaVuSans-30"/>
       <use x="190.869141" xlink:href="#DejaVuSans-30"/>
      </g>
     </g>
    </g>
    <g id="xtick_8">
     <g id="line2d_8">
      <g>
       <use style="stroke:#000000;stroke-width:0.8;" x="335.536364" xlink:href="#m3b9908e3e5" y="252"/>
      </g>
     </g>
     <g id="text_8">
      <!-- 1750 -->
      <g transform="translate(322.811364 266.598437)scale(0.1 -0.1)">
       <use xlink:href="#DejaVuSans-31"/>
       <use x="63.623047" xlink:href="#DejaVuSans-37"/>
       <use x="127.246094" xlink:href="#DejaVuSans-35"/>
       <use x="190.869141" xlink:href="#DejaVuSans-30"/>
      </g>
     </g>
    </g>
    <g id="xtick_9">
     <g id="line2d_9">
      <g>
       <use style="stroke:#000000;stroke-width:0.8;" x="373.581818" xlink:href="#m3b9908e3e5" y="252"/>
      </g>
     </g>
     <g id="text_9">
      <!-- 2000 -->
      <g transform="translate(360.856818 266.598437)scale(0.1 -0.1)">
       <use xlink:href="#DejaVuSans-32"/>
       <use x="63.623047" xlink:href="#DejaVuSans-30"/>
       <use x="127.246094" xlink:href="#DejaVuSans-30"/>
       <use x="190.869141" xlink:href="#DejaVuSans-30"/>
      </g>
     </g>
    </g>
   </g>
   <g id="matplotlib.axis_2">
    <g id="ytick_1">
     <g id="line2d_10">
      <defs>
       <path d="M 0 0 
L -3.5 0 
" id="m69d29ae4b6" style="stroke:#000000;stroke-width:0.8;"/>
      </defs>
      <g>
       <use style="stroke:#000000;stroke-width:0.8;" x="54" xlink:href="#m69d29ae4b6" y="242.116364"/>
      </g>
     </g>
     <g id="text_10">
      <!-- −1.00 -->
      <g transform="translate(16.354687 245.915582)scale(0.1 -0.1)">
       <defs>
        <path d="M 678 2272 
L 4684 2272 
L 4684 1741 
L 678 1741 
L 678 2272 
z
" id="DejaVuSans-2212" transform="scale(0.015625)"/>
        <path d="M 684 794 
L 1344 794 
L 1344 0 
L 684 0 
L 684 794 
z
" id="DejaVuSans-2e" transform="scale(0.015625)"/>
       </defs>
       <use xlink:href="#DejaVuSans-2212"/>
       <use x="83.789062" xlink:href="#DejaVuSans-31"/>
       <use x="147.412109" xlink:href="#DejaVuSans-2e"/>
       <use x="179.199219" xlink:href="#DejaVuSans-30"/>
       <use x="242.822266" xlink:href="#DejaVuSans-30"/>
      </g>
     </g>
    </g>
    <g id="ytick_2">
     <g id="line2d_11">
      <g>
       <use style="stroke:#000000;stroke-width:0.8;" x="54" xlink:href="#m69d29ae4b6" y="217.045676"/>
      </g>
     </g>
     <g id="text_11">
      <!-- −0.75 -->
      <g transform="translate(16.354687 220.844895)scale(0.1 -0.1)">
       <use xlink:href="#DejaVuSans-2212"/>
       <use x="83.789062" xlink:href="#DejaVuSans-30"/>
       <use x="147.412109" xlink:href="#DejaVuSans-2e"/>
       <use x="179.199219" xlink:href="#DejaVuSans-37"/>
       <use x="242.822266" xlink:href="#DejaVuSans-35"/>
      </g>
     </g>
    </g>
    <g id="ytick_3">
     <g id="line2d_12">
      <g>
       <use style="stroke:#000000;stroke-width:0.8;" x="54" xlink:href="#m69d29ae4b6" y="191.974989"/>
      </g>
     </g>
     <g id="text_12">
      <!-- −0.50 -->
      <g transform="translate(16.354687 195.774208)scale(0.1 -0.1)">
       <use xlink:href="#DejaVuSans-2212"/>
       <use x="83.789062" xlink:href="#DejaVuSans-30"/>
       <use x="147.412109" xlink:href="#DejaVuSans-2e"/>
       <use x="179.199219" xlink:href="#DejaVuSans-35"/>
       <use x="242.822266" xlink:href="#DejaVuSans-30"/>
      </g>
     </g>
    </g>
    <g id="ytick_4">
     <g id="line2d_13">
      <g>
       <use style="stroke:#000000;stroke-width:0.8;" x="54" xlink:href="#m69d29ae4b6" y="166.904302"/>
      </g>
     </g>
     <g id="text_13">
      <!-- −0.25 -->
      <g transform="translate(16.354687 170.703521)scale(0.1 -0.1)">
       <use xlink:href="#DejaVuSans-2212"/>
       <use x="83.789062" xlink:href="#DejaVuSans-30"/>
       <use x="147.412109" xlink:href="#DejaVuSans-2e"/>
       <use x="179.199219" xlink:href="#DejaVuSans-32"/>
       <use x="242.822266" xlink:href="#DejaVuSans-35"/>
      </g>
     </g>
    </g>
    <g id="ytick_5">
     <g id="line2d_14">
      <g>
       <use style="stroke:#000000;stroke-width:0.8;" x="54" xlink:href="#m69d29ae4b6" y="141.833615"/>
      </g>
     </g>
     <g id="text_14">
      <!-- 0.00 -->
      <g transform="translate(24.734375 145.632833)scale(0.1 -0.1)">
       <use xlink:href="#DejaVuSans-30"/>
       <use x="63.623047" xlink:href="#DejaVuSans-2e"/>
       <use x="95.410156" xlink:href="#DejaVuSans-30"/>
       <use x="159.033203" xlink:href="#DejaVuSans-30"/>
      </g>
     </g>
    </g>
    <g id="ytick_6">
     <g id="line2d_15">
      <g>
       <use style="stroke:#000000;stroke-width:0.8;" x="54" xlink:href="#m69d29ae4b6" y="116.762927"/>
      </g>
     </g>
     <g id="text_15">
      <!-- 0.25 -->
      <g transform="translate(24.734375 120.562146)scale(0.1 -0.1)">
       <use xlink:href="#DejaVuSans-30"/>
       <use x="63.623047" xlink:href="#DejaVuSans-2e"/>
       <use x="95.410156" xlink:href="#DejaVuSans-32"/>
       <use x="159.033203" xlink:href="#DejaVuSans-35"/>
      </g>
     </g>
    </g>
    <g id="ytick_7">
     <g id="line2d_16">
      <g>
       <use style="stroke:#000000;stroke-width:0.8;" x="54" xlink:href="#m69d29ae4b6" y="91.69224"/>
      </g>
     </g>
     <g id="text_16">
      <!-- 0.50 -->
      <g transform="translate(24.734375 95.491459)scale(0.1 -0.1)">
       <use xlink:href="#DejaVuSans-30"/>
       <use x="63.623047" xlink:href="#DejaVuSans-2e"/>
       <use x="95.410156" xlink:href="#DejaVuSans-35"/>
       <use x="159.033203" xlink:href="#DejaVuSans-30"/>
      </g>
     </g>
    </g>
    <g id="ytick_8">
     <g id="line2d_17">
      <g>
       <use style="stroke:#000000;stroke-width:0.8;" x="54" xlink:href="#m69d29ae4b6" y="66.621553"/>
      </g>
     </g>
     <g id="text_17">
      <!-- 0.75 -->
      <g transform="translate(24.734375 70.420772)scale(0.1 -0.1)">
       <use xlink:href="#DejaVuSans-30"/>
       <use x="63.623047" xlink:href="#DejaVuSans-2e"/>
       <use x="95.410156" xlink:href="#DejaVuSans-37"/>
       <use x="159.033203" xlink:href="#DejaVuSans-35"/>
      </g>
     </g>
    </g>
    <g id="ytick_9">
     <g id="line2d_18">
      <g>
       <use style="stroke:#000000;stroke-width:0.8;" x="54" xlink:href="#m69d29ae4b6" y="41.550866"/>
      </g>
     </g>
     <g id="text_18">
      <!-- 1.00 -->
      <g transform="translate(24.734375 45.350084)scale(0.1 -0.1)">
       <use xlink:href="#DejaVuSans-31"/>
       <use x="63.623047" xlink:href="#DejaVuSans-2e"/>
       <use x="95.410156" xlink:href="#DejaVuSans-30"/>
       <use x="159.033203" xlink:href="#DejaVuSans-30"/>
      </g>
     </g>
    </g>
   </g>
   <g id="line2d_19">
    <path clip-path="url(#p92bffd982f)" d="M 69.218182 110.977383 
L 69.370364 152.440444 
L 69.522545 134.119557 
L 69.674727 165.940044 
L 69.826909 103.263326 
L 69.979091 163.047273 
L 70.131273 126.405502 
L 70.283455 145.690644 
L 70.435636 123.512728 
L 70.587818 164.975788 
L 70.74 110.977383 
L 70.892182 159.190245 
L 71.044364 138.940843 
L 71.196545 187.153703 
L 71.348727 146.654901 
L 71.500909 162.083015 
L 71.653091 120.619956 
L 71.805273 177.51113 
L 71.957455 142.797872 
L 72.109636 182.332416 
L 72.261818 158.225987 
L 72.414 154.368958 
L 72.566182 119.6557 
L 72.718364 185.22519 
L 72.870545 126.405502 
L 73.022727 210.295874 
L 73.174909 170.76133 
L 73.327091 190.046473 
L 73.479273 185.22519 
L 73.631455 176.546875 
L 73.783636 158.225987 
L 73.935818 191.010731 
L 74.088 156.297473 
L 74.240182 217.045676 
L 74.392364 180.403903 
L 74.544545 225.723988 
L 74.696727 164.01153 
L 74.848909 180.403903 
L 75.001091 151.476187 
L 75.153273 196.796276 
L 75.305455 149.547673 
L 75.457636 192.939244 
L 75.609818 154.368958 
L 75.762 187.153703 
L 75.914182 153.404701 
L 76.066364 188.117961 
L 76.218545 156.297473 
L 76.370727 189.082218 
L 76.522909 170.76133 
L 76.675091 216.081421 
L 76.827273 134.119557 
L 76.979455 172.689846 
L 77.131636 161.118759 
L 77.283818 175.582617 
L 77.436 136.048071 
L 77.588182 185.22519 
L 77.740364 134.119557 
L 77.892545 178.475388 
L 78.044727 167.86856 
L 78.196909 193.903505 
L 78.349091 137.012329 
L 78.501273 164.01153 
L 78.653455 131.226785 
L 78.805636 158.225987 
L 78.957818 110.013128 
L 79.11 160.154501 
L 79.262182 113.870157 
L 79.414364 159.190245 
L 79.566545 113.870157 
L 79.718727 104.227584 
L 79.870909 111.941641 
L 80.023091 133.1553 
L 80.175273 88.799469 
L 80.327455 117.727185 
L 80.479636 84.942438 
L 80.631818 140.869358 
L 80.784 97.477785 
L 80.936182 155.333216 
L 81.088364 91.69224 
L 81.240545 140.869358 
L 81.392727 83.013928 
L 81.544909 114.834412 
L 81.849273 124.476985 
L 82.001455 89.763724 
L 82.153636 136.048071 
L 82.305818 90.727985 
L 82.458 127.369757 
L 82.610182 95.549269 
L 82.762364 137.976586 
L 82.914545 109.04887 
L 83.066727 126.405502 
L 83.218909 93.620756 
L 83.371091 117.727185 
L 83.523273 65.657298 
L 83.675455 126.405502 
L 83.827636 106.1561 
L 83.979818 143.762129 
L 84.132 88.799469 
L 84.284182 135.083814 
L 84.436364 99.406297 
L 84.588545 103.263326 
L 84.740727 88.799469 
L 84.892909 130.262528 
L 85.045091 64.693037 
L 85.197273 139.9051 
L 85.349455 118.691442 
L 85.501636 148.583415 
L 85.653818 108.084612 
L 85.806 103.263326 
L 85.958182 83.978183 
L 86.110364 163.047273 
L 86.262545 122.54847 
L 86.414727 145.690644 
L 86.566909 124.476985 
L 86.719091 178.475388 
L 86.871273 107.120354 
L 87.023455 159.190245 
L 87.175636 103.263326 
L 87.327818 131.226785 
L 87.48 100.370555 
L 87.632182 159.190245 
L 87.784364 110.013128 
L 87.936545 111.941641 
L 88.240909 161.118759 
L 88.393091 90.727985 
L 88.545273 163.047273 
L 88.697455 105.191842 
L 89.001818 151.476187 
L 89.154 149.547673 
L 89.306182 80.121151 
L 89.458364 171.725588 
L 89.610545 116.762927 
L 89.762727 122.54847 
L 89.914909 140.869358 
L 90.067091 174.618359 
L 90.219273 118.691442 
L 90.523636 128.334013 
L 90.675818 181.368161 
L 90.828 121.584214 
L 90.980182 179.439646 
L 91.132364 90.727985 
L 91.284545 195.832021 
L 91.436727 161.118759 
L 91.588909 163.047273 
L 91.741091 152.440444 
L 91.893273 152.440444 
L 92.045455 129.298271 
L 92.197636 160.154501 
L 92.349818 115.79867 
L 92.502 186.189445 
L 92.654182 155.333216 
L 92.806364 191.974989 
L 92.958545 140.869358 
L 93.110727 155.333216 
L 93.262909 136.048071 
L 93.415091 167.86856 
L 93.567273 126.405502 
L 93.719455 171.725588 
L 93.871636 151.476187 
L 94.023818 185.22519 
L 94.176 149.547673 
L 94.328182 190.046473 
L 94.480364 146.654901 
L 94.632545 166.904302 
L 94.784727 107.120354 
L 94.936909 197.760531 
L 95.089091 176.546875 
L 95.241273 173.654101 
L 95.393455 156.297473 
L 95.545636 201.617562 
L 95.697818 156.297473 
L 95.85 207.403103 
L 96.002182 158.225987 
L 96.154364 174.618359 
L 96.306545 172.689846 
L 96.458727 204.510333 
L 96.610909 146.654901 
L 96.763091 191.974989 
L 96.915273 133.1553 
L 97.067455 168.832818 
L 97.219636 158.225987 
L 97.371818 220.902708 
L 97.524 195.832021 
L 97.676182 224.759734 
L 97.828364 151.476187 
L 97.980545 191.010731 
L 98.132727 144.726386 
L 98.589273 179.439646 
L 98.741455 140.869358 
L 98.893636 191.010731 
L 99.045818 109.04887 
L 99.198 160.154501 
L 99.350182 110.013128 
L 99.502364 163.047273 
L 99.654545 123.512728 
L 99.806727 123.512728 
L 99.958909 103.263326 
L 100.111091 156.297473 
L 100.415455 90.727985 
L 100.567636 83.013928 
L 100.719818 149.547673 
L 100.872 83.013928 
L 101.024182 120.619956 
L 101.176364 111.941641 
L 101.328545 138.940843 
L 101.480727 113.870157 
L 101.632909 139.9051 
L 101.785091 73.371355 
L 101.937273 143.762129 
L 102.089455 79.156897 
L 102.241636 109.04887 
L 102.393818 96.513527 
L 102.546 127.369757 
L 102.698182 101.334813 
L 102.850364 137.976586 
L 103.002545 94.585011 
L 103.154727 126.405502 
L 103.306909 76.264126 
L 103.459091 153.404701 
L 103.915636 121.584214 
L 104.067818 153.404701 
L 104.22 58.907496 
L 104.372182 164.975788 
L 104.524364 110.013128 
L 104.676545 155.333216 
L 104.828727 128.334013 
L 104.980909 156.297473 
L 105.133091 152.440444 
L 105.285273 176.546875 
L 105.437455 143.762129 
L 105.589636 168.832818 
L 105.741818 132.191042 
L 105.894 174.618359 
L 106.046182 161.118759 
L 106.198364 185.22519 
L 106.350545 163.047273 
L 106.502727 194.86776 
L 106.654909 152.440444 
L 106.807091 204.510333 
L 106.959273 137.012329 
L 107.111455 200.653301 
L 107.263636 164.975788 
L 107.415818 193.903505 
L 107.568 177.51113 
L 107.720182 196.796276 
L 107.872364 178.475388 
L 108.024545 218.009931 
L 108.176727 149.547673 
L 108.328909 194.86776 
L 108.481091 165.940044 
L 108.633273 202.581817 
L 108.785455 156.297473 
L 108.937636 185.22519 
L 109.089818 132.191042 
L 109.242 191.974989 
L 109.394182 193.903505 
L 109.546364 216.081421 
L 109.698545 146.654901 
L 109.850727 172.689846 
L 110.002909 164.975788 
L 110.155091 177.51113 
L 110.307273 129.298271 
L 110.459455 189.082218 
L 110.611636 127.369757 
L 110.763818 157.261727 
L 110.916 123.512728 
L 111.068182 183.296674 
L 111.220364 141.833615 
L 111.372545 145.690644 
L 111.524727 97.477785 
L 111.676909 120.619956 
L 111.829091 112.905899 
L 111.981273 134.119557 
L 112.133455 115.79867 
L 112.285636 139.9051 
L 112.437818 97.477785 
L 112.59 155.333216 
L 112.742182 71.442839 
L 112.894364 143.762129 
L 113.046545 97.477785 
L 113.198727 92.656498 
L 113.503091 148.583415 
L 113.655273 75.299865 
L 113.807455 124.476985 
L 113.959636 81.085412 
L 114.111818 115.79867 
L 114.264 65.657298 
L 114.416182 135.083814 
L 114.568364 66.621553 
L 114.720545 71.442839 
L 115.024909 116.762927 
L 115.177091 63.728782 
L 115.329273 111.941641 
L 115.481455 76.264126 
L 115.633636 128.334013 
L 115.785818 87.835209 
L 115.938 110.013128 
L 116.090182 86.870954 
L 116.242364 128.334013 
L 116.394545 86.870954 
L 116.546727 117.727185 
L 116.698909 88.799469 
L 116.851091 150.51193 
L 117.003273 121.584214 
L 117.155455 115.79867 
L 117.307636 114.834412 
L 117.459818 131.226785 
L 117.612 91.69224 
L 117.764182 164.01153 
L 117.916364 105.191842 
L 118.068545 182.332416 
L 118.220727 122.54847 
L 118.372909 157.261727 
L 118.525091 127.369757 
L 118.829455 135.083814 
L 118.981636 176.546875 
L 119.133818 135.083814 
L 119.286 189.082218 
L 119.438182 142.797872 
L 119.590364 160.154501 
L 119.742545 138.940843 
L 119.894727 159.190245 
L 120.046909 128.334013 
L 120.199091 196.796276 
L 120.351273 131.226785 
L 120.503455 194.86776 
L 120.655636 136.048071 
L 120.807818 185.22519 
L 120.96 162.083015 
L 121.112182 178.475388 
L 121.264364 178.475388 
L 121.416545 181.368161 
L 121.568727 163.047273 
L 121.720909 189.082218 
L 121.873091 137.976586 
L 122.025273 207.403103 
L 122.177455 143.762129 
L 122.329636 195.832021 
L 122.481818 173.654101 
L 122.634 181.368161 
L 122.786182 160.154501 
L 122.938364 195.832021 
L 123.090545 164.01153 
L 123.242727 176.546875 
L 123.394909 153.404701 
L 123.547091 213.188645 
L 123.699273 132.191042 
L 123.851455 184.260932 
L 124.003636 153.404701 
L 124.155818 165.940044 
L 124.308 134.119557 
L 124.460182 175.582617 
L 124.612364 132.191042 
L 124.764545 180.403903 
L 124.916727 134.119557 
L 125.068909 157.261727 
L 125.221091 123.512728 
L 125.373273 167.86856 
L 125.525455 141.833615 
L 125.677636 160.154501 
L 125.829818 145.690644 
L 125.982 180.403903 
L 126.134182 113.870157 
L 126.286364 172.689846 
L 126.438545 132.191042 
L 126.590727 150.51193 
L 126.742909 136.048071 
L 126.895091 149.547673 
L 127.047273 121.584214 
L 127.199455 179.439646 
L 127.351636 104.227584 
L 127.503818 170.76133 
L 127.656 123.512728 
L 127.808182 163.047273 
L 127.960364 154.368958 
L 128.112545 169.797073 
L 128.264727 155.333216 
L 128.416909 181.368161 
L 128.569091 168.832818 
L 128.721273 200.653301 
L 128.873455 116.762927 
L 129.025636 197.760531 
L 129.177818 122.54847 
L 129.33 159.190245 
L 129.482182 162.083015 
L 129.634364 129.298271 
L 129.786545 130.262528 
L 129.938727 172.689846 
L 130.090909 126.405502 
L 130.243091 190.046473 
L 130.395273 131.226785 
L 130.547455 188.117961 
L 130.699636 165.940044 
L 130.851818 175.582617 
L 131.004 135.083814 
L 131.156182 175.582617 
L 131.308364 143.762129 
L 131.460545 174.618359 
L 131.612727 156.297473 
L 131.764909 195.832021 
L 131.917091 129.298271 
L 132.069273 178.475388 
L 132.221455 149.547673 
L 132.373636 168.832818 
L 132.525818 137.012329 
L 132.678 160.154501 
L 132.830182 131.226785 
L 132.982364 177.51113 
L 133.134545 137.012329 
L 133.286727 168.832818 
L 133.438909 135.083814 
L 133.591091 175.582617 
L 133.743273 123.512728 
L 133.895455 164.975788 
L 134.047636 141.833615 
L 134.199818 158.225987 
L 134.352 103.263326 
L 134.504182 150.51193 
L 134.656364 119.6557 
L 134.808545 169.797073 
L 134.960727 144.726386 
L 135.112909 168.832818 
L 135.265091 125.441242 
L 135.417273 171.725588 
L 135.569455 96.513527 
L 135.721636 106.1561 
L 135.873818 92.656498 
L 136.026 138.940843 
L 136.178182 99.406297 
L 136.330364 155.333216 
L 136.482545 94.585011 
L 136.634727 89.763724 
L 136.786909 111.941641 
L 136.939091 152.440444 
L 137.091273 94.585011 
L 137.243455 157.261727 
L 137.395636 84.942438 
L 137.547818 150.51193 
L 137.7 99.406297 
L 137.852182 126.405502 
L 138.308727 96.513527 
L 138.460909 119.6557 
L 138.613091 75.299865 
L 138.765273 155.333216 
L 138.917455 101.334813 
L 139.069636 122.54847 
L 139.221818 95.549269 
L 139.374 149.547673 
L 139.526182 119.6557 
L 139.678364 130.262528 
L 139.830545 114.834412 
L 139.982727 185.22519 
L 140.134909 118.691442 
L 140.287091 144.726386 
L 140.439273 122.54847 
L 140.591455 168.832818 
L 140.743636 145.690644 
L 140.895818 157.261727 
L 141.048 100.370555 
L 141.200182 145.690644 
L 141.352364 118.691442 
L 141.504545 164.975788 
L 141.656727 124.476985 
L 141.808909 162.083015 
L 141.961091 151.476187 
L 142.113273 194.86776 
L 142.265455 135.083814 
L 142.417636 192.939244 
L 142.569818 180.403903 
L 142.722 191.010731 
L 142.874182 157.261727 
L 143.026364 201.617562 
L 143.178545 166.904302 
L 143.330727 188.117961 
L 143.482909 172.689846 
L 143.635091 229.58102 
L 143.787273 155.333216 
L 144.243818 211.260135 
L 144.396 147.619158 
L 144.548182 207.403103 
L 144.700364 166.904302 
L 144.852545 195.832021 
L 145.004727 171.725588 
L 145.156909 187.153703 
L 145.309091 164.01153 
L 145.461273 236.330822 
L 145.613455 158.225987 
L 145.765636 206.438849 
L 146.222182 148.583415 
L 146.374364 193.903505 
L 146.526545 135.083814 
L 146.678727 168.832818 
L 146.830909 121.584214 
L 146.983091 174.618359 
L 147.135273 105.191842 
L 147.287455 152.440444 
L 147.744 110.977383 
L 147.896182 137.012329 
L 148.048364 93.620756 
L 148.200545 146.654901 
L 148.352727 109.04887 
L 148.504909 137.012329 
L 148.657091 108.084612 
L 148.809273 137.012329 
L 148.961455 121.584214 
L 149.113636 133.1553 
L 149.265818 79.156897 
L 149.418 127.369757 
L 149.570182 58.907496 
L 149.722364 127.369757 
L 149.874545 92.656498 
L 150.026727 119.6557 
L 150.178909 76.264126 
L 150.331091 99.406297 
L 150.483273 85.906699 
L 150.635455 122.54847 
L 150.787636 80.121151 
L 150.939818 123.512728 
L 151.092 82.049667 
L 151.244182 84.942438 
L 151.396364 80.121151 
L 151.548545 153.404701 
L 151.700727 95.549269 
L 151.852909 116.762927 
L 152.005091 108.084612 
L 152.157273 145.690644 
L 152.309455 88.799469 
L 152.461636 133.1553 
L 152.613818 78.192642 
L 152.766 102.299068 
L 152.918182 90.727985 
L 153.070364 136.048071 
L 153.222545 90.727985 
L 153.374727 135.083814 
L 153.526909 112.905899 
L 153.679091 133.1553 
L 153.831273 98.442039 
L 153.983455 143.762129 
L 154.135636 99.406297 
L 154.287818 164.975788 
L 154.44 116.762927 
L 154.592182 142.797872 
L 154.744364 115.79867 
L 154.896545 169.797073 
L 155.048727 147.619158 
L 155.200909 168.832818 
L 155.353091 147.619158 
L 155.505273 171.725588 
L 155.657455 149.547673 
L 155.809636 205.474588 
L 155.961818 131.226785 
L 156.114 149.547673 
L 156.266182 148.583415 
L 156.418364 196.796276 
L 156.570545 146.654901 
L 156.722727 166.904302 
L 156.874909 113.870157 
L 157.027091 189.082218 
L 157.179273 147.619158 
L 157.331455 205.474588 
L 157.483636 156.297473 
L 157.635818 173.654101 
L 157.788 174.618359 
L 157.940182 198.724791 
L 158.092364 164.01153 
L 158.244545 201.617562 
L 158.396727 169.797073 
L 158.548909 208.367364 
L 159.005455 137.012329 
L 159.157636 228.616765 
L 159.309818 121.584214 
L 159.462 180.403903 
L 159.614182 163.047273 
L 159.766364 187.153703 
L 159.918545 178.475388 
L 160.222909 147.619158 
L 160.375091 208.367364 
L 160.527273 157.261727 
L 160.679455 188.117961 
L 160.831636 112.905899 
L 160.983818 159.190245 
L 161.136 139.9051 
L 161.288182 165.940044 
L 161.440364 144.726386 
L 161.592545 178.475388 
L 161.744727 132.191042 
L 161.896909 187.153703 
L 162.049091 143.762129 
L 162.201273 168.832818 
L 162.353455 114.834412 
L 162.505636 164.01153 
L 162.657818 152.440444 
L 162.81 154.368958 
L 162.962182 124.476985 
L 163.114364 149.547673 
L 163.266545 125.441242 
L 163.418727 203.546078 
L 163.570909 125.441242 
L 163.723091 151.476187 
L 163.875273 125.441242 
L 164.027455 171.725588 
L 164.179636 123.512728 
L 164.331818 144.726386 
L 164.484 131.226785 
L 164.636182 182.332416 
L 164.788364 131.226785 
L 164.940545 160.154501 
L 165.092727 103.263326 
L 165.244909 169.797073 
L 165.397091 86.870954 
L 165.549273 127.369757 
L 165.701455 129.298271 
L 165.853636 118.691442 
L 166.005818 120.619956 
L 166.158 147.619158 
L 166.310182 83.978183 
L 166.462364 147.619158 
L 166.614545 79.156897 
L 166.918909 136.048071 
L 167.071091 164.975788 
L 167.223273 128.334013 
L 167.375455 123.512728 
L 167.527636 76.264126 
L 167.679818 124.476985 
L 167.832 88.799469 
L 167.984182 130.262528 
L 168.136364 87.835209 
L 168.288545 145.690644 
L 168.440727 83.013928 
L 168.592909 141.833615 
L 168.897273 95.549269 
L 169.049455 86.870954 
L 169.201636 137.012329 
L 169.353818 119.6557 
L 169.506 125.441242 
L 169.658182 74.33561 
L 169.810364 137.012329 
L 169.962545 114.834412 
L 170.114727 155.333216 
L 170.266909 111.941641 
L 170.419091 141.833615 
L 170.571273 100.370555 
L 170.723455 149.547673 
L 170.875636 123.512728 
L 171.027818 152.440444 
L 171.18 111.941641 
L 171.332182 150.51193 
L 171.484364 87.835209 
L 171.788727 140.869358 
L 171.940909 142.797872 
L 172.093091 97.477785 
L 172.245273 167.86856 
L 172.397455 92.656498 
L 172.549636 163.047273 
L 172.701818 120.619956 
L 172.854 140.869358 
L 173.006182 138.940843 
L 173.158364 172.689846 
L 173.310545 107.120354 
L 173.462727 148.583415 
L 173.614909 119.6557 
L 173.767091 153.404701 
L 173.919273 108.084612 
L 174.071455 166.904302 
L 174.223636 151.476187 
L 174.375818 165.940044 
L 174.528 123.512728 
L 174.680182 137.012329 
L 174.832364 122.54847 
L 174.984545 186.189445 
L 175.136727 136.048071 
L 175.288909 184.260932 
L 175.441091 150.51193 
L 175.593273 152.440444 
L 175.745455 115.79867 
L 175.897636 153.404701 
L 176.049818 110.013128 
L 176.202 163.047273 
L 176.354182 99.406297 
L 176.506364 150.51193 
L 176.658545 133.1553 
L 176.810727 149.547673 
L 176.962909 102.299068 
L 177.115091 190.046473 
L 177.267273 147.619158 
L 177.419455 164.01153 
L 177.571636 130.262528 
L 177.723818 179.439646 
L 177.876 143.762129 
L 178.028182 138.940843 
L 178.180364 112.905899 
L 178.332545 174.618359 
L 178.484727 135.083814 
L 178.636909 169.797073 
L 178.789091 134.119557 
L 178.941273 172.689846 
L 179.093455 155.333216 
L 179.245636 174.618359 
L 179.397818 127.369757 
L 179.55 180.403903 
L 179.702182 145.690644 
L 179.854364 181.368161 
L 180.006545 135.083814 
L 180.158727 194.86776 
L 180.310909 137.976586 
L 180.463091 157.261727 
L 180.615273 138.940843 
L 180.767455 138.940843 
L 180.919636 89.763724 
L 181.071818 163.047273 
L 181.224 116.762927 
L 181.376182 167.86856 
L 181.528364 135.083814 
L 181.680545 137.976586 
L 181.832727 110.977383 
L 181.984909 150.51193 
L 182.137091 126.405502 
L 182.289273 143.762129 
L 182.441455 108.084612 
L 182.593636 194.86776 
L 182.745818 153.404701 
L 182.898 169.797073 
L 183.050182 142.797872 
L 183.202364 137.976586 
L 183.354545 121.584214 
L 183.506727 177.51113 
L 183.658909 81.085412 
L 183.811091 178.475388 
L 183.963273 128.334013 
L 184.115455 149.547673 
L 184.267636 151.476187 
L 184.572 101.334813 
L 184.724182 130.262528 
L 184.876364 107.120354 
L 185.028545 164.975788 
L 185.180727 76.264126 
L 185.332909 126.405502 
L 185.485091 98.442039 
L 185.637273 180.403903 
L 186.093818 101.334813 
L 186.246 144.726386 
L 186.398182 143.762129 
L 186.550364 154.368958 
L 186.702545 97.477785 
L 186.854727 164.975788 
L 187.006909 94.585011 
L 187.159091 151.476187 
L 187.311273 97.477785 
L 187.615636 136.048071 
L 187.767818 145.690644 
L 187.92 112.905899 
L 188.072182 114.834412 
L 188.224364 92.656498 
L 188.376545 164.01153 
L 188.528727 106.1561 
L 188.680909 152.440444 
L 188.833091 153.404701 
L 188.985273 182.332416 
L 189.137455 137.012329 
L 189.289636 167.86856 
L 189.441818 112.905899 
L 189.594 161.118759 
L 189.746182 115.79867 
L 189.898364 178.475388 
L 190.050545 133.1553 
L 190.202727 160.154501 
L 190.354909 123.512728 
L 190.507091 177.51113 
L 190.659273 126.405502 
L 190.811455 123.512728 
L 190.963636 140.869358 
L 191.115818 174.618359 
L 191.268 143.762129 
L 191.420182 179.439646 
L 191.572364 130.262528 
L 191.724545 170.76133 
L 191.876727 160.154501 
L 192.028909 223.795479 
L 192.181091 152.440444 
L 192.333273 163.047273 
L 192.485455 96.513527 
L 192.637636 178.475388 
L 192.789818 181.368161 
L 192.942 165.940044 
L 193.094182 136.048071 
L 193.246364 191.010731 
L 193.398545 164.975788 
L 193.550727 184.260932 
L 193.702909 141.833615 
L 193.855091 191.974989 
L 194.007273 120.619956 
L 194.159455 171.725588 
L 194.311636 148.583415 
L 194.463818 178.475388 
L 194.616 157.261727 
L 194.768182 180.403903 
L 194.920364 140.869358 
L 195.072545 167.86856 
L 195.224727 144.726386 
L 195.376909 162.083015 
L 195.529091 114.834412 
L 195.681273 136.048071 
L 195.833455 95.549269 
L 195.985636 147.619158 
L 196.137818 120.619956 
L 196.29 180.403903 
L 196.442182 87.835209 
L 196.594364 138.940843 
L 196.746545 117.727185 
L 196.898727 116.762927 
L 197.050909 107.120354 
L 197.203091 164.01153 
L 197.355273 127.369757 
L 197.507455 133.1553 
L 197.659636 110.013128 
L 197.811818 146.654901 
L 197.964 69.514324 
L 198.116182 148.583415 
L 198.268364 105.191842 
L 198.420545 121.584214 
L 198.572727 83.978183 
L 198.724909 134.119557 
L 198.877091 83.978183 
L 199.029273 120.619956 
L 199.181455 77.228381 
L 199.638 116.762927 
L 199.790182 120.619956 
L 199.942364 155.333216 
L 200.094545 107.120354 
L 200.246727 124.476985 
L 200.398909 93.620756 
L 200.551091 149.547673 
L 200.703273 88.799469 
L 200.855455 140.869358 
L 201.007636 78.192642 
L 201.159818 140.869358 
L 201.312 99.406297 
L 201.464182 129.298271 
L 201.616364 100.370555 
L 201.768545 110.977383 
L 201.920727 96.513527 
L 202.072909 144.726386 
L 202.225091 96.513527 
L 202.377273 155.333216 
L 202.681636 113.870157 
L 202.833818 112.905899 
L 202.986 167.86856 
L 203.138182 109.04887 
L 203.290364 173.654101 
L 203.442545 123.512728 
L 203.594727 137.976586 
L 203.746909 124.476985 
L 203.899091 144.726386 
L 204.051273 84.942438 
L 204.203455 157.261727 
L 204.355636 129.298271 
L 204.507818 157.261727 
L 204.66 153.404701 
L 204.812182 184.260932 
L 204.964364 127.369757 
L 205.116545 164.975788 
L 205.268727 122.54847 
L 205.420909 176.546875 
L 205.573091 161.118759 
L 205.725273 179.439646 
L 205.877455 113.870157 
L 206.029636 161.118759 
L 206.181818 154.368958 
L 206.334 171.725588 
L 206.486182 135.083814 
L 206.638364 150.51193 
L 206.790545 111.941641 
L 206.942727 183.296674 
L 207.094909 132.191042 
L 207.247091 153.404701 
L 207.399273 143.762129 
L 207.551455 179.439646 
L 207.703636 110.977383 
L 207.855818 186.189445 
L 208.008 138.940843 
L 208.160182 179.439646 
L 208.464545 126.405502 
L 208.616727 123.512728 
L 208.768909 165.940044 
L 208.921091 112.905899 
L 209.073273 144.726386 
L 209.225455 146.654901 
L 209.377636 170.76133 
L 209.529818 104.227584 
L 209.682 151.476187 
L 209.834182 114.834412 
L 209.986364 194.86776 
L 210.138545 115.79867 
L 210.442909 129.298271 
L 210.595091 173.654101 
L 210.747273 132.191042 
L 210.899455 150.51193 
L 211.051636 110.013128 
L 211.203818 133.1553 
L 211.356 135.083814 
L 211.508182 165.940044 
L 211.660364 99.406297 
L 211.812545 153.404701 
L 211.964727 88.799469 
L 212.116909 156.297473 
L 212.269091 105.191842 
L 212.421273 135.083814 
L 212.573455 106.1561 
L 212.725636 127.369757 
L 212.877818 122.54847 
L 213.03 160.154501 
L 213.182182 154.368958 
L 213.334364 172.689846 
L 213.486545 130.262528 
L 213.638727 167.86856 
L 213.790909 150.51193 
L 213.943091 202.581817 
L 214.095273 110.013128 
L 214.247455 195.832021 
L 214.399636 156.297473 
L 214.551818 203.546078 
L 214.704 180.403903 
L 214.856182 138.940843 
L 215.008364 142.797872 
L 215.160545 199.689046 
L 215.312727 128.334013 
L 215.464909 190.046473 
L 215.617091 173.654101 
L 215.769273 219.938447 
L 216.073636 179.439646 
L 216.225818 178.475388 
L 216.378 239.223593 
L 216.530182 137.976586 
L 216.682364 208.367364 
L 216.834545 144.726386 
L 216.986727 183.296674 
L 217.138909 180.403903 
L 217.595455 197.760531 
L 217.747636 169.797073 
L 217.899818 191.974989 
L 218.052 132.191042 
L 218.204182 199.689046 
L 218.356364 127.369757 
L 218.508545 198.724791 
L 218.660727 154.368958 
L 218.812909 144.726386 
L 218.965091 143.762129 
L 219.117273 166.904302 
L 219.269455 138.940843 
L 219.421636 173.654101 
L 219.573818 135.083814 
L 219.726 182.332416 
L 219.878182 124.476985 
L 220.030364 199.689046 
L 220.182545 147.619158 
L 220.486909 130.262528 
L 220.639091 167.86856 
L 220.791273 134.119557 
L 220.943455 126.405502 
L 221.095636 83.013928 
L 221.247818 163.047273 
L 221.4 102.299068 
L 221.552182 136.048071 
L 221.704364 93.620756 
L 221.856545 110.977383 
L 222.008727 96.513527 
L 222.160909 154.368958 
L 222.313091 100.370555 
L 222.465273 128.334013 
L 222.617455 79.156897 
L 222.769636 129.298271 
L 222.921818 101.334813 
L 223.074 126.405502 
L 223.226182 85.906699 
L 223.378364 135.083814 
L 223.530545 88.799469 
L 223.682727 121.584214 
L 223.834909 80.121151 
L 223.987091 112.905899 
L 224.139273 106.1561 
L 224.291455 138.940843 
L 224.443636 112.905899 
L 224.595818 127.369757 
L 224.748 104.227584 
L 224.900182 134.119557 
L 225.052364 69.514324 
L 225.204545 160.154501 
L 225.356727 122.54847 
L 225.508909 165.940044 
L 225.661091 148.583415 
L 225.813273 152.440444 
L 225.965455 140.869358 
L 226.117636 162.083015 
L 226.269818 113.870157 
L 226.422 193.903505 
L 226.574182 148.583415 
L 226.726364 180.403903 
L 226.878545 159.190245 
L 227.030727 195.832021 
L 227.182909 150.51193 
L 227.335091 192.939244 
L 227.487273 138.940843 
L 227.639455 172.689846 
L 227.791636 141.833615 
L 227.943818 174.618359 
L 228.096 155.333216 
L 228.248182 192.939244 
L 228.400364 148.583415 
L 228.552545 166.904302 
L 228.704727 132.191042 
L 228.856909 176.546875 
L 229.009091 162.083015 
L 229.161273 197.760531 
L 229.313455 154.368958 
L 229.465636 200.653301 
L 229.617818 132.191042 
L 229.77 165.940044 
L 229.922182 136.048071 
L 230.074364 169.797073 
L 230.226545 160.154501 
L 230.378727 163.047273 
L 230.530909 122.54847 
L 230.683091 146.654901 
L 230.835273 103.263326 
L 230.987455 197.760531 
L 231.139636 117.727185 
L 231.291818 166.904302 
L 231.444 158.225987 
L 231.596182 172.689846 
L 231.748364 129.298271 
L 231.900545 133.1553 
L 232.052727 126.405502 
L 232.204909 158.225987 
L 232.357091 116.762927 
L 232.509273 167.86856 
L 232.661455 115.79867 
L 232.813636 152.440444 
L 232.965818 131.226785 
L 233.118 178.475388 
L 233.270182 142.797872 
L 233.422364 145.690644 
L 233.574545 106.1561 
L 233.726727 172.689846 
L 233.878909 113.870157 
L 234.031091 172.689846 
L 234.183273 123.512728 
L 234.487636 105.191842 
L 234.639818 150.51193 
L 234.792 98.442039 
L 234.944182 146.654901 
L 235.096364 84.942438 
L 235.248545 149.547673 
L 235.400727 115.79867 
L 235.552909 153.404701 
L 235.705091 161.118759 
L 236.009455 135.083814 
L 236.161636 144.726386 
L 236.313818 113.870157 
L 236.466 171.725588 
L 236.618182 95.549269 
L 236.770364 141.833615 
L 236.922545 111.941641 
L 237.074727 162.083015 
L 237.226909 74.33561 
L 237.379091 128.334013 
L 237.531273 118.691442 
L 237.683455 128.334013 
L 237.835636 115.79867 
L 237.987818 169.797073 
L 238.14 108.084612 
L 238.292182 126.405502 
L 238.444364 121.584214 
L 238.596545 135.083814 
L 238.748727 115.79867 
L 238.900909 169.797073 
L 239.053091 110.013128 
L 239.205273 141.833615 
L 239.357455 107.120354 
L 239.509636 146.654901 
L 239.661818 94.585011 
L 239.814 125.441242 
L 239.966182 95.549269 
L 240.118364 130.262528 
L 240.270545 84.942438 
L 240.422727 172.689846 
L 240.574909 145.690644 
L 240.727091 147.619158 
L 240.879273 113.870157 
L 241.031455 142.797872 
L 241.183636 125.441242 
L 241.335818 137.976586 
L 241.488 118.691442 
L 241.640182 173.654101 
L 241.792364 95.549269 
L 241.944545 173.654101 
L 242.096727 115.79867 
L 242.248909 140.869358 
L 242.401091 146.654901 
L 242.553273 133.1553 
L 242.705455 102.299068 
L 242.857636 160.154501 
L 243.009818 107.120354 
L 243.162 169.797073 
L 243.314182 105.191842 
L 243.466364 191.974989 
L 243.770727 120.619956 
L 243.922909 145.690644 
L 244.075091 196.796276 
L 244.227273 116.762927 
L 244.379455 155.333216 
L 244.531636 123.512728 
L 244.683818 190.046473 
L 244.836 155.333216 
L 244.988182 196.796276 
L 245.140364 157.261727 
L 245.444727 193.903505 
L 245.596909 187.153703 
L 245.749091 141.833615 
L 245.901273 204.510333 
L 246.053455 206.438849 
L 246.205636 232.473791 
L 246.357818 149.547673 
L 246.51 218.009931 
L 246.662182 151.476187 
L 246.814364 192.939244 
L 246.966545 168.832818 
L 247.118727 192.939244 
L 247.270909 189.082218 
L 247.423091 223.795479 
L 247.575273 191.010731 
L 247.727455 208.367364 
L 247.879636 156.297473 
L 248.031818 186.189445 
L 248.184 135.083814 
L 248.336182 185.22519 
L 248.488364 165.940044 
L 248.640545 173.654101 
L 248.792727 153.404701 
L 248.944909 181.368161 
L 249.097091 85.906699 
L 249.249273 193.903505 
L 249.401455 131.226785 
L 249.553636 139.9051 
L 249.705818 184.260932 
L 249.858 154.368958 
L 250.010182 91.69224 
L 250.162364 139.9051 
L 250.314545 97.477785 
L 250.466727 137.012329 
L 250.618909 83.013928 
L 250.771091 148.583415 
L 250.923273 103.263326 
L 251.075455 128.334013 
L 251.227636 100.370555 
L 251.379818 106.1561 
L 251.532 62.764521 
L 251.684182 126.405502 
L 251.836364 92.656498 
L 251.988545 135.083814 
L 252.140727 106.1561 
L 252.292909 137.976586 
L 252.445091 100.370555 
L 252.597273 123.512728 
L 252.749455 74.33561 
L 252.901636 125.441242 
L 253.053818 83.013928 
L 253.206 126.405502 
L 253.358182 101.334813 
L 253.510364 110.977383 
L 253.662545 83.013928 
L 253.814727 128.334013 
L 253.966909 84.942438 
L 254.119091 130.262528 
L 254.271273 62.764521 
L 254.423455 121.584214 
L 254.575636 117.727185 
L 254.727818 124.476985 
L 254.88 92.656498 
L 255.032182 131.226785 
L 255.184364 103.263326 
L 255.336545 137.976586 
L 255.488727 71.442839 
L 255.640909 152.440444 
L 255.793091 131.226785 
L 255.945273 149.547673 
L 256.097455 106.1561 
L 256.249636 136.048071 
L 256.401818 126.405502 
L 256.554 158.225987 
L 256.706182 95.549269 
L 256.858364 152.440444 
L 257.010545 114.834412 
L 257.162727 144.726386 
L 257.314909 135.083814 
L 257.467091 173.654101 
L 257.619273 130.262528 
L 257.771455 194.86776 
L 257.923636 147.619158 
L 258.075818 178.475388 
L 258.228 183.296674 
L 258.380182 206.438849 
L 258.532364 133.1553 
L 258.684545 182.332416 
L 258.836727 129.298271 
L 258.988909 188.117961 
L 259.141091 188.117961 
L 259.293273 191.974989 
L 259.445455 157.261727 
L 259.597636 180.403903 
L 259.749818 158.225987 
L 259.902 185.22519 
L 260.054182 141.833615 
L 260.206364 224.759734 
L 260.358545 122.54847 
L 260.510727 198.724791 
L 260.662909 172.689846 
L 260.815091 180.403903 
L 260.967273 197.760531 
L 261.119455 191.010731 
L 261.271636 158.225987 
L 261.423818 201.617562 
L 261.576 139.9051 
L 261.728182 205.474588 
L 261.880364 172.689846 
L 262.032545 209.331619 
L 262.184727 154.368958 
L 262.336909 186.189445 
L 262.489091 163.047273 
L 262.641273 187.153703 
L 262.793455 126.405502 
L 262.945636 174.618359 
L 263.097818 174.618359 
L 263.25 203.546078 
L 263.402182 162.083015 
L 263.554364 179.439646 
L 263.706545 135.083814 
L 263.858727 191.974989 
L 264.010909 124.476985 
L 264.163091 147.619158 
L 264.315273 136.048071 
L 264.467455 174.618359 
L 264.619636 133.1553 
L 264.771818 174.618359 
L 265.076182 131.226785 
L 265.228364 127.369757 
L 265.380545 200.653301 
L 265.532727 125.441242 
L 265.684909 137.976586 
L 265.837091 107.120354 
L 265.989273 134.119557 
L 266.141455 84.942438 
L 266.293636 141.833615 
L 266.445818 101.334813 
L 266.598 151.476187 
L 266.750182 114.834412 
L 266.902364 169.797073 
L 267.054545 129.298271 
L 267.206727 126.405502 
L 267.358909 111.941641 
L 267.511091 132.191042 
L 267.663273 106.1561 
L 267.815455 133.1553 
L 267.967636 95.549269 
L 268.119818 152.440444 
L 268.272 114.834412 
L 268.424182 127.369757 
L 268.576364 70.478584 
L 268.728545 158.225987 
L 268.880727 114.834412 
L 269.032909 164.01153 
L 269.185091 115.79867 
L 269.337273 123.512728 
L 269.489455 145.690644 
L 269.641636 141.833615 
L 269.793818 74.33561 
L 269.946 139.9051 
L 270.098182 82.049667 
L 270.250364 152.440444 
L 270.554727 98.442039 
L 270.706909 83.978183 
L 270.859091 165.940044 
L 271.011273 86.870954 
L 271.163455 130.262528 
L 271.315636 131.226785 
L 271.467818 139.9051 
L 271.62 96.513527 
L 271.772182 140.869358 
L 272.076545 105.191842 
L 272.228727 90.727985 
L 272.380909 134.119557 
L 272.533091 93.620756 
L 272.685273 165.940044 
L 272.837455 99.406297 
L 272.989636 144.726386 
L 273.141818 88.799469 
L 273.294 118.691442 
L 273.446182 107.120354 
L 273.598364 133.1553 
L 273.750545 107.120354 
L 273.902727 133.1553 
L 274.054909 99.406297 
L 274.207091 162.083015 
L 274.359273 125.441242 
L 274.663636 142.797872 
L 274.815818 174.618359 
L 274.968 84.942438 
L 275.120182 150.51193 
L 275.272364 118.691442 
L 275.424545 155.333216 
L 275.576727 119.6557 
L 275.728909 153.404701 
L 275.881091 126.405502 
L 276.033273 148.583415 
L 276.185455 120.619956 
L 276.337636 161.118759 
L 276.489818 101.334813 
L 276.642 131.226785 
L 276.794182 126.405502 
L 276.946364 161.118759 
L 277.098545 110.013128 
L 277.250727 145.690644 
L 277.402909 91.69224 
L 277.555091 157.261727 
L 277.707273 117.727185 
L 277.859455 156.297473 
L 278.011636 141.833615 
L 278.163818 160.154501 
L 278.316 114.834412 
L 278.468182 140.869358 
L 278.620364 129.298271 
L 278.772545 164.01153 
L 278.924727 109.04887 
L 279.076909 155.333216 
L 279.229091 111.941641 
L 279.381273 163.047273 
L 279.533455 134.119557 
L 279.685636 137.976586 
L 279.837818 124.476985 
L 279.99 151.476187 
L 280.142182 113.870157 
L 280.294364 190.046473 
L 280.446545 117.727185 
L 280.598727 154.368958 
L 280.750909 117.727185 
L 280.903091 153.404701 
L 281.055273 129.298271 
L 281.207455 161.118759 
L 281.359636 147.619158 
L 281.511818 178.475388 
L 281.664 160.154501 
L 281.816182 180.403903 
L 281.968364 156.297473 
L 282.120545 173.654101 
L 282.272727 124.476985 
L 282.424909 199.689046 
L 282.577091 139.9051 
L 282.729273 190.046473 
L 282.881455 149.547673 
L 283.033636 183.296674 
L 283.185818 143.762129 
L 283.338 173.654101 
L 283.490182 152.440444 
L 283.642364 197.760531 
L 283.794545 154.368958 
L 283.946727 211.260135 
L 284.098909 160.154501 
L 284.251091 173.654101 
L 284.403273 158.225987 
L 284.555455 184.260932 
L 284.707636 158.225987 
L 284.859818 188.117961 
L 285.012 164.975788 
L 285.164182 214.152906 
L 285.316364 170.76133 
L 285.468545 165.940044 
L 285.620727 130.262528 
L 285.772909 209.331619 
L 285.925091 129.298271 
L 286.077273 162.083015 
L 286.229455 140.869358 
L 286.381636 166.904302 
L 286.686 144.726386 
L 286.838182 92.656498 
L 286.990364 182.332416 
L 287.142545 167.86856 
L 287.294727 183.296674 
L 287.446909 134.119557 
L 287.599091 175.582617 
L 287.751273 144.726386 
L 287.903455 157.261727 
L 288.055636 137.012329 
L 288.207818 175.582617 
L 288.36 120.619956 
L 288.512182 175.582617 
L 288.664364 102.299068 
L 288.816545 180.403903 
L 288.968727 146.654901 
L 289.120909 141.833615 
L 289.273091 129.298271 
L 289.425273 163.047273 
L 289.577455 104.227584 
L 289.729636 168.832818 
L 289.881818 95.549269 
L 290.186182 144.726386 
L 290.338364 137.976586 
L 290.490545 81.085412 
L 290.642727 137.976586 
L 290.794909 109.04887 
L 290.947091 137.012329 
L 291.099273 85.906699 
L 291.251455 118.691442 
L 291.403636 96.513527 
L 291.555818 118.691442 
L 291.708 80.121151 
L 291.860182 98.442039 
L 292.012364 55.050464 
L 292.164545 114.834412 
L 292.316727 97.477785 
L 292.468909 134.119557 
L 292.621091 95.549269 
L 292.773273 113.870157 
L 292.925455 50.229178 
L 293.077636 93.620756 
L 293.229818 49.264923 
L 293.382 83.978183 
L 293.534182 44.443636 
L 293.686364 92.656498 
L 293.838545 68.550069 
L 293.990727 100.370555 
L 294.142909 80.121151 
L 294.295091 104.227584 
L 294.447273 66.621553 
L 294.599455 113.870157 
L 294.751636 66.621553 
L 294.903818 106.1561 
L 295.056 56.97898 
L 295.208182 87.835209 
L 295.360364 84.942438 
L 295.512545 112.905899 
L 295.664727 77.228381 
L 295.816909 129.298271 
L 295.969091 80.121151 
L 296.121273 105.191842 
L 296.273455 87.835209 
L 296.425636 121.584214 
L 296.577818 73.371355 
L 296.73 132.191042 
L 296.882182 101.334813 
L 297.034364 149.547673 
L 297.186545 104.227584 
L 297.338727 150.51193 
L 297.490909 105.191842 
L 297.643091 105.191842 
L 297.795273 102.299068 
L 297.947455 154.368958 
L 298.099636 125.441242 
L 298.251818 163.047273 
L 298.404 118.691442 
L 298.556182 141.833615 
L 298.708364 130.262528 
L 298.860545 164.975788 
L 299.012727 114.834412 
L 299.164909 190.046473 
L 299.317091 139.9051 
L 299.469273 143.762129 
L 299.621455 126.405502 
L 299.773636 175.582617 
L 299.925818 119.6557 
L 300.078 175.582617 
L 300.230182 160.154501 
L 300.382364 191.974989 
L 300.534545 143.762129 
L 300.686727 199.689046 
L 300.838909 163.047273 
L 300.991091 195.832021 
L 301.143273 195.832021 
L 301.295455 213.188645 
L 301.447636 171.725588 
L 301.599818 216.081421 
L 301.752 197.760531 
L 301.904182 218.974192 
L 302.056364 158.225987 
L 302.208545 242.116364 
L 302.360727 175.582617 
L 302.512909 206.438849 
L 302.665091 197.760531 
L 302.817273 209.331619 
L 302.969455 167.86856 
L 303.121636 195.832021 
L 303.273818 180.403903 
L 303.426 219.938447 
L 303.578182 181.368161 
L 303.730364 232.473791 
L 303.882545 183.296674 
L 304.034727 223.795479 
L 304.186909 177.51113 
L 304.339091 212.22439 
L 304.491273 162.083015 
L 304.643455 185.22519 
L 304.795636 172.689846 
L 304.947818 204.510333 
L 305.1 154.368958 
L 305.252182 167.86856 
L 305.404364 156.297473 
L 305.556545 202.581817 
L 305.708727 138.940843 
L 305.860909 173.654101 
L 306.013091 124.476985 
L 306.165273 157.261727 
L 306.317455 151.476187 
L 306.469636 170.76133 
L 306.621818 107.120354 
L 306.774 150.51193 
L 306.926182 107.120354 
L 307.078364 157.261727 
L 307.230545 127.369757 
L 307.382727 149.547673 
L 307.534909 115.79867 
L 307.687091 138.940843 
L 307.839273 80.121151 
L 307.991455 154.368958 
L 308.143636 90.727985 
L 308.295818 138.940843 
L 308.448 106.1561 
L 308.600182 110.013128 
L 308.752364 129.298271 
L 308.904545 123.512728 
L 309.056727 77.228381 
L 309.208909 138.940843 
L 309.361091 98.442039 
L 309.513273 143.762129 
L 309.665455 92.656498 
L 309.817636 134.119557 
L 309.969818 124.476985 
L 310.122 155.333216 
L 310.274182 100.370555 
L 310.426364 144.726386 
L 310.578545 108.084612 
L 310.730727 147.619158 
L 310.882909 87.835209 
L 311.035091 127.369757 
L 311.187273 112.905899 
L 311.339455 123.512728 
L 311.491636 90.727985 
L 311.643818 138.940843 
L 311.796 119.6557 
L 311.948182 126.405502 
L 312.100364 75.299865 
L 312.252545 145.690644 
L 312.404727 95.549269 
L 312.556909 143.762129 
L 312.709091 83.013928 
L 312.861273 120.619956 
L 313.013455 116.762927 
L 313.165636 141.833615 
L 313.317818 108.084612 
L 313.47 131.226785 
L 313.622182 104.227584 
L 313.774364 156.297473 
L 313.926545 88.799469 
L 314.078727 129.298271 
L 314.230909 133.1553 
L 314.383091 142.797872 
L 314.535273 110.013128 
L 314.687455 160.154501 
L 314.839636 114.834412 
L 314.991818 162.083015 
L 315.144 128.334013 
L 315.296182 145.690644 
L 315.448364 106.1561 
L 315.600545 166.904302 
L 315.752727 142.797872 
L 315.904909 141.833615 
L 316.057091 123.512728 
L 316.209273 198.724791 
L 316.361455 141.833615 
L 316.513636 185.22519 
L 316.665818 137.976586 
L 316.818 169.797073 
L 316.970182 137.012329 
L 317.122364 177.51113 
L 317.274545 144.726386 
L 317.426727 161.118759 
L 317.578909 150.51193 
L 317.731091 183.296674 
L 317.883273 146.654901 
L 318.035455 205.474588 
L 318.187636 112.905899 
L 318.644182 177.51113 
L 318.796364 128.334013 
L 318.948545 180.403903 
L 319.100727 149.547673 
L 319.252909 199.689046 
L 319.405091 129.298271 
L 319.557273 187.153703 
L 319.709455 122.54847 
L 319.861636 167.86856 
L 320.013818 135.083814 
L 320.166 166.904302 
L 320.318182 160.154501 
L 320.470364 161.118759 
L 320.622545 125.441242 
L 320.774727 170.76133 
L 320.926909 126.405502 
L 321.079091 192.939244 
L 321.231273 100.370555 
L 321.383455 140.869358 
L 321.535636 137.012329 
L 321.687818 150.51193 
L 321.84 99.406297 
L 321.992182 137.012329 
L 322.144364 134.119557 
L 322.296545 181.368161 
L 322.448727 121.584214 
L 322.600909 152.440444 
L 322.753091 150.51193 
L 322.905273 180.403903 
L 323.057455 105.191842 
L 323.209636 150.51193 
L 323.361818 155.333216 
L 323.514 187.153703 
L 323.666182 139.9051 
L 323.818364 164.01153 
L 323.970545 152.440444 
L 324.122727 180.403903 
L 324.274909 156.297473 
L 324.427091 176.546875 
L 324.579273 88.799469 
L 324.731455 167.86856 
L 324.883636 129.298271 
L 325.035818 180.403903 
L 325.188 175.582617 
L 325.492364 130.262528 
L 325.644545 167.86856 
L 325.796727 114.834412 
L 325.948909 201.617562 
L 326.101091 115.79867 
L 326.253273 145.690644 
L 326.405455 151.476187 
L 326.557636 174.618359 
L 326.709818 107.120354 
L 326.862 144.726386 
L 327.014182 118.691442 
L 327.166364 156.297473 
L 327.318545 134.119557 
L 327.470727 142.797872 
L 327.622909 112.905899 
L 327.775091 152.440444 
L 327.927273 117.727185 
L 328.079455 167.86856 
L 328.231636 120.619956 
L 328.383818 148.583415 
L 328.536 128.334013 
L 328.688182 190.046473 
L 328.840364 127.369757 
L 328.992545 157.261727 
L 329.144727 136.048071 
L 329.296909 178.475388 
L 329.449091 120.619956 
L 329.601273 186.189445 
L 329.753455 177.51113 
L 329.905636 182.332416 
L 330.057818 158.225987 
L 330.21 186.189445 
L 330.362182 159.190245 
L 330.514364 209.331619 
L 330.666545 152.440444 
L 330.818727 190.046473 
L 330.970909 127.369757 
L 331.123091 198.724791 
L 331.275273 171.725588 
L 331.427455 192.939244 
L 331.579636 167.86856 
L 331.731818 164.01153 
L 331.884 139.9051 
L 332.036182 172.689846 
L 332.188364 121.584214 
L 332.340545 176.546875 
L 332.492727 128.334013 
L 332.644909 200.653301 
L 332.797091 120.619956 
L 332.949273 160.154501 
L 333.101455 149.547673 
L 333.253636 157.261727 
L 333.405818 158.225987 
L 333.558 191.010731 
L 333.710182 137.012329 
L 333.862364 162.083015 
L 334.014545 115.79867 
L 334.166727 131.226785 
L 334.318909 113.870157 
L 334.471091 190.046473 
L 334.623273 92.656498 
L 334.775455 148.583415 
L 334.927636 147.619158 
L 335.079818 137.012329 
L 335.232 116.762927 
L 335.384182 173.654101 
L 335.536364 112.905899 
L 335.688545 125.441242 
L 335.840727 75.299865 
L 335.992909 161.118759 
L 336.297273 129.298271 
L 336.449455 112.905899 
L 336.601636 152.440444 
L 336.753818 90.727985 
L 336.906 151.476187 
L 337.058182 86.870954 
L 337.362545 145.690644 
L 337.514727 149.547673 
L 337.666909 90.727985 
L 337.819091 147.619158 
L 337.971273 94.585011 
L 338.123455 135.083814 
L 338.275636 88.799469 
L 338.427818 119.6557 
L 338.58 113.870157 
L 338.732182 134.119557 
L 338.884364 110.013128 
L 339.036545 168.832818 
L 339.188727 91.69224 
L 339.340909 117.727185 
L 339.493091 90.727985 
L 339.645273 142.797872 
L 339.797455 110.977383 
L 339.949636 147.619158 
L 340.101818 108.084612 
L 340.254 143.762129 
L 340.406182 68.550069 
L 340.558364 135.083814 
L 340.710545 126.405502 
L 340.862727 158.225987 
L 341.014909 135.083814 
L 341.167091 155.333216 
L 341.319273 138.940843 
L 341.471455 152.440444 
L 341.623636 116.762927 
L 341.775818 167.86856 
L 341.928 122.54847 
L 342.080182 161.118759 
L 342.232364 140.869358 
L 342.384545 161.118759 
L 342.536727 115.79867 
L 342.688909 165.940044 
L 342.841091 145.690644 
L 342.993273 187.153703 
L 343.145455 129.298271 
L 343.297636 153.404701 
L 343.449818 116.762927 
L 343.602 205.474588 
L 343.754182 152.440444 
L 343.906364 194.86776 
L 344.058545 149.547673 
L 344.210727 161.118759 
L 344.362909 131.226785 
L 344.515091 158.225987 
L 344.667273 162.083015 
L 344.819455 140.869358 
L 344.971636 94.585011 
L 345.123818 162.083015 
L 345.276 117.727185 
L 345.428182 177.51113 
L 345.580364 142.797872 
L 345.732545 163.047273 
L 345.884727 103.263326 
L 346.036909 159.190245 
L 346.189091 126.405502 
L 346.341273 131.226785 
L 346.493455 95.549269 
L 346.645636 135.083814 
L 346.797818 122.54847 
L 346.95 142.797872 
L 347.102182 103.263326 
L 347.254364 143.762129 
L 347.406545 80.121151 
L 347.558727 105.191842 
L 347.710909 96.513527 
L 347.863091 158.225987 
L 348.015273 97.477785 
L 348.167455 131.226785 
L 348.319636 95.549269 
L 348.471818 112.905899 
L 348.624 71.442839 
L 348.776182 121.584214 
L 348.928364 86.870954 
L 349.080545 96.513527 
L 349.232727 63.728782 
L 349.384909 114.834412 
L 349.537091 72.407094 
L 349.689273 79.156897 
L 349.841455 71.442839 
L 349.993636 153.404701 
L 350.145818 46.372152 
L 350.298 120.619956 
L 350.450182 96.513527 
L 350.754545 156.297473 
L 350.906727 142.797872 
L 351.058909 100.370555 
L 351.211091 137.012329 
L 351.363273 103.263326 
L 351.515455 157.261727 
L 351.667636 112.905899 
L 351.819818 167.86856 
L 351.972 125.441242 
L 352.124182 157.261727 
L 352.276364 95.549269 
L 352.428545 148.583415 
L 352.580727 115.79867 
L 352.732909 154.368958 
L 352.885091 144.726386 
L 353.037273 166.904302 
L 353.189455 123.512728 
L 353.341636 139.9051 
L 353.493818 122.54847 
L 353.646 179.439646 
L 353.798182 135.083814 
L 353.950364 166.904302 
L 354.102545 126.405502 
L 354.254727 152.440444 
L 354.406909 153.404701 
L 354.559091 197.760531 
L 354.711273 113.870157 
L 354.863455 160.154501 
L 355.015636 128.334013 
L 355.167818 179.439646 
L 355.32 149.547673 
L 355.472182 158.225987 
L 355.624364 147.619158 
L 355.776545 165.940044 
L 355.928727 135.083814 
L 356.080909 180.403903 
L 356.233091 126.405502 
L 356.385273 164.01153 
L 356.537455 117.727185 
L 356.689636 171.725588 
L 356.841818 127.369757 
L 356.994 185.22519 
L 357.146182 138.940843 
L 357.298364 162.083015 
L 357.450545 148.583415 
L 357.602727 170.76133 
L 357.754909 120.619956 
L 357.907091 148.583415 
L 358.059273 144.726386 
L 358.211455 186.189445 
L 358.363636 118.691442 
L 358.515818 123.512728 
L 358.668 120.619956 
L 358.820182 174.618359 
L 358.972364 104.227584 
L 359.124545 158.225987 
L 359.276727 137.012329 
L 359.428909 166.904302 
L 359.581091 138.940843 
L 359.733273 172.689846 
L 359.885455 142.797872 
L 360.037636 164.01153 
L 360.189818 93.620756 
L 360.342 123.512728 
L 360.494182 80.121151 
L 360.646364 157.261727 
L 360.798545 105.191842 
L 360.950727 140.869358 
L 361.102909 114.834412 
L 361.255091 136.048071 
L 361.407273 120.619956 
L 361.559455 129.298271 
L 361.711636 123.512728 
L 361.863818 157.261727 
L 362.016 104.227584 
L 362.168182 180.403903 
L 362.320364 116.762927 
L 362.472545 119.6557 
L 362.624727 108.084612 
L 362.776909 161.118759 
L 362.929091 110.977383 
L 363.081273 153.404701 
L 363.233455 127.369757 
L 363.385636 163.047273 
L 363.537818 129.298271 
L 363.69 182.332416 
L 363.842182 134.119557 
L 363.994364 173.654101 
L 364.146545 154.368958 
L 364.298727 166.904302 
L 364.450909 135.083814 
L 364.603091 184.260932 
L 364.755273 175.582617 
L 364.907455 217.045676 
L 365.059636 137.976586 
L 365.211818 164.975788 
L 365.364 154.368958 
L 365.516182 210.295874 
L 365.668364 145.690644 
L 365.820545 199.689046 
L 365.972727 175.582617 
L 366.124909 192.939244 
L 366.277091 154.368958 
L 366.429273 173.654101 
L 366.581455 132.191042 
L 366.733636 177.51113 
L 366.885818 161.118759 
L 367.342364 209.331619 
L 367.494545 135.083814 
L 367.646727 192.939244 
L 367.798909 137.012329 
L 367.951091 188.117961 
L 368.103273 167.86856 
L 368.255455 179.439646 
L 368.407636 124.476985 
L 368.559818 164.01153 
L 368.712 133.1553 
L 368.864182 182.332416 
L 369.016364 138.940843 
L 369.168545 148.583415 
L 369.320727 150.51193 
L 369.472909 168.832818 
L 369.625091 133.1553 
L 369.777273 166.904302 
L 369.929455 116.762927 
L 370.081636 188.117961 
L 370.233818 127.369757 
L 370.386 176.546875 
L 370.538182 154.368958 
L 370.690364 177.51113 
L 370.842545 164.01153 
L 370.994727 165.940044 
L 371.146909 115.79867 
L 371.299091 164.975788 
L 371.451273 110.977383 
L 371.603455 137.976586 
L 371.755636 106.1561 
L 371.907818 180.403903 
L 372.06 164.975788 
L 372.212182 171.725588 
L 372.364364 96.513527 
L 372.516545 171.725588 
L 372.668727 135.083814 
L 372.820909 148.583415 
L 372.973091 137.976586 
L 373.125273 155.333216 
L 373.277455 117.727185 
L 373.429636 180.403903 
L 373.581818 114.834412 
L 373.581818 114.834412 
" style="fill:none;stroke:#1f77b4;stroke-linecap:square;stroke-width:1.5;"/>
   </g>
   <g id="patch_3">
    <path d="M 54 252 
L 54 34.56 
" style="fill:none;stroke:#000000;stroke-linecap:square;stroke-linejoin:miter;stroke-width:0.8;"/>
   </g>
   <g id="patch_4">
    <path d="M 388.8 252 
L 388.8 34.56 
" style="fill:none;stroke:#000000;stroke-linecap:square;stroke-linejoin:miter;stroke-width:0.8;"/>
   </g>
   <g id="patch_5">
    <path d="M 54 252 
L 388.8 252 
" style="fill:none;stroke:#000000;stroke-linecap:square;stroke-linejoin:miter;stroke-width:0.8;"/>
   </g>
   <g id="patch_6">
    <path d="M 54 34.56 
L 388.8 34.56 
" style="fill:none;stroke:#000000;stroke-linecap:square;stroke-linejoin:miter;stroke-width:0.8;"/>
   </g>
  </g>
 </g>
 <defs>
  <clipPath id="p92bffd982f">
   <rect height="217.44" width="334.8" x="54" y="34.56"/>
  </clipPath>
 </defs>
</svg>
