<?xml version="1.0" encoding="utf-8" standalone="no"?>
<!DOCTYPE svg PUBLIC "-//W3C//DTD SVG 1.1//EN"
  "http://www.w3.org/Graphics/SVG/1.1/DTD/svg11.dtd">
<svg height="288pt" version="1.1" viewBox="0 0 432 288" width="432pt" xmlns="http://www.w3.org/2000/svg" xmlns:xlink="http://www.w3.org/1999/xlink">
 <metadata>
  <rdf:RDF xmlns:cc="http://creativecommons.org/ns#" xmlns:dc="http://purl.org/dc/elements/1.1/" xmlns:rdf="http://www.w3.org/1999/02/22-rdf-syntax-ns#">
   <cc:Work>
    <dc:type rdf:resource="http://purl.org/dc/dcmitype/StillImage"/>
    <dc:date>2022-04-22T12:49:45.303672</dc:date>
    <dc:format>image/svg+xml</dc:format>
    <dc:creator>
     <cc:Agent>
      <dc:title>Matplotlib v3.4.3, https://matplotlib.org/</dc:title>
     </cc:Agent>
    </dc:creator>
   </cc:Work>
  </rdf:RDF>
 </metadata>
 <defs>
  <style type="text/css">*{stroke-linecap:butt;stroke-linejoin:round;}</style>
 </defs>
 <g id="figure_1">
  <g id="patch_1">
   <path d="M 0 288 
L 432 288 
L 432 0 
L 0 0 
z
" style="fill:none;"/>
  </g>
  <g id="axes_1">
   <g id="patch_2">
    <path d="M 54 252 
L 388.8 252 
L 388.8 34.56 
L 54 34.56 
z
" style="fill:#ffffff;"/>
   </g>
   <g id="matplotlib.axis_1">
    <g id="xtick_1">
     <g id="line2d_1">
      <defs>
       <path d="M 0 0 
L 0 3.5 
" id="m3629622845" style="stroke:#000000;stroke-width:0.8;"/>
      </defs>
      <g>
       <use style="stroke:#000000;stroke-width:0.8;" x="69.218182" xlink:href="#m3629622845" y="252"/>
      </g>
     </g>
     <g id="text_1">
      <!-- 0 -->
      <g transform="translate(66.036932 266.598437)scale(0.1 -0.1)">
       <defs>
        <path d="M 2034 4250 
Q 1547 4250 1301 3770 
Q 1056 3291 1056 2328 
Q 1056 1369 1301 889 
Q 1547 409 2034 409 
Q 2525 409 2770 889 
Q 3016 1369 3016 2328 
Q 3016 3291 2770 3770 
Q 2525 4250 2034 4250 
z
M 2034 4750 
Q 2819 4750 3233 4129 
Q 3647 3509 3647 2328 
Q 3647 1150 3233 529 
Q 2819 -91 2034 -91 
Q 1250 -91 836 529 
Q 422 1150 422 2328 
Q 422 3509 836 4129 
Q 1250 4750 2034 4750 
z
" id="DejaVuSans-30" transform="scale(0.015625)"/>
       </defs>
       <use xlink:href="#DejaVuSans-30"/>
      </g>
     </g>
    </g>
    <g id="xtick_2">
     <g id="line2d_2">
      <g>
       <use style="stroke:#000000;stroke-width:0.8;" x="107.263636" xlink:href="#m3629622845" y="252"/>
      </g>
     </g>
     <g id="text_2">
      <!-- 250 -->
      <g transform="translate(97.719886 266.598437)scale(0.1 -0.1)">
       <defs>
        <path d="M 1228 531 
L 3431 531 
L 3431 0 
L 469 0 
L 469 531 
Q 828 903 1448 1529 
Q 2069 2156 2228 2338 
Q 2531 2678 2651 2914 
Q 2772 3150 2772 3378 
Q 2772 3750 2511 3984 
Q 2250 4219 1831 4219 
Q 1534 4219 1204 4116 
Q 875 4013 500 3803 
L 500 4441 
Q 881 4594 1212 4672 
Q 1544 4750 1819 4750 
Q 2544 4750 2975 4387 
Q 3406 4025 3406 3419 
Q 3406 3131 3298 2873 
Q 3191 2616 2906 2266 
Q 2828 2175 2409 1742 
Q 1991 1309 1228 531 
z
" id="DejaVuSans-32" transform="scale(0.015625)"/>
        <path d="M 691 4666 
L 3169 4666 
L 3169 4134 
L 1269 4134 
L 1269 2991 
Q 1406 3038 1543 3061 
Q 1681 3084 1819 3084 
Q 2600 3084 3056 2656 
Q 3513 2228 3513 1497 
Q 3513 744 3044 326 
Q 2575 -91 1722 -91 
Q 1428 -91 1123 -41 
Q 819 9 494 109 
L 494 744 
Q 775 591 1075 516 
Q 1375 441 1709 441 
Q 2250 441 2565 725 
Q 2881 1009 2881 1497 
Q 2881 1984 2565 2268 
Q 2250 2553 1709 2553 
Q 1456 2553 1204 2497 
Q 953 2441 691 2322 
L 691 4666 
z
" id="DejaVuSans-35" transform="scale(0.015625)"/>
       </defs>
       <use xlink:href="#DejaVuSans-32"/>
       <use x="63.623047" xlink:href="#DejaVuSans-35"/>
       <use x="127.246094" xlink:href="#DejaVuSans-30"/>
      </g>
     </g>
    </g>
    <g id="xtick_3">
     <g id="line2d_3">
      <g>
       <use style="stroke:#000000;stroke-width:0.8;" x="145.309091" xlink:href="#m3629622845" y="252"/>
      </g>
     </g>
     <g id="text_3">
      <!-- 500 -->
      <g transform="translate(135.765341 266.598437)scale(0.1 -0.1)">
       <use xlink:href="#DejaVuSans-35"/>
       <use x="63.623047" xlink:href="#DejaVuSans-30"/>
       <use x="127.246094" xlink:href="#DejaVuSans-30"/>
      </g>
     </g>
    </g>
    <g id="xtick_4">
     <g id="line2d_4">
      <g>
       <use style="stroke:#000000;stroke-width:0.8;" x="183.354545" xlink:href="#m3629622845" y="252"/>
      </g>
     </g>
     <g id="text_4">
      <!-- 750 -->
      <g transform="translate(173.810795 266.598437)scale(0.1 -0.1)">
       <defs>
        <path d="M 525 4666 
L 3525 4666 
L 3525 4397 
L 1831 0 
L 1172 0 
L 2766 4134 
L 525 4134 
L 525 4666 
z
" id="DejaVuSans-37" transform="scale(0.015625)"/>
       </defs>
       <use xlink:href="#DejaVuSans-37"/>
       <use x="63.623047" xlink:href="#DejaVuSans-35"/>
       <use x="127.246094" xlink:href="#DejaVuSans-30"/>
      </g>
     </g>
    </g>
    <g id="xtick_5">
     <g id="line2d_5">
      <g>
       <use style="stroke:#000000;stroke-width:0.8;" x="221.4" xlink:href="#m3629622845" y="252"/>
      </g>
     </g>
     <g id="text_5">
      <!-- 1000 -->
      <g transform="translate(208.675 266.598437)scale(0.1 -0.1)">
       <defs>
        <path d="M 794 531 
L 1825 531 
L 1825 4091 
L 703 3866 
L 703 4441 
L 1819 4666 
L 2450 4666 
L 2450 531 
L 3481 531 
L 3481 0 
L 794 0 
L 794 531 
z
" id="DejaVuSans-31" transform="scale(0.015625)"/>
       </defs>
       <use xlink:href="#DejaVuSans-31"/>
       <use x="63.623047" xlink:href="#DejaVuSans-30"/>
       <use x="127.246094" xlink:href="#DejaVuSans-30"/>
       <use x="190.869141" xlink:href="#DejaVuSans-30"/>
      </g>
     </g>
    </g>
    <g id="xtick_6">
     <g id="line2d_6">
      <g>
       <use style="stroke:#000000;stroke-width:0.8;" x="259.445455" xlink:href="#m3629622845" y="252"/>
      </g>
     </g>
     <g id="text_6">
      <!-- 1250 -->
      <g transform="translate(246.720455 266.598437)scale(0.1 -0.1)">
       <use xlink:href="#DejaVuSans-31"/>
       <use x="63.623047" xlink:href="#DejaVuSans-32"/>
       <use x="127.246094" xlink:href="#DejaVuSans-35"/>
       <use x="190.869141" xlink:href="#DejaVuSans-30"/>
      </g>
     </g>
    </g>
    <g id="xtick_7">
     <g id="line2d_7">
      <g>
       <use style="stroke:#000000;stroke-width:0.8;" x="297.490909" xlink:href="#m3629622845" y="252"/>
      </g>
     </g>
     <g id="text_7">
      <!-- 1500 -->
      <g transform="translate(284.765909 266.598437)scale(0.1 -0.1)">
       <use xlink:href="#DejaVuSans-31"/>
       <use x="63.623047" xlink:href="#DejaVuSans-35"/>
       <use x="127.246094" xlink:href="#DejaVuSans-30"/>
       <use x="190.869141" xlink:href="#DejaVuSans-30"/>
      </g>
     </g>
    </g>
    <g id="xtick_8">
     <g id="line2d_8">
      <g>
       <use style="stroke:#000000;stroke-width:0.8;" x="335.536364" xlink:href="#m3629622845" y="252"/>
      </g>
     </g>
     <g id="text_8">
      <!-- 1750 -->
      <g transform="translate(322.811364 266.598437)scale(0.1 -0.1)">
       <use xlink:href="#DejaVuSans-31"/>
       <use x="63.623047" xlink:href="#DejaVuSans-37"/>
       <use x="127.246094" xlink:href="#DejaVuSans-35"/>
       <use x="190.869141" xlink:href="#DejaVuSans-30"/>
      </g>
     </g>
    </g>
    <g id="xtick_9">
     <g id="line2d_9">
      <g>
       <use style="stroke:#000000;stroke-width:0.8;" x="373.581818" xlink:href="#m3629622845" y="252"/>
      </g>
     </g>
     <g id="text_9">
      <!-- 2000 -->
      <g transform="translate(360.856818 266.598437)scale(0.1 -0.1)">
       <use xlink:href="#DejaVuSans-32"/>
       <use x="63.623047" xlink:href="#DejaVuSans-30"/>
       <use x="127.246094" xlink:href="#DejaVuSans-30"/>
       <use x="190.869141" xlink:href="#DejaVuSans-30"/>
      </g>
     </g>
    </g>
   </g>
   <g id="matplotlib.axis_2">
    <g id="ytick_1">
     <g id="line2d_10">
      <defs>
       <path d="M 0 0 
L -3.5 0 
" id="mb88abda09f" style="stroke:#000000;stroke-width:0.8;"/>
      </defs>
      <g>
       <use style="stroke:#000000;stroke-width:0.8;" x="54" xlink:href="#mb88abda09f" y="239.690429"/>
      </g>
     </g>
     <g id="text_10">
      <!-- −0.4 -->
      <g transform="translate(22.717187 243.489648)scale(0.1 -0.1)">
       <defs>
        <path d="M 678 2272 
L 4684 2272 
L 4684 1741 
L 678 1741 
L 678 2272 
z
" id="DejaVuSans-2212" transform="scale(0.015625)"/>
        <path d="M 684 794 
L 1344 794 
L 1344 0 
L 684 0 
L 684 794 
z
" id="DejaVuSans-2e" transform="scale(0.015625)"/>
        <path d="M 2419 4116 
L 825 1625 
L 2419 1625 
L 2419 4116 
z
M 2253 4666 
L 3047 4666 
L 3047 1625 
L 3713 1625 
L 3713 1100 
L 3047 1100 
L 3047 0 
L 2419 0 
L 2419 1100 
L 313 1100 
L 313 1709 
L 2253 4666 
z
" id="DejaVuSans-34" transform="scale(0.015625)"/>
       </defs>
       <use xlink:href="#DejaVuSans-2212"/>
       <use x="83.789062" xlink:href="#DejaVuSans-30"/>
       <use x="147.412109" xlink:href="#DejaVuSans-2e"/>
       <use x="179.199219" xlink:href="#DejaVuSans-34"/>
      </g>
     </g>
    </g>
    <g id="ytick_2">
     <g id="line2d_11">
      <g>
       <use style="stroke:#000000;stroke-width:0.8;" x="54" xlink:href="#mb88abda09f" y="200.162907"/>
      </g>
     </g>
     <g id="text_11">
      <!-- −0.2 -->
      <g transform="translate(22.717187 203.962126)scale(0.1 -0.1)">
       <use xlink:href="#DejaVuSans-2212"/>
       <use x="83.789062" xlink:href="#DejaVuSans-30"/>
       <use x="147.412109" xlink:href="#DejaVuSans-2e"/>
       <use x="179.199219" xlink:href="#DejaVuSans-32"/>
      </g>
     </g>
    </g>
    <g id="ytick_3">
     <g id="line2d_12">
      <g>
       <use style="stroke:#000000;stroke-width:0.8;" x="54" xlink:href="#mb88abda09f" y="160.635385"/>
      </g>
     </g>
     <g id="text_12">
      <!-- 0.0 -->
      <g transform="translate(31.096875 164.434603)scale(0.1 -0.1)">
       <use xlink:href="#DejaVuSans-30"/>
       <use x="63.623047" xlink:href="#DejaVuSans-2e"/>
       <use x="95.410156" xlink:href="#DejaVuSans-30"/>
      </g>
     </g>
    </g>
    <g id="ytick_4">
     <g id="line2d_13">
      <g>
       <use style="stroke:#000000;stroke-width:0.8;" x="54" xlink:href="#mb88abda09f" y="121.107863"/>
      </g>
     </g>
     <g id="text_13">
      <!-- 0.2 -->
      <g transform="translate(31.096875 124.907081)scale(0.1 -0.1)">
       <use xlink:href="#DejaVuSans-30"/>
       <use x="63.623047" xlink:href="#DejaVuSans-2e"/>
       <use x="95.410156" xlink:href="#DejaVuSans-32"/>
      </g>
     </g>
    </g>
    <g id="ytick_5">
     <g id="line2d_14">
      <g>
       <use style="stroke:#000000;stroke-width:0.8;" x="54" xlink:href="#mb88abda09f" y="81.58034"/>
      </g>
     </g>
     <g id="text_14">
      <!-- 0.4 -->
      <g transform="translate(31.096875 85.379559)scale(0.1 -0.1)">
       <use xlink:href="#DejaVuSans-30"/>
       <use x="63.623047" xlink:href="#DejaVuSans-2e"/>
       <use x="95.410156" xlink:href="#DejaVuSans-34"/>
      </g>
     </g>
    </g>
    <g id="ytick_6">
     <g id="line2d_15">
      <g>
       <use style="stroke:#000000;stroke-width:0.8;" x="54" xlink:href="#mb88abda09f" y="42.052818"/>
      </g>
     </g>
     <g id="text_15">
      <!-- 0.6 -->
      <g transform="translate(31.096875 45.852037)scale(0.1 -0.1)">
       <defs>
        <path d="M 2113 2584 
Q 1688 2584 1439 2293 
Q 1191 2003 1191 1497 
Q 1191 994 1439 701 
Q 1688 409 2113 409 
Q 2538 409 2786 701 
Q 3034 994 3034 1497 
Q 3034 2003 2786 2293 
Q 2538 2584 2113 2584 
z
M 3366 4563 
L 3366 3988 
Q 3128 4100 2886 4159 
Q 2644 4219 2406 4219 
Q 1781 4219 1451 3797 
Q 1122 3375 1075 2522 
Q 1259 2794 1537 2939 
Q 1816 3084 2150 3084 
Q 2853 3084 3261 2657 
Q 3669 2231 3669 1497 
Q 3669 778 3244 343 
Q 2819 -91 2113 -91 
Q 1303 -91 875 529 
Q 447 1150 447 2328 
Q 447 3434 972 4092 
Q 1497 4750 2381 4750 
Q 2619 4750 2861 4703 
Q 3103 4656 3366 4563 
z
" id="DejaVuSans-36" transform="scale(0.015625)"/>
       </defs>
       <use xlink:href="#DejaVuSans-30"/>
       <use x="63.623047" xlink:href="#DejaVuSans-2e"/>
       <use x="95.410156" xlink:href="#DejaVuSans-36"/>
      </g>
     </g>
    </g>
   </g>
   <g id="line2d_16">
    <path clip-path="url(#p87fda45daa)" d="M 69.218182 160.635385 
L 230.074364 160.53241 
L 230.835273 160.313975 
L 231.444 159.933491 
L 232.052727 159.270509 
L 232.813636 157.990792 
L 234.031091 155.759837 
L 234.335455 155.530002 
L 234.639818 155.592446 
L 234.944182 156.022977 
L 235.248545 156.876966 
L 235.705091 158.990249 
L 236.313818 163.127146 
L 237.531273 171.774302 
L 237.835636 172.938271 
L 238.14 173.395551 
L 238.292182 173.336062 
L 238.596545 172.631887 
L 238.900909 171.1868 
L 239.357455 167.873178 
L 241.183636 152.39992 
L 241.640182 150.377611 
L 242.096727 149.257119 
L 242.553273 148.779689 
L 243.009818 148.711728 
L 243.314182 148.870891 
L 243.618545 149.279187 
L 243.922909 150.106905 
L 244.227273 151.608447 
L 244.531636 154.099572 
L 244.988182 160.405929 
L 245.444727 170.491974 
L 246.053455 189.484638 
L 246.966545 219.117129 
L 247.270909 224.503599 
L 247.423091 225.566273 
L 247.575273 225.335654 
L 247.727455 223.686732 
L 248.031818 215.800542 
L 248.488364 192.352415 
L 249.097091 143.993104 
L 250.010182 68.527973 
L 250.466727 47.784925 
L 250.618909 44.993249 
L 250.771091 44.443636 
L 250.923273 46.152259 
L 251.227636 56.096188 
L 251.684182 84.898994 
L 253.358182 216.897461 
L 253.662545 227.712457 
L 253.966909 232.401404 
L 254.119091 232.605801 
L 254.271273 231.530642 
L 254.575636 226.112211 
L 255.032182 212.209267 
L 256.401818 164.888451 
L 256.858364 155.675481 
L 257.314909 151.006996 
L 257.619273 149.885602 
L 257.771455 149.728449 
L 257.923636 149.749632 
L 258.228 150.099855 
L 258.836727 151.224287 
L 259.293273 152.518833 
L 259.902 155.271591 
L 260.510727 157.977236 
L 260.967273 159.000107 
L 261.423818 159.375366 
L 261.880364 159.763805 
L 262.641273 160.543877 
L 262.945636 160.565354 
L 263.858727 160.250114 
L 264.315273 160.516703 
L 264.771818 160.737731 
L 265.076182 160.677596 
L 265.837091 160.364991 
L 266.293636 160.587361 
L 266.902364 160.940587 
L 267.663273 161.12719 
L 267.967636 161.545415 
L 268.424182 162.772656 
L 269.185091 165.76383 
L 269.946 169.743892 
L 270.554727 172.544982 
L 270.706909 172.765486 
L 270.859091 172.663294 
L 271.011273 172.182908 
L 271.315636 169.920412 
L 271.62 165.755821 
L 272.076545 155.842034 
L 272.685273 136.806935 
L 273.598364 108.638491 
L 273.902727 104.728068 
L 274.054909 104.533214 
L 274.207091 105.643148 
L 274.511455 111.94193 
L 274.968 131.187406 
L 275.576727 170.203824 
L 276.489818 227.741342 
L 276.794182 238.259329 
L 277.098545 242.116364 
L 277.250727 241.457171 
L 277.555091 235.241427 
L 278.011636 215.71959 
L 279.685636 125.018795 
L 279.99 118.126282 
L 280.294364 115.4212 
L 280.446545 115.468192 
L 280.598727 116.327291 
L 280.903091 120.091146 
L 281.359636 129.39558 
L 282.577091 157.400077 
L 283.033636 163.419109 
L 283.490182 166.46525 
L 283.794545 167.298413 
L 284.098909 167.501946 
L 284.403273 167.31517 
L 285.164182 166.308525 
L 285.620727 165.563522 
L 286.077273 164.355482 
L 286.990364 161.461795 
L 287.294727 161.142738 
L 287.599091 161.185493 
L 288.055636 161.34067 
L 288.36 161.180278 
L 289.273091 160.266909 
L 289.577455 160.338875 
L 290.186182 160.667959 
L 290.490545 160.644037 
L 291.403636 160.323898 
L 291.860182 160.469893 
L 292.925455 160.912878 
L 293.534182 160.926558 
L 294.447273 160.788364 
L 295.360364 160.959906 
L 295.816909 160.67344 
L 296.273455 160.379806 
L 296.577818 160.397941 
L 297.490909 160.772201 
L 297.947455 160.489611 
L 298.404 160.298073 
L 298.708364 160.420982 
L 299.317091 160.827441 
L 299.621455 160.798406 
L 300.534545 160.415896 
L 301.599818 160.795007 
L 302.512909 160.500475 
L 303.882545 160.663999 
L 304.643455 160.600648 
L 306.469636 160.672817 
L 307.230545 160.551665 
L 307.839273 160.538797 
L 308.448 160.598846 
L 308.904545 160.410827 
L 309.513273 160.121857 
L 309.969818 160.199855 
L 310.578545 160.367038 
L 311.339455 160.465324 
L 311.643818 160.783692 
L 312.709091 162.30159 
L 313.165636 162.410137 
L 313.926545 162.315955 
L 314.230909 162.049626 
L 314.535273 161.504024 
L 315.752727 158.639581 
L 316.209273 158.257877 
L 316.665818 158.121849 
L 316.970182 158.193068 
L 317.274545 158.479174 
L 317.731091 159.315122 
L 318.492 160.835513 
L 319.100727 161.504251 
L 319.709455 161.902856 
L 320.166 161.95092 
L 320.622545 161.723062 
L 321.84 160.986824 
L 322.753091 160.585454 
L 324.731455 160.415958 
L 325.948909 160.576556 
L 326.557636 160.504568 
L 327.775091 160.661127 
L 328.536 160.528473 
L 329.601273 160.723438 
L 330.514364 160.516533 
L 331.579636 160.733986 
L 332.492727 160.512415 
L 333.558 160.727687 
L 334.471091 160.524998 
L 335.536364 160.69568 
L 336.449455 160.543153 
L 337.514727 160.669807 
L 338.427818 160.615479 
L 339.340909 160.727231 
L 340.406182 160.684652 
L 341.167091 160.695222 
L 342.232364 160.575896 
L 343.145455 160.582833 
L 343.906364 160.533926 
L 345.123818 160.645275 
L 345.884727 160.624461 
L 346.797818 160.711616 
L 347.863091 160.606862 
L 348.776182 160.668361 
L 349.689273 160.562168 
L 350.754545 160.674349 
L 351.667636 160.573534 
L 352.580727 160.716691 
L 353.646 160.575516 
L 354.559091 160.727583 
L 355.776545 160.61624 
L 356.537455 160.714987 
L 357.754909 160.55197 
L 358.515818 160.644219 
L 359.581091 160.550794 
L 360.646364 160.727818 
L 361.711636 160.689879 
L 362.472545 160.736166 
L 363.842182 160.628074 
L 364.755273 160.596537 
L 365.516182 160.585774 
L 366.581455 160.624665 
L 367.494545 160.625898 
L 368.407636 160.647972 
L 369.320727 160.617862 
L 370.233818 160.669428 
L 371.299091 160.623777 
L 372.212182 160.682581 
L 373.277455 160.617815 
L 373.581818 160.664981 
L 373.581818 160.664981 
" style="fill:none;stroke:#1f77b4;stroke-linecap:square;stroke-width:1.5;"/>
   </g>
   <g id="patch_3">
    <path d="M 54 252 
L 54 34.56 
" style="fill:none;stroke:#000000;stroke-linecap:square;stroke-linejoin:miter;stroke-width:0.8;"/>
   </g>
   <g id="patch_4">
    <path d="M 388.8 252 
L 388.8 34.56 
" style="fill:none;stroke:#000000;stroke-linecap:square;stroke-linejoin:miter;stroke-width:0.8;"/>
   </g>
   <g id="patch_5">
    <path d="M 54 252 
L 388.8 252 
" style="fill:none;stroke:#000000;stroke-linecap:square;stroke-linejoin:miter;stroke-width:0.8;"/>
   </g>
   <g id="patch_6">
    <path d="M 54 34.56 
L 388.8 34.56 
" style="fill:none;stroke:#000000;stroke-linecap:square;stroke-linejoin:miter;stroke-width:0.8;"/>
   </g>
  </g>
 </g>
 <defs>
  <clipPath id="p87fda45daa">
   <rect height="217.44" width="334.8" x="54" y="34.56"/>
  </clipPath>
 </defs>
</svg>
