<?xml version="1.0" encoding="utf-8" standalone="no"?>
<!DOCTYPE svg PUBLIC "-//W3C//DTD SVG 1.1//EN"
  "http://www.w3.org/Graphics/SVG/1.1/DTD/svg11.dtd">
<svg height="288pt" version="1.1" viewBox="0 0 432 288" width="432pt" xmlns="http://www.w3.org/2000/svg" xmlns:xlink="http://www.w3.org/1999/xlink">
 <metadata>
  <rdf:RDF xmlns:cc="http://creativecommons.org/ns#" xmlns:dc="http://purl.org/dc/elements/1.1/" xmlns:rdf="http://www.w3.org/1999/02/22-rdf-syntax-ns#">
   <cc:Work>
    <dc:type rdf:resource="http://purl.org/dc/dcmitype/StillImage"/>
    <dc:date>2022-04-22T12:49:53.205758</dc:date>
    <dc:format>image/svg+xml</dc:format>
    <dc:creator>
     <cc:Agent>
      <dc:title>Matplotlib v3.4.3, https://matplotlib.org/</dc:title>
     </cc:Agent>
    </dc:creator>
   </cc:Work>
  </rdf:RDF>
 </metadata>
 <defs>
  <style type="text/css">*{stroke-linecap:butt;stroke-linejoin:round;}</style>
 </defs>
 <g id="figure_1">
  <g id="patch_1">
   <path d="M 0 288 
L 432 288 
L 432 0 
L 0 0 
z
" style="fill:none;"/>
  </g>
  <g id="axes_1">
   <g id="patch_2">
    <path d="M 54 252 
L 388.8 252 
L 388.8 34.56 
L 54 34.56 
z
" style="fill:#ffffff;"/>
   </g>
   <g id="matplotlib.axis_1">
    <g id="xtick_1">
     <g id="line2d_1">
      <defs>
       <path d="M 0 0 
L 0 3.5 
" id="m53737a4072" style="stroke:#000000;stroke-width:0.8;"/>
      </defs>
      <g>
       <use style="stroke:#000000;stroke-width:0.8;" x="69.218182" xlink:href="#m53737a4072" y="252"/>
      </g>
     </g>
     <g id="text_1">
      <!-- 0 -->
      <g transform="translate(66.036932 266.598437)scale(0.1 -0.1)">
       <defs>
        <path d="M 2034 4250 
Q 1547 4250 1301 3770 
Q 1056 3291 1056 2328 
Q 1056 1369 1301 889 
Q 1547 409 2034 409 
Q 2525 409 2770 889 
Q 3016 1369 3016 2328 
Q 3016 3291 2770 3770 
Q 2525 4250 2034 4250 
z
M 2034 4750 
Q 2819 4750 3233 4129 
Q 3647 3509 3647 2328 
Q 3647 1150 3233 529 
Q 2819 -91 2034 -91 
Q 1250 -91 836 529 
Q 422 1150 422 2328 
Q 422 3509 836 4129 
Q 1250 4750 2034 4750 
z
" id="DejaVuSans-30" transform="scale(0.015625)"/>
       </defs>
       <use xlink:href="#DejaVuSans-30"/>
      </g>
     </g>
    </g>
    <g id="xtick_2">
     <g id="line2d_2">
      <g>
       <use style="stroke:#000000;stroke-width:0.8;" x="107.263636" xlink:href="#m53737a4072" y="252"/>
      </g>
     </g>
     <g id="text_2">
      <!-- 250 -->
      <g transform="translate(97.719886 266.598437)scale(0.1 -0.1)">
       <defs>
        <path d="M 1228 531 
L 3431 531 
L 3431 0 
L 469 0 
L 469 531 
Q 828 903 1448 1529 
Q 2069 2156 2228 2338 
Q 2531 2678 2651 2914 
Q 2772 3150 2772 3378 
Q 2772 3750 2511 3984 
Q 2250 4219 1831 4219 
Q 1534 4219 1204 4116 
Q 875 4013 500 3803 
L 500 4441 
Q 881 4594 1212 4672 
Q 1544 4750 1819 4750 
Q 2544 4750 2975 4387 
Q 3406 4025 3406 3419 
Q 3406 3131 3298 2873 
Q 3191 2616 2906 2266 
Q 2828 2175 2409 1742 
Q 1991 1309 1228 531 
z
" id="DejaVuSans-32" transform="scale(0.015625)"/>
        <path d="M 691 4666 
L 3169 4666 
L 3169 4134 
L 1269 4134 
L 1269 2991 
Q 1406 3038 1543 3061 
Q 1681 3084 1819 3084 
Q 2600 3084 3056 2656 
Q 3513 2228 3513 1497 
Q 3513 744 3044 326 
Q 2575 -91 1722 -91 
Q 1428 -91 1123 -41 
Q 819 9 494 109 
L 494 744 
Q 775 591 1075 516 
Q 1375 441 1709 441 
Q 2250 441 2565 725 
Q 2881 1009 2881 1497 
Q 2881 1984 2565 2268 
Q 2250 2553 1709 2553 
Q 1456 2553 1204 2497 
Q 953 2441 691 2322 
L 691 4666 
z
" id="DejaVuSans-35" transform="scale(0.015625)"/>
       </defs>
       <use xlink:href="#DejaVuSans-32"/>
       <use x="63.623047" xlink:href="#DejaVuSans-35"/>
       <use x="127.246094" xlink:href="#DejaVuSans-30"/>
      </g>
     </g>
    </g>
    <g id="xtick_3">
     <g id="line2d_3">
      <g>
       <use style="stroke:#000000;stroke-width:0.8;" x="145.309091" xlink:href="#m53737a4072" y="252"/>
      </g>
     </g>
     <g id="text_3">
      <!-- 500 -->
      <g transform="translate(135.765341 266.598437)scale(0.1 -0.1)">
       <use xlink:href="#DejaVuSans-35"/>
       <use x="63.623047" xlink:href="#DejaVuSans-30"/>
       <use x="127.246094" xlink:href="#DejaVuSans-30"/>
      </g>
     </g>
    </g>
    <g id="xtick_4">
     <g id="line2d_4">
      <g>
       <use style="stroke:#000000;stroke-width:0.8;" x="183.354545" xlink:href="#m53737a4072" y="252"/>
      </g>
     </g>
     <g id="text_4">
      <!-- 750 -->
      <g transform="translate(173.810795 266.598437)scale(0.1 -0.1)">
       <defs>
        <path d="M 525 4666 
L 3525 4666 
L 3525 4397 
L 1831 0 
L 1172 0 
L 2766 4134 
L 525 4134 
L 525 4666 
z
" id="DejaVuSans-37" transform="scale(0.015625)"/>
       </defs>
       <use xlink:href="#DejaVuSans-37"/>
       <use x="63.623047" xlink:href="#DejaVuSans-35"/>
       <use x="127.246094" xlink:href="#DejaVuSans-30"/>
      </g>
     </g>
    </g>
    <g id="xtick_5">
     <g id="line2d_5">
      <g>
       <use style="stroke:#000000;stroke-width:0.8;" x="221.4" xlink:href="#m53737a4072" y="252"/>
      </g>
     </g>
     <g id="text_5">
      <!-- 1000 -->
      <g transform="translate(208.675 266.598437)scale(0.1 -0.1)">
       <defs>
        <path d="M 794 531 
L 1825 531 
L 1825 4091 
L 703 3866 
L 703 4441 
L 1819 4666 
L 2450 4666 
L 2450 531 
L 3481 531 
L 3481 0 
L 794 0 
L 794 531 
z
" id="DejaVuSans-31" transform="scale(0.015625)"/>
       </defs>
       <use xlink:href="#DejaVuSans-31"/>
       <use x="63.623047" xlink:href="#DejaVuSans-30"/>
       <use x="127.246094" xlink:href="#DejaVuSans-30"/>
       <use x="190.869141" xlink:href="#DejaVuSans-30"/>
      </g>
     </g>
    </g>
    <g id="xtick_6">
     <g id="line2d_6">
      <g>
       <use style="stroke:#000000;stroke-width:0.8;" x="259.445455" xlink:href="#m53737a4072" y="252"/>
      </g>
     </g>
     <g id="text_6">
      <!-- 1250 -->
      <g transform="translate(246.720455 266.598437)scale(0.1 -0.1)">
       <use xlink:href="#DejaVuSans-31"/>
       <use x="63.623047" xlink:href="#DejaVuSans-32"/>
       <use x="127.246094" xlink:href="#DejaVuSans-35"/>
       <use x="190.869141" xlink:href="#DejaVuSans-30"/>
      </g>
     </g>
    </g>
    <g id="xtick_7">
     <g id="line2d_7">
      <g>
       <use style="stroke:#000000;stroke-width:0.8;" x="297.490909" xlink:href="#m53737a4072" y="252"/>
      </g>
     </g>
     <g id="text_7">
      <!-- 1500 -->
      <g transform="translate(284.765909 266.598437)scale(0.1 -0.1)">
       <use xlink:href="#DejaVuSans-31"/>
       <use x="63.623047" xlink:href="#DejaVuSans-35"/>
       <use x="127.246094" xlink:href="#DejaVuSans-30"/>
       <use x="190.869141" xlink:href="#DejaVuSans-30"/>
      </g>
     </g>
    </g>
    <g id="xtick_8">
     <g id="line2d_8">
      <g>
       <use style="stroke:#000000;stroke-width:0.8;" x="335.536364" xlink:href="#m53737a4072" y="252"/>
      </g>
     </g>
     <g id="text_8">
      <!-- 1750 -->
      <g transform="translate(322.811364 266.598437)scale(0.1 -0.1)">
       <use xlink:href="#DejaVuSans-31"/>
       <use x="63.623047" xlink:href="#DejaVuSans-37"/>
       <use x="127.246094" xlink:href="#DejaVuSans-35"/>
       <use x="190.869141" xlink:href="#DejaVuSans-30"/>
      </g>
     </g>
    </g>
    <g id="xtick_9">
     <g id="line2d_9">
      <g>
       <use style="stroke:#000000;stroke-width:0.8;" x="373.581818" xlink:href="#m53737a4072" y="252"/>
      </g>
     </g>
     <g id="text_9">
      <!-- 2000 -->
      <g transform="translate(360.856818 266.598437)scale(0.1 -0.1)">
       <use xlink:href="#DejaVuSans-32"/>
       <use x="63.623047" xlink:href="#DejaVuSans-30"/>
       <use x="127.246094" xlink:href="#DejaVuSans-30"/>
       <use x="190.869141" xlink:href="#DejaVuSans-30"/>
      </g>
     </g>
    </g>
   </g>
   <g id="matplotlib.axis_2">
    <g id="ytick_1">
     <g id="line2d_10">
      <defs>
       <path d="M 0 0 
L -3.5 0 
" id="m1d11d0b5c6" style="stroke:#000000;stroke-width:0.8;"/>
      </defs>
      <g>
       <use style="stroke:#000000;stroke-width:0.8;" x="54" xlink:href="#m1d11d0b5c6" y="240.624641"/>
      </g>
     </g>
     <g id="text_10">
      <!-- −0.4 -->
      <g transform="translate(22.717187 244.423859)scale(0.1 -0.1)">
       <defs>
        <path d="M 678 2272 
L 4684 2272 
L 4684 1741 
L 678 1741 
L 678 2272 
z
" id="DejaVuSans-2212" transform="scale(0.015625)"/>
        <path d="M 684 794 
L 1344 794 
L 1344 0 
L 684 0 
L 684 794 
z
" id="DejaVuSans-2e" transform="scale(0.015625)"/>
        <path d="M 2419 4116 
L 825 1625 
L 2419 1625 
L 2419 4116 
z
M 2253 4666 
L 3047 4666 
L 3047 1625 
L 3713 1625 
L 3713 1100 
L 3047 1100 
L 3047 0 
L 2419 0 
L 2419 1100 
L 313 1100 
L 313 1709 
L 2253 4666 
z
" id="DejaVuSans-34" transform="scale(0.015625)"/>
       </defs>
       <use xlink:href="#DejaVuSans-2212"/>
       <use x="83.789062" xlink:href="#DejaVuSans-30"/>
       <use x="147.412109" xlink:href="#DejaVuSans-2e"/>
       <use x="179.199219" xlink:href="#DejaVuSans-34"/>
      </g>
     </g>
    </g>
    <g id="ytick_2">
     <g id="line2d_11">
      <g>
       <use style="stroke:#000000;stroke-width:0.8;" x="54" xlink:href="#m1d11d0b5c6" y="203.842107"/>
      </g>
     </g>
     <g id="text_11">
      <!-- −0.2 -->
      <g transform="translate(22.717187 207.641326)scale(0.1 -0.1)">
       <use xlink:href="#DejaVuSans-2212"/>
       <use x="83.789062" xlink:href="#DejaVuSans-30"/>
       <use x="147.412109" xlink:href="#DejaVuSans-2e"/>
       <use x="179.199219" xlink:href="#DejaVuSans-32"/>
      </g>
     </g>
    </g>
    <g id="ytick_3">
     <g id="line2d_12">
      <g>
       <use style="stroke:#000000;stroke-width:0.8;" x="54" xlink:href="#m1d11d0b5c6" y="167.059573"/>
      </g>
     </g>
     <g id="text_12">
      <!-- 0.0 -->
      <g transform="translate(31.096875 170.858792)scale(0.1 -0.1)">
       <use xlink:href="#DejaVuSans-30"/>
       <use x="63.623047" xlink:href="#DejaVuSans-2e"/>
       <use x="95.410156" xlink:href="#DejaVuSans-30"/>
      </g>
     </g>
    </g>
    <g id="ytick_4">
     <g id="line2d_13">
      <g>
       <use style="stroke:#000000;stroke-width:0.8;" x="54" xlink:href="#m1d11d0b5c6" y="130.27704"/>
      </g>
     </g>
     <g id="text_13">
      <!-- 0.2 -->
      <g transform="translate(31.096875 134.076258)scale(0.1 -0.1)">
       <use xlink:href="#DejaVuSans-30"/>
       <use x="63.623047" xlink:href="#DejaVuSans-2e"/>
       <use x="95.410156" xlink:href="#DejaVuSans-32"/>
      </g>
     </g>
    </g>
    <g id="ytick_5">
     <g id="line2d_14">
      <g>
       <use style="stroke:#000000;stroke-width:0.8;" x="54" xlink:href="#m1d11d0b5c6" y="93.494506"/>
      </g>
     </g>
     <g id="text_14">
      <!-- 0.4 -->
      <g transform="translate(31.096875 97.293725)scale(0.1 -0.1)">
       <use xlink:href="#DejaVuSans-30"/>
       <use x="63.623047" xlink:href="#DejaVuSans-2e"/>
       <use x="95.410156" xlink:href="#DejaVuSans-34"/>
      </g>
     </g>
    </g>
    <g id="ytick_6">
     <g id="line2d_15">
      <g>
       <use style="stroke:#000000;stroke-width:0.8;" x="54" xlink:href="#m1d11d0b5c6" y="56.711972"/>
      </g>
     </g>
     <g id="text_15">
      <!-- 0.6 -->
      <g transform="translate(31.096875 60.511191)scale(0.1 -0.1)">
       <defs>
        <path d="M 2113 2584 
Q 1688 2584 1439 2293 
Q 1191 2003 1191 1497 
Q 1191 994 1439 701 
Q 1688 409 2113 409 
Q 2538 409 2786 701 
Q 3034 994 3034 1497 
Q 3034 2003 2786 2293 
Q 2538 2584 2113 2584 
z
M 3366 4563 
L 3366 3988 
Q 3128 4100 2886 4159 
Q 2644 4219 2406 4219 
Q 1781 4219 1451 3797 
Q 1122 3375 1075 2522 
Q 1259 2794 1537 2939 
Q 1816 3084 2150 3084 
Q 2853 3084 3261 2657 
Q 3669 2231 3669 1497 
Q 3669 778 3244 343 
Q 2819 -91 2113 -91 
Q 1303 -91 875 529 
Q 447 1150 447 2328 
Q 447 3434 972 4092 
Q 1497 4750 2381 4750 
Q 2619 4750 2861 4703 
Q 3103 4656 3366 4563 
z
" id="DejaVuSans-36" transform="scale(0.015625)"/>
       </defs>
       <use xlink:href="#DejaVuSans-30"/>
       <use x="63.623047" xlink:href="#DejaVuSans-2e"/>
       <use x="95.410156" xlink:href="#DejaVuSans-36"/>
      </g>
     </g>
    </g>
   </g>
   <g id="line2d_16">
    <path clip-path="url(#p5470bec245)" d="M 69.218182 167.059573 
L 225.661091 166.959968 
L 226.422 166.745579 
L 227.030727 166.36675 
L 227.639455 165.697308 
L 228.248182 164.681261 
L 229.77 161.740138 
L 230.074364 161.55794 
L 230.378727 161.707582 
L 230.683091 162.264637 
L 230.987455 163.278816 
L 231.444 165.670356 
L 232.204909 171.41793 
L 233.118 178.215843 
L 233.574545 180.014589 
L 233.726727 180.238906 
L 233.878909 180.255842 
L 234.031091 180.06018 
L 234.335455 179.03354 
L 234.792 176.032424 
L 235.400727 170.038285 
L 236.922545 154.28678 
L 237.379091 151.453835 
L 237.683455 150.412047 
L 237.835636 150.197233 
L 237.987818 150.215968 
L 238.14 150.49435 
L 238.444364 151.949277 
L 238.748727 154.820073 
L 239.205273 162.336746 
L 239.661818 174.166088 
L 240.422727 201.885324 
L 241.183636 229.070165 
L 241.488 235.22893 
L 241.640182 236.557134 
L 241.792364 236.500647 
L 241.944545 234.927374 
L 242.248909 226.875705 
L 242.553273 212.12423 
L 243.009818 178.764279 
L 244.531636 53.781833 
L 244.836 45.21769 
L 244.988182 44.443636 
L 245.140364 46.055848 
L 245.444727 56.184923 
L 245.901273 86.104948 
L 247.727455 231.661791 
L 248.031818 239.995974 
L 248.184 241.791405 
L 248.336182 242.116364 
L 248.488364 241.093033 
L 248.792727 235.598383 
L 249.249273 221.25213 
L 250.618909 172.003558 
L 251.075455 162.32497 
L 251.532 157.369531 
L 251.836364 156.154313 
L 251.988545 155.973553 
L 252.140727 155.982305 
L 252.445091 156.326351 
L 253.053818 157.433483 
L 253.510364 158.697066 
L 253.966909 160.695318 
L 254.727818 164.310491 
L 255.184364 165.389746 
L 255.640909 165.746869 
L 256.097455 166.102251 
L 256.858364 166.940992 
L 257.162727 166.992127 
L 258.228 166.672847 
L 259.141091 167.163633 
L 259.597636 166.953327 
L 260.054182 166.763875 
L 260.358545 166.841946 
L 261.119455 167.214593 
L 261.576 167.056875 
L 262.032545 166.899167 
L 262.336909 167.009963 
L 263.25 167.899157 
L 263.706545 168.350489 
L 264.010909 168.908519 
L 264.467455 170.427367 
L 265.837091 176.170158 
L 266.141455 176.684325 
L 266.293636 176.686655 
L 266.445818 176.452815 
L 266.750182 175.046113 
L 267.054545 172.042091 
L 267.511091 164.13717 
L 268.272 144.342261 
L 269.032909 125.898579 
L 269.337273 122.188792 
L 269.489455 121.630856 
L 269.641636 122.082778 
L 269.793818 123.623296 
L 270.098182 130.108577 
L 270.554727 147.764876 
L 272.228727 227.727215 
L 272.533091 232.01705 
L 272.685273 232.114108 
L 272.837455 230.83944 
L 273.141818 224.423934 
L 273.598364 207.109376 
L 274.968 145.747508 
L 275.424545 134.914811 
L 275.728909 131.852693 
L 275.881091 131.51664 
L 276.033273 131.898833 
L 276.337636 134.474158 
L 276.794182 141.38528 
L 278.163818 164.929824 
L 278.620364 169.418816 
L 278.924727 170.978583 
L 279.229091 171.656423 
L 279.533455 171.841783 
L 280.294364 171.855133 
L 280.598727 171.698334 
L 280.903091 171.299174 
L 281.511818 169.90782 
L 282.272727 168.274269 
L 282.729273 167.700367 
L 283.185818 167.470118 
L 284.251091 167.399161 
L 285.164182 166.916736 
L 285.620727 167.161728 
L 286.077273 167.387929 
L 286.381636 167.284362 
L 287.294727 166.669719 
L 287.751273 166.917195 
L 288.207818 167.130652 
L 288.512182 167.05401 
L 289.120909 166.759827 
L 289.425273 166.820877 
L 290.490545 167.356028 
L 291.708 167.271408 
L 292.316727 167.279954 
L 294.751636 166.914908 
L 295.664727 167.054639 
L 296.577818 166.869334 
L 297.643091 167.184538 
L 298.556182 166.885469 
L 299.773636 167.181399 
L 300.382364 166.905309 
L 300.838909 167.023528 
L 301.447636 167.260384 
L 301.904182 167.1125 
L 302.360727 166.933632 
L 302.817273 167.014677 
L 303.426 167.182307 
L 304.034727 166.981157 
L 304.491273 166.873402 
L 305.556545 166.865512 
L 306.469636 166.643837 
L 307.230545 166.841712 
L 307.839273 167.134981 
L 308.448 167.731748 
L 309.056727 168.319224 
L 309.513273 168.513079 
L 309.969818 168.52492 
L 310.426364 168.305747 
L 310.882909 167.69295 
L 312.100364 165.549165 
L 312.709091 165.151904 
L 313.165636 165.059104 
L 313.47 165.186574 
L 313.926545 165.771372 
L 314.839636 167.220635 
L 315.448364 167.630565 
L 316.513636 168.155531 
L 316.818 168.035208 
L 317.883273 167.382609 
L 318.644182 167.274507 
L 319.709455 166.892222 
L 320.774727 167.004269 
L 321.535636 166.86138 
L 322.905273 167.03974 
L 323.514 166.962283 
L 324.883636 167.051071 
L 325.644545 167.039034 
L 326.557636 167.062902 
L 327.470727 167.055704 
L 328.231636 167.092337 
L 329.296909 167.039385 
L 330.057818 167.121048 
L 331.275273 167.039983 
L 332.036182 167.12539 
L 333.101455 167.003517 
L 334.014545 167.113633 
L 335.079818 166.999831 
L 335.992909 167.130343 
L 336.906 167.022509 
L 337.971273 167.183709 
L 338.884364 167.013672 
L 339.949636 167.097281 
L 340.862727 166.913245 
L 342.080182 167.041932 
L 342.841091 166.961849 
L 344.058545 167.106659 
L 344.819455 167.015146 
L 346.036909 167.09896 
L 346.95 167.033664 
L 347.863091 167.093902 
L 348.928364 167.041313 
L 349.841455 167.078255 
L 350.754545 167.046709 
L 351.819818 167.082976 
L 352.732909 167.060752 
L 353.646 167.080405 
L 354.559091 166.985534 
L 355.624364 167.031782 
L 356.537455 166.989874 
L 357.602727 167.131432 
L 358.668 167.100466 
L 359.428909 167.167155 
L 360.798545 167.050083 
L 361.559455 167.079741 
L 362.472545 166.977491 
L 363.69 167.074365 
L 364.603091 167.018941 
L 365.516182 167.111816 
L 366.733636 167.046633 
L 367.494545 167.114221 
L 368.712 167.039054 
L 369.625091 167.097599 
L 370.690364 167.033255 
L 371.603455 167.099172 
L 372.668727 167.028415 
L 373.581818 167.098195 
L 373.581818 167.098195 
" style="fill:none;stroke:#1f77b4;stroke-linecap:square;stroke-width:1.5;"/>
   </g>
   <g id="patch_3">
    <path d="M 54 252 
L 54 34.56 
" style="fill:none;stroke:#000000;stroke-linecap:square;stroke-linejoin:miter;stroke-width:0.8;"/>
   </g>
   <g id="patch_4">
    <path d="M 388.8 252 
L 388.8 34.56 
" style="fill:none;stroke:#000000;stroke-linecap:square;stroke-linejoin:miter;stroke-width:0.8;"/>
   </g>
   <g id="patch_5">
    <path d="M 54 252 
L 388.8 252 
" style="fill:none;stroke:#000000;stroke-linecap:square;stroke-linejoin:miter;stroke-width:0.8;"/>
   </g>
   <g id="patch_6">
    <path d="M 54 34.56 
L 388.8 34.56 
" style="fill:none;stroke:#000000;stroke-linecap:square;stroke-linejoin:miter;stroke-width:0.8;"/>
   </g>
  </g>
 </g>
 <defs>
  <clipPath id="p5470bec245">
   <rect height="217.44" width="334.8" x="54" y="34.56"/>
  </clipPath>
 </defs>
</svg>
