<?xml version="1.0" encoding="utf-8" standalone="no"?>
<!DOCTYPE svg PUBLIC "-//W3C//DTD SVG 1.1//EN"
  "http://www.w3.org/Graphics/SVG/1.1/DTD/svg11.dtd">
<svg height="288pt" version="1.1" viewBox="0 0 432 288" width="432pt" xmlns="http://www.w3.org/2000/svg" xmlns:xlink="http://www.w3.org/1999/xlink">
 <metadata>
  <rdf:RDF xmlns:cc="http://creativecommons.org/ns#" xmlns:dc="http://purl.org/dc/elements/1.1/" xmlns:rdf="http://www.w3.org/1999/02/22-rdf-syntax-ns#">
   <cc:Work>
    <dc:type rdf:resource="http://purl.org/dc/dcmitype/StillImage"/>
    <dc:date>2022-04-22T12:49:54.901178</dc:date>
    <dc:format>image/svg+xml</dc:format>
    <dc:creator>
     <cc:Agent>
      <dc:title>Matplotlib v3.4.3, https://matplotlib.org/</dc:title>
     </cc:Agent>
    </dc:creator>
   </cc:Work>
  </rdf:RDF>
 </metadata>
 <defs>
  <style type="text/css">*{stroke-linecap:butt;stroke-linejoin:round;}</style>
 </defs>
 <g id="figure_1">
  <g id="patch_1">
   <path d="M 0 288 
L 432 288 
L 432 0 
L 0 0 
z
" style="fill:none;"/>
  </g>
  <g id="axes_1">
   <g id="patch_2">
    <path d="M 54 252 
L 388.8 252 
L 388.8 34.56 
L 54 34.56 
z
" style="fill:#ffffff;"/>
   </g>
   <g id="matplotlib.axis_1">
    <g id="xtick_1">
     <g id="line2d_1">
      <defs>
       <path d="M 0 0 
L 0 3.5 
" id="mea809287ca" style="stroke:#000000;stroke-width:0.8;"/>
      </defs>
      <g>
       <use style="stroke:#000000;stroke-width:0.8;" x="69.218182" xlink:href="#mea809287ca" y="252"/>
      </g>
     </g>
     <g id="text_1">
      <!-- 0 -->
      <g transform="translate(66.036932 266.598437)scale(0.1 -0.1)">
       <defs>
        <path d="M 2034 4250 
Q 1547 4250 1301 3770 
Q 1056 3291 1056 2328 
Q 1056 1369 1301 889 
Q 1547 409 2034 409 
Q 2525 409 2770 889 
Q 3016 1369 3016 2328 
Q 3016 3291 2770 3770 
Q 2525 4250 2034 4250 
z
M 2034 4750 
Q 2819 4750 3233 4129 
Q 3647 3509 3647 2328 
Q 3647 1150 3233 529 
Q 2819 -91 2034 -91 
Q 1250 -91 836 529 
Q 422 1150 422 2328 
Q 422 3509 836 4129 
Q 1250 4750 2034 4750 
z
" id="DejaVuSans-30" transform="scale(0.015625)"/>
       </defs>
       <use xlink:href="#DejaVuSans-30"/>
      </g>
     </g>
    </g>
    <g id="xtick_2">
     <g id="line2d_2">
      <g>
       <use style="stroke:#000000;stroke-width:0.8;" x="107.263636" xlink:href="#mea809287ca" y="252"/>
      </g>
     </g>
     <g id="text_2">
      <!-- 250 -->
      <g transform="translate(97.719886 266.598437)scale(0.1 -0.1)">
       <defs>
        <path d="M 1228 531 
L 3431 531 
L 3431 0 
L 469 0 
L 469 531 
Q 828 903 1448 1529 
Q 2069 2156 2228 2338 
Q 2531 2678 2651 2914 
Q 2772 3150 2772 3378 
Q 2772 3750 2511 3984 
Q 2250 4219 1831 4219 
Q 1534 4219 1204 4116 
Q 875 4013 500 3803 
L 500 4441 
Q 881 4594 1212 4672 
Q 1544 4750 1819 4750 
Q 2544 4750 2975 4387 
Q 3406 4025 3406 3419 
Q 3406 3131 3298 2873 
Q 3191 2616 2906 2266 
Q 2828 2175 2409 1742 
Q 1991 1309 1228 531 
z
" id="DejaVuSans-32" transform="scale(0.015625)"/>
        <path d="M 691 4666 
L 3169 4666 
L 3169 4134 
L 1269 4134 
L 1269 2991 
Q 1406 3038 1543 3061 
Q 1681 3084 1819 3084 
Q 2600 3084 3056 2656 
Q 3513 2228 3513 1497 
Q 3513 744 3044 326 
Q 2575 -91 1722 -91 
Q 1428 -91 1123 -41 
Q 819 9 494 109 
L 494 744 
Q 775 591 1075 516 
Q 1375 441 1709 441 
Q 2250 441 2565 725 
Q 2881 1009 2881 1497 
Q 2881 1984 2565 2268 
Q 2250 2553 1709 2553 
Q 1456 2553 1204 2497 
Q 953 2441 691 2322 
L 691 4666 
z
" id="DejaVuSans-35" transform="scale(0.015625)"/>
       </defs>
       <use xlink:href="#DejaVuSans-32"/>
       <use x="63.623047" xlink:href="#DejaVuSans-35"/>
       <use x="127.246094" xlink:href="#DejaVuSans-30"/>
      </g>
     </g>
    </g>
    <g id="xtick_3">
     <g id="line2d_3">
      <g>
       <use style="stroke:#000000;stroke-width:0.8;" x="145.309091" xlink:href="#mea809287ca" y="252"/>
      </g>
     </g>
     <g id="text_3">
      <!-- 500 -->
      <g transform="translate(135.765341 266.598437)scale(0.1 -0.1)">
       <use xlink:href="#DejaVuSans-35"/>
       <use x="63.623047" xlink:href="#DejaVuSans-30"/>
       <use x="127.246094" xlink:href="#DejaVuSans-30"/>
      </g>
     </g>
    </g>
    <g id="xtick_4">
     <g id="line2d_4">
      <g>
       <use style="stroke:#000000;stroke-width:0.8;" x="183.354545" xlink:href="#mea809287ca" y="252"/>
      </g>
     </g>
     <g id="text_4">
      <!-- 750 -->
      <g transform="translate(173.810795 266.598437)scale(0.1 -0.1)">
       <defs>
        <path d="M 525 4666 
L 3525 4666 
L 3525 4397 
L 1831 0 
L 1172 0 
L 2766 4134 
L 525 4134 
L 525 4666 
z
" id="DejaVuSans-37" transform="scale(0.015625)"/>
       </defs>
       <use xlink:href="#DejaVuSans-37"/>
       <use x="63.623047" xlink:href="#DejaVuSans-35"/>
       <use x="127.246094" xlink:href="#DejaVuSans-30"/>
      </g>
     </g>
    </g>
    <g id="xtick_5">
     <g id="line2d_5">
      <g>
       <use style="stroke:#000000;stroke-width:0.8;" x="221.4" xlink:href="#mea809287ca" y="252"/>
      </g>
     </g>
     <g id="text_5">
      <!-- 1000 -->
      <g transform="translate(208.675 266.598437)scale(0.1 -0.1)">
       <defs>
        <path d="M 794 531 
L 1825 531 
L 1825 4091 
L 703 3866 
L 703 4441 
L 1819 4666 
L 2450 4666 
L 2450 531 
L 3481 531 
L 3481 0 
L 794 0 
L 794 531 
z
" id="DejaVuSans-31" transform="scale(0.015625)"/>
       </defs>
       <use xlink:href="#DejaVuSans-31"/>
       <use x="63.623047" xlink:href="#DejaVuSans-30"/>
       <use x="127.246094" xlink:href="#DejaVuSans-30"/>
       <use x="190.869141" xlink:href="#DejaVuSans-30"/>
      </g>
     </g>
    </g>
    <g id="xtick_6">
     <g id="line2d_6">
      <g>
       <use style="stroke:#000000;stroke-width:0.8;" x="259.445455" xlink:href="#mea809287ca" y="252"/>
      </g>
     </g>
     <g id="text_6">
      <!-- 1250 -->
      <g transform="translate(246.720455 266.598437)scale(0.1 -0.1)">
       <use xlink:href="#DejaVuSans-31"/>
       <use x="63.623047" xlink:href="#DejaVuSans-32"/>
       <use x="127.246094" xlink:href="#DejaVuSans-35"/>
       <use x="190.869141" xlink:href="#DejaVuSans-30"/>
      </g>
     </g>
    </g>
    <g id="xtick_7">
     <g id="line2d_7">
      <g>
       <use style="stroke:#000000;stroke-width:0.8;" x="297.490909" xlink:href="#mea809287ca" y="252"/>
      </g>
     </g>
     <g id="text_7">
      <!-- 1500 -->
      <g transform="translate(284.765909 266.598437)scale(0.1 -0.1)">
       <use xlink:href="#DejaVuSans-31"/>
       <use x="63.623047" xlink:href="#DejaVuSans-35"/>
       <use x="127.246094" xlink:href="#DejaVuSans-30"/>
       <use x="190.869141" xlink:href="#DejaVuSans-30"/>
      </g>
     </g>
    </g>
    <g id="xtick_8">
     <g id="line2d_8">
      <g>
       <use style="stroke:#000000;stroke-width:0.8;" x="335.536364" xlink:href="#mea809287ca" y="252"/>
      </g>
     </g>
     <g id="text_8">
      <!-- 1750 -->
      <g transform="translate(322.811364 266.598437)scale(0.1 -0.1)">
       <use xlink:href="#DejaVuSans-31"/>
       <use x="63.623047" xlink:href="#DejaVuSans-37"/>
       <use x="127.246094" xlink:href="#DejaVuSans-35"/>
       <use x="190.869141" xlink:href="#DejaVuSans-30"/>
      </g>
     </g>
    </g>
    <g id="xtick_9">
     <g id="line2d_9">
      <g>
       <use style="stroke:#000000;stroke-width:0.8;" x="373.581818" xlink:href="#mea809287ca" y="252"/>
      </g>
     </g>
     <g id="text_9">
      <!-- 2000 -->
      <g transform="translate(360.856818 266.598437)scale(0.1 -0.1)">
       <use xlink:href="#DejaVuSans-32"/>
       <use x="63.623047" xlink:href="#DejaVuSans-30"/>
       <use x="127.246094" xlink:href="#DejaVuSans-30"/>
       <use x="190.869141" xlink:href="#DejaVuSans-30"/>
      </g>
     </g>
    </g>
   </g>
   <g id="matplotlib.axis_2">
    <g id="ytick_1">
     <g id="line2d_10">
      <defs>
       <path d="M 0 0 
L -3.5 0 
" id="m260e825a87" style="stroke:#000000;stroke-width:0.8;"/>
      </defs>
      <g>
       <use style="stroke:#000000;stroke-width:0.8;" x="54" xlink:href="#m260e825a87" y="218.921263"/>
      </g>
     </g>
     <g id="text_10">
      <!-- −0.4 -->
      <g transform="translate(22.717187 222.720482)scale(0.1 -0.1)">
       <defs>
        <path d="M 678 2272 
L 4684 2272 
L 4684 1741 
L 678 1741 
L 678 2272 
z
" id="DejaVuSans-2212" transform="scale(0.015625)"/>
        <path d="M 684 794 
L 1344 794 
L 1344 0 
L 684 0 
L 684 794 
z
" id="DejaVuSans-2e" transform="scale(0.015625)"/>
        <path d="M 2419 4116 
L 825 1625 
L 2419 1625 
L 2419 4116 
z
M 2253 4666 
L 3047 4666 
L 3047 1625 
L 3713 1625 
L 3713 1100 
L 3047 1100 
L 3047 0 
L 2419 0 
L 2419 1100 
L 313 1100 
L 313 1709 
L 2253 4666 
z
" id="DejaVuSans-34" transform="scale(0.015625)"/>
       </defs>
       <use xlink:href="#DejaVuSans-2212"/>
       <use x="83.789062" xlink:href="#DejaVuSans-30"/>
       <use x="147.412109" xlink:href="#DejaVuSans-2e"/>
       <use x="179.199219" xlink:href="#DejaVuSans-34"/>
      </g>
     </g>
    </g>
    <g id="ytick_2">
     <g id="line2d_11">
      <g>
       <use style="stroke:#000000;stroke-width:0.8;" x="54" xlink:href="#m260e825a87" y="179.000409"/>
      </g>
     </g>
     <g id="text_11">
      <!-- −0.2 -->
      <g transform="translate(22.717187 182.799628)scale(0.1 -0.1)">
       <use xlink:href="#DejaVuSans-2212"/>
       <use x="83.789062" xlink:href="#DejaVuSans-30"/>
       <use x="147.412109" xlink:href="#DejaVuSans-2e"/>
       <use x="179.199219" xlink:href="#DejaVuSans-32"/>
      </g>
     </g>
    </g>
    <g id="ytick_3">
     <g id="line2d_12">
      <g>
       <use style="stroke:#000000;stroke-width:0.8;" x="54" xlink:href="#m260e825a87" y="139.079555"/>
      </g>
     </g>
     <g id="text_12">
      <!-- 0.0 -->
      <g transform="translate(31.096875 142.878773)scale(0.1 -0.1)">
       <use xlink:href="#DejaVuSans-30"/>
       <use x="63.623047" xlink:href="#DejaVuSans-2e"/>
       <use x="95.410156" xlink:href="#DejaVuSans-30"/>
      </g>
     </g>
    </g>
    <g id="ytick_4">
     <g id="line2d_13">
      <g>
       <use style="stroke:#000000;stroke-width:0.8;" x="54" xlink:href="#m260e825a87" y="99.1587"/>
      </g>
     </g>
     <g id="text_13">
      <!-- 0.2 -->
      <g transform="translate(31.096875 102.957919)scale(0.1 -0.1)">
       <use xlink:href="#DejaVuSans-30"/>
       <use x="63.623047" xlink:href="#DejaVuSans-2e"/>
       <use x="95.410156" xlink:href="#DejaVuSans-32"/>
      </g>
     </g>
    </g>
    <g id="ytick_5">
     <g id="line2d_14">
      <g>
       <use style="stroke:#000000;stroke-width:0.8;" x="54" xlink:href="#m260e825a87" y="59.237846"/>
      </g>
     </g>
     <g id="text_14">
      <!-- 0.4 -->
      <g transform="translate(31.096875 63.037065)scale(0.1 -0.1)">
       <use xlink:href="#DejaVuSans-30"/>
       <use x="63.623047" xlink:href="#DejaVuSans-2e"/>
       <use x="95.410156" xlink:href="#DejaVuSans-34"/>
      </g>
     </g>
    </g>
   </g>
   <g id="line2d_15">
    <path clip-path="url(#pf7529776cd)" d="M 69.218182 139.079555 
L 237.987818 138.968724 
L 238.748727 138.745541 
L 239.357455 138.371816 
L 239.966182 137.748168 
L 240.727091 136.618566 
L 241.640182 135.233414 
L 242.096727 134.933415 
L 242.401091 135.033414 
L 242.705455 135.445523 
L 243.009818 136.211652 
L 243.466364 138.044115 
L 244.227273 142.517814 
L 245.140364 147.929034 
L 245.596909 149.4463 
L 245.901273 149.736315 
L 246.053455 149.642984 
L 246.357818 148.978857 
L 246.814364 146.895295 
L 247.423091 142.703749 
L 248.488364 135.146822 
L 248.944909 133.068246 
L 249.401455 132.009148 
L 249.705818 131.843976 
L 250.010182 132.043063 
L 250.466727 132.837975 
L 251.836364 135.866084 
L 252.292909 136.234142 
L 252.597273 136.180524 
L 252.901636 135.895473 
L 253.510364 134.845886 
L 253.966909 134.085568 
L 254.271273 133.933794 
L 254.423455 134.056519 
L 254.727818 134.875961 
L 255.032182 136.703613 
L 255.336545 139.804863 
L 255.793091 147.20792 
L 256.401818 161.836458 
L 257.314909 185.210485 
L 257.619273 189.479204 
L 257.771455 190.310698 
L 257.923636 190.105231 
L 258.075818 188.760415 
L 258.380182 182.37818 
L 258.836727 163.436495 
L 259.445455 124.377319 
L 260.358545 63.5141 
L 260.815091 46.942638 
L 260.967273 44.77951 
L 261.119455 44.443636 
L 261.271636 45.947794 
L 261.576 54.272079 
L 262.032545 78.059042 
L 263.706545 186.280486 
L 264.010909 195.06095 
L 264.315273 198.792753 
L 264.467455 198.895332 
L 264.619636 197.943902 
L 264.924 193.349671 
L 265.380545 181.704161 
L 266.750182 142.219278 
L 267.206727 134.556903 
L 267.663273 130.703766 
L 267.967636 129.796565 
L 268.119818 129.677912 
L 268.424182 129.834088 
L 269.032909 130.740667 
L 269.489455 131.743617 
L 269.946 133.300221 
L 270.859091 136.833372 
L 271.315636 137.671203 
L 272.837455 138.956956 
L 273.141818 139.043568 
L 273.598364 138.892208 
L 274.054909 138.777679 
L 274.511455 138.989715 
L 275.272364 139.466933 
L 275.728909 139.662573 
L 276.033273 140.010681 
L 276.337636 140.69404 
L 276.794182 142.372945 
L 277.555091 146.345146 
L 278.772545 153.362111 
L 278.924727 153.561142 
L 279.076909 153.37835 
L 279.229091 152.743675 
L 279.533455 149.891302 
L 279.837818 144.682429 
L 280.294364 132.306788 
L 281.055273 102.354983 
L 281.664 78.992898 
L 281.968364 71.960678 
L 282.120545 70.354371 
L 282.272727 70.245153 
L 282.424909 71.751058 
L 282.729273 79.84156 
L 283.185818 104.216822 
L 283.946727 166.681995 
L 284.707636 224.675278 
L 285.012 237.593267 
L 285.316364 242.116364 
L 285.468545 241.093667 
L 285.772909 232.793309 
L 286.229455 207.300269 
L 287.903455 90.961993 
L 288.207818 82.353088 
L 288.512182 79.259067 
L 288.664364 79.569373 
L 288.968727 83.287055 
L 289.425273 94.534456 
L 290.947091 139.667228 
L 291.403636 146.177449 
L 291.708 148.324708 
L 292.012364 149.171543 
L 292.164545 149.242747 
L 292.468909 148.92566 
L 293.077636 147.474846 
L 293.990727 144.792796 
L 294.751636 141.388283 
L 295.208182 139.709813 
L 295.512545 139.229208 
L 295.816909 139.222964 
L 296.425636 139.50781 
L 296.73 139.355362 
L 297.338727 138.852477 
L 297.643091 138.90513 
L 298.708364 139.690082 
L 299.164909 139.372779 
L 299.621455 139.047009 
L 300.078 139.032931 
L 300.838909 139.191824 
L 301.447636 138.998264 
L 302.056364 138.770475 
L 302.512909 138.827756 
L 303.426 139.19493 
L 303.882545 139.028101 
L 304.339091 138.819171 
L 304.643455 138.862561 
L 305.556545 139.344457 
L 305.860909 139.20176 
L 306.469636 138.814632 
L 306.774 138.887984 
L 307.534909 139.367927 
L 307.839273 139.264913 
L 308.600182 138.821931 
L 308.904545 138.945989 
L 309.513273 139.316966 
L 309.817636 139.268269 
L 310.578545 138.883907 
L 311.035091 139.023813 
L 311.643818 139.244558 
L 312.100364 139.121679 
L 312.709091 138.966734 
L 314.383091 139.038482 
L 315.904909 138.741098 
L 316.513636 138.620982 
L 317.274545 138.385646 
L 317.578909 138.518918 
L 318.035455 139.063832 
L 319.100727 140.49424 
L 320.318182 141.902749 
L 320.622545 141.621291 
L 321.079091 140.530181 
L 322.600909 136.334337 
L 323.057455 135.409976 
L 323.361818 135.241145 
L 323.666182 135.525036 
L 324.122727 136.540351 
L 325.340182 139.391786 
L 326.101091 140.837094 
L 326.405455 141.055108 
L 326.709818 141.02193 
L 327.318545 140.593765 
L 329.601273 138.961928 
L 330.818727 138.841876 
L 332.797091 139.014296 
L 333.405818 139.087966 
L 334.318909 138.932684 
L 335.384182 139.175373 
L 336.297273 138.954403 
L 337.362545 139.184457 
L 338.275636 138.965826 
L 339.188727 139.179349 
L 340.254 138.962734 
L 341.167091 139.151464 
L 342.080182 138.979487 
L 343.297636 139.176958 
L 344.058545 139.079539 
L 344.971636 139.20117 
L 346.341273 139.024051 
L 347.254364 138.98909 
L 348.015273 138.997703 
L 350.145818 139.145729 
L 351.667636 139.160832 
L 352.276364 139.140466 
L 353.037273 139.019849 
L 354.254727 139.122725 
L 355.015636 138.983519 
L 356.233091 139.102549 
L 356.841818 138.956818 
L 357.450545 139.098769 
L 357.907091 139.160951 
L 359.124545 139.027346 
L 359.885455 139.174357 
L 361.102909 139.068157 
L 361.863818 139.15838 
L 362.929091 138.994184 
L 363.842182 139.055828 
L 364.755273 138.977224 
L 365.972727 139.134306 
L 366.733636 139.141258 
L 367.646727 139.197136 
L 368.864182 139.087625 
L 369.777273 139.036905 
L 370.538182 139.015324 
L 371.603455 139.054035 
L 372.516545 139.074064 
L 373.277455 139.102531 
L 373.581818 139.065327 
L 373.581818 139.065327 
" style="fill:none;stroke:#1f77b4;stroke-linecap:square;stroke-width:1.5;"/>
   </g>
   <g id="patch_3">
    <path d="M 54 252 
L 54 34.56 
" style="fill:none;stroke:#000000;stroke-linecap:square;stroke-linejoin:miter;stroke-width:0.8;"/>
   </g>
   <g id="patch_4">
    <path d="M 388.8 252 
L 388.8 34.56 
" style="fill:none;stroke:#000000;stroke-linecap:square;stroke-linejoin:miter;stroke-width:0.8;"/>
   </g>
   <g id="patch_5">
    <path d="M 54 252 
L 388.8 252 
" style="fill:none;stroke:#000000;stroke-linecap:square;stroke-linejoin:miter;stroke-width:0.8;"/>
   </g>
   <g id="patch_6">
    <path d="M 54 34.56 
L 388.8 34.56 
" style="fill:none;stroke:#000000;stroke-linecap:square;stroke-linejoin:miter;stroke-width:0.8;"/>
   </g>
  </g>
 </g>
 <defs>
  <clipPath id="pf7529776cd">
   <rect height="217.44" width="334.8" x="54" y="34.56"/>
  </clipPath>
 </defs>
</svg>
