<?xml version="1.0" encoding="utf-8" standalone="no"?>
<!DOCTYPE svg PUBLIC "-//W3C//DTD SVG 1.1//EN"
  "http://www.w3.org/Graphics/SVG/1.1/DTD/svg11.dtd">
<svg height="288pt" version="1.1" viewBox="0 0 432 288" width="432pt" xmlns="http://www.w3.org/2000/svg" xmlns:xlink="http://www.w3.org/1999/xlink">
 <metadata>
  <rdf:RDF xmlns:cc="http://creativecommons.org/ns#" xmlns:dc="http://purl.org/dc/elements/1.1/" xmlns:rdf="http://www.w3.org/1999/02/22-rdf-syntax-ns#">
   <cc:Work>
    <dc:type rdf:resource="http://purl.org/dc/dcmitype/StillImage"/>
    <dc:date>2022-04-22T12:50:00.328522</dc:date>
    <dc:format>image/svg+xml</dc:format>
    <dc:creator>
     <cc:Agent>
      <dc:title>Matplotlib v3.4.3, https://matplotlib.org/</dc:title>
     </cc:Agent>
    </dc:creator>
   </cc:Work>
  </rdf:RDF>
 </metadata>
 <defs>
  <style type="text/css">*{stroke-linecap:butt;stroke-linejoin:round;}</style>
 </defs>
 <g id="figure_1">
  <g id="patch_1">
   <path d="M 0 288 
L 432 288 
L 432 0 
L 0 0 
z
" style="fill:none;"/>
  </g>
  <g id="axes_1">
   <g id="patch_2">
    <path d="M 54 252 
L 388.8 252 
L 388.8 34.56 
L 54 34.56 
z
" style="fill:#ffffff;"/>
   </g>
   <g id="matplotlib.axis_1">
    <g id="xtick_1">
     <g id="line2d_1">
      <defs>
       <path d="M 0 0 
L 0 3.5 
" id="m56c5c8f157" style="stroke:#000000;stroke-width:0.8;"/>
      </defs>
      <g>
       <use style="stroke:#000000;stroke-width:0.8;" x="69.218182" xlink:href="#m56c5c8f157" y="252"/>
      </g>
     </g>
     <g id="text_1">
      <!-- 0 -->
      <g transform="translate(66.036932 266.598437)scale(0.1 -0.1)">
       <defs>
        <path d="M 2034 4250 
Q 1547 4250 1301 3770 
Q 1056 3291 1056 2328 
Q 1056 1369 1301 889 
Q 1547 409 2034 409 
Q 2525 409 2770 889 
Q 3016 1369 3016 2328 
Q 3016 3291 2770 3770 
Q 2525 4250 2034 4250 
z
M 2034 4750 
Q 2819 4750 3233 4129 
Q 3647 3509 3647 2328 
Q 3647 1150 3233 529 
Q 2819 -91 2034 -91 
Q 1250 -91 836 529 
Q 422 1150 422 2328 
Q 422 3509 836 4129 
Q 1250 4750 2034 4750 
z
" id="DejaVuSans-30" transform="scale(0.015625)"/>
       </defs>
       <use xlink:href="#DejaVuSans-30"/>
      </g>
     </g>
    </g>
    <g id="xtick_2">
     <g id="line2d_2">
      <g>
       <use style="stroke:#000000;stroke-width:0.8;" x="107.263636" xlink:href="#m56c5c8f157" y="252"/>
      </g>
     </g>
     <g id="text_2">
      <!-- 250 -->
      <g transform="translate(97.719886 266.598437)scale(0.1 -0.1)">
       <defs>
        <path d="M 1228 531 
L 3431 531 
L 3431 0 
L 469 0 
L 469 531 
Q 828 903 1448 1529 
Q 2069 2156 2228 2338 
Q 2531 2678 2651 2914 
Q 2772 3150 2772 3378 
Q 2772 3750 2511 3984 
Q 2250 4219 1831 4219 
Q 1534 4219 1204 4116 
Q 875 4013 500 3803 
L 500 4441 
Q 881 4594 1212 4672 
Q 1544 4750 1819 4750 
Q 2544 4750 2975 4387 
Q 3406 4025 3406 3419 
Q 3406 3131 3298 2873 
Q 3191 2616 2906 2266 
Q 2828 2175 2409 1742 
Q 1991 1309 1228 531 
z
" id="DejaVuSans-32" transform="scale(0.015625)"/>
        <path d="M 691 4666 
L 3169 4666 
L 3169 4134 
L 1269 4134 
L 1269 2991 
Q 1406 3038 1543 3061 
Q 1681 3084 1819 3084 
Q 2600 3084 3056 2656 
Q 3513 2228 3513 1497 
Q 3513 744 3044 326 
Q 2575 -91 1722 -91 
Q 1428 -91 1123 -41 
Q 819 9 494 109 
L 494 744 
Q 775 591 1075 516 
Q 1375 441 1709 441 
Q 2250 441 2565 725 
Q 2881 1009 2881 1497 
Q 2881 1984 2565 2268 
Q 2250 2553 1709 2553 
Q 1456 2553 1204 2497 
Q 953 2441 691 2322 
L 691 4666 
z
" id="DejaVuSans-35" transform="scale(0.015625)"/>
       </defs>
       <use xlink:href="#DejaVuSans-32"/>
       <use x="63.623047" xlink:href="#DejaVuSans-35"/>
       <use x="127.246094" xlink:href="#DejaVuSans-30"/>
      </g>
     </g>
    </g>
    <g id="xtick_3">
     <g id="line2d_3">
      <g>
       <use style="stroke:#000000;stroke-width:0.8;" x="145.309091" xlink:href="#m56c5c8f157" y="252"/>
      </g>
     </g>
     <g id="text_3">
      <!-- 500 -->
      <g transform="translate(135.765341 266.598437)scale(0.1 -0.1)">
       <use xlink:href="#DejaVuSans-35"/>
       <use x="63.623047" xlink:href="#DejaVuSans-30"/>
       <use x="127.246094" xlink:href="#DejaVuSans-30"/>
      </g>
     </g>
    </g>
    <g id="xtick_4">
     <g id="line2d_4">
      <g>
       <use style="stroke:#000000;stroke-width:0.8;" x="183.354545" xlink:href="#m56c5c8f157" y="252"/>
      </g>
     </g>
     <g id="text_4">
      <!-- 750 -->
      <g transform="translate(173.810795 266.598437)scale(0.1 -0.1)">
       <defs>
        <path d="M 525 4666 
L 3525 4666 
L 3525 4397 
L 1831 0 
L 1172 0 
L 2766 4134 
L 525 4134 
L 525 4666 
z
" id="DejaVuSans-37" transform="scale(0.015625)"/>
       </defs>
       <use xlink:href="#DejaVuSans-37"/>
       <use x="63.623047" xlink:href="#DejaVuSans-35"/>
       <use x="127.246094" xlink:href="#DejaVuSans-30"/>
      </g>
     </g>
    </g>
    <g id="xtick_5">
     <g id="line2d_5">
      <g>
       <use style="stroke:#000000;stroke-width:0.8;" x="221.4" xlink:href="#m56c5c8f157" y="252"/>
      </g>
     </g>
     <g id="text_5">
      <!-- 1000 -->
      <g transform="translate(208.675 266.598437)scale(0.1 -0.1)">
       <defs>
        <path d="M 794 531 
L 1825 531 
L 1825 4091 
L 703 3866 
L 703 4441 
L 1819 4666 
L 2450 4666 
L 2450 531 
L 3481 531 
L 3481 0 
L 794 0 
L 794 531 
z
" id="DejaVuSans-31" transform="scale(0.015625)"/>
       </defs>
       <use xlink:href="#DejaVuSans-31"/>
       <use x="63.623047" xlink:href="#DejaVuSans-30"/>
       <use x="127.246094" xlink:href="#DejaVuSans-30"/>
       <use x="190.869141" xlink:href="#DejaVuSans-30"/>
      </g>
     </g>
    </g>
    <g id="xtick_6">
     <g id="line2d_6">
      <g>
       <use style="stroke:#000000;stroke-width:0.8;" x="259.445455" xlink:href="#m56c5c8f157" y="252"/>
      </g>
     </g>
     <g id="text_6">
      <!-- 1250 -->
      <g transform="translate(246.720455 266.598437)scale(0.1 -0.1)">
       <use xlink:href="#DejaVuSans-31"/>
       <use x="63.623047" xlink:href="#DejaVuSans-32"/>
       <use x="127.246094" xlink:href="#DejaVuSans-35"/>
       <use x="190.869141" xlink:href="#DejaVuSans-30"/>
      </g>
     </g>
    </g>
    <g id="xtick_7">
     <g id="line2d_7">
      <g>
       <use style="stroke:#000000;stroke-width:0.8;" x="297.490909" xlink:href="#m56c5c8f157" y="252"/>
      </g>
     </g>
     <g id="text_7">
      <!-- 1500 -->
      <g transform="translate(284.765909 266.598437)scale(0.1 -0.1)">
       <use xlink:href="#DejaVuSans-31"/>
       <use x="63.623047" xlink:href="#DejaVuSans-35"/>
       <use x="127.246094" xlink:href="#DejaVuSans-30"/>
       <use x="190.869141" xlink:href="#DejaVuSans-30"/>
      </g>
     </g>
    </g>
    <g id="xtick_8">
     <g id="line2d_8">
      <g>
       <use style="stroke:#000000;stroke-width:0.8;" x="335.536364" xlink:href="#m56c5c8f157" y="252"/>
      </g>
     </g>
     <g id="text_8">
      <!-- 1750 -->
      <g transform="translate(322.811364 266.598437)scale(0.1 -0.1)">
       <use xlink:href="#DejaVuSans-31"/>
       <use x="63.623047" xlink:href="#DejaVuSans-37"/>
       <use x="127.246094" xlink:href="#DejaVuSans-35"/>
       <use x="190.869141" xlink:href="#DejaVuSans-30"/>
      </g>
     </g>
    </g>
    <g id="xtick_9">
     <g id="line2d_9">
      <g>
       <use style="stroke:#000000;stroke-width:0.8;" x="373.581818" xlink:href="#m56c5c8f157" y="252"/>
      </g>
     </g>
     <g id="text_9">
      <!-- 2000 -->
      <g transform="translate(360.856818 266.598437)scale(0.1 -0.1)">
       <use xlink:href="#DejaVuSans-32"/>
       <use x="63.623047" xlink:href="#DejaVuSans-30"/>
       <use x="127.246094" xlink:href="#DejaVuSans-30"/>
       <use x="190.869141" xlink:href="#DejaVuSans-30"/>
      </g>
     </g>
    </g>
   </g>
   <g id="matplotlib.axis_2">
    <g id="ytick_1">
     <g id="line2d_10">
      <defs>
       <path d="M 0 0 
L -3.5 0 
" id="m28a4922d34" style="stroke:#000000;stroke-width:0.8;"/>
      </defs>
      <g>
       <use style="stroke:#000000;stroke-width:0.8;" x="54" xlink:href="#m28a4922d34" y="236.917282"/>
      </g>
     </g>
     <g id="text_10">
      <!-- −0.4 -->
      <g transform="translate(22.717187 240.7165)scale(0.1 -0.1)">
       <defs>
        <path d="M 678 2272 
L 4684 2272 
L 4684 1741 
L 678 1741 
L 678 2272 
z
" id="DejaVuSans-2212" transform="scale(0.015625)"/>
        <path d="M 684 794 
L 1344 794 
L 1344 0 
L 684 0 
L 684 794 
z
" id="DejaVuSans-2e" transform="scale(0.015625)"/>
        <path d="M 2419 4116 
L 825 1625 
L 2419 1625 
L 2419 4116 
z
M 2253 4666 
L 3047 4666 
L 3047 1625 
L 3713 1625 
L 3713 1100 
L 3047 1100 
L 3047 0 
L 2419 0 
L 2419 1100 
L 313 1100 
L 313 1709 
L 2253 4666 
z
" id="DejaVuSans-34" transform="scale(0.015625)"/>
       </defs>
       <use xlink:href="#DejaVuSans-2212"/>
       <use x="83.789062" xlink:href="#DejaVuSans-30"/>
       <use x="147.412109" xlink:href="#DejaVuSans-2e"/>
       <use x="179.199219" xlink:href="#DejaVuSans-34"/>
      </g>
     </g>
    </g>
    <g id="ytick_2">
     <g id="line2d_11">
      <g>
       <use style="stroke:#000000;stroke-width:0.8;" x="54" xlink:href="#m28a4922d34" y="202.100057"/>
      </g>
     </g>
     <g id="text_11">
      <!-- −0.2 -->
      <g transform="translate(22.717187 205.899276)scale(0.1 -0.1)">
       <use xlink:href="#DejaVuSans-2212"/>
       <use x="83.789062" xlink:href="#DejaVuSans-30"/>
       <use x="147.412109" xlink:href="#DejaVuSans-2e"/>
       <use x="179.199219" xlink:href="#DejaVuSans-32"/>
      </g>
     </g>
    </g>
    <g id="ytick_3">
     <g id="line2d_12">
      <g>
       <use style="stroke:#000000;stroke-width:0.8;" x="54" xlink:href="#m28a4922d34" y="167.282833"/>
      </g>
     </g>
     <g id="text_12">
      <!-- 0.0 -->
      <g transform="translate(31.096875 171.082052)scale(0.1 -0.1)">
       <use xlink:href="#DejaVuSans-30"/>
       <use x="63.623047" xlink:href="#DejaVuSans-2e"/>
       <use x="95.410156" xlink:href="#DejaVuSans-30"/>
      </g>
     </g>
    </g>
    <g id="ytick_4">
     <g id="line2d_13">
      <g>
       <use style="stroke:#000000;stroke-width:0.8;" x="54" xlink:href="#m28a4922d34" y="132.465609"/>
      </g>
     </g>
     <g id="text_13">
      <!-- 0.2 -->
      <g transform="translate(31.096875 136.264828)scale(0.1 -0.1)">
       <use xlink:href="#DejaVuSans-30"/>
       <use x="63.623047" xlink:href="#DejaVuSans-2e"/>
       <use x="95.410156" xlink:href="#DejaVuSans-32"/>
      </g>
     </g>
    </g>
    <g id="ytick_5">
     <g id="line2d_14">
      <g>
       <use style="stroke:#000000;stroke-width:0.8;" x="54" xlink:href="#m28a4922d34" y="97.648385"/>
      </g>
     </g>
     <g id="text_14">
      <!-- 0.4 -->
      <g transform="translate(31.096875 101.447604)scale(0.1 -0.1)">
       <use xlink:href="#DejaVuSans-30"/>
       <use x="63.623047" xlink:href="#DejaVuSans-2e"/>
       <use x="95.410156" xlink:href="#DejaVuSans-34"/>
      </g>
     </g>
    </g>
    <g id="ytick_6">
     <g id="line2d_15">
      <g>
       <use style="stroke:#000000;stroke-width:0.8;" x="54" xlink:href="#m28a4922d34" y="62.831161"/>
      </g>
     </g>
     <g id="text_15">
      <!-- 0.6 -->
      <g transform="translate(31.096875 66.63038)scale(0.1 -0.1)">
       <defs>
        <path d="M 2113 2584 
Q 1688 2584 1439 2293 
Q 1191 2003 1191 1497 
Q 1191 994 1439 701 
Q 1688 409 2113 409 
Q 2538 409 2786 701 
Q 3034 994 3034 1497 
Q 3034 2003 2786 2293 
Q 2538 2584 2113 2584 
z
M 3366 4563 
L 3366 3988 
Q 3128 4100 2886 4159 
Q 2644 4219 2406 4219 
Q 1781 4219 1451 3797 
Q 1122 3375 1075 2522 
Q 1259 2794 1537 2939 
Q 1816 3084 2150 3084 
Q 2853 3084 3261 2657 
Q 3669 2231 3669 1497 
Q 3669 778 3244 343 
Q 2819 -91 2113 -91 
Q 1303 -91 875 529 
Q 447 1150 447 2328 
Q 447 3434 972 4092 
Q 1497 4750 2381 4750 
Q 2619 4750 2861 4703 
Q 3103 4656 3366 4563 
z
" id="DejaVuSans-36" transform="scale(0.015625)"/>
       </defs>
       <use xlink:href="#DejaVuSans-30"/>
       <use x="63.623047" xlink:href="#DejaVuSans-2e"/>
       <use x="95.410156" xlink:href="#DejaVuSans-36"/>
      </g>
     </g>
    </g>
   </g>
   <g id="line2d_16">
    <path clip-path="url(#p411bca1976)" d="M 69.218182 167.282833 
L 223.682727 167.189245 
L 224.443636 166.984749 
L 225.052364 166.620606 
L 225.661091 165.970818 
L 226.269818 164.970479 
L 227.943818 161.796856 
L 228.248182 161.710495 
L 228.552545 161.983095 
L 228.856909 162.682985 
L 229.313455 164.608902 
L 229.922182 168.674157 
L 231.291818 178.859334 
L 231.596182 179.97038 
L 231.900545 180.290428 
L 232.052727 180.127125 
L 232.357091 179.139038 
L 232.813636 176.092103 
L 233.422364 169.758221 
L 234.944182 152.536205 
L 235.400727 150.083426 
L 235.552909 149.82579 
L 235.705091 149.90543 
L 235.857273 150.358294 
L 236.161636 152.526587 
L 236.466 156.596867 
L 236.922545 166.655893 
L 237.531273 187.119566 
L 238.748727 232.053731 
L 239.053091 236.748942 
L 239.205273 237.11613 
L 239.357455 235.970187 
L 239.661818 228.755155 
L 239.966182 214.760768 
L 240.422727 182.228003 
L 241.944545 55.421733 
L 242.248909 45.777173 
L 242.401091 44.443636 
L 242.553273 45.503849 
L 242.857636 54.609556 
L 243.314182 83.377578 
L 245.140364 230.266842 
L 245.444727 239.320864 
L 245.749091 242.116364 
L 245.901273 241.395363 
L 246.205636 236.409324 
L 246.662182 222.553485 
L 248.184 169.36284 
L 248.640545 161.005671 
L 248.944909 158.000016 
L 249.249273 156.630164 
L 249.553636 156.357314 
L 249.858 156.650334 
L 250.466727 157.711479 
L 250.923273 158.904601 
L 251.379818 160.816328 
L 252.292909 164.939625 
L 252.597273 165.592405 
L 253.053818 165.973436 
L 253.510364 166.293229 
L 254.423455 167.201418 
L 254.727818 167.172175 
L 255.488727 166.83613 
L 255.793091 166.951751 
L 256.554 167.372888 
L 257.010545 167.191882 
L 257.467091 166.982039 
L 257.771455 167.035582 
L 258.684545 167.416864 
L 259.749818 167.111637 
L 261.119455 167.739172 
L 261.423818 167.910393 
L 261.728182 168.357491 
L 262.184727 169.569296 
L 263.554364 174.400764 
L 264.010909 175.841454 
L 264.163091 176.075928 
L 264.315273 176.095379 
L 264.467455 175.846138 
L 264.771818 174.372132 
L 265.076182 171.442832 
L 265.532727 164.349743 
L 266.293636 147.165182 
L 267.054545 130.506454 
L 267.358909 127.242399 
L 267.511091 126.837546 
L 267.663273 127.363108 
L 267.967636 131.355032 
L 268.272 139.188692 
L 268.728545 156.936084 
L 270.098182 217.340338 
L 270.402545 223.364146 
L 270.554727 224.584695 
L 270.706909 224.581146 
L 270.859091 223.383623 
L 271.163455 217.707858 
L 271.62 202.778555 
L 273.141818 144.920117 
L 273.598364 137.715324 
L 273.902727 136.489162 
L 274.054909 136.786641 
L 274.359273 138.836 
L 274.815818 144.501565 
L 276.337636 166.705621 
L 276.794182 169.682771 
L 277.250727 171.019244 
L 277.707273 171.511723 
L 278.011636 171.562589 
L 278.468182 171.316376 
L 279.076909 170.627016 
L 279.685636 169.633727 
L 280.598727 167.85448 
L 280.903091 167.639692 
L 281.207455 167.680192 
L 281.816182 167.828893 
L 282.120545 167.648242 
L 282.729273 167.14249 
L 283.033636 167.14353 
L 284.098909 167.576708 
L 285.012 167.124601 
L 286.381636 167.198872 
L 286.990364 167.063514 
L 288.36 167.213108 
L 289.577455 167.470709 
L 290.338364 167.408757 
L 291.251455 167.602673 
L 291.708 167.362636 
L 292.164545 167.13357 
L 292.621091 167.214938 
L 293.229818 167.392133 
L 293.686364 167.197275 
L 294.142909 167.001601 
L 294.447273 167.05634 
L 295.208182 167.409601 
L 295.664727 167.27955 
L 296.121273 167.106333 
L 296.577818 167.204587 
L 297.186545 167.424835 
L 297.643091 167.32068 
L 298.251818 167.179414 
L 299.621455 167.300818 
L 300.230182 167.234516 
L 301.447636 167.274951 
L 302.208545 167.262674 
L 302.969455 167.220458 
L 303.882545 167.05649 
L 304.795636 167.009478 
L 305.404364 166.90273 
L 305.860909 167.123494 
L 306.926182 167.92715 
L 307.687091 168.418897 
L 308.143636 168.729463 
L 308.448 168.726402 
L 308.752364 168.479146 
L 311.187273 165.397371 
L 311.491636 165.391811 
L 311.796 165.629877 
L 313.317818 167.295204 
L 314.230909 168.162739 
L 314.535273 168.222496 
L 315.144 168.005153 
L 315.904909 167.812457 
L 316.513636 167.602979 
L 317.274545 167.264424 
L 318.035455 167.279761 
L 318.796364 167.171697 
L 319.405091 167.152182 
L 320.470364 167.226581 
L 321.383455 167.25777 
L 322.144364 167.283573 
L 323.057455 167.23779 
L 323.970545 167.332107 
L 325.035818 167.232051 
L 325.948909 167.346742 
L 326.862 167.201852 
L 328.079455 167.313866 
L 328.840364 167.204324 
L 329.905636 167.344848 
L 330.818727 167.205476 
L 331.884 167.339495 
L 332.797091 167.196694 
L 333.862364 167.334168 
L 334.775455 167.209111 
L 335.992909 167.354545 
L 336.753818 167.270487 
L 337.819091 167.375823 
L 338.884364 167.219271 
L 339.797455 167.259467 
L 340.862727 167.194497 
L 341.928 167.269446 
L 342.841091 167.283744 
L 343.754182 167.318813 
L 344.667273 167.285654 
L 345.580364 167.318728 
L 346.645636 167.272244 
L 347.558727 167.310543 
L 348.471818 167.241023 
L 349.537091 167.319686 
L 350.450182 167.242278 
L 351.515455 167.334537 
L 352.580727 167.243516 
L 353.493818 167.295343 
L 354.406909 167.178387 
L 355.776545 167.283965 
L 356.537455 167.282431 
L 357.450545 167.392722 
L 358.668 167.284283 
L 359.581091 167.30774 
L 360.494182 167.212095 
L 361.711636 167.280654 
L 362.472545 167.227996 
L 363.69 167.303311 
L 364.603091 167.252937 
L 365.668364 167.311519 
L 366.581455 167.24998 
L 367.798909 167.293181 
L 368.712 167.264653 
L 369.777273 167.295768 
L 370.842545 167.279381 
L 371.755636 167.296978 
L 372.820909 167.277884 
L 373.581818 167.307567 
L 373.581818 167.307567 
" style="fill:none;stroke:#1f77b4;stroke-linecap:square;stroke-width:1.5;"/>
   </g>
   <g id="patch_3">
    <path d="M 54 252 
L 54 34.56 
" style="fill:none;stroke:#000000;stroke-linecap:square;stroke-linejoin:miter;stroke-width:0.8;"/>
   </g>
   <g id="patch_4">
    <path d="M 388.8 252 
L 388.8 34.56 
" style="fill:none;stroke:#000000;stroke-linecap:square;stroke-linejoin:miter;stroke-width:0.8;"/>
   </g>
   <g id="patch_5">
    <path d="M 54 252 
L 388.8 252 
" style="fill:none;stroke:#000000;stroke-linecap:square;stroke-linejoin:miter;stroke-width:0.8;"/>
   </g>
   <g id="patch_6">
    <path d="M 54 34.56 
L 388.8 34.56 
" style="fill:none;stroke:#000000;stroke-linecap:square;stroke-linejoin:miter;stroke-width:0.8;"/>
   </g>
  </g>
 </g>
 <defs>
  <clipPath id="p411bca1976">
   <rect height="217.44" width="334.8" x="54" y="34.56"/>
  </clipPath>
 </defs>
</svg>
