<?xml version="1.0" encoding="utf-8" standalone="no"?>
<!DOCTYPE svg PUBLIC "-//W3C//DTD SVG 1.1//EN"
  "http://www.w3.org/Graphics/SVG/1.1/DTD/svg11.dtd">
<svg height="288pt" version="1.1" viewBox="0 0 432 288" width="432pt" xmlns="http://www.w3.org/2000/svg" xmlns:xlink="http://www.w3.org/1999/xlink">
 <metadata>
  <rdf:RDF xmlns:cc="http://creativecommons.org/ns#" xmlns:dc="http://purl.org/dc/elements/1.1/" xmlns:rdf="http://www.w3.org/1999/02/22-rdf-syntax-ns#">
   <cc:Work>
    <dc:type rdf:resource="http://purl.org/dc/dcmitype/StillImage"/>
    <dc:date>2022-04-22T12:50:00.614587</dc:date>
    <dc:format>image/svg+xml</dc:format>
    <dc:creator>
     <cc:Agent>
      <dc:title>Matplotlib v3.4.3, https://matplotlib.org/</dc:title>
     </cc:Agent>
    </dc:creator>
   </cc:Work>
  </rdf:RDF>
 </metadata>
 <defs>
  <style type="text/css">*{stroke-linecap:butt;stroke-linejoin:round;}</style>
 </defs>
 <g id="figure_1">
  <g id="patch_1">
   <path d="M 0 288 
L 432 288 
L 432 0 
L 0 0 
z
" style="fill:none;"/>
  </g>
  <g id="axes_1">
   <g id="patch_2">
    <path d="M 54 252 
L 388.8 252 
L 388.8 34.56 
L 54 34.56 
z
" style="fill:#ffffff;"/>
   </g>
   <g id="matplotlib.axis_1">
    <g id="xtick_1">
     <g id="line2d_1">
      <defs>
       <path d="M 0 0 
L 0 3.5 
" id="m383ba71b35" style="stroke:#000000;stroke-width:0.8;"/>
      </defs>
      <g>
       <use style="stroke:#000000;stroke-width:0.8;" x="69.218182" xlink:href="#m383ba71b35" y="252"/>
      </g>
     </g>
     <g id="text_1">
      <!-- 0 -->
      <g transform="translate(66.036932 266.598437)scale(0.1 -0.1)">
       <defs>
        <path d="M 2034 4250 
Q 1547 4250 1301 3770 
Q 1056 3291 1056 2328 
Q 1056 1369 1301 889 
Q 1547 409 2034 409 
Q 2525 409 2770 889 
Q 3016 1369 3016 2328 
Q 3016 3291 2770 3770 
Q 2525 4250 2034 4250 
z
M 2034 4750 
Q 2819 4750 3233 4129 
Q 3647 3509 3647 2328 
Q 3647 1150 3233 529 
Q 2819 -91 2034 -91 
Q 1250 -91 836 529 
Q 422 1150 422 2328 
Q 422 3509 836 4129 
Q 1250 4750 2034 4750 
z
" id="DejaVuSans-30" transform="scale(0.015625)"/>
       </defs>
       <use xlink:href="#DejaVuSans-30"/>
      </g>
     </g>
    </g>
    <g id="xtick_2">
     <g id="line2d_2">
      <g>
       <use style="stroke:#000000;stroke-width:0.8;" x="107.263636" xlink:href="#m383ba71b35" y="252"/>
      </g>
     </g>
     <g id="text_2">
      <!-- 250 -->
      <g transform="translate(97.719886 266.598437)scale(0.1 -0.1)">
       <defs>
        <path d="M 1228 531 
L 3431 531 
L 3431 0 
L 469 0 
L 469 531 
Q 828 903 1448 1529 
Q 2069 2156 2228 2338 
Q 2531 2678 2651 2914 
Q 2772 3150 2772 3378 
Q 2772 3750 2511 3984 
Q 2250 4219 1831 4219 
Q 1534 4219 1204 4116 
Q 875 4013 500 3803 
L 500 4441 
Q 881 4594 1212 4672 
Q 1544 4750 1819 4750 
Q 2544 4750 2975 4387 
Q 3406 4025 3406 3419 
Q 3406 3131 3298 2873 
Q 3191 2616 2906 2266 
Q 2828 2175 2409 1742 
Q 1991 1309 1228 531 
z
" id="DejaVuSans-32" transform="scale(0.015625)"/>
        <path d="M 691 4666 
L 3169 4666 
L 3169 4134 
L 1269 4134 
L 1269 2991 
Q 1406 3038 1543 3061 
Q 1681 3084 1819 3084 
Q 2600 3084 3056 2656 
Q 3513 2228 3513 1497 
Q 3513 744 3044 326 
Q 2575 -91 1722 -91 
Q 1428 -91 1123 -41 
Q 819 9 494 109 
L 494 744 
Q 775 591 1075 516 
Q 1375 441 1709 441 
Q 2250 441 2565 725 
Q 2881 1009 2881 1497 
Q 2881 1984 2565 2268 
Q 2250 2553 1709 2553 
Q 1456 2553 1204 2497 
Q 953 2441 691 2322 
L 691 4666 
z
" id="DejaVuSans-35" transform="scale(0.015625)"/>
       </defs>
       <use xlink:href="#DejaVuSans-32"/>
       <use x="63.623047" xlink:href="#DejaVuSans-35"/>
       <use x="127.246094" xlink:href="#DejaVuSans-30"/>
      </g>
     </g>
    </g>
    <g id="xtick_3">
     <g id="line2d_3">
      <g>
       <use style="stroke:#000000;stroke-width:0.8;" x="145.309091" xlink:href="#m383ba71b35" y="252"/>
      </g>
     </g>
     <g id="text_3">
      <!-- 500 -->
      <g transform="translate(135.765341 266.598437)scale(0.1 -0.1)">
       <use xlink:href="#DejaVuSans-35"/>
       <use x="63.623047" xlink:href="#DejaVuSans-30"/>
       <use x="127.246094" xlink:href="#DejaVuSans-30"/>
      </g>
     </g>
    </g>
    <g id="xtick_4">
     <g id="line2d_4">
      <g>
       <use style="stroke:#000000;stroke-width:0.8;" x="183.354545" xlink:href="#m383ba71b35" y="252"/>
      </g>
     </g>
     <g id="text_4">
      <!-- 750 -->
      <g transform="translate(173.810795 266.598437)scale(0.1 -0.1)">
       <defs>
        <path d="M 525 4666 
L 3525 4666 
L 3525 4397 
L 1831 0 
L 1172 0 
L 2766 4134 
L 525 4134 
L 525 4666 
z
" id="DejaVuSans-37" transform="scale(0.015625)"/>
       </defs>
       <use xlink:href="#DejaVuSans-37"/>
       <use x="63.623047" xlink:href="#DejaVuSans-35"/>
       <use x="127.246094" xlink:href="#DejaVuSans-30"/>
      </g>
     </g>
    </g>
    <g id="xtick_5">
     <g id="line2d_5">
      <g>
       <use style="stroke:#000000;stroke-width:0.8;" x="221.4" xlink:href="#m383ba71b35" y="252"/>
      </g>
     </g>
     <g id="text_5">
      <!-- 1000 -->
      <g transform="translate(208.675 266.598437)scale(0.1 -0.1)">
       <defs>
        <path d="M 794 531 
L 1825 531 
L 1825 4091 
L 703 3866 
L 703 4441 
L 1819 4666 
L 2450 4666 
L 2450 531 
L 3481 531 
L 3481 0 
L 794 0 
L 794 531 
z
" id="DejaVuSans-31" transform="scale(0.015625)"/>
       </defs>
       <use xlink:href="#DejaVuSans-31"/>
       <use x="63.623047" xlink:href="#DejaVuSans-30"/>
       <use x="127.246094" xlink:href="#DejaVuSans-30"/>
       <use x="190.869141" xlink:href="#DejaVuSans-30"/>
      </g>
     </g>
    </g>
    <g id="xtick_6">
     <g id="line2d_6">
      <g>
       <use style="stroke:#000000;stroke-width:0.8;" x="259.445455" xlink:href="#m383ba71b35" y="252"/>
      </g>
     </g>
     <g id="text_6">
      <!-- 1250 -->
      <g transform="translate(246.720455 266.598437)scale(0.1 -0.1)">
       <use xlink:href="#DejaVuSans-31"/>
       <use x="63.623047" xlink:href="#DejaVuSans-32"/>
       <use x="127.246094" xlink:href="#DejaVuSans-35"/>
       <use x="190.869141" xlink:href="#DejaVuSans-30"/>
      </g>
     </g>
    </g>
    <g id="xtick_7">
     <g id="line2d_7">
      <g>
       <use style="stroke:#000000;stroke-width:0.8;" x="297.490909" xlink:href="#m383ba71b35" y="252"/>
      </g>
     </g>
     <g id="text_7">
      <!-- 1500 -->
      <g transform="translate(284.765909 266.598437)scale(0.1 -0.1)">
       <use xlink:href="#DejaVuSans-31"/>
       <use x="63.623047" xlink:href="#DejaVuSans-35"/>
       <use x="127.246094" xlink:href="#DejaVuSans-30"/>
       <use x="190.869141" xlink:href="#DejaVuSans-30"/>
      </g>
     </g>
    </g>
    <g id="xtick_8">
     <g id="line2d_8">
      <g>
       <use style="stroke:#000000;stroke-width:0.8;" x="335.536364" xlink:href="#m383ba71b35" y="252"/>
      </g>
     </g>
     <g id="text_8">
      <!-- 1750 -->
      <g transform="translate(322.811364 266.598437)scale(0.1 -0.1)">
       <use xlink:href="#DejaVuSans-31"/>
       <use x="63.623047" xlink:href="#DejaVuSans-37"/>
       <use x="127.246094" xlink:href="#DejaVuSans-35"/>
       <use x="190.869141" xlink:href="#DejaVuSans-30"/>
      </g>
     </g>
    </g>
    <g id="xtick_9">
     <g id="line2d_9">
      <g>
       <use style="stroke:#000000;stroke-width:0.8;" x="373.581818" xlink:href="#m383ba71b35" y="252"/>
      </g>
     </g>
     <g id="text_9">
      <!-- 2000 -->
      <g transform="translate(360.856818 266.598437)scale(0.1 -0.1)">
       <use xlink:href="#DejaVuSans-32"/>
       <use x="63.623047" xlink:href="#DejaVuSans-30"/>
       <use x="127.246094" xlink:href="#DejaVuSans-30"/>
       <use x="190.869141" xlink:href="#DejaVuSans-30"/>
      </g>
     </g>
    </g>
   </g>
   <g id="matplotlib.axis_2">
    <g id="ytick_1">
     <g id="line2d_10">
      <defs>
       <path d="M 0 0 
L -3.5 0 
" id="maca0039fc4" style="stroke:#000000;stroke-width:0.8;"/>
      </defs>
      <g>
       <use style="stroke:#000000;stroke-width:0.8;" x="54" xlink:href="#maca0039fc4" y="240.624619"/>
      </g>
     </g>
     <g id="text_10">
      <!-- −0.4 -->
      <g transform="translate(22.717187 244.423837)scale(0.1 -0.1)">
       <defs>
        <path d="M 678 2272 
L 4684 2272 
L 4684 1741 
L 678 1741 
L 678 2272 
z
" id="DejaVuSans-2212" transform="scale(0.015625)"/>
        <path d="M 684 794 
L 1344 794 
L 1344 0 
L 684 0 
L 684 794 
z
" id="DejaVuSans-2e" transform="scale(0.015625)"/>
        <path d="M 2419 4116 
L 825 1625 
L 2419 1625 
L 2419 4116 
z
M 2253 4666 
L 3047 4666 
L 3047 1625 
L 3713 1625 
L 3713 1100 
L 3047 1100 
L 3047 0 
L 2419 0 
L 2419 1100 
L 313 1100 
L 313 1709 
L 2253 4666 
z
" id="DejaVuSans-34" transform="scale(0.015625)"/>
       </defs>
       <use xlink:href="#DejaVuSans-2212"/>
       <use x="83.789062" xlink:href="#DejaVuSans-30"/>
       <use x="147.412109" xlink:href="#DejaVuSans-2e"/>
       <use x="179.199219" xlink:href="#DejaVuSans-34"/>
      </g>
     </g>
    </g>
    <g id="ytick_2">
     <g id="line2d_11">
      <g>
       <use style="stroke:#000000;stroke-width:0.8;" x="54" xlink:href="#maca0039fc4" y="203.842089"/>
      </g>
     </g>
     <g id="text_11">
      <!-- −0.2 -->
      <g transform="translate(22.717187 207.641308)scale(0.1 -0.1)">
       <use xlink:href="#DejaVuSans-2212"/>
       <use x="83.789062" xlink:href="#DejaVuSans-30"/>
       <use x="147.412109" xlink:href="#DejaVuSans-2e"/>
       <use x="179.199219" xlink:href="#DejaVuSans-32"/>
      </g>
     </g>
    </g>
    <g id="ytick_3">
     <g id="line2d_12">
      <g>
       <use style="stroke:#000000;stroke-width:0.8;" x="54" xlink:href="#maca0039fc4" y="167.05956"/>
      </g>
     </g>
     <g id="text_12">
      <!-- 0.0 -->
      <g transform="translate(31.096875 170.858778)scale(0.1 -0.1)">
       <use xlink:href="#DejaVuSans-30"/>
       <use x="63.623047" xlink:href="#DejaVuSans-2e"/>
       <use x="95.410156" xlink:href="#DejaVuSans-30"/>
      </g>
     </g>
    </g>
    <g id="ytick_4">
     <g id="line2d_13">
      <g>
       <use style="stroke:#000000;stroke-width:0.8;" x="54" xlink:href="#maca0039fc4" y="130.27703"/>
      </g>
     </g>
     <g id="text_13">
      <!-- 0.2 -->
      <g transform="translate(31.096875 134.076249)scale(0.1 -0.1)">
       <use xlink:href="#DejaVuSans-30"/>
       <use x="63.623047" xlink:href="#DejaVuSans-2e"/>
       <use x="95.410156" xlink:href="#DejaVuSans-32"/>
      </g>
     </g>
    </g>
    <g id="ytick_5">
     <g id="line2d_14">
      <g>
       <use style="stroke:#000000;stroke-width:0.8;" x="54" xlink:href="#maca0039fc4" y="93.4945"/>
      </g>
     </g>
     <g id="text_14">
      <!-- 0.4 -->
      <g transform="translate(31.096875 97.293719)scale(0.1 -0.1)">
       <use xlink:href="#DejaVuSans-30"/>
       <use x="63.623047" xlink:href="#DejaVuSans-2e"/>
       <use x="95.410156" xlink:href="#DejaVuSans-34"/>
      </g>
     </g>
    </g>
    <g id="ytick_6">
     <g id="line2d_15">
      <g>
       <use style="stroke:#000000;stroke-width:0.8;" x="54" xlink:href="#maca0039fc4" y="56.711971"/>
      </g>
     </g>
     <g id="text_15">
      <!-- 0.6 -->
      <g transform="translate(31.096875 60.51119)scale(0.1 -0.1)">
       <defs>
        <path d="M 2113 2584 
Q 1688 2584 1439 2293 
Q 1191 2003 1191 1497 
Q 1191 994 1439 701 
Q 1688 409 2113 409 
Q 2538 409 2786 701 
Q 3034 994 3034 1497 
Q 3034 2003 2786 2293 
Q 2538 2584 2113 2584 
z
M 3366 4563 
L 3366 3988 
Q 3128 4100 2886 4159 
Q 2644 4219 2406 4219 
Q 1781 4219 1451 3797 
Q 1122 3375 1075 2522 
Q 1259 2794 1537 2939 
Q 1816 3084 2150 3084 
Q 2853 3084 3261 2657 
Q 3669 2231 3669 1497 
Q 3669 778 3244 343 
Q 2819 -91 2113 -91 
Q 1303 -91 875 529 
Q 447 1150 447 2328 
Q 447 3434 972 4092 
Q 1497 4750 2381 4750 
Q 2619 4750 2861 4703 
Q 3103 4656 3366 4563 
z
" id="DejaVuSans-36" transform="scale(0.015625)"/>
       </defs>
       <use xlink:href="#DejaVuSans-30"/>
       <use x="63.623047" xlink:href="#DejaVuSans-2e"/>
       <use x="95.410156" xlink:href="#DejaVuSans-36"/>
      </g>
     </g>
    </g>
   </g>
   <g id="line2d_16">
    <path clip-path="url(#p52c1364302)" d="M 69.218182 167.05956 
L 225.661091 166.959954 
L 226.422 166.745566 
L 227.030727 166.366737 
L 227.639455 165.697295 
L 228.248182 164.681247 
L 229.77 161.740127 
L 230.074364 161.557927 
L 230.378727 161.707569 
L 230.683091 162.264622 
L 230.987455 163.278803 
L 231.444 165.670342 
L 232.204909 171.417916 
L 233.118 178.215828 
L 233.574545 180.014574 
L 233.726727 180.238891 
L 233.878909 180.255827 
L 234.031091 180.060164 
L 234.335455 179.033525 
L 234.792 176.032411 
L 235.400727 170.038273 
L 236.922545 154.286767 
L 237.379091 151.453823 
L 237.683455 150.412035 
L 237.835636 150.197221 
L 237.987818 150.215957 
L 238.14 150.494338 
L 238.444364 151.949265 
L 238.748727 154.820061 
L 239.205273 162.336734 
L 239.661818 174.166075 
L 240.422727 201.885306 
L 241.183636 229.070145 
L 241.488 235.228909 
L 241.640182 236.557113 
L 241.792364 236.500626 
L 241.944545 234.927352 
L 242.248909 226.875684 
L 242.553273 212.1242 
L 243.009818 178.764253 
L 244.531636 53.781843 
L 244.836 45.21769 
L 244.988182 44.443636 
L 245.140364 46.055848 
L 245.444727 56.18491 
L 245.901273 86.104944 
L 247.727455 231.661759 
L 248.031818 239.995963 
L 248.184 241.791383 
L 248.336182 242.116364 
L 248.488364 241.093033 
L 248.792727 235.598395 
L 249.249273 221.252132 
L 250.618909 172.003529 
L 251.075455 162.324969 
L 251.532 157.369528 
L 251.836364 156.154295 
L 251.988545 155.973531 
L 252.140727 155.982282 
L 252.445091 156.326333 
L 253.053818 157.433474 
L 253.510364 158.697057 
L 253.966909 160.695303 
L 254.727818 164.310398 
L 255.184364 165.389565 
L 255.640909 165.746596 
L 256.097455 166.101849 
L 256.858364 166.940209 
L 257.162727 166.991153 
L 258.228 166.671081 
L 259.141091 167.161236 
L 259.597636 166.950727 
L 260.054182 166.761185 
L 260.358545 166.839287 
L 261.119455 167.212374 
L 261.576 167.055096 
L 262.032545 166.897904 
L 262.336909 167.009081 
L 263.25 167.899399 
L 263.706545 168.351193 
L 264.010909 168.909491 
L 264.467455 170.428674 
L 265.837091 176.171797 
L 266.141455 176.685961 
L 266.293636 176.688293 
L 266.445818 176.454452 
L 266.750182 175.047741 
L 267.054545 172.043692 
L 267.511091 164.138699 
L 268.272 144.343686 
L 269.032909 125.899942 
L 269.337273 122.190132 
L 269.489455 121.632187 
L 269.641636 122.084097 
L 269.793818 123.624604 
L 270.098182 130.109872 
L 270.554727 147.766146 
L 272.228727 227.728257 
L 272.533091 232.018025 
L 272.685273 232.115039 
L 272.837455 230.840339 
L 273.141818 224.424714 
L 273.598364 207.109961 
L 274.968 145.747168 
L 275.424545 134.914165 
L 275.728909 131.851883 
L 275.881091 131.515766 
L 276.033273 131.897913 
L 276.337636 134.473183 
L 276.794182 141.384502 
L 278.163818 164.932369 
L 278.620364 169.423245 
L 278.924727 170.984362 
L 279.229091 171.663526 
L 279.533455 171.850081 
L 280.294364 171.865278 
L 280.598727 171.708588 
L 280.903091 171.309115 
L 281.511818 169.915922 
L 282.272727 168.278363 
L 282.729273 167.70167 
L 283.185818 167.468797 
L 284.403273 167.29318 
L 285.012 166.91434 
L 285.316364 166.956848 
L 286.229455 167.359402 
L 286.686 167.004077 
L 287.142545 166.674114 
L 287.446909 166.713397 
L 288.207818 167.127598 
L 288.512182 167.051217 
L 289.120909 166.757389 
L 289.425273 166.81856 
L 290.490545 167.35403 
L 291.708 167.269604 
L 292.316727 167.278327 
L 294.751636 166.916534 
L 295.664727 167.059135 
L 296.577818 166.876598 
L 297.643091 167.192019 
L 298.556182 166.887907 
L 299.773636 167.169988 
L 300.382364 166.886888 
L 300.838909 167.001237 
L 301.447636 167.23616 
L 301.904182 167.089692 
L 302.360727 166.91448 
L 302.817273 167.000855 
L 303.426 167.176832 
L 303.882545 167.048196 
L 304.491273 166.880276 
L 305.556545 166.877047 
L 306.469636 166.653661 
L 307.230545 166.848615 
L 307.839273 167.139589 
L 308.448 167.734571 
L 309.056727 168.320952 
L 309.513273 168.514368 
L 309.969818 168.526024 
L 310.426364 168.306859 
L 310.882909 167.694198 
L 312.100364 165.551088 
L 312.709091 165.154195 
L 313.165636 165.061615 
L 313.47 165.189216 
L 313.926545 165.774198 
L 314.839636 167.223795 
L 315.448364 167.633853 
L 316.513636 168.158908 
L 316.818 168.038611 
L 317.883273 167.385948 
L 318.644182 167.277689 
L 319.709455 166.895096 
L 320.774727 167.006624 
L 321.535636 166.863284 
L 322.905273 167.040747 
L 323.514 166.962833 
L 324.883636 167.050627 
L 325.644545 167.038029 
L 326.557636 167.061356 
L 327.470727 167.053628 
L 328.231636 167.089924 
L 329.144727 167.011717 
L 330.21 167.094985 
L 331.123091 167.005443 
L 332.036182 167.121672 
L 333.101455 166.999744 
L 334.014545 167.110702 
L 335.079818 166.998716 
L 335.992909 167.130646 
L 336.906 167.023535 
L 337.971273 167.185369 
L 338.884364 167.016268 
L 339.949636 167.1003 
L 340.862727 166.915078 
L 342.080182 167.040823 
L 342.841091 166.959438 
L 344.058545 167.104265 
L 344.819455 167.013666 
L 346.036909 167.0992 
L 346.95 167.035018 
L 347.863091 167.096281 
L 348.928364 167.043611 
L 349.841455 167.078137 
L 350.754545 167.042706 
L 351.819818 167.076651 
L 352.732909 167.057152 
L 353.646 167.082096 
L 354.559091 166.990736 
L 355.624364 167.036383 
L 356.537455 166.991712 
L 357.602727 167.130883 
L 358.668 167.09929 
L 359.428909 167.166181 
L 360.798545 167.049478 
L 361.559455 167.079452 
L 362.472545 166.97761 
L 363.69 167.074771 
L 364.603091 167.019382 
L 365.516182 167.112252 
L 366.733636 167.047024 
L 367.494545 167.114529 
L 368.712 167.039327 
L 369.625091 167.097784 
L 370.690364 167.033507 
L 371.603455 167.099735 
L 372.668727 167.029983 
L 373.581818 167.10034 
L 373.581818 167.10034 
" style="fill:none;stroke:#1f77b4;stroke-linecap:square;stroke-width:1.5;"/>
   </g>
   <g id="patch_3">
    <path d="M 54 252 
L 54 34.56 
" style="fill:none;stroke:#000000;stroke-linecap:square;stroke-linejoin:miter;stroke-width:0.8;"/>
   </g>
   <g id="patch_4">
    <path d="M 388.8 252 
L 388.8 34.56 
" style="fill:none;stroke:#000000;stroke-linecap:square;stroke-linejoin:miter;stroke-width:0.8;"/>
   </g>
   <g id="patch_5">
    <path d="M 54 252 
L 388.8 252 
" style="fill:none;stroke:#000000;stroke-linecap:square;stroke-linejoin:miter;stroke-width:0.8;"/>
   </g>
   <g id="patch_6">
    <path d="M 54 34.56 
L 388.8 34.56 
" style="fill:none;stroke:#000000;stroke-linecap:square;stroke-linejoin:miter;stroke-width:0.8;"/>
   </g>
  </g>
 </g>
 <defs>
  <clipPath id="p52c1364302">
   <rect height="217.44" width="334.8" x="54" y="34.56"/>
  </clipPath>
 </defs>
</svg>
