<?xml version="1.0" encoding="utf-8" standalone="no"?>
<!DOCTYPE svg PUBLIC "-//W3C//DTD SVG 1.1//EN"
  "http://www.w3.org/Graphics/SVG/1.1/DTD/svg11.dtd">
<svg height="288pt" version="1.1" viewBox="0 0 432 288" width="432pt" xmlns="http://www.w3.org/2000/svg" xmlns:xlink="http://www.w3.org/1999/xlink">
 <metadata>
  <rdf:RDF xmlns:cc="http://creativecommons.org/ns#" xmlns:dc="http://purl.org/dc/elements/1.1/" xmlns:rdf="http://www.w3.org/1999/02/22-rdf-syntax-ns#">
   <cc:Work>
    <dc:type rdf:resource="http://purl.org/dc/dcmitype/StillImage"/>
    <dc:date>2022-04-22T12:50:01.244729</dc:date>
    <dc:format>image/svg+xml</dc:format>
    <dc:creator>
     <cc:Agent>
      <dc:title>Matplotlib v3.4.3, https://matplotlib.org/</dc:title>
     </cc:Agent>
    </dc:creator>
   </cc:Work>
  </rdf:RDF>
 </metadata>
 <defs>
  <style type="text/css">*{stroke-linecap:butt;stroke-linejoin:round;}</style>
 </defs>
 <g id="figure_1">
  <g id="patch_1">
   <path d="M 0 288 
L 432 288 
L 432 0 
L 0 0 
z
" style="fill:none;"/>
  </g>
  <g id="axes_1">
   <g id="patch_2">
    <path d="M 54 252 
L 388.8 252 
L 388.8 34.56 
L 54 34.56 
z
" style="fill:#ffffff;"/>
   </g>
   <g id="matplotlib.axis_1">
    <g id="xtick_1">
     <g id="line2d_1">
      <defs>
       <path d="M 0 0 
L 0 3.5 
" id="m2f6b977dd4" style="stroke:#000000;stroke-width:0.8;"/>
      </defs>
      <g>
       <use style="stroke:#000000;stroke-width:0.8;" x="69.218182" xlink:href="#m2f6b977dd4" y="252"/>
      </g>
     </g>
     <g id="text_1">
      <!-- 0 -->
      <g transform="translate(66.036932 266.598437)scale(0.1 -0.1)">
       <defs>
        <path d="M 2034 4250 
Q 1547 4250 1301 3770 
Q 1056 3291 1056 2328 
Q 1056 1369 1301 889 
Q 1547 409 2034 409 
Q 2525 409 2770 889 
Q 3016 1369 3016 2328 
Q 3016 3291 2770 3770 
Q 2525 4250 2034 4250 
z
M 2034 4750 
Q 2819 4750 3233 4129 
Q 3647 3509 3647 2328 
Q 3647 1150 3233 529 
Q 2819 -91 2034 -91 
Q 1250 -91 836 529 
Q 422 1150 422 2328 
Q 422 3509 836 4129 
Q 1250 4750 2034 4750 
z
" id="DejaVuSans-30" transform="scale(0.015625)"/>
       </defs>
       <use xlink:href="#DejaVuSans-30"/>
      </g>
     </g>
    </g>
    <g id="xtick_2">
     <g id="line2d_2">
      <g>
       <use style="stroke:#000000;stroke-width:0.8;" x="107.263636" xlink:href="#m2f6b977dd4" y="252"/>
      </g>
     </g>
     <g id="text_2">
      <!-- 250 -->
      <g transform="translate(97.719886 266.598437)scale(0.1 -0.1)">
       <defs>
        <path d="M 1228 531 
L 3431 531 
L 3431 0 
L 469 0 
L 469 531 
Q 828 903 1448 1529 
Q 2069 2156 2228 2338 
Q 2531 2678 2651 2914 
Q 2772 3150 2772 3378 
Q 2772 3750 2511 3984 
Q 2250 4219 1831 4219 
Q 1534 4219 1204 4116 
Q 875 4013 500 3803 
L 500 4441 
Q 881 4594 1212 4672 
Q 1544 4750 1819 4750 
Q 2544 4750 2975 4387 
Q 3406 4025 3406 3419 
Q 3406 3131 3298 2873 
Q 3191 2616 2906 2266 
Q 2828 2175 2409 1742 
Q 1991 1309 1228 531 
z
" id="DejaVuSans-32" transform="scale(0.015625)"/>
        <path d="M 691 4666 
L 3169 4666 
L 3169 4134 
L 1269 4134 
L 1269 2991 
Q 1406 3038 1543 3061 
Q 1681 3084 1819 3084 
Q 2600 3084 3056 2656 
Q 3513 2228 3513 1497 
Q 3513 744 3044 326 
Q 2575 -91 1722 -91 
Q 1428 -91 1123 -41 
Q 819 9 494 109 
L 494 744 
Q 775 591 1075 516 
Q 1375 441 1709 441 
Q 2250 441 2565 725 
Q 2881 1009 2881 1497 
Q 2881 1984 2565 2268 
Q 2250 2553 1709 2553 
Q 1456 2553 1204 2497 
Q 953 2441 691 2322 
L 691 4666 
z
" id="DejaVuSans-35" transform="scale(0.015625)"/>
       </defs>
       <use xlink:href="#DejaVuSans-32"/>
       <use x="63.623047" xlink:href="#DejaVuSans-35"/>
       <use x="127.246094" xlink:href="#DejaVuSans-30"/>
      </g>
     </g>
    </g>
    <g id="xtick_3">
     <g id="line2d_3">
      <g>
       <use style="stroke:#000000;stroke-width:0.8;" x="145.309091" xlink:href="#m2f6b977dd4" y="252"/>
      </g>
     </g>
     <g id="text_3">
      <!-- 500 -->
      <g transform="translate(135.765341 266.598437)scale(0.1 -0.1)">
       <use xlink:href="#DejaVuSans-35"/>
       <use x="63.623047" xlink:href="#DejaVuSans-30"/>
       <use x="127.246094" xlink:href="#DejaVuSans-30"/>
      </g>
     </g>
    </g>
    <g id="xtick_4">
     <g id="line2d_4">
      <g>
       <use style="stroke:#000000;stroke-width:0.8;" x="183.354545" xlink:href="#m2f6b977dd4" y="252"/>
      </g>
     </g>
     <g id="text_4">
      <!-- 750 -->
      <g transform="translate(173.810795 266.598437)scale(0.1 -0.1)">
       <defs>
        <path d="M 525 4666 
L 3525 4666 
L 3525 4397 
L 1831 0 
L 1172 0 
L 2766 4134 
L 525 4134 
L 525 4666 
z
" id="DejaVuSans-37" transform="scale(0.015625)"/>
       </defs>
       <use xlink:href="#DejaVuSans-37"/>
       <use x="63.623047" xlink:href="#DejaVuSans-35"/>
       <use x="127.246094" xlink:href="#DejaVuSans-30"/>
      </g>
     </g>
    </g>
    <g id="xtick_5">
     <g id="line2d_5">
      <g>
       <use style="stroke:#000000;stroke-width:0.8;" x="221.4" xlink:href="#m2f6b977dd4" y="252"/>
      </g>
     </g>
     <g id="text_5">
      <!-- 1000 -->
      <g transform="translate(208.675 266.598437)scale(0.1 -0.1)">
       <defs>
        <path d="M 794 531 
L 1825 531 
L 1825 4091 
L 703 3866 
L 703 4441 
L 1819 4666 
L 2450 4666 
L 2450 531 
L 3481 531 
L 3481 0 
L 794 0 
L 794 531 
z
" id="DejaVuSans-31" transform="scale(0.015625)"/>
       </defs>
       <use xlink:href="#DejaVuSans-31"/>
       <use x="63.623047" xlink:href="#DejaVuSans-30"/>
       <use x="127.246094" xlink:href="#DejaVuSans-30"/>
       <use x="190.869141" xlink:href="#DejaVuSans-30"/>
      </g>
     </g>
    </g>
    <g id="xtick_6">
     <g id="line2d_6">
      <g>
       <use style="stroke:#000000;stroke-width:0.8;" x="259.445455" xlink:href="#m2f6b977dd4" y="252"/>
      </g>
     </g>
     <g id="text_6">
      <!-- 1250 -->
      <g transform="translate(246.720455 266.598437)scale(0.1 -0.1)">
       <use xlink:href="#DejaVuSans-31"/>
       <use x="63.623047" xlink:href="#DejaVuSans-32"/>
       <use x="127.246094" xlink:href="#DejaVuSans-35"/>
       <use x="190.869141" xlink:href="#DejaVuSans-30"/>
      </g>
     </g>
    </g>
    <g id="xtick_7">
     <g id="line2d_7">
      <g>
       <use style="stroke:#000000;stroke-width:0.8;" x="297.490909" xlink:href="#m2f6b977dd4" y="252"/>
      </g>
     </g>
     <g id="text_7">
      <!-- 1500 -->
      <g transform="translate(284.765909 266.598437)scale(0.1 -0.1)">
       <use xlink:href="#DejaVuSans-31"/>
       <use x="63.623047" xlink:href="#DejaVuSans-35"/>
       <use x="127.246094" xlink:href="#DejaVuSans-30"/>
       <use x="190.869141" xlink:href="#DejaVuSans-30"/>
      </g>
     </g>
    </g>
    <g id="xtick_8">
     <g id="line2d_8">
      <g>
       <use style="stroke:#000000;stroke-width:0.8;" x="335.536364" xlink:href="#m2f6b977dd4" y="252"/>
      </g>
     </g>
     <g id="text_8">
      <!-- 1750 -->
      <g transform="translate(322.811364 266.598437)scale(0.1 -0.1)">
       <use xlink:href="#DejaVuSans-31"/>
       <use x="63.623047" xlink:href="#DejaVuSans-37"/>
       <use x="127.246094" xlink:href="#DejaVuSans-35"/>
       <use x="190.869141" xlink:href="#DejaVuSans-30"/>
      </g>
     </g>
    </g>
    <g id="xtick_9">
     <g id="line2d_9">
      <g>
       <use style="stroke:#000000;stroke-width:0.8;" x="373.581818" xlink:href="#m2f6b977dd4" y="252"/>
      </g>
     </g>
     <g id="text_9">
      <!-- 2000 -->
      <g transform="translate(360.856818 266.598437)scale(0.1 -0.1)">
       <use xlink:href="#DejaVuSans-32"/>
       <use x="63.623047" xlink:href="#DejaVuSans-30"/>
       <use x="127.246094" xlink:href="#DejaVuSans-30"/>
       <use x="190.869141" xlink:href="#DejaVuSans-30"/>
      </g>
     </g>
    </g>
   </g>
   <g id="matplotlib.axis_2">
    <g id="ytick_1">
     <g id="line2d_10">
      <defs>
       <path d="M 0 0 
L -3.5 0 
" id="m00c38781e8" style="stroke:#000000;stroke-width:0.8;"/>
      </defs>
      <g>
       <use style="stroke:#000000;stroke-width:0.8;" x="54" xlink:href="#m00c38781e8" y="239.690129"/>
      </g>
     </g>
     <g id="text_10">
      <!-- −0.4 -->
      <g transform="translate(22.717187 243.489348)scale(0.1 -0.1)">
       <defs>
        <path d="M 678 2272 
L 4684 2272 
L 4684 1741 
L 678 1741 
L 678 2272 
z
" id="DejaVuSans-2212" transform="scale(0.015625)"/>
        <path d="M 684 794 
L 1344 794 
L 1344 0 
L 684 0 
L 684 794 
z
" id="DejaVuSans-2e" transform="scale(0.015625)"/>
        <path d="M 2419 4116 
L 825 1625 
L 2419 1625 
L 2419 4116 
z
M 2253 4666 
L 3047 4666 
L 3047 1625 
L 3713 1625 
L 3713 1100 
L 3047 1100 
L 3047 0 
L 2419 0 
L 2419 1100 
L 313 1100 
L 313 1709 
L 2253 4666 
z
" id="DejaVuSans-34" transform="scale(0.015625)"/>
       </defs>
       <use xlink:href="#DejaVuSans-2212"/>
       <use x="83.789062" xlink:href="#DejaVuSans-30"/>
       <use x="147.412109" xlink:href="#DejaVuSans-2e"/>
       <use x="179.199219" xlink:href="#DejaVuSans-34"/>
      </g>
     </g>
    </g>
    <g id="ytick_2">
     <g id="line2d_11">
      <g>
       <use style="stroke:#000000;stroke-width:0.8;" x="54" xlink:href="#m00c38781e8" y="200.162703"/>
      </g>
     </g>
     <g id="text_11">
      <!-- −0.2 -->
      <g transform="translate(22.717187 203.961922)scale(0.1 -0.1)">
       <use xlink:href="#DejaVuSans-2212"/>
       <use x="83.789062" xlink:href="#DejaVuSans-30"/>
       <use x="147.412109" xlink:href="#DejaVuSans-2e"/>
       <use x="179.199219" xlink:href="#DejaVuSans-32"/>
      </g>
     </g>
    </g>
    <g id="ytick_3">
     <g id="line2d_12">
      <g>
       <use style="stroke:#000000;stroke-width:0.8;" x="54" xlink:href="#m00c38781e8" y="160.635278"/>
      </g>
     </g>
     <g id="text_12">
      <!-- 0.0 -->
      <g transform="translate(31.096875 164.434497)scale(0.1 -0.1)">
       <use xlink:href="#DejaVuSans-30"/>
       <use x="63.623047" xlink:href="#DejaVuSans-2e"/>
       <use x="95.410156" xlink:href="#DejaVuSans-30"/>
      </g>
     </g>
    </g>
    <g id="ytick_4">
     <g id="line2d_13">
      <g>
       <use style="stroke:#000000;stroke-width:0.8;" x="54" xlink:href="#m00c38781e8" y="121.107853"/>
      </g>
     </g>
     <g id="text_13">
      <!-- 0.2 -->
      <g transform="translate(31.096875 124.907071)scale(0.1 -0.1)">
       <use xlink:href="#DejaVuSans-30"/>
       <use x="63.623047" xlink:href="#DejaVuSans-2e"/>
       <use x="95.410156" xlink:href="#DejaVuSans-32"/>
      </g>
     </g>
    </g>
    <g id="ytick_5">
     <g id="line2d_14">
      <g>
       <use style="stroke:#000000;stroke-width:0.8;" x="54" xlink:href="#m00c38781e8" y="81.580427"/>
      </g>
     </g>
     <g id="text_14">
      <!-- 0.4 -->
      <g transform="translate(31.096875 85.379646)scale(0.1 -0.1)">
       <use xlink:href="#DejaVuSans-30"/>
       <use x="63.623047" xlink:href="#DejaVuSans-2e"/>
       <use x="95.410156" xlink:href="#DejaVuSans-34"/>
      </g>
     </g>
    </g>
    <g id="ytick_6">
     <g id="line2d_15">
      <g>
       <use style="stroke:#000000;stroke-width:0.8;" x="54" xlink:href="#m00c38781e8" y="42.053002"/>
      </g>
     </g>
     <g id="text_15">
      <!-- 0.6 -->
      <g transform="translate(31.096875 45.852221)scale(0.1 -0.1)">
       <defs>
        <path d="M 2113 2584 
Q 1688 2584 1439 2293 
Q 1191 2003 1191 1497 
Q 1191 994 1439 701 
Q 1688 409 2113 409 
Q 2538 409 2786 701 
Q 3034 994 3034 1497 
Q 3034 2003 2786 2293 
Q 2538 2584 2113 2584 
z
M 3366 4563 
L 3366 3988 
Q 3128 4100 2886 4159 
Q 2644 4219 2406 4219 
Q 1781 4219 1451 3797 
Q 1122 3375 1075 2522 
Q 1259 2794 1537 2939 
Q 1816 3084 2150 3084 
Q 2853 3084 3261 2657 
Q 3669 2231 3669 1497 
Q 3669 778 3244 343 
Q 2819 -91 2113 -91 
Q 1303 -91 875 529 
Q 447 1150 447 2328 
Q 447 3434 972 4092 
Q 1497 4750 2381 4750 
Q 2619 4750 2861 4703 
Q 3103 4656 3366 4563 
z
" id="DejaVuSans-36" transform="scale(0.015625)"/>
       </defs>
       <use xlink:href="#DejaVuSans-30"/>
       <use x="63.623047" xlink:href="#DejaVuSans-2e"/>
       <use x="95.410156" xlink:href="#DejaVuSans-36"/>
      </g>
     </g>
    </g>
   </g>
   <g id="line2d_16">
    <path clip-path="url(#pf75daf9775)" d="M 69.218182 160.635278 
L 230.074364 160.532303 
L 230.835273 160.313869 
L 231.444 159.933386 
L 232.052727 159.270406 
L 232.813636 157.990692 
L 234.031091 155.759742 
L 234.335455 155.529908 
L 234.639818 155.592351 
L 234.944182 156.022882 
L 235.248545 156.876868 
L 235.705091 158.990147 
L 236.313818 163.127034 
L 237.531273 171.77417 
L 237.835636 172.938136 
L 238.14 173.395413 
L 238.292182 173.335924 
L 238.596545 172.631749 
L 238.900909 171.186666 
L 239.357455 167.873054 
L 241.183636 152.399836 
L 241.640182 150.377528 
L 242.096727 149.25704 
L 242.553273 148.779616 
L 243.009818 148.711652 
L 243.314182 148.870813 
L 243.618545 149.279102 
L 243.922909 150.106818 
L 244.227273 151.608358 
L 244.531636 154.099481 
L 244.988182 160.405823 
L 245.444727 170.491841 
L 246.053455 189.48446 
L 246.966545 219.116879 
L 247.270909 224.503324 
L 247.423091 225.565995 
L 247.575273 225.335377 
L 247.727455 223.686458 
L 248.031818 215.800288 
L 248.488364 192.352242 
L 249.097091 143.993026 
L 250.010182 68.528021 
L 250.466727 47.784965 
L 250.618909 44.993273 
L 250.771091 44.443636 
L 250.923273 46.152233 
L 251.227636 56.096066 
L 251.684182 84.89866 
L 253.358182 216.895637 
L 253.662545 227.710337 
L 253.966909 232.398991 
L 254.119091 232.603245 
L 254.271273 231.527959 
L 254.575636 226.109282 
L 255.032182 212.206066 
L 256.401818 164.885437 
L 256.858364 155.672841 
L 257.314909 151.004885 
L 257.619273 149.883913 
L 257.771455 149.726981 
L 257.923636 149.748391 
L 258.228 150.099073 
L 258.836727 151.224391 
L 259.293273 152.519519 
L 259.902 155.272835 
L 260.510727 157.978818 
L 260.967273 159.001857 
L 261.423818 159.377199 
L 261.880364 159.765633 
L 262.641273 160.545614 
L 262.945636 160.567048 
L 263.858727 160.251629 
L 264.315273 160.518164 
L 264.771818 160.73916 
L 265.076182 160.678985 
L 265.837091 160.366219 
L 266.293636 160.588493 
L 266.902364 160.941562 
L 267.663273 161.127865 
L 267.967636 161.545917 
L 268.424182 162.772814 
L 269.185091 165.763303 
L 269.946 169.742849 
L 270.554727 172.54386 
L 270.706909 172.764442 
L 270.859091 172.662385 
L 271.011273 172.182194 
L 271.315636 169.92028 
L 271.62 165.756532 
L 272.076545 155.844455 
L 272.685273 136.812366 
L 273.598364 108.648782 
L 273.902727 104.739571 
L 274.054909 104.545189 
L 274.207091 105.655497 
L 274.511455 111.9547 
L 274.968 131.199894 
L 275.576727 170.214151 
L 276.489818 227.745737 
L 276.794182 238.261505 
L 277.098545 242.116364 
L 277.250727 241.456137 
L 277.555091 235.238499 
L 278.011636 215.714435 
L 279.685636 125.011589 
L 279.99 118.119423 
L 280.294364 115.414773 
L 280.446545 115.461986 
L 280.598727 116.321309 
L 280.903091 120.08565 
L 281.359636 129.390744 
L 282.577091 157.396594 
L 283.033636 163.415969 
L 283.490182 166.462354 
L 283.794545 167.295625 
L 284.098909 167.499231 
L 284.403273 167.31251 
L 285.164182 166.305938 
L 285.620727 165.560958 
L 286.077273 164.352959 
L 286.990364 161.459433 
L 287.294727 161.140446 
L 287.599091 161.183296 
L 288.055636 161.338688 
L 288.36 161.178503 
L 289.273091 160.266289 
L 289.577455 160.338891 
L 290.186182 160.669661 
L 290.490545 160.646757 
L 291.403636 160.329966 
L 291.860182 160.477402 
L 292.925455 160.920858 
L 293.534182 160.93157 
L 294.447273 160.784166 
L 295.360364 160.944015 
L 295.816909 160.65268 
L 296.273455 160.35592 
L 296.577818 160.373221 
L 297.490909 160.751449 
L 297.947455 160.473893 
L 298.404 160.2885 
L 298.708364 160.415689 
L 299.317091 160.830036 
L 299.621455 160.804214 
L 300.534545 160.427306 
L 301.599818 160.805912 
L 302.512909 160.50795 
L 303.882545 160.666783 
L 304.643455 160.602223 
L 306.469636 160.67425 
L 307.230545 160.553581 
L 307.839273 160.541072 
L 308.448 160.601413 
L 308.904545 160.413586 
L 309.513273 160.124845 
L 309.969818 160.202978 
L 310.578545 160.370276 
L 311.339455 160.468613 
L 311.643818 160.786998 
L 312.709091 162.304889 
L 313.165636 162.41335 
L 313.926545 162.318978 
L 314.230909 162.052577 
L 314.535273 161.506897 
L 315.752727 158.641912 
L 316.209273 158.259937 
L 316.665818 158.12367 
L 316.970182 158.194728 
L 317.274545 158.48065 
L 317.731091 159.316258 
L 318.492 160.836058 
L 319.100727 161.504379 
L 319.709455 161.902529 
L 320.166 161.950249 
L 320.622545 161.722057 
L 321.84 160.98504 
L 322.753091 160.583153 
L 324.731455 160.413027 
L 325.948909 160.573408 
L 326.557636 160.501195 
L 327.775091 160.657162 
L 328.536 160.52438 
L 329.601273 160.72012 
L 330.514364 160.514866 
L 331.579636 160.734322 
L 332.492727 160.513698 
L 333.558 160.729753 
L 334.471091 160.528038 
L 335.536364 160.699334 
L 336.449455 160.545592 
L 337.514727 160.669133 
L 338.427818 160.61253 
L 339.340909 160.723732 
L 340.406182 160.682656 
L 341.167091 160.694998 
L 342.232364 160.578098 
L 343.145455 160.585823 
L 343.906364 160.535748 
L 345.123818 160.64163 
L 345.884727 160.617882 
L 346.797818 160.705753 
L 347.863091 160.607312 
L 348.776182 160.673932 
L 349.689273 160.568115 
L 350.754545 160.675991 
L 351.667636 160.571896 
L 352.580727 160.714469 
L 353.646 160.57504 
L 354.559091 160.7281 
L 355.776545 160.616485 
L 356.537455 160.714916 
L 357.754909 160.551638 
L 358.515818 160.64412 
L 359.581091 160.550946 
L 360.646364 160.728162 
L 361.711636 160.690209 
L 362.472545 160.736502 
L 363.842182 160.628258 
L 364.755273 160.596685 
L 365.516182 160.5859 
L 366.581455 160.624835 
L 367.494545 160.626671 
L 368.407636 160.649889 
L 369.320727 160.620457 
L 370.233818 160.66956 
L 371.299091 160.616528 
L 372.212182 160.670908 
L 373.277455 160.612803 
L 373.581818 160.664149 
L 373.581818 160.664149 
" style="fill:none;stroke:#1f77b4;stroke-linecap:square;stroke-width:1.5;"/>
   </g>
   <g id="patch_3">
    <path d="M 54 252 
L 54 34.56 
" style="fill:none;stroke:#000000;stroke-linecap:square;stroke-linejoin:miter;stroke-width:0.8;"/>
   </g>
   <g id="patch_4">
    <path d="M 388.8 252 
L 388.8 34.56 
" style="fill:none;stroke:#000000;stroke-linecap:square;stroke-linejoin:miter;stroke-width:0.8;"/>
   </g>
   <g id="patch_5">
    <path d="M 54 252 
L 388.8 252 
" style="fill:none;stroke:#000000;stroke-linecap:square;stroke-linejoin:miter;stroke-width:0.8;"/>
   </g>
   <g id="patch_6">
    <path d="M 54 34.56 
L 388.8 34.56 
" style="fill:none;stroke:#000000;stroke-linecap:square;stroke-linejoin:miter;stroke-width:0.8;"/>
   </g>
  </g>
 </g>
 <defs>
  <clipPath id="pf75daf9775">
   <rect height="217.44" width="334.8" x="54" y="34.56"/>
  </clipPath>
 </defs>
</svg>
