<?xml version="1.0" encoding="utf-8" standalone="no"?>
<!DOCTYPE svg PUBLIC "-//W3C//DTD SVG 1.1//EN"
  "http://www.w3.org/Graphics/SVG/1.1/DTD/svg11.dtd">
<svg height="288pt" version="1.1" viewBox="0 0 432 288" width="432pt" xmlns="http://www.w3.org/2000/svg" xmlns:xlink="http://www.w3.org/1999/xlink">
 <metadata>
  <rdf:RDF xmlns:cc="http://creativecommons.org/ns#" xmlns:dc="http://purl.org/dc/elements/1.1/" xmlns:rdf="http://www.w3.org/1999/02/22-rdf-syntax-ns#">
   <cc:Work>
    <dc:type rdf:resource="http://purl.org/dc/dcmitype/StillImage"/>
    <dc:date>2022-04-22T12:50:01.846873</dc:date>
    <dc:format>image/svg+xml</dc:format>
    <dc:creator>
     <cc:Agent>
      <dc:title>Matplotlib v3.4.3, https://matplotlib.org/</dc:title>
     </cc:Agent>
    </dc:creator>
   </cc:Work>
  </rdf:RDF>
 </metadata>
 <defs>
  <style type="text/css">*{stroke-linecap:butt;stroke-linejoin:round;}</style>
 </defs>
 <g id="figure_1">
  <g id="patch_1">
   <path d="M 0 288 
L 432 288 
L 432 0 
L 0 0 
z
" style="fill:none;"/>
  </g>
  <g id="axes_1">
   <g id="patch_2">
    <path d="M 54 252 
L 388.8 252 
L 388.8 34.56 
L 54 34.56 
z
" style="fill:#ffffff;"/>
   </g>
   <g id="matplotlib.axis_1">
    <g id="xtick_1">
     <g id="line2d_1">
      <defs>
       <path d="M 0 0 
L 0 3.5 
" id="mcef43f7a37" style="stroke:#000000;stroke-width:0.8;"/>
      </defs>
      <g>
       <use style="stroke:#000000;stroke-width:0.8;" x="69.218182" xlink:href="#mcef43f7a37" y="252"/>
      </g>
     </g>
     <g id="text_1">
      <!-- 0 -->
      <g transform="translate(66.036932 266.598437)scale(0.1 -0.1)">
       <defs>
        <path d="M 2034 4250 
Q 1547 4250 1301 3770 
Q 1056 3291 1056 2328 
Q 1056 1369 1301 889 
Q 1547 409 2034 409 
Q 2525 409 2770 889 
Q 3016 1369 3016 2328 
Q 3016 3291 2770 3770 
Q 2525 4250 2034 4250 
z
M 2034 4750 
Q 2819 4750 3233 4129 
Q 3647 3509 3647 2328 
Q 3647 1150 3233 529 
Q 2819 -91 2034 -91 
Q 1250 -91 836 529 
Q 422 1150 422 2328 
Q 422 3509 836 4129 
Q 1250 4750 2034 4750 
z
" id="DejaVuSans-30" transform="scale(0.015625)"/>
       </defs>
       <use xlink:href="#DejaVuSans-30"/>
      </g>
     </g>
    </g>
    <g id="xtick_2">
     <g id="line2d_2">
      <g>
       <use style="stroke:#000000;stroke-width:0.8;" x="107.263636" xlink:href="#mcef43f7a37" y="252"/>
      </g>
     </g>
     <g id="text_2">
      <!-- 250 -->
      <g transform="translate(97.719886 266.598437)scale(0.1 -0.1)">
       <defs>
        <path d="M 1228 531 
L 3431 531 
L 3431 0 
L 469 0 
L 469 531 
Q 828 903 1448 1529 
Q 2069 2156 2228 2338 
Q 2531 2678 2651 2914 
Q 2772 3150 2772 3378 
Q 2772 3750 2511 3984 
Q 2250 4219 1831 4219 
Q 1534 4219 1204 4116 
Q 875 4013 500 3803 
L 500 4441 
Q 881 4594 1212 4672 
Q 1544 4750 1819 4750 
Q 2544 4750 2975 4387 
Q 3406 4025 3406 3419 
Q 3406 3131 3298 2873 
Q 3191 2616 2906 2266 
Q 2828 2175 2409 1742 
Q 1991 1309 1228 531 
z
" id="DejaVuSans-32" transform="scale(0.015625)"/>
        <path d="M 691 4666 
L 3169 4666 
L 3169 4134 
L 1269 4134 
L 1269 2991 
Q 1406 3038 1543 3061 
Q 1681 3084 1819 3084 
Q 2600 3084 3056 2656 
Q 3513 2228 3513 1497 
Q 3513 744 3044 326 
Q 2575 -91 1722 -91 
Q 1428 -91 1123 -41 
Q 819 9 494 109 
L 494 744 
Q 775 591 1075 516 
Q 1375 441 1709 441 
Q 2250 441 2565 725 
Q 2881 1009 2881 1497 
Q 2881 1984 2565 2268 
Q 2250 2553 1709 2553 
Q 1456 2553 1204 2497 
Q 953 2441 691 2322 
L 691 4666 
z
" id="DejaVuSans-35" transform="scale(0.015625)"/>
       </defs>
       <use xlink:href="#DejaVuSans-32"/>
       <use x="63.623047" xlink:href="#DejaVuSans-35"/>
       <use x="127.246094" xlink:href="#DejaVuSans-30"/>
      </g>
     </g>
    </g>
    <g id="xtick_3">
     <g id="line2d_3">
      <g>
       <use style="stroke:#000000;stroke-width:0.8;" x="145.309091" xlink:href="#mcef43f7a37" y="252"/>
      </g>
     </g>
     <g id="text_3">
      <!-- 500 -->
      <g transform="translate(135.765341 266.598437)scale(0.1 -0.1)">
       <use xlink:href="#DejaVuSans-35"/>
       <use x="63.623047" xlink:href="#DejaVuSans-30"/>
       <use x="127.246094" xlink:href="#DejaVuSans-30"/>
      </g>
     </g>
    </g>
    <g id="xtick_4">
     <g id="line2d_4">
      <g>
       <use style="stroke:#000000;stroke-width:0.8;" x="183.354545" xlink:href="#mcef43f7a37" y="252"/>
      </g>
     </g>
     <g id="text_4">
      <!-- 750 -->
      <g transform="translate(173.810795 266.598437)scale(0.1 -0.1)">
       <defs>
        <path d="M 525 4666 
L 3525 4666 
L 3525 4397 
L 1831 0 
L 1172 0 
L 2766 4134 
L 525 4134 
L 525 4666 
z
" id="DejaVuSans-37" transform="scale(0.015625)"/>
       </defs>
       <use xlink:href="#DejaVuSans-37"/>
       <use x="63.623047" xlink:href="#DejaVuSans-35"/>
       <use x="127.246094" xlink:href="#DejaVuSans-30"/>
      </g>
     </g>
    </g>
    <g id="xtick_5">
     <g id="line2d_5">
      <g>
       <use style="stroke:#000000;stroke-width:0.8;" x="221.4" xlink:href="#mcef43f7a37" y="252"/>
      </g>
     </g>
     <g id="text_5">
      <!-- 1000 -->
      <g transform="translate(208.675 266.598437)scale(0.1 -0.1)">
       <defs>
        <path d="M 794 531 
L 1825 531 
L 1825 4091 
L 703 3866 
L 703 4441 
L 1819 4666 
L 2450 4666 
L 2450 531 
L 3481 531 
L 3481 0 
L 794 0 
L 794 531 
z
" id="DejaVuSans-31" transform="scale(0.015625)"/>
       </defs>
       <use xlink:href="#DejaVuSans-31"/>
       <use x="63.623047" xlink:href="#DejaVuSans-30"/>
       <use x="127.246094" xlink:href="#DejaVuSans-30"/>
       <use x="190.869141" xlink:href="#DejaVuSans-30"/>
      </g>
     </g>
    </g>
    <g id="xtick_6">
     <g id="line2d_6">
      <g>
       <use style="stroke:#000000;stroke-width:0.8;" x="259.445455" xlink:href="#mcef43f7a37" y="252"/>
      </g>
     </g>
     <g id="text_6">
      <!-- 1250 -->
      <g transform="translate(246.720455 266.598437)scale(0.1 -0.1)">
       <use xlink:href="#DejaVuSans-31"/>
       <use x="63.623047" xlink:href="#DejaVuSans-32"/>
       <use x="127.246094" xlink:href="#DejaVuSans-35"/>
       <use x="190.869141" xlink:href="#DejaVuSans-30"/>
      </g>
     </g>
    </g>
    <g id="xtick_7">
     <g id="line2d_7">
      <g>
       <use style="stroke:#000000;stroke-width:0.8;" x="297.490909" xlink:href="#mcef43f7a37" y="252"/>
      </g>
     </g>
     <g id="text_7">
      <!-- 1500 -->
      <g transform="translate(284.765909 266.598437)scale(0.1 -0.1)">
       <use xlink:href="#DejaVuSans-31"/>
       <use x="63.623047" xlink:href="#DejaVuSans-35"/>
       <use x="127.246094" xlink:href="#DejaVuSans-30"/>
       <use x="190.869141" xlink:href="#DejaVuSans-30"/>
      </g>
     </g>
    </g>
    <g id="xtick_8">
     <g id="line2d_8">
      <g>
       <use style="stroke:#000000;stroke-width:0.8;" x="335.536364" xlink:href="#mcef43f7a37" y="252"/>
      </g>
     </g>
     <g id="text_8">
      <!-- 1750 -->
      <g transform="translate(322.811364 266.598437)scale(0.1 -0.1)">
       <use xlink:href="#DejaVuSans-31"/>
       <use x="63.623047" xlink:href="#DejaVuSans-37"/>
       <use x="127.246094" xlink:href="#DejaVuSans-35"/>
       <use x="190.869141" xlink:href="#DejaVuSans-30"/>
      </g>
     </g>
    </g>
    <g id="xtick_9">
     <g id="line2d_9">
      <g>
       <use style="stroke:#000000;stroke-width:0.8;" x="373.581818" xlink:href="#mcef43f7a37" y="252"/>
      </g>
     </g>
     <g id="text_9">
      <!-- 2000 -->
      <g transform="translate(360.856818 266.598437)scale(0.1 -0.1)">
       <use xlink:href="#DejaVuSans-32"/>
       <use x="63.623047" xlink:href="#DejaVuSans-30"/>
       <use x="127.246094" xlink:href="#DejaVuSans-30"/>
       <use x="190.869141" xlink:href="#DejaVuSans-30"/>
      </g>
     </g>
    </g>
   </g>
   <g id="matplotlib.axis_2">
    <g id="ytick_1">
     <g id="line2d_10">
      <defs>
       <path d="M 0 0 
L -3.5 0 
" id="m96a3c57da0" style="stroke:#000000;stroke-width:0.8;"/>
      </defs>
      <g>
       <use style="stroke:#000000;stroke-width:0.8;" x="54" xlink:href="#m96a3c57da0" y="230.52381"/>
      </g>
     </g>
     <g id="text_10">
      <!-- −0.4 -->
      <g transform="translate(22.717187 234.323029)scale(0.1 -0.1)">
       <defs>
        <path d="M 678 2272 
L 4684 2272 
L 4684 1741 
L 678 1741 
L 678 2272 
z
" id="DejaVuSans-2212" transform="scale(0.015625)"/>
        <path d="M 684 794 
L 1344 794 
L 1344 0 
L 684 0 
L 684 794 
z
" id="DejaVuSans-2e" transform="scale(0.015625)"/>
        <path d="M 2419 4116 
L 825 1625 
L 2419 1625 
L 2419 4116 
z
M 2253 4666 
L 3047 4666 
L 3047 1625 
L 3713 1625 
L 3713 1100 
L 3047 1100 
L 3047 0 
L 2419 0 
L 2419 1100 
L 313 1100 
L 313 1709 
L 2253 4666 
z
" id="DejaVuSans-34" transform="scale(0.015625)"/>
       </defs>
       <use xlink:href="#DejaVuSans-2212"/>
       <use x="83.789062" xlink:href="#DejaVuSans-30"/>
       <use x="147.412109" xlink:href="#DejaVuSans-2e"/>
       <use x="179.199219" xlink:href="#DejaVuSans-34"/>
      </g>
     </g>
    </g>
    <g id="ytick_2">
     <g id="line2d_11">
      <g>
       <use style="stroke:#000000;stroke-width:0.8;" x="54" xlink:href="#m96a3c57da0" y="190.6766"/>
      </g>
     </g>
     <g id="text_11">
      <!-- −0.2 -->
      <g transform="translate(22.717187 194.475819)scale(0.1 -0.1)">
       <use xlink:href="#DejaVuSans-2212"/>
       <use x="83.789062" xlink:href="#DejaVuSans-30"/>
       <use x="147.412109" xlink:href="#DejaVuSans-2e"/>
       <use x="179.199219" xlink:href="#DejaVuSans-32"/>
      </g>
     </g>
    </g>
    <g id="ytick_3">
     <g id="line2d_12">
      <g>
       <use style="stroke:#000000;stroke-width:0.8;" x="54" xlink:href="#m96a3c57da0" y="150.82939"/>
      </g>
     </g>
     <g id="text_12">
      <!-- 0.0 -->
      <g transform="translate(31.096875 154.628608)scale(0.1 -0.1)">
       <use xlink:href="#DejaVuSans-30"/>
       <use x="63.623047" xlink:href="#DejaVuSans-2e"/>
       <use x="95.410156" xlink:href="#DejaVuSans-30"/>
      </g>
     </g>
    </g>
    <g id="ytick_4">
     <g id="line2d_13">
      <g>
       <use style="stroke:#000000;stroke-width:0.8;" x="54" xlink:href="#m96a3c57da0" y="110.98218"/>
      </g>
     </g>
     <g id="text_13">
      <!-- 0.2 -->
      <g transform="translate(31.096875 114.781398)scale(0.1 -0.1)">
       <use xlink:href="#DejaVuSans-30"/>
       <use x="63.623047" xlink:href="#DejaVuSans-2e"/>
       <use x="95.410156" xlink:href="#DejaVuSans-32"/>
      </g>
     </g>
    </g>
    <g id="ytick_5">
     <g id="line2d_14">
      <g>
       <use style="stroke:#000000;stroke-width:0.8;" x="54" xlink:href="#m96a3c57da0" y="71.134969"/>
      </g>
     </g>
     <g id="text_14">
      <!-- 0.4 -->
      <g transform="translate(31.096875 74.934188)scale(0.1 -0.1)">
       <use xlink:href="#DejaVuSans-30"/>
       <use x="63.623047" xlink:href="#DejaVuSans-2e"/>
       <use x="95.410156" xlink:href="#DejaVuSans-34"/>
      </g>
     </g>
    </g>
   </g>
   <g id="line2d_15">
    <path clip-path="url(#pea787f3ae7)" d="M 69.218182 150.82939 
L 233.422364 150.740859 
L 234.335455 150.485056 
L 234.944182 150.092471 
L 235.552909 149.427294 
L 236.313818 148.194324 
L 237.379091 146.412854 
L 237.683455 146.184847 
L 237.987818 146.219382 
L 238.292182 146.587409 
L 238.596545 147.341617 
L 239.053091 149.237454 
L 239.661818 152.994305 
L 240.879273 161.022543 
L 241.335818 162.484729 
L 241.488 162.644087 
L 241.640182 162.625485 
L 241.944545 162.049256 
L 242.248909 160.787718 
L 242.705455 157.832973 
L 244.531636 144.139228 
L 244.988182 142.627025 
L 245.292545 142.189435 
L 245.596909 142.128458 
L 245.901273 142.340992 
L 247.118727 143.670035 
L 247.575273 143.71486 
L 248.184 143.674871 
L 248.488364 144.025863 
L 248.792727 145.00244 
L 249.097091 146.944159 
L 249.401455 150.182149 
L 249.858 157.996341 
L 250.466727 173.920619 
L 251.532 204.643854 
L 251.836364 208.887253 
L 251.988545 209.463268 
L 252.140727 208.828219 
L 252.445091 203.53088 
L 252.749455 192.547221 
L 253.206 166.028267 
L 254.88 50.127118 
L 255.184364 44.443636 
L 255.336545 44.673782 
L 255.488727 46.964771 
L 255.793091 57.426471 
L 256.249636 85.352968 
L 257.923636 205.079254 
L 258.228 214.046897 
L 258.532364 217.415425 
L 258.684545 217.1716 
L 258.988909 213.401091 
L 259.445455 201.681419 
L 261.119455 150.243614 
L 261.576 143.641059 
L 261.880364 141.47043 
L 262.184727 140.634788 
L 262.336909 140.558837 
L 262.641273 140.790078 
L 263.25 141.793933 
L 263.706545 142.908412 
L 264.163091 144.660496 
L 265.076182 148.513291 
L 265.532727 149.359414 
L 267.206727 150.775819 
L 267.511091 150.751156 
L 268.272 150.464477 
L 268.728545 150.668339 
L 269.185091 150.917566 
L 269.489455 150.914422 
L 270.250364 150.693987 
L 270.554727 150.857151 
L 271.163455 151.621568 
L 271.924364 152.875032 
L 272.380909 154.393446 
L 272.989636 157.838357 
L 273.750545 162.402791 
L 274.054909 163.520445 
L 274.207091 163.792129 
L 274.359273 163.80872 
L 274.511455 163.511087 
L 274.815818 161.705879 
L 275.120182 157.85301 
L 275.576727 147.554114 
L 276.185455 126.600949 
L 277.098545 94.935056 
L 277.402909 89.625663 
L 277.555091 88.734129 
L 277.707273 89.211425 
L 277.859455 91.166401 
L 278.163818 99.734011 
L 278.620364 123.685659 
L 280.294364 235.880345 
L 280.598727 241.955903 
L 280.750909 242.116364 
L 280.903091 240.347036 
L 281.207455 231.331997 
L 281.664 206.702703 
L 283.185818 112.14508 
L 283.642364 100.588302 
L 283.794545 99.133436 
L 283.946727 98.801543 
L 284.098909 99.504673 
L 284.403273 103.552388 
L 284.859818 114.169301 
L 286.229455 149.335028 
L 286.686 155.79969 
L 286.990364 158.022865 
L 287.294727 158.890313 
L 287.446909 158.97233 
L 287.751273 158.772232 
L 288.816545 157.466937 
L 289.273091 156.215196 
L 290.490545 151.975999 
L 290.947091 151.315422 
L 291.403636 151.126817 
L 292.012364 150.998647 
L 292.621091 150.519452 
L 293.077636 150.290177 
L 293.382 150.424755 
L 294.295091 151.200716 
L 294.599455 151.080035 
L 295.208182 150.732001 
L 295.512545 150.860775 
L 296.273455 151.465632 
L 296.577818 151.33932 
L 297.338727 150.656112 
L 297.643091 150.683678 
L 298.404 151.000049 
L 298.860545 150.786683 
L 299.317091 150.539832 
L 299.773636 150.585274 
L 300.686727 150.861152 
L 302.512909 150.808599 
L 303.426 150.937605 
L 304.491273 150.708416 
L 305.556545 150.987119 
L 306.469636 150.632166 
L 306.926182 150.882046 
L 307.382727 151.062478 
L 307.687091 150.958684 
L 308.295818 150.612159 
L 308.600182 150.658945 
L 309.361091 151.043698 
L 309.665455 150.955399 
L 310.426364 150.588665 
L 310.882909 150.735364 
L 311.339455 150.837431 
L 311.796 150.614954 
L 312.404727 150.278725 
L 312.861273 150.316162 
L 314.230909 150.738672 
L 314.687455 151.284897 
L 315.752727 152.757439 
L 316.209273 153.063435 
L 316.513636 153.041657 
L 316.818 152.787015 
L 317.274545 152.002282 
L 318.339818 149.413933 
L 318.948545 148.087244 
L 319.252909 147.741896 
L 319.557273 147.732727 
L 319.861636 148.038431 
L 320.774727 149.643053 
L 322.296545 152.350398 
L 322.600909 152.417823 
L 323.209636 152.119053 
L 324.427091 151.555832 
L 325.188 150.805412 
L 325.644545 150.765194 
L 326.253273 150.834578 
L 327.470727 150.545825 
L 328.231636 150.781069 
L 329.601273 150.778359 
L 330.21 150.848108 
L 331.275273 150.790246 
L 332.036182 150.860726 
L 333.253636 150.827706 
L 334.014545 150.832635 
L 334.927636 150.830705 
L 335.688545 150.836239 
L 336.449455 150.782149 
L 337.514727 150.847925 
L 338.275636 150.727965 
L 339.493091 150.864637 
L 340.101818 150.729284 
L 340.558364 150.847496 
L 341.167091 151.008112 
L 341.775818 150.831388 
L 342.232364 150.778523 
L 343.297636 150.921375 
L 344.210727 150.664257 
L 345.428182 150.792166 
L 346.036909 150.686468 
L 347.558727 150.839852 
L 348.167455 150.815395 
L 349.080545 150.920761 
L 350.145818 150.808667 
L 351.058909 150.853667 
L 351.972 150.778704 
L 353.037273 150.824556 
L 353.798182 150.783802 
L 354.863455 150.844685 
L 355.776545 150.814991 
L 356.689636 150.86542 
L 357.602727 150.824233 
L 358.515818 150.874929 
L 359.581091 150.785813 
L 360.342 150.8167 
L 361.407273 150.728465 
L 362.320364 150.881934 
L 363.385636 150.866326 
L 364.146545 150.994969 
L 365.668364 150.873244 
L 366.277091 150.869777 
L 367.190182 150.714847 
L 368.407636 150.831498 
L 369.168545 150.746213 
L 370.386 150.85953 
L 371.146909 150.768599 
L 372.364364 150.861528 
L 373.125273 150.77875 
L 373.581818 150.849256 
L 373.581818 150.849256 
" style="fill:none;stroke:#1f77b4;stroke-linecap:square;stroke-width:1.5;"/>
   </g>
   <g id="patch_3">
    <path d="M 54 252 
L 54 34.56 
" style="fill:none;stroke:#000000;stroke-linecap:square;stroke-linejoin:miter;stroke-width:0.8;"/>
   </g>
   <g id="patch_4">
    <path d="M 388.8 252 
L 388.8 34.56 
" style="fill:none;stroke:#000000;stroke-linecap:square;stroke-linejoin:miter;stroke-width:0.8;"/>
   </g>
   <g id="patch_5">
    <path d="M 54 252 
L 388.8 252 
" style="fill:none;stroke:#000000;stroke-linecap:square;stroke-linejoin:miter;stroke-width:0.8;"/>
   </g>
   <g id="patch_6">
    <path d="M 54 34.56 
L 388.8 34.56 
" style="fill:none;stroke:#000000;stroke-linecap:square;stroke-linejoin:miter;stroke-width:0.8;"/>
   </g>
  </g>
 </g>
 <defs>
  <clipPath id="pea787f3ae7">
   <rect height="217.44" width="334.8" x="54" y="34.56"/>
  </clipPath>
 </defs>
</svg>
