<?xml version="1.0" encoding="utf-8" standalone="no"?>
<!DOCTYPE svg PUBLIC "-//W3C//DTD SVG 1.1//EN"
  "http://www.w3.org/Graphics/SVG/1.1/DTD/svg11.dtd">
<svg height="288pt" version="1.1" viewBox="0 0 432 288" width="432pt" xmlns="http://www.w3.org/2000/svg" xmlns:xlink="http://www.w3.org/1999/xlink">
 <metadata>
  <rdf:RDF xmlns:cc="http://creativecommons.org/ns#" xmlns:dc="http://purl.org/dc/elements/1.1/" xmlns:rdf="http://www.w3.org/1999/02/22-rdf-syntax-ns#">
   <cc:Work>
    <dc:type rdf:resource="http://purl.org/dc/dcmitype/StillImage"/>
    <dc:date>2022-04-22T12:50:02.041916</dc:date>
    <dc:format>image/svg+xml</dc:format>
    <dc:creator>
     <cc:Agent>
      <dc:title>Matplotlib v3.4.3, https://matplotlib.org/</dc:title>
     </cc:Agent>
    </dc:creator>
   </cc:Work>
  </rdf:RDF>
 </metadata>
 <defs>
  <style type="text/css">*{stroke-linecap:butt;stroke-linejoin:round;}</style>
 </defs>
 <g id="figure_1">
  <g id="patch_1">
   <path d="M 0 288 
L 432 288 
L 432 0 
L 0 0 
z
" style="fill:none;"/>
  </g>
  <g id="axes_1">
   <g id="patch_2">
    <path d="M 54 252 
L 388.8 252 
L 388.8 34.56 
L 54 34.56 
z
" style="fill:#ffffff;"/>
   </g>
   <g id="matplotlib.axis_1">
    <g id="xtick_1">
     <g id="line2d_1">
      <defs>
       <path d="M 0 0 
L 0 3.5 
" id="mc11b045627" style="stroke:#000000;stroke-width:0.8;"/>
      </defs>
      <g>
       <use style="stroke:#000000;stroke-width:0.8;" x="69.218182" xlink:href="#mc11b045627" y="252"/>
      </g>
     </g>
     <g id="text_1">
      <!-- 0 -->
      <g transform="translate(66.036932 266.598437)scale(0.1 -0.1)">
       <defs>
        <path d="M 2034 4250 
Q 1547 4250 1301 3770 
Q 1056 3291 1056 2328 
Q 1056 1369 1301 889 
Q 1547 409 2034 409 
Q 2525 409 2770 889 
Q 3016 1369 3016 2328 
Q 3016 3291 2770 3770 
Q 2525 4250 2034 4250 
z
M 2034 4750 
Q 2819 4750 3233 4129 
Q 3647 3509 3647 2328 
Q 3647 1150 3233 529 
Q 2819 -91 2034 -91 
Q 1250 -91 836 529 
Q 422 1150 422 2328 
Q 422 3509 836 4129 
Q 1250 4750 2034 4750 
z
" id="DejaVuSans-30" transform="scale(0.015625)"/>
       </defs>
       <use xlink:href="#DejaVuSans-30"/>
      </g>
     </g>
    </g>
    <g id="xtick_2">
     <g id="line2d_2">
      <g>
       <use style="stroke:#000000;stroke-width:0.8;" x="107.263636" xlink:href="#mc11b045627" y="252"/>
      </g>
     </g>
     <g id="text_2">
      <!-- 250 -->
      <g transform="translate(97.719886 266.598437)scale(0.1 -0.1)">
       <defs>
        <path d="M 1228 531 
L 3431 531 
L 3431 0 
L 469 0 
L 469 531 
Q 828 903 1448 1529 
Q 2069 2156 2228 2338 
Q 2531 2678 2651 2914 
Q 2772 3150 2772 3378 
Q 2772 3750 2511 3984 
Q 2250 4219 1831 4219 
Q 1534 4219 1204 4116 
Q 875 4013 500 3803 
L 500 4441 
Q 881 4594 1212 4672 
Q 1544 4750 1819 4750 
Q 2544 4750 2975 4387 
Q 3406 4025 3406 3419 
Q 3406 3131 3298 2873 
Q 3191 2616 2906 2266 
Q 2828 2175 2409 1742 
Q 1991 1309 1228 531 
z
" id="DejaVuSans-32" transform="scale(0.015625)"/>
        <path d="M 691 4666 
L 3169 4666 
L 3169 4134 
L 1269 4134 
L 1269 2991 
Q 1406 3038 1543 3061 
Q 1681 3084 1819 3084 
Q 2600 3084 3056 2656 
Q 3513 2228 3513 1497 
Q 3513 744 3044 326 
Q 2575 -91 1722 -91 
Q 1428 -91 1123 -41 
Q 819 9 494 109 
L 494 744 
Q 775 591 1075 516 
Q 1375 441 1709 441 
Q 2250 441 2565 725 
Q 2881 1009 2881 1497 
Q 2881 1984 2565 2268 
Q 2250 2553 1709 2553 
Q 1456 2553 1204 2497 
Q 953 2441 691 2322 
L 691 4666 
z
" id="DejaVuSans-35" transform="scale(0.015625)"/>
       </defs>
       <use xlink:href="#DejaVuSans-32"/>
       <use x="63.623047" xlink:href="#DejaVuSans-35"/>
       <use x="127.246094" xlink:href="#DejaVuSans-30"/>
      </g>
     </g>
    </g>
    <g id="xtick_3">
     <g id="line2d_3">
      <g>
       <use style="stroke:#000000;stroke-width:0.8;" x="145.309091" xlink:href="#mc11b045627" y="252"/>
      </g>
     </g>
     <g id="text_3">
      <!-- 500 -->
      <g transform="translate(135.765341 266.598437)scale(0.1 -0.1)">
       <use xlink:href="#DejaVuSans-35"/>
       <use x="63.623047" xlink:href="#DejaVuSans-30"/>
       <use x="127.246094" xlink:href="#DejaVuSans-30"/>
      </g>
     </g>
    </g>
    <g id="xtick_4">
     <g id="line2d_4">
      <g>
       <use style="stroke:#000000;stroke-width:0.8;" x="183.354545" xlink:href="#mc11b045627" y="252"/>
      </g>
     </g>
     <g id="text_4">
      <!-- 750 -->
      <g transform="translate(173.810795 266.598437)scale(0.1 -0.1)">
       <defs>
        <path d="M 525 4666 
L 3525 4666 
L 3525 4397 
L 1831 0 
L 1172 0 
L 2766 4134 
L 525 4134 
L 525 4666 
z
" id="DejaVuSans-37" transform="scale(0.015625)"/>
       </defs>
       <use xlink:href="#DejaVuSans-37"/>
       <use x="63.623047" xlink:href="#DejaVuSans-35"/>
       <use x="127.246094" xlink:href="#DejaVuSans-30"/>
      </g>
     </g>
    </g>
    <g id="xtick_5">
     <g id="line2d_5">
      <g>
       <use style="stroke:#000000;stroke-width:0.8;" x="221.4" xlink:href="#mc11b045627" y="252"/>
      </g>
     </g>
     <g id="text_5">
      <!-- 1000 -->
      <g transform="translate(208.675 266.598437)scale(0.1 -0.1)">
       <defs>
        <path d="M 794 531 
L 1825 531 
L 1825 4091 
L 703 3866 
L 703 4441 
L 1819 4666 
L 2450 4666 
L 2450 531 
L 3481 531 
L 3481 0 
L 794 0 
L 794 531 
z
" id="DejaVuSans-31" transform="scale(0.015625)"/>
       </defs>
       <use xlink:href="#DejaVuSans-31"/>
       <use x="63.623047" xlink:href="#DejaVuSans-30"/>
       <use x="127.246094" xlink:href="#DejaVuSans-30"/>
       <use x="190.869141" xlink:href="#DejaVuSans-30"/>
      </g>
     </g>
    </g>
    <g id="xtick_6">
     <g id="line2d_6">
      <g>
       <use style="stroke:#000000;stroke-width:0.8;" x="259.445455" xlink:href="#mc11b045627" y="252"/>
      </g>
     </g>
     <g id="text_6">
      <!-- 1250 -->
      <g transform="translate(246.720455 266.598437)scale(0.1 -0.1)">
       <use xlink:href="#DejaVuSans-31"/>
       <use x="63.623047" xlink:href="#DejaVuSans-32"/>
       <use x="127.246094" xlink:href="#DejaVuSans-35"/>
       <use x="190.869141" xlink:href="#DejaVuSans-30"/>
      </g>
     </g>
    </g>
    <g id="xtick_7">
     <g id="line2d_7">
      <g>
       <use style="stroke:#000000;stroke-width:0.8;" x="297.490909" xlink:href="#mc11b045627" y="252"/>
      </g>
     </g>
     <g id="text_7">
      <!-- 1500 -->
      <g transform="translate(284.765909 266.598437)scale(0.1 -0.1)">
       <use xlink:href="#DejaVuSans-31"/>
       <use x="63.623047" xlink:href="#DejaVuSans-35"/>
       <use x="127.246094" xlink:href="#DejaVuSans-30"/>
       <use x="190.869141" xlink:href="#DejaVuSans-30"/>
      </g>
     </g>
    </g>
    <g id="xtick_8">
     <g id="line2d_8">
      <g>
       <use style="stroke:#000000;stroke-width:0.8;" x="335.536364" xlink:href="#mc11b045627" y="252"/>
      </g>
     </g>
     <g id="text_8">
      <!-- 1750 -->
      <g transform="translate(322.811364 266.598437)scale(0.1 -0.1)">
       <use xlink:href="#DejaVuSans-31"/>
       <use x="63.623047" xlink:href="#DejaVuSans-37"/>
       <use x="127.246094" xlink:href="#DejaVuSans-35"/>
       <use x="190.869141" xlink:href="#DejaVuSans-30"/>
      </g>
     </g>
    </g>
    <g id="xtick_9">
     <g id="line2d_9">
      <g>
       <use style="stroke:#000000;stroke-width:0.8;" x="373.581818" xlink:href="#mc11b045627" y="252"/>
      </g>
     </g>
     <g id="text_9">
      <!-- 2000 -->
      <g transform="translate(360.856818 266.598437)scale(0.1 -0.1)">
       <use xlink:href="#DejaVuSans-32"/>
       <use x="63.623047" xlink:href="#DejaVuSans-30"/>
       <use x="127.246094" xlink:href="#DejaVuSans-30"/>
       <use x="190.869141" xlink:href="#DejaVuSans-30"/>
      </g>
     </g>
    </g>
   </g>
   <g id="matplotlib.axis_2">
    <g id="ytick_1">
     <g id="line2d_10">
      <defs>
       <path d="M 0 0 
L -3.5 0 
" id="m636aecabf7" style="stroke:#000000;stroke-width:0.8;"/>
      </defs>
      <g>
       <use style="stroke:#000000;stroke-width:0.8;" x="54" xlink:href="#m636aecabf7" y="226.656624"/>
      </g>
     </g>
     <g id="text_10">
      <!-- −0.4 -->
      <g transform="translate(22.717187 230.455843)scale(0.1 -0.1)">
       <defs>
        <path d="M 678 2272 
L 4684 2272 
L 4684 1741 
L 678 1741 
L 678 2272 
z
" id="DejaVuSans-2212" transform="scale(0.015625)"/>
        <path d="M 684 794 
L 1344 794 
L 1344 0 
L 684 0 
L 684 794 
z
" id="DejaVuSans-2e" transform="scale(0.015625)"/>
        <path d="M 2419 4116 
L 825 1625 
L 2419 1625 
L 2419 4116 
z
M 2253 4666 
L 3047 4666 
L 3047 1625 
L 3713 1625 
L 3713 1100 
L 3047 1100 
L 3047 0 
L 2419 0 
L 2419 1100 
L 313 1100 
L 313 1709 
L 2253 4666 
z
" id="DejaVuSans-34" transform="scale(0.015625)"/>
       </defs>
       <use xlink:href="#DejaVuSans-2212"/>
       <use x="83.789062" xlink:href="#DejaVuSans-30"/>
       <use x="147.412109" xlink:href="#DejaVuSans-2e"/>
       <use x="179.199219" xlink:href="#DejaVuSans-34"/>
      </g>
     </g>
    </g>
    <g id="ytick_2">
     <g id="line2d_11">
      <g>
       <use style="stroke:#000000;stroke-width:0.8;" x="54" xlink:href="#m636aecabf7" y="186.765779"/>
      </g>
     </g>
     <g id="text_11">
      <!-- −0.2 -->
      <g transform="translate(22.717187 190.564998)scale(0.1 -0.1)">
       <use xlink:href="#DejaVuSans-2212"/>
       <use x="83.789062" xlink:href="#DejaVuSans-30"/>
       <use x="147.412109" xlink:href="#DejaVuSans-2e"/>
       <use x="179.199219" xlink:href="#DejaVuSans-32"/>
      </g>
     </g>
    </g>
    <g id="ytick_3">
     <g id="line2d_12">
      <g>
       <use style="stroke:#000000;stroke-width:0.8;" x="54" xlink:href="#m636aecabf7" y="146.874933"/>
      </g>
     </g>
     <g id="text_12">
      <!-- 0.0 -->
      <g transform="translate(31.096875 150.674152)scale(0.1 -0.1)">
       <use xlink:href="#DejaVuSans-30"/>
       <use x="63.623047" xlink:href="#DejaVuSans-2e"/>
       <use x="95.410156" xlink:href="#DejaVuSans-30"/>
      </g>
     </g>
    </g>
    <g id="ytick_4">
     <g id="line2d_13">
      <g>
       <use style="stroke:#000000;stroke-width:0.8;" x="54" xlink:href="#m636aecabf7" y="106.984087"/>
      </g>
     </g>
     <g id="text_13">
      <!-- 0.2 -->
      <g transform="translate(31.096875 110.783306)scale(0.1 -0.1)">
       <use xlink:href="#DejaVuSans-30"/>
       <use x="63.623047" xlink:href="#DejaVuSans-2e"/>
       <use x="95.410156" xlink:href="#DejaVuSans-32"/>
      </g>
     </g>
    </g>
    <g id="ytick_5">
     <g id="line2d_14">
      <g>
       <use style="stroke:#000000;stroke-width:0.8;" x="54" xlink:href="#m636aecabf7" y="67.093242"/>
      </g>
     </g>
     <g id="text_14">
      <!-- 0.4 -->
      <g transform="translate(31.096875 70.89246)scale(0.1 -0.1)">
       <use xlink:href="#DejaVuSans-30"/>
       <use x="63.623047" xlink:href="#DejaVuSans-2e"/>
       <use x="95.410156" xlink:href="#DejaVuSans-34"/>
      </g>
     </g>
    </g>
   </g>
   <g id="line2d_15">
    <path clip-path="url(#p3f432e4256)" d="M 69.218182 146.874933 
L 234.944182 146.779442 
L 235.857273 146.510415 
L 236.466 146.104952 
L 237.074727 145.429923 
L 237.835636 144.210067 
L 238.748727 142.717144 
L 239.205273 142.394078 
L 239.509636 142.501789 
L 239.814 142.945539 
L 240.118364 143.77028 
L 240.574909 145.741921 
L 241.335818 150.549975 
L 242.248909 156.359799 
L 242.705455 157.988383 
L 243.009818 158.29793 
L 243.162 158.195788 
L 243.466364 157.476027 
L 243.922909 155.221442 
L 244.683818 149.43041 
L 245.596909 142.528323 
L 246.053455 140.256242 
L 246.51 139.047338 
L 246.814364 138.798383 
L 247.118727 138.915263 
L 247.575273 139.556622 
L 248.488364 141.130558 
L 248.944909 141.446074 
L 249.249273 141.39217 
L 249.858 140.891528 
L 250.162364 140.731498 
L 250.314545 140.770977 
L 250.466727 140.937633 
L 250.771091 141.81156 
L 251.075455 143.68113 
L 251.379818 146.854679 
L 251.836364 154.520044 
L 252.445091 169.990545 
L 253.510364 198.973961 
L 253.814727 202.601575 
L 253.966909 202.883021 
L 254.119091 201.974818 
L 254.423455 196.236444 
L 254.727818 185.021047 
L 255.184364 158.703213 
L 256.706182 53.984944 
L 257.010545 45.702773 
L 257.162727 44.443636 
L 257.314909 45.174036 
L 257.619273 52.477066 
L 258.075818 76.203635 
L 258.988909 146.68317 
L 259.597636 187.269131 
L 260.054182 205.333767 
L 260.358545 210.54394 
L 260.510727 211.199121 
L 260.662909 210.671599 
L 260.967273 206.549343 
L 261.423818 194.786071 
L 262.945636 148.495664 
L 263.402182 141.07117 
L 263.706545 138.384296 
L 264.010909 137.151954 
L 264.315273 136.901984 
L 264.619636 137.167438 
L 265.228364 138.173204 
L 265.684909 139.315101 
L 266.293636 141.766715 
L 266.902364 144.287834 
L 267.358909 145.306423 
L 267.815455 145.697248 
L 268.424182 146.213224 
L 269.032909 146.782175 
L 269.337273 146.825028 
L 270.402545 146.579212 
L 271.315636 147.002775 
L 272.228727 146.94107 
L 272.533091 147.246285 
L 272.989636 148.074672 
L 273.598364 149.563827 
L 274.054909 151.250093 
L 274.511455 153.840146 
L 275.424545 159.613434 
L 275.728909 160.416878 
L 275.881091 160.400459 
L 276.033273 160.044615 
L 276.337636 158.116582 
L 276.642 154.218945 
L 277.098545 143.951656 
L 277.707273 122.51715 
L 278.620364 89.1161 
L 278.924727 83.472048 
L 279.076909 82.472567 
L 279.229091 82.868723 
L 279.381273 84.762082 
L 279.685636 93.268171 
L 280.142182 117.476826 
L 280.903091 177.21302 
L 281.511818 221.091291 
L 281.968364 239.402254 
L 282.120545 241.755836 
L 282.272727 242.116364 
L 282.424909 240.49147 
L 282.729273 231.577846 
L 283.185818 206.453 
L 284.707636 106.719657 
L 285.164182 94.357933 
L 285.468545 92.219211 
L 285.620727 92.801908 
L 285.925091 96.771766 
L 286.381636 107.802749 
L 287.751273 145.145908 
L 288.207818 152.036916 
L 288.512182 154.567338 
L 288.816545 155.663012 
L 288.968727 155.794624 
L 289.120909 155.73252 
L 289.577455 155.010591 
L 290.642727 153.172621 
L 291.099273 151.465189 
L 291.860182 148.284301 
L 292.164545 147.60545 
L 292.468909 147.305567 
L 294.599455 146.530996 
L 295.056 146.797449 
L 295.816909 147.328458 
L 296.121273 147.292949 
L 297.034364 146.911814 
L 297.490909 147.182412 
L 297.947455 147.375218 
L 298.251818 147.216261 
L 299.012727 146.511583 
L 299.317091 146.57491 
L 300.078 147.055218 
L 300.382364 146.933728 
L 300.991091 146.498734 
L 301.295455 146.535249 
L 302.208545 147.066435 
L 302.665091 146.876106 
L 303.121636 146.68965 
L 303.578182 146.792305 
L 304.186909 147.007999 
L 304.795636 146.914607 
L 305.556545 146.80899 
L 307.534909 146.840216 
L 308.143636 146.767278 
L 309.208909 147.017798 
L 310.274182 146.731097 
L 311.035091 147.0706 
L 311.339455 146.980233 
L 312.100364 146.571471 
L 312.556909 146.7144 
L 313.013455 146.827511 
L 313.317818 146.682009 
L 314.078727 146.151985 
L 314.383091 146.224102 
L 316.057091 147.372103 
L 317.274545 149.221899 
L 317.578909 149.237379 
L 318.035455 148.924202 
L 318.492 148.267409 
L 318.948545 147.205614 
L 320.166 144.064172 
L 320.470364 143.723979 
L 320.774727 143.636355 
L 321.079091 143.806972 
L 321.535636 144.509787 
L 323.361818 148.140861 
L 323.818364 148.575915 
L 324.122727 148.6113 
L 324.579273 148.323453 
L 325.340182 147.776169 
L 326.101091 147.320514 
L 326.862 146.702074 
L 327.318545 146.717556 
L 327.927273 146.834701 
L 328.536 146.573987 
L 328.992545 146.518468 
L 330.21 146.85041 
L 330.818727 146.684857 
L 331.275273 146.80656 
L 331.884 146.957262 
L 333.101455 146.823855 
L 333.862364 146.941996 
L 334.927636 146.824669 
L 335.840727 146.916822 
L 336.753818 146.830367 
L 337.819091 146.877101 
L 338.732182 146.856787 
L 339.797455 146.832788 
L 340.710545 146.92866 
L 341.471455 146.881395 
L 342.080182 146.903076 
L 342.841091 147.022717 
L 344.210727 146.86129 
L 344.819455 146.921619 
L 345.884727 146.694507 
L 346.95 146.910314 
L 347.710909 146.761687 
L 349.080545 146.942532 
L 349.689273 146.816383 
L 351.058909 146.903796 
L 351.667636 146.797457 
L 352.885091 146.892523 
L 353.646 146.794713 
L 354.863455 146.870324 
L 355.624364 146.82649 
L 356.689636 146.89439 
L 357.602727 146.86659 
L 358.515818 146.918789 
L 359.428909 146.869556 
L 360.342 146.885853 
L 361.407273 146.803285 
L 362.320364 146.814183 
L 363.081273 146.819026 
L 364.146545 146.958323 
L 365.059636 146.945135 
L 365.820545 146.998617 
L 367.190182 146.868122 
L 367.798909 146.896929 
L 368.864182 146.782197 
L 369.777273 146.918837 
L 370.842545 146.81546 
L 371.755636 146.946156 
L 372.820909 146.82346 
L 373.581818 146.960016 
L 373.581818 146.960016 
" style="fill:none;stroke:#1f77b4;stroke-linecap:square;stroke-width:1.5;"/>
   </g>
   <g id="patch_3">
    <path d="M 54 252 
L 54 34.56 
" style="fill:none;stroke:#000000;stroke-linecap:square;stroke-linejoin:miter;stroke-width:0.8;"/>
   </g>
   <g id="patch_4">
    <path d="M 388.8 252 
L 388.8 34.56 
" style="fill:none;stroke:#000000;stroke-linecap:square;stroke-linejoin:miter;stroke-width:0.8;"/>
   </g>
   <g id="patch_5">
    <path d="M 54 252 
L 388.8 252 
" style="fill:none;stroke:#000000;stroke-linecap:square;stroke-linejoin:miter;stroke-width:0.8;"/>
   </g>
   <g id="patch_6">
    <path d="M 54 34.56 
L 388.8 34.56 
" style="fill:none;stroke:#000000;stroke-linecap:square;stroke-linejoin:miter;stroke-width:0.8;"/>
   </g>
  </g>
 </g>
 <defs>
  <clipPath id="p3f432e4256">
   <rect height="217.44" width="334.8" x="54" y="34.56"/>
  </clipPath>
 </defs>
</svg>
