<?xml version="1.0" encoding="utf-8" standalone="no"?>
<!DOCTYPE svg PUBLIC "-//W3C//DTD SVG 1.1//EN"
  "http://www.w3.org/Graphics/SVG/1.1/DTD/svg11.dtd">
<svg height="288pt" version="1.1" viewBox="0 0 432 288" width="432pt" xmlns="http://www.w3.org/2000/svg" xmlns:xlink="http://www.w3.org/1999/xlink">
 <metadata>
  <rdf:RDF xmlns:cc="http://creativecommons.org/ns#" xmlns:dc="http://purl.org/dc/elements/1.1/" xmlns:rdf="http://www.w3.org/1999/02/22-rdf-syntax-ns#">
   <cc:Work>
    <dc:type rdf:resource="http://purl.org/dc/dcmitype/StillImage"/>
    <dc:date>2022-04-22T12:50:02.105931</dc:date>
    <dc:format>image/svg+xml</dc:format>
    <dc:creator>
     <cc:Agent>
      <dc:title>Matplotlib v3.4.3, https://matplotlib.org/</dc:title>
     </cc:Agent>
    </dc:creator>
   </cc:Work>
  </rdf:RDF>
 </metadata>
 <defs>
  <style type="text/css">*{stroke-linecap:butt;stroke-linejoin:round;}</style>
 </defs>
 <g id="figure_1">
  <g id="patch_1">
   <path d="M 0 288 
L 432 288 
L 432 0 
L 0 0 
z
" style="fill:none;"/>
  </g>
  <g id="axes_1">
   <g id="patch_2">
    <path d="M 54 252 
L 388.8 252 
L 388.8 34.56 
L 54 34.56 
z
" style="fill:#ffffff;"/>
   </g>
   <g id="matplotlib.axis_1">
    <g id="xtick_1">
     <g id="line2d_1">
      <defs>
       <path d="M 0 0 
L 0 3.5 
" id="mf3a068eff2" style="stroke:#000000;stroke-width:0.8;"/>
      </defs>
      <g>
       <use style="stroke:#000000;stroke-width:0.8;" x="69.218182" xlink:href="#mf3a068eff2" y="252"/>
      </g>
     </g>
     <g id="text_1">
      <!-- 0 -->
      <g transform="translate(66.036932 266.598437)scale(0.1 -0.1)">
       <defs>
        <path d="M 2034 4250 
Q 1547 4250 1301 3770 
Q 1056 3291 1056 2328 
Q 1056 1369 1301 889 
Q 1547 409 2034 409 
Q 2525 409 2770 889 
Q 3016 1369 3016 2328 
Q 3016 3291 2770 3770 
Q 2525 4250 2034 4250 
z
M 2034 4750 
Q 2819 4750 3233 4129 
Q 3647 3509 3647 2328 
Q 3647 1150 3233 529 
Q 2819 -91 2034 -91 
Q 1250 -91 836 529 
Q 422 1150 422 2328 
Q 422 3509 836 4129 
Q 1250 4750 2034 4750 
z
" id="DejaVuSans-30" transform="scale(0.015625)"/>
       </defs>
       <use xlink:href="#DejaVuSans-30"/>
      </g>
     </g>
    </g>
    <g id="xtick_2">
     <g id="line2d_2">
      <g>
       <use style="stroke:#000000;stroke-width:0.8;" x="107.263636" xlink:href="#mf3a068eff2" y="252"/>
      </g>
     </g>
     <g id="text_2">
      <!-- 250 -->
      <g transform="translate(97.719886 266.598437)scale(0.1 -0.1)">
       <defs>
        <path d="M 1228 531 
L 3431 531 
L 3431 0 
L 469 0 
L 469 531 
Q 828 903 1448 1529 
Q 2069 2156 2228 2338 
Q 2531 2678 2651 2914 
Q 2772 3150 2772 3378 
Q 2772 3750 2511 3984 
Q 2250 4219 1831 4219 
Q 1534 4219 1204 4116 
Q 875 4013 500 3803 
L 500 4441 
Q 881 4594 1212 4672 
Q 1544 4750 1819 4750 
Q 2544 4750 2975 4387 
Q 3406 4025 3406 3419 
Q 3406 3131 3298 2873 
Q 3191 2616 2906 2266 
Q 2828 2175 2409 1742 
Q 1991 1309 1228 531 
z
" id="DejaVuSans-32" transform="scale(0.015625)"/>
        <path d="M 691 4666 
L 3169 4666 
L 3169 4134 
L 1269 4134 
L 1269 2991 
Q 1406 3038 1543 3061 
Q 1681 3084 1819 3084 
Q 2600 3084 3056 2656 
Q 3513 2228 3513 1497 
Q 3513 744 3044 326 
Q 2575 -91 1722 -91 
Q 1428 -91 1123 -41 
Q 819 9 494 109 
L 494 744 
Q 775 591 1075 516 
Q 1375 441 1709 441 
Q 2250 441 2565 725 
Q 2881 1009 2881 1497 
Q 2881 1984 2565 2268 
Q 2250 2553 1709 2553 
Q 1456 2553 1204 2497 
Q 953 2441 691 2322 
L 691 4666 
z
" id="DejaVuSans-35" transform="scale(0.015625)"/>
       </defs>
       <use xlink:href="#DejaVuSans-32"/>
       <use x="63.623047" xlink:href="#DejaVuSans-35"/>
       <use x="127.246094" xlink:href="#DejaVuSans-30"/>
      </g>
     </g>
    </g>
    <g id="xtick_3">
     <g id="line2d_3">
      <g>
       <use style="stroke:#000000;stroke-width:0.8;" x="145.309091" xlink:href="#mf3a068eff2" y="252"/>
      </g>
     </g>
     <g id="text_3">
      <!-- 500 -->
      <g transform="translate(135.765341 266.598437)scale(0.1 -0.1)">
       <use xlink:href="#DejaVuSans-35"/>
       <use x="63.623047" xlink:href="#DejaVuSans-30"/>
       <use x="127.246094" xlink:href="#DejaVuSans-30"/>
      </g>
     </g>
    </g>
    <g id="xtick_4">
     <g id="line2d_4">
      <g>
       <use style="stroke:#000000;stroke-width:0.8;" x="183.354545" xlink:href="#mf3a068eff2" y="252"/>
      </g>
     </g>
     <g id="text_4">
      <!-- 750 -->
      <g transform="translate(173.810795 266.598437)scale(0.1 -0.1)">
       <defs>
        <path d="M 525 4666 
L 3525 4666 
L 3525 4397 
L 1831 0 
L 1172 0 
L 2766 4134 
L 525 4134 
L 525 4666 
z
" id="DejaVuSans-37" transform="scale(0.015625)"/>
       </defs>
       <use xlink:href="#DejaVuSans-37"/>
       <use x="63.623047" xlink:href="#DejaVuSans-35"/>
       <use x="127.246094" xlink:href="#DejaVuSans-30"/>
      </g>
     </g>
    </g>
    <g id="xtick_5">
     <g id="line2d_5">
      <g>
       <use style="stroke:#000000;stroke-width:0.8;" x="221.4" xlink:href="#mf3a068eff2" y="252"/>
      </g>
     </g>
     <g id="text_5">
      <!-- 1000 -->
      <g transform="translate(208.675 266.598437)scale(0.1 -0.1)">
       <defs>
        <path d="M 794 531 
L 1825 531 
L 1825 4091 
L 703 3866 
L 703 4441 
L 1819 4666 
L 2450 4666 
L 2450 531 
L 3481 531 
L 3481 0 
L 794 0 
L 794 531 
z
" id="DejaVuSans-31" transform="scale(0.015625)"/>
       </defs>
       <use xlink:href="#DejaVuSans-31"/>
       <use x="63.623047" xlink:href="#DejaVuSans-30"/>
       <use x="127.246094" xlink:href="#DejaVuSans-30"/>
       <use x="190.869141" xlink:href="#DejaVuSans-30"/>
      </g>
     </g>
    </g>
    <g id="xtick_6">
     <g id="line2d_6">
      <g>
       <use style="stroke:#000000;stroke-width:0.8;" x="259.445455" xlink:href="#mf3a068eff2" y="252"/>
      </g>
     </g>
     <g id="text_6">
      <!-- 1250 -->
      <g transform="translate(246.720455 266.598437)scale(0.1 -0.1)">
       <use xlink:href="#DejaVuSans-31"/>
       <use x="63.623047" xlink:href="#DejaVuSans-32"/>
       <use x="127.246094" xlink:href="#DejaVuSans-35"/>
       <use x="190.869141" xlink:href="#DejaVuSans-30"/>
      </g>
     </g>
    </g>
    <g id="xtick_7">
     <g id="line2d_7">
      <g>
       <use style="stroke:#000000;stroke-width:0.8;" x="297.490909" xlink:href="#mf3a068eff2" y="252"/>
      </g>
     </g>
     <g id="text_7">
      <!-- 1500 -->
      <g transform="translate(284.765909 266.598437)scale(0.1 -0.1)">
       <use xlink:href="#DejaVuSans-31"/>
       <use x="63.623047" xlink:href="#DejaVuSans-35"/>
       <use x="127.246094" xlink:href="#DejaVuSans-30"/>
       <use x="190.869141" xlink:href="#DejaVuSans-30"/>
      </g>
     </g>
    </g>
    <g id="xtick_8">
     <g id="line2d_8">
      <g>
       <use style="stroke:#000000;stroke-width:0.8;" x="335.536364" xlink:href="#mf3a068eff2" y="252"/>
      </g>
     </g>
     <g id="text_8">
      <!-- 1750 -->
      <g transform="translate(322.811364 266.598437)scale(0.1 -0.1)">
       <use xlink:href="#DejaVuSans-31"/>
       <use x="63.623047" xlink:href="#DejaVuSans-37"/>
       <use x="127.246094" xlink:href="#DejaVuSans-35"/>
       <use x="190.869141" xlink:href="#DejaVuSans-30"/>
      </g>
     </g>
    </g>
    <g id="xtick_9">
     <g id="line2d_9">
      <g>
       <use style="stroke:#000000;stroke-width:0.8;" x="373.581818" xlink:href="#mf3a068eff2" y="252"/>
      </g>
     </g>
     <g id="text_9">
      <!-- 2000 -->
      <g transform="translate(360.856818 266.598437)scale(0.1 -0.1)">
       <use xlink:href="#DejaVuSans-32"/>
       <use x="63.623047" xlink:href="#DejaVuSans-30"/>
       <use x="127.246094" xlink:href="#DejaVuSans-30"/>
       <use x="190.869141" xlink:href="#DejaVuSans-30"/>
      </g>
     </g>
    </g>
   </g>
   <g id="matplotlib.axis_2">
    <g id="ytick_1">
     <g id="line2d_10">
      <defs>
       <path d="M 0 0 
L -3.5 0 
" id="m5ced24f2ff" style="stroke:#000000;stroke-width:0.8;"/>
      </defs>
      <g>
       <use style="stroke:#000000;stroke-width:0.8;" x="54" xlink:href="#m5ced24f2ff" y="225.275059"/>
      </g>
     </g>
     <g id="text_10">
      <!-- −0.4 -->
      <g transform="translate(22.717187 229.074278)scale(0.1 -0.1)">
       <defs>
        <path d="M 678 2272 
L 4684 2272 
L 4684 1741 
L 678 1741 
L 678 2272 
z
" id="DejaVuSans-2212" transform="scale(0.015625)"/>
        <path d="M 684 794 
L 1344 794 
L 1344 0 
L 684 0 
L 684 794 
z
" id="DejaVuSans-2e" transform="scale(0.015625)"/>
        <path d="M 2419 4116 
L 825 1625 
L 2419 1625 
L 2419 4116 
z
M 2253 4666 
L 3047 4666 
L 3047 1625 
L 3713 1625 
L 3713 1100 
L 3047 1100 
L 3047 0 
L 2419 0 
L 2419 1100 
L 313 1100 
L 313 1709 
L 2253 4666 
z
" id="DejaVuSans-34" transform="scale(0.015625)"/>
       </defs>
       <use xlink:href="#DejaVuSans-2212"/>
       <use x="83.789062" xlink:href="#DejaVuSans-30"/>
       <use x="147.412109" xlink:href="#DejaVuSans-2e"/>
       <use x="179.199219" xlink:href="#DejaVuSans-34"/>
      </g>
     </g>
    </g>
    <g id="ytick_2">
     <g id="line2d_11">
      <g>
       <use style="stroke:#000000;stroke-width:0.8;" x="54" xlink:href="#m5ced24f2ff" y="185.361529"/>
      </g>
     </g>
     <g id="text_11">
      <!-- −0.2 -->
      <g transform="translate(22.717187 189.160748)scale(0.1 -0.1)">
       <use xlink:href="#DejaVuSans-2212"/>
       <use x="83.789062" xlink:href="#DejaVuSans-30"/>
       <use x="147.412109" xlink:href="#DejaVuSans-2e"/>
       <use x="179.199219" xlink:href="#DejaVuSans-32"/>
      </g>
     </g>
    </g>
    <g id="ytick_3">
     <g id="line2d_12">
      <g>
       <use style="stroke:#000000;stroke-width:0.8;" x="54" xlink:href="#m5ced24f2ff" y="145.447999"/>
      </g>
     </g>
     <g id="text_12">
      <!-- 0.0 -->
      <g transform="translate(31.096875 149.247218)scale(0.1 -0.1)">
       <use xlink:href="#DejaVuSans-30"/>
       <use x="63.623047" xlink:href="#DejaVuSans-2e"/>
       <use x="95.410156" xlink:href="#DejaVuSans-30"/>
      </g>
     </g>
    </g>
    <g id="ytick_4">
     <g id="line2d_13">
      <g>
       <use style="stroke:#000000;stroke-width:0.8;" x="54" xlink:href="#m5ced24f2ff" y="105.534469"/>
      </g>
     </g>
     <g id="text_13">
      <!-- 0.2 -->
      <g transform="translate(31.096875 109.333688)scale(0.1 -0.1)">
       <use xlink:href="#DejaVuSans-30"/>
       <use x="63.623047" xlink:href="#DejaVuSans-2e"/>
       <use x="95.410156" xlink:href="#DejaVuSans-32"/>
      </g>
     </g>
    </g>
    <g id="ytick_5">
     <g id="line2d_14">
      <g>
       <use style="stroke:#000000;stroke-width:0.8;" x="54" xlink:href="#m5ced24f2ff" y="65.620939"/>
      </g>
     </g>
     <g id="text_14">
      <!-- 0.4 -->
      <g transform="translate(31.096875 69.420158)scale(0.1 -0.1)">
       <use xlink:href="#DejaVuSans-30"/>
       <use x="63.623047" xlink:href="#DejaVuSans-2e"/>
       <use x="95.410156" xlink:href="#DejaVuSans-34"/>
      </g>
     </g>
    </g>
   </g>
   <g id="line2d_15">
    <path clip-path="url(#pfd30f4aba6)" d="M 69.218182 145.447999 
L 235.400727 145.357749 
L 236.313818 145.100596 
L 236.922545 144.710228 
L 237.531273 144.055923 
L 238.292182 142.862449 
L 239.205273 141.37374 
L 239.661818 141.028488 
L 239.966182 141.109965 
L 240.270545 141.518646 
L 240.574909 142.301101 
L 241.031455 144.202284 
L 241.640182 147.87002 
L 242.705455 154.702127 
L 243.162 156.380531 
L 243.466364 156.742207 
L 243.618545 156.670397 
L 243.922909 156.016557 
L 244.227273 154.721732 
L 244.836 150.650379 
L 246.205636 140.453675 
L 246.662182 138.508695 
L 246.966545 137.803554 
L 247.270909 137.540666 
L 247.575273 137.652318 
L 248.031818 138.312877 
L 249.097091 140.251276 
L 249.401455 140.491759 
L 249.705818 140.505413 
L 250.010182 140.31126 
L 250.771091 139.563931 
L 250.923273 139.549524 
L 251.075455 139.653666 
L 251.379818 140.371966 
L 251.684182 142.039507 
L 251.988545 144.963716 
L 252.445091 152.188874 
L 253.053818 167.089931 
L 254.119091 196.079909 
L 254.423455 200.119994 
L 254.575636 200.680719 
L 254.727818 200.095739 
L 255.032182 195.110561 
L 255.336545 184.73238 
L 255.793091 159.632346 
L 257.467091 49.824874 
L 257.771455 44.443636 
L 257.923636 44.667455 
L 258.075818 46.847718 
L 258.380182 56.794046 
L 258.836727 83.348847 
L 260.510727 197.259838 
L 260.815091 205.788358 
L 261.119455 208.987942 
L 261.271636 208.752323 
L 261.576 205.153988 
L 262.032545 193.971147 
L 263.706545 144.811231 
L 264.163091 138.506717 
L 264.467455 136.434824 
L 264.771818 135.635603 
L 264.924 135.561875 
L 265.228364 135.781275 
L 265.837091 136.754772 
L 266.293636 137.846811 
L 266.750182 139.543176 
L 267.663273 143.216388 
L 268.119818 144.023765 
L 269.793818 145.39495 
L 270.098182 145.366344 
L 270.859091 145.106497 
L 271.315636 145.312417 
L 271.924364 145.590488 
L 272.837455 145.585483 
L 273.141818 145.911675 
L 273.598364 146.824138 
L 274.207091 148.525071 
L 274.663636 150.378494 
L 275.272364 154.145934 
L 275.881091 158.076876 
L 276.185455 159.11694 
L 276.337636 159.222689 
L 276.489818 158.988866 
L 276.794182 157.317193 
L 277.098545 153.728512 
L 277.555091 144.045294 
L 278.163818 123.16023 
L 279.076909 88.502091 
L 279.381273 81.949726 
L 279.533455 80.448213 
L 279.685636 80.320911 
L 279.837818 81.676743 
L 280.142182 89.103332 
L 280.446545 102.845559 
L 280.903091 133.64315 
L 282.120545 225.864971 
L 282.424909 237.867816 
L 282.729273 242.116364 
L 282.881455 241.213783 
L 283.185818 233.581705 
L 283.642364 209.729723 
L 285.316364 101.036673 
L 285.620727 93.016993 
L 285.925091 89.977329 
L 286.077273 90.169329 
L 286.229455 91.381147 
L 286.533818 96.410053 
L 287.142545 113.144852 
L 288.055636 139.306407 
L 288.512182 148.003086 
L 288.968727 152.93622 
L 289.273091 154.333795 
L 289.425273 154.580891 
L 289.577455 154.60102 
L 289.881818 154.208959 
L 291.403636 151.01508 
L 292.621091 146.204498 
L 292.925455 145.851297 
L 293.382 145.761209 
L 293.838545 145.614866 
L 294.751636 145.102057 
L 295.208182 145.214122 
L 296.425636 145.914161 
L 296.882182 145.746512 
L 297.490909 145.492277 
L 297.947455 145.659673 
L 298.404 145.869881 
L 298.708364 145.786282 
L 299.621455 145.048684 
L 299.925818 145.161817 
L 300.534545 145.613313 
L 300.838909 145.575669 
L 301.752 145.068641 
L 302.208545 145.393214 
L 302.665091 145.67738 
L 302.969455 145.614842 
L 303.730364 145.22771 
L 304.186909 145.395022 
L 304.795636 145.628199 
L 305.252182 145.505401 
L 305.860909 145.346395 
L 306.774 145.506614 
L 307.534909 145.498715 
L 308.752364 145.390883 
L 309.817636 145.543484 
L 310.730727 145.298421 
L 311.796 145.578816 
L 312.861273 145.160061 
L 313.622182 145.349139 
L 314.078727 145.037175 
L 314.535273 144.70982 
L 314.839636 144.732142 
L 315.448364 145.217085 
L 316.665818 146.214076 
L 317.731091 147.907557 
L 318.035455 147.89885 
L 318.492 147.479612 
L 319.100727 146.457664 
L 319.709455 144.83349 
L 320.470364 142.752373 
L 320.926909 142.191438 
L 321.231273 142.165562 
L 321.535636 142.380912 
L 321.992182 143.08972 
L 323.818364 146.773915 
L 324.274909 147.161719 
L 324.579273 147.208088 
L 325.035818 146.952248 
L 325.948909 146.232617 
L 326.709818 145.756507 
L 327.470727 145.23511 
L 327.927273 145.285254 
L 328.536 145.375169 
L 329.601273 145.112508 
L 330.514364 145.492341 
L 331.731818 145.332226 
L 332.340545 145.547442 
L 332.797091 145.458798 
L 333.405818 145.329394 
L 334.623273 145.486857 
L 335.384182 145.365067 
L 336.449455 145.49667 
L 337.362545 145.390442 
L 338.275636 145.479776 
L 339.340909 145.411644 
L 340.406182 145.430367 
L 341.471455 145.509035 
L 343.906364 145.445932 
L 344.515091 145.370591 
L 345.428182 145.456193 
L 346.493455 145.29511 
L 347.406545 145.511623 
L 348.471818 145.392917 
L 349.232727 145.604025 
L 349.841455 145.442018 
L 350.298 145.385427 
L 351.515455 145.50657 
L 352.276364 145.364354 
L 353.341636 145.494457 
L 354.254727 145.364646 
L 355.32 145.470339 
L 356.233091 145.398684 
L 357.146182 145.490425 
L 358.211455 145.442489 
L 359.124545 145.493942 
L 360.037636 145.436314 
L 360.950727 145.446459 
L 361.863818 145.352638 
L 363.233455 145.378378 
L 363.994364 145.484189 
L 364.755273 145.543822 
L 365.820545 145.54184 
L 366.581455 145.518744 
L 367.494545 145.398812 
L 368.559818 145.425177 
L 369.320727 145.350187 
L 370.538182 145.455527 
L 371.299091 145.381607 
L 372.364364 145.505552 
L 373.277455 145.387111 
L 373.581818 145.450625 
L 373.581818 145.450625 
" style="fill:none;stroke:#1f77b4;stroke-linecap:square;stroke-width:1.5;"/>
   </g>
   <g id="patch_3">
    <path d="M 54 252 
L 54 34.56 
" style="fill:none;stroke:#000000;stroke-linecap:square;stroke-linejoin:miter;stroke-width:0.8;"/>
   </g>
   <g id="patch_4">
    <path d="M 388.8 252 
L 388.8 34.56 
" style="fill:none;stroke:#000000;stroke-linecap:square;stroke-linejoin:miter;stroke-width:0.8;"/>
   </g>
   <g id="patch_5">
    <path d="M 54 252 
L 388.8 252 
" style="fill:none;stroke:#000000;stroke-linecap:square;stroke-linejoin:miter;stroke-width:0.8;"/>
   </g>
   <g id="patch_6">
    <path d="M 54 34.56 
L 388.8 34.56 
" style="fill:none;stroke:#000000;stroke-linecap:square;stroke-linejoin:miter;stroke-width:0.8;"/>
   </g>
  </g>
 </g>
 <defs>
  <clipPath id="pfd30f4aba6">
   <rect height="217.44" width="334.8" x="54" y="34.56"/>
  </clipPath>
 </defs>
</svg>
