<?xml version="1.0" encoding="utf-8" standalone="no"?>
<!DOCTYPE svg PUBLIC "-//W3C//DTD SVG 1.1//EN"
  "http://www.w3.org/Graphics/SVG/1.1/DTD/svg11.dtd">
<svg height="288pt" version="1.1" viewBox="0 0 432 288" width="432pt" xmlns="http://www.w3.org/2000/svg" xmlns:xlink="http://www.w3.org/1999/xlink">
 <metadata>
  <rdf:RDF xmlns:cc="http://creativecommons.org/ns#" xmlns:dc="http://purl.org/dc/elements/1.1/" xmlns:rdf="http://www.w3.org/1999/02/22-rdf-syntax-ns#">
   <cc:Work>
    <dc:type rdf:resource="http://purl.org/dc/dcmitype/StillImage"/>
    <dc:date>2022-04-22T12:50:02.475016</dc:date>
    <dc:format>image/svg+xml</dc:format>
    <dc:creator>
     <cc:Agent>
      <dc:title>Matplotlib v3.4.3, https://matplotlib.org/</dc:title>
     </cc:Agent>
    </dc:creator>
   </cc:Work>
  </rdf:RDF>
 </metadata>
 <defs>
  <style type="text/css">*{stroke-linecap:butt;stroke-linejoin:round;}</style>
 </defs>
 <g id="figure_1">
  <g id="patch_1">
   <path d="M 0 288 
L 432 288 
L 432 0 
L 0 0 
z
" style="fill:none;"/>
  </g>
  <g id="axes_1">
   <g id="patch_2">
    <path d="M 54 252 
L 388.8 252 
L 388.8 34.56 
L 54 34.56 
z
" style="fill:#ffffff;"/>
   </g>
   <g id="matplotlib.axis_1">
    <g id="xtick_1">
     <g id="line2d_1">
      <defs>
       <path d="M 0 0 
L 0 3.5 
" id="m4199bcf01f" style="stroke:#000000;stroke-width:0.8;"/>
      </defs>
      <g>
       <use style="stroke:#000000;stroke-width:0.8;" x="69.218182" xlink:href="#m4199bcf01f" y="252"/>
      </g>
     </g>
     <g id="text_1">
      <!-- 0 -->
      <g transform="translate(66.036932 266.598437)scale(0.1 -0.1)">
       <defs>
        <path d="M 2034 4250 
Q 1547 4250 1301 3770 
Q 1056 3291 1056 2328 
Q 1056 1369 1301 889 
Q 1547 409 2034 409 
Q 2525 409 2770 889 
Q 3016 1369 3016 2328 
Q 3016 3291 2770 3770 
Q 2525 4250 2034 4250 
z
M 2034 4750 
Q 2819 4750 3233 4129 
Q 3647 3509 3647 2328 
Q 3647 1150 3233 529 
Q 2819 -91 2034 -91 
Q 1250 -91 836 529 
Q 422 1150 422 2328 
Q 422 3509 836 4129 
Q 1250 4750 2034 4750 
z
" id="DejaVuSans-30" transform="scale(0.015625)"/>
       </defs>
       <use xlink:href="#DejaVuSans-30"/>
      </g>
     </g>
    </g>
    <g id="xtick_2">
     <g id="line2d_2">
      <g>
       <use style="stroke:#000000;stroke-width:0.8;" x="107.263636" xlink:href="#m4199bcf01f" y="252"/>
      </g>
     </g>
     <g id="text_2">
      <!-- 250 -->
      <g transform="translate(97.719886 266.598437)scale(0.1 -0.1)">
       <defs>
        <path d="M 1228 531 
L 3431 531 
L 3431 0 
L 469 0 
L 469 531 
Q 828 903 1448 1529 
Q 2069 2156 2228 2338 
Q 2531 2678 2651 2914 
Q 2772 3150 2772 3378 
Q 2772 3750 2511 3984 
Q 2250 4219 1831 4219 
Q 1534 4219 1204 4116 
Q 875 4013 500 3803 
L 500 4441 
Q 881 4594 1212 4672 
Q 1544 4750 1819 4750 
Q 2544 4750 2975 4387 
Q 3406 4025 3406 3419 
Q 3406 3131 3298 2873 
Q 3191 2616 2906 2266 
Q 2828 2175 2409 1742 
Q 1991 1309 1228 531 
z
" id="DejaVuSans-32" transform="scale(0.015625)"/>
        <path d="M 691 4666 
L 3169 4666 
L 3169 4134 
L 1269 4134 
L 1269 2991 
Q 1406 3038 1543 3061 
Q 1681 3084 1819 3084 
Q 2600 3084 3056 2656 
Q 3513 2228 3513 1497 
Q 3513 744 3044 326 
Q 2575 -91 1722 -91 
Q 1428 -91 1123 -41 
Q 819 9 494 109 
L 494 744 
Q 775 591 1075 516 
Q 1375 441 1709 441 
Q 2250 441 2565 725 
Q 2881 1009 2881 1497 
Q 2881 1984 2565 2268 
Q 2250 2553 1709 2553 
Q 1456 2553 1204 2497 
Q 953 2441 691 2322 
L 691 4666 
z
" id="DejaVuSans-35" transform="scale(0.015625)"/>
       </defs>
       <use xlink:href="#DejaVuSans-32"/>
       <use x="63.623047" xlink:href="#DejaVuSans-35"/>
       <use x="127.246094" xlink:href="#DejaVuSans-30"/>
      </g>
     </g>
    </g>
    <g id="xtick_3">
     <g id="line2d_3">
      <g>
       <use style="stroke:#000000;stroke-width:0.8;" x="145.309091" xlink:href="#m4199bcf01f" y="252"/>
      </g>
     </g>
     <g id="text_3">
      <!-- 500 -->
      <g transform="translate(135.765341 266.598437)scale(0.1 -0.1)">
       <use xlink:href="#DejaVuSans-35"/>
       <use x="63.623047" xlink:href="#DejaVuSans-30"/>
       <use x="127.246094" xlink:href="#DejaVuSans-30"/>
      </g>
     </g>
    </g>
    <g id="xtick_4">
     <g id="line2d_4">
      <g>
       <use style="stroke:#000000;stroke-width:0.8;" x="183.354545" xlink:href="#m4199bcf01f" y="252"/>
      </g>
     </g>
     <g id="text_4">
      <!-- 750 -->
      <g transform="translate(173.810795 266.598437)scale(0.1 -0.1)">
       <defs>
        <path d="M 525 4666 
L 3525 4666 
L 3525 4397 
L 1831 0 
L 1172 0 
L 2766 4134 
L 525 4134 
L 525 4666 
z
" id="DejaVuSans-37" transform="scale(0.015625)"/>
       </defs>
       <use xlink:href="#DejaVuSans-37"/>
       <use x="63.623047" xlink:href="#DejaVuSans-35"/>
       <use x="127.246094" xlink:href="#DejaVuSans-30"/>
      </g>
     </g>
    </g>
    <g id="xtick_5">
     <g id="line2d_5">
      <g>
       <use style="stroke:#000000;stroke-width:0.8;" x="221.4" xlink:href="#m4199bcf01f" y="252"/>
      </g>
     </g>
     <g id="text_5">
      <!-- 1000 -->
      <g transform="translate(208.675 266.598437)scale(0.1 -0.1)">
       <defs>
        <path d="M 794 531 
L 1825 531 
L 1825 4091 
L 703 3866 
L 703 4441 
L 1819 4666 
L 2450 4666 
L 2450 531 
L 3481 531 
L 3481 0 
L 794 0 
L 794 531 
z
" id="DejaVuSans-31" transform="scale(0.015625)"/>
       </defs>
       <use xlink:href="#DejaVuSans-31"/>
       <use x="63.623047" xlink:href="#DejaVuSans-30"/>
       <use x="127.246094" xlink:href="#DejaVuSans-30"/>
       <use x="190.869141" xlink:href="#DejaVuSans-30"/>
      </g>
     </g>
    </g>
    <g id="xtick_6">
     <g id="line2d_6">
      <g>
       <use style="stroke:#000000;stroke-width:0.8;" x="259.445455" xlink:href="#m4199bcf01f" y="252"/>
      </g>
     </g>
     <g id="text_6">
      <!-- 1250 -->
      <g transform="translate(246.720455 266.598437)scale(0.1 -0.1)">
       <use xlink:href="#DejaVuSans-31"/>
       <use x="63.623047" xlink:href="#DejaVuSans-32"/>
       <use x="127.246094" xlink:href="#DejaVuSans-35"/>
       <use x="190.869141" xlink:href="#DejaVuSans-30"/>
      </g>
     </g>
    </g>
    <g id="xtick_7">
     <g id="line2d_7">
      <g>
       <use style="stroke:#000000;stroke-width:0.8;" x="297.490909" xlink:href="#m4199bcf01f" y="252"/>
      </g>
     </g>
     <g id="text_7">
      <!-- 1500 -->
      <g transform="translate(284.765909 266.598437)scale(0.1 -0.1)">
       <use xlink:href="#DejaVuSans-31"/>
       <use x="63.623047" xlink:href="#DejaVuSans-35"/>
       <use x="127.246094" xlink:href="#DejaVuSans-30"/>
       <use x="190.869141" xlink:href="#DejaVuSans-30"/>
      </g>
     </g>
    </g>
    <g id="xtick_8">
     <g id="line2d_8">
      <g>
       <use style="stroke:#000000;stroke-width:0.8;" x="335.536364" xlink:href="#m4199bcf01f" y="252"/>
      </g>
     </g>
     <g id="text_8">
      <!-- 1750 -->
      <g transform="translate(322.811364 266.598437)scale(0.1 -0.1)">
       <use xlink:href="#DejaVuSans-31"/>
       <use x="63.623047" xlink:href="#DejaVuSans-37"/>
       <use x="127.246094" xlink:href="#DejaVuSans-35"/>
       <use x="190.869141" xlink:href="#DejaVuSans-30"/>
      </g>
     </g>
    </g>
    <g id="xtick_9">
     <g id="line2d_9">
      <g>
       <use style="stroke:#000000;stroke-width:0.8;" x="373.581818" xlink:href="#m4199bcf01f" y="252"/>
      </g>
     </g>
     <g id="text_9">
      <!-- 2000 -->
      <g transform="translate(360.856818 266.598437)scale(0.1 -0.1)">
       <use xlink:href="#DejaVuSans-32"/>
       <use x="63.623047" xlink:href="#DejaVuSans-30"/>
       <use x="127.246094" xlink:href="#DejaVuSans-30"/>
       <use x="190.869141" xlink:href="#DejaVuSans-30"/>
      </g>
     </g>
    </g>
   </g>
   <g id="matplotlib.axis_2">
    <g id="ytick_1">
     <g id="line2d_10">
      <defs>
       <path d="M 0 0 
L -3.5 0 
" id="ma9a9792d28" style="stroke:#000000;stroke-width:0.8;"/>
      </defs>
      <g>
       <use style="stroke:#000000;stroke-width:0.8;" x="54" xlink:href="#ma9a9792d28" y="220.3009"/>
      </g>
     </g>
     <g id="text_10">
      <!-- −0.4 -->
      <g transform="translate(22.717187 224.100119)scale(0.1 -0.1)">
       <defs>
        <path d="M 678 2272 
L 4684 2272 
L 4684 1741 
L 678 1741 
L 678 2272 
z
" id="DejaVuSans-2212" transform="scale(0.015625)"/>
        <path d="M 684 794 
L 1344 794 
L 1344 0 
L 684 0 
L 684 794 
z
" id="DejaVuSans-2e" transform="scale(0.015625)"/>
        <path d="M 2419 4116 
L 825 1625 
L 2419 1625 
L 2419 4116 
z
M 2253 4666 
L 3047 4666 
L 3047 1625 
L 3713 1625 
L 3713 1100 
L 3047 1100 
L 3047 0 
L 2419 0 
L 2419 1100 
L 313 1100 
L 313 1709 
L 2253 4666 
z
" id="DejaVuSans-34" transform="scale(0.015625)"/>
       </defs>
       <use xlink:href="#DejaVuSans-2212"/>
       <use x="83.789062" xlink:href="#DejaVuSans-30"/>
       <use x="147.412109" xlink:href="#DejaVuSans-2e"/>
       <use x="179.199219" xlink:href="#DejaVuSans-34"/>
      </g>
     </g>
    </g>
    <g id="ytick_2">
     <g id="line2d_11">
      <g>
       <use style="stroke:#000000;stroke-width:0.8;" x="54" xlink:href="#ma9a9792d28" y="180.332981"/>
      </g>
     </g>
     <g id="text_11">
      <!-- −0.2 -->
      <g transform="translate(22.717187 184.1322)scale(0.1 -0.1)">
       <use xlink:href="#DejaVuSans-2212"/>
       <use x="83.789062" xlink:href="#DejaVuSans-30"/>
       <use x="147.412109" xlink:href="#DejaVuSans-2e"/>
       <use x="179.199219" xlink:href="#DejaVuSans-32"/>
      </g>
     </g>
    </g>
    <g id="ytick_3">
     <g id="line2d_12">
      <g>
       <use style="stroke:#000000;stroke-width:0.8;" x="54" xlink:href="#ma9a9792d28" y="140.365062"/>
      </g>
     </g>
     <g id="text_12">
      <!-- 0.0 -->
      <g transform="translate(31.096875 144.16428)scale(0.1 -0.1)">
       <use xlink:href="#DejaVuSans-30"/>
       <use x="63.623047" xlink:href="#DejaVuSans-2e"/>
       <use x="95.410156" xlink:href="#DejaVuSans-30"/>
      </g>
     </g>
    </g>
    <g id="ytick_4">
     <g id="line2d_13">
      <g>
       <use style="stroke:#000000;stroke-width:0.8;" x="54" xlink:href="#ma9a9792d28" y="100.397143"/>
      </g>
     </g>
     <g id="text_13">
      <!-- 0.2 -->
      <g transform="translate(31.096875 104.196361)scale(0.1 -0.1)">
       <use xlink:href="#DejaVuSans-30"/>
       <use x="63.623047" xlink:href="#DejaVuSans-2e"/>
       <use x="95.410156" xlink:href="#DejaVuSans-32"/>
      </g>
     </g>
    </g>
    <g id="ytick_5">
     <g id="line2d_14">
      <g>
       <use style="stroke:#000000;stroke-width:0.8;" x="54" xlink:href="#ma9a9792d28" y="60.429223"/>
      </g>
     </g>
     <g id="text_14">
      <!-- 0.4 -->
      <g transform="translate(31.096875 64.228442)scale(0.1 -0.1)">
       <use xlink:href="#DejaVuSans-30"/>
       <use x="63.623047" xlink:href="#DejaVuSans-2e"/>
       <use x="95.410156" xlink:href="#DejaVuSans-34"/>
      </g>
     </g>
    </g>
   </g>
   <g id="line2d_15">
    <path clip-path="url(#p56896f6f41)" d="M 69.218182 140.365062 
L 237.379091 140.27296 
L 238.292182 140.014195 
L 238.900909 139.625645 
L 239.509636 138.981636 
L 240.270545 137.826068 
L 241.183636 136.436853 
L 241.640182 136.158604 
L 241.944545 136.284195 
L 242.248909 136.730459 
L 242.705455 138.081665 
L 243.162 140.241413 
L 244.227273 146.971341 
L 244.836 150.06531 
L 245.140364 150.911884 
L 245.444727 151.152539 
L 245.596909 151.030679 
L 245.901273 150.304757 
L 246.357818 148.12635 
L 247.118727 142.644498 
L 248.031818 136.222869 
L 248.488364 134.170302 
L 248.944909 133.14885 
L 249.249273 133.008263 
L 249.553636 133.227365 
L 250.010182 134.037155 
L 251.379818 136.918027 
L 251.684182 137.144187 
L 251.988545 137.126707 
L 252.292909 136.873558 
L 252.901636 135.884806 
L 253.358182 135.198037 
L 253.662545 135.130256 
L 253.814727 135.310021 
L 254.119091 136.279439 
L 254.423455 138.308257 
L 254.88 143.887285 
L 255.336545 152.842191 
L 256.249636 177.40857 
L 256.858364 190.352654 
L 257.162727 192.468067 
L 257.314909 191.962131 
L 257.467091 190.276338 
L 257.771455 183.118893 
L 258.228 162.928313 
L 258.836727 122.543119 
L 259.749818 61.693239 
L 260.206364 46.15374 
L 260.358545 44.443636 
L 260.510727 44.595291 
L 260.662909 46.607837 
L 260.967273 55.954973 
L 261.423818 81.091009 
L 263.097818 189.656507 
L 263.402182 197.869503 
L 263.706545 201.001037 
L 263.858727 200.812373 
L 264.010909 199.584846 
L 264.315273 194.503944 
L 264.924 177.597175 
L 265.989273 146.052339 
L 266.445818 137.317688 
L 266.902364 132.527409 
L 267.206727 131.188046 
L 267.511091 130.847249 
L 267.815455 131.056022 
L 268.424182 132.003503 
L 268.880727 133.059144 
L 269.337273 134.684839 
L 270.250364 138.204194 
L 270.706909 138.987569 
L 272.380909 140.318405 
L 272.685273 140.291597 
L 273.446182 140.056937 
L 273.902727 140.281289 
L 274.511455 140.646418 
L 275.272364 140.936239 
L 275.576727 141.394384 
L 276.033273 142.709124 
L 276.642 145.348328 
L 277.402909 149.827537 
L 278.163818 154.333332 
L 278.316 154.711019 
L 278.468182 154.746324 
L 278.620364 154.370926 
L 278.924727 152.159287 
L 279.229091 147.726163 
L 279.685636 136.591021 
L 280.294364 114.264384 
L 281.207455 78.991368 
L 281.511818 73.004512 
L 281.664 72.017298 
L 281.816182 72.561993 
L 281.968364 74.73303 
L 282.272727 84.100333 
L 282.729273 110.000816 
L 283.490182 173.093106 
L 284.098909 219.925925 
L 284.555455 239.451207 
L 284.707636 241.866784 
L 284.859818 242.116364 
L 285.012 240.22746 
L 285.316364 230.441996 
L 285.772909 203.532406 
L 287.294727 96.453864 
L 287.599091 86.334834 
L 287.903455 81.739738 
L 288.055636 81.349332 
L 288.207818 82.089991 
L 288.512182 86.461786 
L 288.968727 98.250132 
L 290.338364 139.104533 
L 290.794909 146.34685 
L 291.099273 148.950193 
L 291.403636 150.150513 
L 291.555818 150.34845 
L 291.708 150.344805 
L 292.012364 149.920562 
L 293.077636 147.307269 
L 293.534182 145.842921 
L 294.903818 140.600429 
L 295.208182 140.49889 
L 295.969091 140.713418 
L 296.425636 140.339057 
L 296.882182 140.084413 
L 297.186545 140.224972 
L 297.947455 140.921995 
L 298.251818 140.92529 
L 299.621455 140.377782 
L 300.534545 140.482014 
L 301.143273 140.229295 
L 301.752 140.018066 
L 302.208545 140.188679 
L 302.817273 140.49983 
L 303.121636 140.440405 
L 303.882545 140.05785 
L 304.186909 140.167632 
L 304.947818 140.64881 
L 305.252182 140.532909 
L 305.860909 140.101653 
L 306.165273 140.138989 
L 307.078364 140.640203 
L 307.534909 140.354536 
L 307.991455 140.12239 
L 308.295818 140.207608 
L 309.056727 140.582781 
L 309.513273 140.40409 
L 309.969818 140.20741 
L 310.426364 140.287458 
L 311.035091 140.489632 
L 311.643818 140.385865 
L 312.404727 140.292798 
L 313.926545 140.353371 
L 315.296182 140.053909 
L 315.904909 139.999455 
L 316.818 139.638949 
L 317.122364 139.805857 
L 317.731091 140.593388 
L 319.709455 143.163016 
L 320.013818 143.05817 
L 320.318182 142.554878 
L 321.383455 139.772445 
L 322.600909 136.749706 
L 322.905273 136.614416 
L 323.209636 136.905551 
L 323.818364 138.190481 
L 325.492364 141.869972 
L 325.796727 142.187101 
L 326.101091 142.267129 
L 326.557636 142.096406 
L 327.470727 141.418912 
L 328.536 140.524772 
L 329.296909 140.219031 
L 330.057818 140.126189 
L 331.123091 140.125824 
L 331.731818 140.104731 
L 332.949273 140.368319 
L 333.710182 140.192123 
L 334.927636 140.432046 
L 335.688545 140.22254 
L 336.906 140.43246 
L 337.514727 140.243579 
L 337.971273 140.345076 
L 338.58 140.477046 
L 339.797455 140.290897 
L 340.558364 140.433793 
L 341.623636 140.282346 
L 342.536727 140.471286 
L 343.602 140.392819 
L 344.362909 140.488057 
L 346.797818 140.265176 
L 348.776182 140.325354 
L 349.689273 140.430311 
L 350.754545 140.375873 
L 351.515455 140.480613 
L 352.732909 140.345957 
L 353.493818 140.466396 
L 354.559091 140.27989 
L 355.472182 140.443129 
L 356.537455 140.272222 
L 357.450545 140.431221 
L 358.515818 140.30019 
L 359.428909 140.439616 
L 360.342 140.318775 
L 361.407273 140.423651 
L 362.320364 140.289534 
L 363.385636 140.315539 
L 364.146545 140.250582 
L 365.516182 140.395509 
L 366.277091 140.450587 
L 367.038 140.49416 
L 368.255455 140.386742 
L 369.168545 140.324948 
L 369.929455 140.29707 
L 370.994727 140.330392 
L 371.907818 140.356145 
L 372.668727 140.393367 
L 373.581818 140.33917 
L 373.581818 140.33917 
" style="fill:none;stroke:#1f77b4;stroke-linecap:square;stroke-width:1.5;"/>
   </g>
   <g id="patch_3">
    <path d="M 54 252 
L 54 34.56 
" style="fill:none;stroke:#000000;stroke-linecap:square;stroke-linejoin:miter;stroke-width:0.8;"/>
   </g>
   <g id="patch_4">
    <path d="M 388.8 252 
L 388.8 34.56 
" style="fill:none;stroke:#000000;stroke-linecap:square;stroke-linejoin:miter;stroke-width:0.8;"/>
   </g>
   <g id="patch_5">
    <path d="M 54 252 
L 388.8 252 
" style="fill:none;stroke:#000000;stroke-linecap:square;stroke-linejoin:miter;stroke-width:0.8;"/>
   </g>
   <g id="patch_6">
    <path d="M 54 34.56 
L 388.8 34.56 
" style="fill:none;stroke:#000000;stroke-linecap:square;stroke-linejoin:miter;stroke-width:0.8;"/>
   </g>
  </g>
 </g>
 <defs>
  <clipPath id="p56896f6f41">
   <rect height="217.44" width="334.8" x="54" y="34.56"/>
  </clipPath>
 </defs>
</svg>
