<?xml version="1.0" encoding="utf-8" standalone="no"?>
<!DOCTYPE svg PUBLIC "-//W3C//DTD SVG 1.1//EN"
  "http://www.w3.org/Graphics/SVG/1.1/DTD/svg11.dtd">
<svg height="288pt" version="1.1" viewBox="0 0 432 288" width="432pt" xmlns="http://www.w3.org/2000/svg" xmlns:xlink="http://www.w3.org/1999/xlink">
 <metadata>
  <rdf:RDF xmlns:cc="http://creativecommons.org/ns#" xmlns:dc="http://purl.org/dc/elements/1.1/" xmlns:rdf="http://www.w3.org/1999/02/22-rdf-syntax-ns#">
   <cc:Work>
    <dc:type rdf:resource="http://purl.org/dc/dcmitype/StillImage"/>
    <dc:date>2022-04-22T12:50:02.722072</dc:date>
    <dc:format>image/svg+xml</dc:format>
    <dc:creator>
     <cc:Agent>
      <dc:title>Matplotlib v3.4.3, https://matplotlib.org/</dc:title>
     </cc:Agent>
    </dc:creator>
   </cc:Work>
  </rdf:RDF>
 </metadata>
 <defs>
  <style type="text/css">*{stroke-linecap:butt;stroke-linejoin:round;}</style>
 </defs>
 <g id="figure_1">
  <g id="patch_1">
   <path d="M 0 288 
L 432 288 
L 432 0 
L 0 0 
z
" style="fill:none;"/>
  </g>
  <g id="axes_1">
   <g id="patch_2">
    <path d="M 54 252 
L 388.8 252 
L 388.8 34.56 
L 54 34.56 
z
" style="fill:#ffffff;"/>
   </g>
   <g id="matplotlib.axis_1">
    <g id="xtick_1">
     <g id="line2d_1">
      <defs>
       <path d="M 0 0 
L 0 3.5 
" id="mc298d5652c" style="stroke:#000000;stroke-width:0.8;"/>
      </defs>
      <g>
       <use style="stroke:#000000;stroke-width:0.8;" x="69.218182" xlink:href="#mc298d5652c" y="252"/>
      </g>
     </g>
     <g id="text_1">
      <!-- 0 -->
      <g transform="translate(66.036932 266.598437)scale(0.1 -0.1)">
       <defs>
        <path d="M 2034 4250 
Q 1547 4250 1301 3770 
Q 1056 3291 1056 2328 
Q 1056 1369 1301 889 
Q 1547 409 2034 409 
Q 2525 409 2770 889 
Q 3016 1369 3016 2328 
Q 3016 3291 2770 3770 
Q 2525 4250 2034 4250 
z
M 2034 4750 
Q 2819 4750 3233 4129 
Q 3647 3509 3647 2328 
Q 3647 1150 3233 529 
Q 2819 -91 2034 -91 
Q 1250 -91 836 529 
Q 422 1150 422 2328 
Q 422 3509 836 4129 
Q 1250 4750 2034 4750 
z
" id="DejaVuSans-30" transform="scale(0.015625)"/>
       </defs>
       <use xlink:href="#DejaVuSans-30"/>
      </g>
     </g>
    </g>
    <g id="xtick_2">
     <g id="line2d_2">
      <g>
       <use style="stroke:#000000;stroke-width:0.8;" x="107.263636" xlink:href="#mc298d5652c" y="252"/>
      </g>
     </g>
     <g id="text_2">
      <!-- 250 -->
      <g transform="translate(97.719886 266.598437)scale(0.1 -0.1)">
       <defs>
        <path d="M 1228 531 
L 3431 531 
L 3431 0 
L 469 0 
L 469 531 
Q 828 903 1448 1529 
Q 2069 2156 2228 2338 
Q 2531 2678 2651 2914 
Q 2772 3150 2772 3378 
Q 2772 3750 2511 3984 
Q 2250 4219 1831 4219 
Q 1534 4219 1204 4116 
Q 875 4013 500 3803 
L 500 4441 
Q 881 4594 1212 4672 
Q 1544 4750 1819 4750 
Q 2544 4750 2975 4387 
Q 3406 4025 3406 3419 
Q 3406 3131 3298 2873 
Q 3191 2616 2906 2266 
Q 2828 2175 2409 1742 
Q 1991 1309 1228 531 
z
" id="DejaVuSans-32" transform="scale(0.015625)"/>
        <path d="M 691 4666 
L 3169 4666 
L 3169 4134 
L 1269 4134 
L 1269 2991 
Q 1406 3038 1543 3061 
Q 1681 3084 1819 3084 
Q 2600 3084 3056 2656 
Q 3513 2228 3513 1497 
Q 3513 744 3044 326 
Q 2575 -91 1722 -91 
Q 1428 -91 1123 -41 
Q 819 9 494 109 
L 494 744 
Q 775 591 1075 516 
Q 1375 441 1709 441 
Q 2250 441 2565 725 
Q 2881 1009 2881 1497 
Q 2881 1984 2565 2268 
Q 2250 2553 1709 2553 
Q 1456 2553 1204 2497 
Q 953 2441 691 2322 
L 691 4666 
z
" id="DejaVuSans-35" transform="scale(0.015625)"/>
       </defs>
       <use xlink:href="#DejaVuSans-32"/>
       <use x="63.623047" xlink:href="#DejaVuSans-35"/>
       <use x="127.246094" xlink:href="#DejaVuSans-30"/>
      </g>
     </g>
    </g>
    <g id="xtick_3">
     <g id="line2d_3">
      <g>
       <use style="stroke:#000000;stroke-width:0.8;" x="145.309091" xlink:href="#mc298d5652c" y="252"/>
      </g>
     </g>
     <g id="text_3">
      <!-- 500 -->
      <g transform="translate(135.765341 266.598437)scale(0.1 -0.1)">
       <use xlink:href="#DejaVuSans-35"/>
       <use x="63.623047" xlink:href="#DejaVuSans-30"/>
       <use x="127.246094" xlink:href="#DejaVuSans-30"/>
      </g>
     </g>
    </g>
    <g id="xtick_4">
     <g id="line2d_4">
      <g>
       <use style="stroke:#000000;stroke-width:0.8;" x="183.354545" xlink:href="#mc298d5652c" y="252"/>
      </g>
     </g>
     <g id="text_4">
      <!-- 750 -->
      <g transform="translate(173.810795 266.598437)scale(0.1 -0.1)">
       <defs>
        <path d="M 525 4666 
L 3525 4666 
L 3525 4397 
L 1831 0 
L 1172 0 
L 2766 4134 
L 525 4134 
L 525 4666 
z
" id="DejaVuSans-37" transform="scale(0.015625)"/>
       </defs>
       <use xlink:href="#DejaVuSans-37"/>
       <use x="63.623047" xlink:href="#DejaVuSans-35"/>
       <use x="127.246094" xlink:href="#DejaVuSans-30"/>
      </g>
     </g>
    </g>
    <g id="xtick_5">
     <g id="line2d_5">
      <g>
       <use style="stroke:#000000;stroke-width:0.8;" x="221.4" xlink:href="#mc298d5652c" y="252"/>
      </g>
     </g>
     <g id="text_5">
      <!-- 1000 -->
      <g transform="translate(208.675 266.598437)scale(0.1 -0.1)">
       <defs>
        <path d="M 794 531 
L 1825 531 
L 1825 4091 
L 703 3866 
L 703 4441 
L 1819 4666 
L 2450 4666 
L 2450 531 
L 3481 531 
L 3481 0 
L 794 0 
L 794 531 
z
" id="DejaVuSans-31" transform="scale(0.015625)"/>
       </defs>
       <use xlink:href="#DejaVuSans-31"/>
       <use x="63.623047" xlink:href="#DejaVuSans-30"/>
       <use x="127.246094" xlink:href="#DejaVuSans-30"/>
       <use x="190.869141" xlink:href="#DejaVuSans-30"/>
      </g>
     </g>
    </g>
    <g id="xtick_6">
     <g id="line2d_6">
      <g>
       <use style="stroke:#000000;stroke-width:0.8;" x="259.445455" xlink:href="#mc298d5652c" y="252"/>
      </g>
     </g>
     <g id="text_6">
      <!-- 1250 -->
      <g transform="translate(246.720455 266.598437)scale(0.1 -0.1)">
       <use xlink:href="#DejaVuSans-31"/>
       <use x="63.623047" xlink:href="#DejaVuSans-32"/>
       <use x="127.246094" xlink:href="#DejaVuSans-35"/>
       <use x="190.869141" xlink:href="#DejaVuSans-30"/>
      </g>
     </g>
    </g>
    <g id="xtick_7">
     <g id="line2d_7">
      <g>
       <use style="stroke:#000000;stroke-width:0.8;" x="297.490909" xlink:href="#mc298d5652c" y="252"/>
      </g>
     </g>
     <g id="text_7">
      <!-- 1500 -->
      <g transform="translate(284.765909 266.598437)scale(0.1 -0.1)">
       <use xlink:href="#DejaVuSans-31"/>
       <use x="63.623047" xlink:href="#DejaVuSans-35"/>
       <use x="127.246094" xlink:href="#DejaVuSans-30"/>
       <use x="190.869141" xlink:href="#DejaVuSans-30"/>
      </g>
     </g>
    </g>
    <g id="xtick_8">
     <g id="line2d_8">
      <g>
       <use style="stroke:#000000;stroke-width:0.8;" x="335.536364" xlink:href="#mc298d5652c" y="252"/>
      </g>
     </g>
     <g id="text_8">
      <!-- 1750 -->
      <g transform="translate(322.811364 266.598437)scale(0.1 -0.1)">
       <use xlink:href="#DejaVuSans-31"/>
       <use x="63.623047" xlink:href="#DejaVuSans-37"/>
       <use x="127.246094" xlink:href="#DejaVuSans-35"/>
       <use x="190.869141" xlink:href="#DejaVuSans-30"/>
      </g>
     </g>
    </g>
    <g id="xtick_9">
     <g id="line2d_9">
      <g>
       <use style="stroke:#000000;stroke-width:0.8;" x="373.581818" xlink:href="#mc298d5652c" y="252"/>
      </g>
     </g>
     <g id="text_9">
      <!-- 2000 -->
      <g transform="translate(360.856818 266.598437)scale(0.1 -0.1)">
       <use xlink:href="#DejaVuSans-32"/>
       <use x="63.623047" xlink:href="#DejaVuSans-30"/>
       <use x="127.246094" xlink:href="#DejaVuSans-30"/>
       <use x="190.869141" xlink:href="#DejaVuSans-30"/>
      </g>
     </g>
    </g>
   </g>
   <g id="matplotlib.axis_2">
    <g id="ytick_1">
     <g id="line2d_10">
      <defs>
       <path d="M 0 0 
L -3.5 0 
" id="m2358ac3433" style="stroke:#000000;stroke-width:0.8;"/>
      </defs>
      <g>
       <use style="stroke:#000000;stroke-width:0.8;" x="54" xlink:href="#m2358ac3433" y="215.490597"/>
      </g>
     </g>
     <g id="text_10">
      <!-- −0.4 -->
      <g transform="translate(22.717187 219.289815)scale(0.1 -0.1)">
       <defs>
        <path d="M 678 2272 
L 4684 2272 
L 4684 1741 
L 678 1741 
L 678 2272 
z
" id="DejaVuSans-2212" transform="scale(0.015625)"/>
        <path d="M 684 794 
L 1344 794 
L 1344 0 
L 684 0 
L 684 794 
z
" id="DejaVuSans-2e" transform="scale(0.015625)"/>
        <path d="M 2419 4116 
L 825 1625 
L 2419 1625 
L 2419 4116 
z
M 2253 4666 
L 3047 4666 
L 3047 1625 
L 3713 1625 
L 3713 1100 
L 3047 1100 
L 3047 0 
L 2419 0 
L 2419 1100 
L 313 1100 
L 313 1709 
L 2253 4666 
z
" id="DejaVuSans-34" transform="scale(0.015625)"/>
       </defs>
       <use xlink:href="#DejaVuSans-2212"/>
       <use x="83.789062" xlink:href="#DejaVuSans-30"/>
       <use x="147.412109" xlink:href="#DejaVuSans-2e"/>
       <use x="179.199219" xlink:href="#DejaVuSans-34"/>
      </g>
     </g>
    </g>
    <g id="ytick_2">
     <g id="line2d_11">
      <g>
       <use style="stroke:#000000;stroke-width:0.8;" x="54" xlink:href="#m2358ac3433" y="175.49909"/>
      </g>
     </g>
     <g id="text_11">
      <!-- −0.2 -->
      <g transform="translate(22.717187 179.298309)scale(0.1 -0.1)">
       <use xlink:href="#DejaVuSans-2212"/>
       <use x="83.789062" xlink:href="#DejaVuSans-30"/>
       <use x="147.412109" xlink:href="#DejaVuSans-2e"/>
       <use x="179.199219" xlink:href="#DejaVuSans-32"/>
      </g>
     </g>
    </g>
    <g id="ytick_3">
     <g id="line2d_12">
      <g>
       <use style="stroke:#000000;stroke-width:0.8;" x="54" xlink:href="#m2358ac3433" y="135.507584"/>
      </g>
     </g>
     <g id="text_12">
      <!-- 0.0 -->
      <g transform="translate(31.096875 139.306802)scale(0.1 -0.1)">
       <use xlink:href="#DejaVuSans-30"/>
       <use x="63.623047" xlink:href="#DejaVuSans-2e"/>
       <use x="95.410156" xlink:href="#DejaVuSans-30"/>
      </g>
     </g>
    </g>
    <g id="ytick_4">
     <g id="line2d_13">
      <g>
       <use style="stroke:#000000;stroke-width:0.8;" x="54" xlink:href="#m2358ac3433" y="95.516077"/>
      </g>
     </g>
     <g id="text_13">
      <!-- 0.2 -->
      <g transform="translate(31.096875 99.315296)scale(0.1 -0.1)">
       <use xlink:href="#DejaVuSans-30"/>
       <use x="63.623047" xlink:href="#DejaVuSans-2e"/>
       <use x="95.410156" xlink:href="#DejaVuSans-32"/>
      </g>
     </g>
    </g>
    <g id="ytick_5">
     <g id="line2d_14">
      <g>
       <use style="stroke:#000000;stroke-width:0.8;" x="54" xlink:href="#m2358ac3433" y="55.524571"/>
      </g>
     </g>
     <g id="text_14">
      <!-- 0.4 -->
      <g transform="translate(31.096875 59.32379)scale(0.1 -0.1)">
       <use xlink:href="#DejaVuSans-30"/>
       <use x="63.623047" xlink:href="#DejaVuSans-2e"/>
       <use x="95.410156" xlink:href="#DejaVuSans-34"/>
      </g>
     </g>
    </g>
   </g>
   <g id="line2d_15">
    <path clip-path="url(#pb72ee7c90c)" d="M 69.218182 135.507584 
L 239.357455 135.413534 
L 240.270545 135.153075 
L 240.879273 134.766227 
L 241.488 134.132244 
L 242.401091 132.768783 
L 243.162 131.720448 
L 243.466364 131.52319 
L 243.770727 131.552634 
L 244.075091 131.870454 
L 244.379455 132.52268 
L 244.836 134.164211 
L 245.444727 137.421677 
L 246.662182 144.393443 
L 247.118727 145.668506 
L 247.270909 145.810066 
L 247.423091 145.797996 
L 247.727455 145.308822 
L 248.031818 144.228618 
L 248.488364 141.691766 
L 250.314545 130.000817 
L 250.771091 128.819786 
L 251.075455 128.572431 
L 251.379818 128.701395 
L 251.684182 129.131042 
L 252.292909 130.53559 
L 253.206 132.732887 
L 253.662545 133.392259 
L 253.966909 133.576378 
L 254.271273 133.537622 
L 254.575636 133.279769 
L 255.032182 132.542679 
L 255.945273 130.757317 
L 256.249636 130.599124 
L 256.401818 130.723748 
L 256.706182 131.550316 
L 257.010545 133.379644 
L 257.314909 136.463393 
L 257.771455 143.767136 
L 258.380182 158.029756 
L 259.293273 180.250929 
L 259.597636 184.059632 
L 259.749818 184.674847 
L 259.902 184.273055 
L 260.054182 182.7603 
L 260.358545 176.159486 
L 260.815091 157.284379 
L 261.423818 119.193205 
L 262.336909 61.23468 
L 262.793455 46.180052 
L 262.945636 44.443636 
L 263.097818 44.474302 
L 263.25 46.274611 
L 263.554364 54.949727 
L 264.010909 78.612169 
L 265.684909 182.243232 
L 265.989273 190.236044 
L 266.293636 193.374992 
L 266.445818 193.263269 
L 266.598 192.153607 
L 266.902364 187.405435 
L 267.358909 175.879249 
L 268.728545 137.912397 
L 269.185091 130.734427 
L 269.641636 127.218096 
L 269.946 126.437426 
L 270.098182 126.354818 
L 270.402545 126.54152 
L 271.011273 127.439331 
L 271.467818 128.446467 
L 271.924364 130.002433 
L 272.837455 133.389714 
L 273.294 134.154967 
L 274.968 135.462593 
L 275.424545 135.38369 
L 275.881091 135.24453 
L 276.185455 135.323415 
L 276.794182 135.860045 
L 277.707273 136.809575 
L 278.011636 137.500916 
L 278.468182 139.320448 
L 279.229091 143.906712 
L 280.142182 149.349968 
L 280.446545 150.132196 
L 280.598727 150.0545 
L 280.750909 149.55649 
L 281.055273 146.996742 
L 281.359636 141.975482 
L 281.816182 129.534364 
L 282.577091 99.061886 
L 283.338 70.529206 
L 283.642364 65.165569 
L 283.794545 64.611985 
L 283.946727 65.687049 
L 284.251091 73.076633 
L 284.555455 87.475749 
L 285.012 120.238567 
L 286.381636 229.848435 
L 286.686 240.230874 
L 286.838182 242.116364 
L 286.990364 241.722305 
L 287.142545 239.081868 
L 287.446909 227.53902 
L 287.903455 197.834498 
L 289.273091 94.171161 
L 289.729636 77.095768 
L 290.034 73.031677 
L 290.186182 73.026398 
L 290.338364 74.214244 
L 290.642727 79.570598 
L 291.099273 92.677666 
L 292.468909 135.417875 
L 292.925455 142.800757 
L 293.229818 145.239567 
L 293.534182 146.172179 
L 293.686364 146.246039 
L 293.990727 145.924651 
L 294.599455 144.48883 
L 295.360364 142.052566 
L 297.034364 135.837132 
L 297.338727 135.691849 
L 297.795273 135.960993 
L 298.099636 136.075305 
L 298.404 135.947964 
L 299.164909 135.374196 
L 299.469273 135.519489 
L 300.078 136.092024 
L 300.382364 136.075103 
L 300.838909 135.594453 
L 301.295455 135.192211 
L 301.599818 135.225672 
L 302.360727 135.636278 
L 302.665091 135.553906 
L 303.426 135.161565 
L 303.882545 135.281034 
L 304.643455 135.598836 
L 305.252182 135.497584 
L 306.013091 135.360491 
L 306.621818 135.566379 
L 307.078364 135.693928 
L 307.534909 135.566839 
L 308.143636 135.311341 
L 308.448 135.376726 
L 309.208909 135.753394 
L 309.513273 135.662803 
L 310.274182 135.259352 
L 310.578545 135.380041 
L 311.187273 135.767471 
L 311.491636 135.715082 
L 312.252545 135.258845 
L 312.556909 135.343889 
L 313.317818 135.748241 
L 313.774364 135.534782 
L 314.230909 135.299566 
L 314.535273 135.339441 
L 315.296182 135.64849 
L 315.752727 135.484909 
L 316.361455 135.20449 
L 317.883273 134.941736 
L 318.339818 134.814841 
L 318.796364 134.923332 
L 319.252909 135.315449 
L 319.861636 136.214086 
L 320.926909 137.853272 
L 321.383455 138.277839 
L 321.687818 138.336123 
L 321.992182 138.088178 
L 322.296545 137.469765 
L 322.905273 135.436369 
L 323.666182 133.092591 
L 324.274909 131.906982 
L 324.579273 131.576895 
L 324.883636 131.575013 
L 325.188 131.996983 
L 325.644545 133.281321 
L 326.405455 135.47619 
L 327.318545 137.115828 
L 327.775091 137.668429 
L 328.079455 137.716083 
L 328.383818 137.481898 
L 329.296909 136.455776 
L 330.362182 135.662779 
L 330.818727 135.309192 
L 331.275273 135.243116 
L 332.188364 135.287211 
L 332.949273 135.182551 
L 335.232 135.444361 
L 336.297273 135.49623 
L 337.058182 135.551025 
L 338.123455 135.444643 
L 338.884364 135.608374 
L 340.254 135.479456 
L 340.862727 135.603973 
L 342.080182 135.434241 
L 342.841091 135.618008 
L 343.906364 135.473083 
L 344.667273 135.701691 
L 345.276 135.51725 
L 345.732545 135.450014 
L 346.797818 135.555821 
L 347.558727 135.318966 
L 348.167455 135.45713 
L 348.624 135.513393 
L 349.841455 135.458936 
L 350.602364 135.585645 
L 351.972 135.554458 
L 352.885091 135.530167 
L 355.015636 135.509369 
L 355.928727 135.526648 
L 356.841818 135.468594 
L 357.754909 135.547955 
L 358.668 135.417827 
L 359.733273 135.554952 
L 360.646364 135.428603 
L 361.559455 135.613957 
L 362.776909 135.489354 
L 363.385636 135.597135 
L 364.146545 135.384896 
L 364.603091 135.371683 
L 365.516182 135.496364 
L 366.429273 135.423192 
L 367.494545 135.647416 
L 368.559818 135.587481 
L 369.320727 135.622799 
L 370.386 135.452212 
L 371.451273 135.469766 
L 372.212182 135.422796 
L 373.429636 135.493021 
L 373.581818 135.475701 
L 373.581818 135.475701 
" style="fill:none;stroke:#1f77b4;stroke-linecap:square;stroke-width:1.5;"/>
   </g>
   <g id="patch_3">
    <path d="M 54 252 
L 54 34.56 
" style="fill:none;stroke:#000000;stroke-linecap:square;stroke-linejoin:miter;stroke-width:0.8;"/>
   </g>
   <g id="patch_4">
    <path d="M 388.8 252 
L 388.8 34.56 
" style="fill:none;stroke:#000000;stroke-linecap:square;stroke-linejoin:miter;stroke-width:0.8;"/>
   </g>
   <g id="patch_5">
    <path d="M 54 252 
L 388.8 252 
" style="fill:none;stroke:#000000;stroke-linecap:square;stroke-linejoin:miter;stroke-width:0.8;"/>
   </g>
   <g id="patch_6">
    <path d="M 54 34.56 
L 388.8 34.56 
" style="fill:none;stroke:#000000;stroke-linecap:square;stroke-linejoin:miter;stroke-width:0.8;"/>
   </g>
  </g>
 </g>
 <defs>
  <clipPath id="pb72ee7c90c">
   <rect height="217.44" width="334.8" x="54" y="34.56"/>
  </clipPath>
 </defs>
</svg>
