<?xml version="1.0" encoding="utf-8" standalone="no"?>
<!DOCTYPE svg PUBLIC "-//W3C//DTD SVG 1.1//EN"
  "http://www.w3.org/Graphics/SVG/1.1/DTD/svg11.dtd">
<svg height="288pt" version="1.1" viewBox="0 0 432 288" width="432pt" xmlns="http://www.w3.org/2000/svg" xmlns:xlink="http://www.w3.org/1999/xlink">
 <metadata>
  <rdf:RDF xmlns:cc="http://creativecommons.org/ns#" xmlns:dc="http://purl.org/dc/elements/1.1/" xmlns:rdf="http://www.w3.org/1999/02/22-rdf-syntax-ns#">
   <cc:Work>
    <dc:type rdf:resource="http://purl.org/dc/dcmitype/StillImage"/>
    <dc:date>2022-04-22T12:49:41.256895</dc:date>
    <dc:format>image/svg+xml</dc:format>
    <dc:creator>
     <cc:Agent>
      <dc:title>Matplotlib v3.4.3, https://matplotlib.org/</dc:title>
     </cc:Agent>
    </dc:creator>
   </cc:Work>
  </rdf:RDF>
 </metadata>
 <defs>
  <style type="text/css">*{stroke-linecap:butt;stroke-linejoin:round;}</style>
 </defs>
 <g id="figure_1">
  <g id="patch_1">
   <path d="M 0 288 
L 432 288 
L 432 0 
L 0 0 
z
" style="fill:none;"/>
  </g>
  <g id="axes_1">
   <g id="patch_2">
    <path d="M 54 252 
L 388.8 252 
L 388.8 34.56 
L 54 34.56 
z
" style="fill:#ffffff;"/>
   </g>
   <g id="matplotlib.axis_1">
    <g id="xtick_1">
     <g id="line2d_1">
      <defs>
       <path d="M 0 0 
L 0 3.5 
" id="meaf16dd0a5" style="stroke:#000000;stroke-width:0.8;"/>
      </defs>
      <g>
       <use style="stroke:#000000;stroke-width:0.8;" x="69.218182" xlink:href="#meaf16dd0a5" y="252"/>
      </g>
     </g>
     <g id="text_1">
      <!-- 0 -->
      <g transform="translate(66.036932 266.598437)scale(0.1 -0.1)">
       <defs>
        <path d="M 2034 4250 
Q 1547 4250 1301 3770 
Q 1056 3291 1056 2328 
Q 1056 1369 1301 889 
Q 1547 409 2034 409 
Q 2525 409 2770 889 
Q 3016 1369 3016 2328 
Q 3016 3291 2770 3770 
Q 2525 4250 2034 4250 
z
M 2034 4750 
Q 2819 4750 3233 4129 
Q 3647 3509 3647 2328 
Q 3647 1150 3233 529 
Q 2819 -91 2034 -91 
Q 1250 -91 836 529 
Q 422 1150 422 2328 
Q 422 3509 836 4129 
Q 1250 4750 2034 4750 
z
" id="DejaVuSans-30" transform="scale(0.015625)"/>
       </defs>
       <use xlink:href="#DejaVuSans-30"/>
      </g>
     </g>
    </g>
    <g id="xtick_2">
     <g id="line2d_2">
      <g>
       <use style="stroke:#000000;stroke-width:0.8;" x="107.263636" xlink:href="#meaf16dd0a5" y="252"/>
      </g>
     </g>
     <g id="text_2">
      <!-- 250 -->
      <g transform="translate(97.719886 266.598437)scale(0.1 -0.1)">
       <defs>
        <path d="M 1228 531 
L 3431 531 
L 3431 0 
L 469 0 
L 469 531 
Q 828 903 1448 1529 
Q 2069 2156 2228 2338 
Q 2531 2678 2651 2914 
Q 2772 3150 2772 3378 
Q 2772 3750 2511 3984 
Q 2250 4219 1831 4219 
Q 1534 4219 1204 4116 
Q 875 4013 500 3803 
L 500 4441 
Q 881 4594 1212 4672 
Q 1544 4750 1819 4750 
Q 2544 4750 2975 4387 
Q 3406 4025 3406 3419 
Q 3406 3131 3298 2873 
Q 3191 2616 2906 2266 
Q 2828 2175 2409 1742 
Q 1991 1309 1228 531 
z
" id="DejaVuSans-32" transform="scale(0.015625)"/>
        <path d="M 691 4666 
L 3169 4666 
L 3169 4134 
L 1269 4134 
L 1269 2991 
Q 1406 3038 1543 3061 
Q 1681 3084 1819 3084 
Q 2600 3084 3056 2656 
Q 3513 2228 3513 1497 
Q 3513 744 3044 326 
Q 2575 -91 1722 -91 
Q 1428 -91 1123 -41 
Q 819 9 494 109 
L 494 744 
Q 775 591 1075 516 
Q 1375 441 1709 441 
Q 2250 441 2565 725 
Q 2881 1009 2881 1497 
Q 2881 1984 2565 2268 
Q 2250 2553 1709 2553 
Q 1456 2553 1204 2497 
Q 953 2441 691 2322 
L 691 4666 
z
" id="DejaVuSans-35" transform="scale(0.015625)"/>
       </defs>
       <use xlink:href="#DejaVuSans-32"/>
       <use x="63.623047" xlink:href="#DejaVuSans-35"/>
       <use x="127.246094" xlink:href="#DejaVuSans-30"/>
      </g>
     </g>
    </g>
    <g id="xtick_3">
     <g id="line2d_3">
      <g>
       <use style="stroke:#000000;stroke-width:0.8;" x="145.309091" xlink:href="#meaf16dd0a5" y="252"/>
      </g>
     </g>
     <g id="text_3">
      <!-- 500 -->
      <g transform="translate(135.765341 266.598437)scale(0.1 -0.1)">
       <use xlink:href="#DejaVuSans-35"/>
       <use x="63.623047" xlink:href="#DejaVuSans-30"/>
       <use x="127.246094" xlink:href="#DejaVuSans-30"/>
      </g>
     </g>
    </g>
    <g id="xtick_4">
     <g id="line2d_4">
      <g>
       <use style="stroke:#000000;stroke-width:0.8;" x="183.354545" xlink:href="#meaf16dd0a5" y="252"/>
      </g>
     </g>
     <g id="text_4">
      <!-- 750 -->
      <g transform="translate(173.810795 266.598437)scale(0.1 -0.1)">
       <defs>
        <path d="M 525 4666 
L 3525 4666 
L 3525 4397 
L 1831 0 
L 1172 0 
L 2766 4134 
L 525 4134 
L 525 4666 
z
" id="DejaVuSans-37" transform="scale(0.015625)"/>
       </defs>
       <use xlink:href="#DejaVuSans-37"/>
       <use x="63.623047" xlink:href="#DejaVuSans-35"/>
       <use x="127.246094" xlink:href="#DejaVuSans-30"/>
      </g>
     </g>
    </g>
    <g id="xtick_5">
     <g id="line2d_5">
      <g>
       <use style="stroke:#000000;stroke-width:0.8;" x="221.4" xlink:href="#meaf16dd0a5" y="252"/>
      </g>
     </g>
     <g id="text_5">
      <!-- 1000 -->
      <g transform="translate(208.675 266.598437)scale(0.1 -0.1)">
       <defs>
        <path d="M 794 531 
L 1825 531 
L 1825 4091 
L 703 3866 
L 703 4441 
L 1819 4666 
L 2450 4666 
L 2450 531 
L 3481 531 
L 3481 0 
L 794 0 
L 794 531 
z
" id="DejaVuSans-31" transform="scale(0.015625)"/>
       </defs>
       <use xlink:href="#DejaVuSans-31"/>
       <use x="63.623047" xlink:href="#DejaVuSans-30"/>
       <use x="127.246094" xlink:href="#DejaVuSans-30"/>
       <use x="190.869141" xlink:href="#DejaVuSans-30"/>
      </g>
     </g>
    </g>
    <g id="xtick_6">
     <g id="line2d_6">
      <g>
       <use style="stroke:#000000;stroke-width:0.8;" x="259.445455" xlink:href="#meaf16dd0a5" y="252"/>
      </g>
     </g>
     <g id="text_6">
      <!-- 1250 -->
      <g transform="translate(246.720455 266.598437)scale(0.1 -0.1)">
       <use xlink:href="#DejaVuSans-31"/>
       <use x="63.623047" xlink:href="#DejaVuSans-32"/>
       <use x="127.246094" xlink:href="#DejaVuSans-35"/>
       <use x="190.869141" xlink:href="#DejaVuSans-30"/>
      </g>
     </g>
    </g>
    <g id="xtick_7">
     <g id="line2d_7">
      <g>
       <use style="stroke:#000000;stroke-width:0.8;" x="297.490909" xlink:href="#meaf16dd0a5" y="252"/>
      </g>
     </g>
     <g id="text_7">
      <!-- 1500 -->
      <g transform="translate(284.765909 266.598437)scale(0.1 -0.1)">
       <use xlink:href="#DejaVuSans-31"/>
       <use x="63.623047" xlink:href="#DejaVuSans-35"/>
       <use x="127.246094" xlink:href="#DejaVuSans-30"/>
       <use x="190.869141" xlink:href="#DejaVuSans-30"/>
      </g>
     </g>
    </g>
    <g id="xtick_8">
     <g id="line2d_8">
      <g>
       <use style="stroke:#000000;stroke-width:0.8;" x="335.536364" xlink:href="#meaf16dd0a5" y="252"/>
      </g>
     </g>
     <g id="text_8">
      <!-- 1750 -->
      <g transform="translate(322.811364 266.598437)scale(0.1 -0.1)">
       <use xlink:href="#DejaVuSans-31"/>
       <use x="63.623047" xlink:href="#DejaVuSans-37"/>
       <use x="127.246094" xlink:href="#DejaVuSans-35"/>
       <use x="190.869141" xlink:href="#DejaVuSans-30"/>
      </g>
     </g>
    </g>
    <g id="xtick_9">
     <g id="line2d_9">
      <g>
       <use style="stroke:#000000;stroke-width:0.8;" x="373.581818" xlink:href="#meaf16dd0a5" y="252"/>
      </g>
     </g>
     <g id="text_9">
      <!-- 2000 -->
      <g transform="translate(360.856818 266.598437)scale(0.1 -0.1)">
       <use xlink:href="#DejaVuSans-32"/>
       <use x="63.623047" xlink:href="#DejaVuSans-30"/>
       <use x="127.246094" xlink:href="#DejaVuSans-30"/>
       <use x="190.869141" xlink:href="#DejaVuSans-30"/>
      </g>
     </g>
    </g>
   </g>
   <g id="matplotlib.axis_2">
    <g id="ytick_1">
     <g id="line2d_10">
      <defs>
       <path d="M 0 0 
L -3.5 0 
" id="ma68a65746b" style="stroke:#000000;stroke-width:0.8;"/>
      </defs>
      <g>
       <use style="stroke:#000000;stroke-width:0.8;" x="54" xlink:href="#ma68a65746b" y="219.808627"/>
      </g>
     </g>
     <g id="text_10">
      <!-- −1.0 -->
      <g transform="translate(22.717187 223.607846)scale(0.1 -0.1)">
       <defs>
        <path d="M 678 2272 
L 4684 2272 
L 4684 1741 
L 678 1741 
L 678 2272 
z
" id="DejaVuSans-2212" transform="scale(0.015625)"/>
        <path d="M 684 794 
L 1344 794 
L 1344 0 
L 684 0 
L 684 794 
z
" id="DejaVuSans-2e" transform="scale(0.015625)"/>
       </defs>
       <use xlink:href="#DejaVuSans-2212"/>
       <use x="83.789062" xlink:href="#DejaVuSans-31"/>
       <use x="147.412109" xlink:href="#DejaVuSans-2e"/>
       <use x="179.199219" xlink:href="#DejaVuSans-30"/>
      </g>
     </g>
    </g>
    <g id="ytick_2">
     <g id="line2d_11">
      <g>
       <use style="stroke:#000000;stroke-width:0.8;" x="54" xlink:href="#ma68a65746b" y="187.44532"/>
      </g>
     </g>
     <g id="text_11">
      <!-- −0.5 -->
      <g transform="translate(22.717187 191.244539)scale(0.1 -0.1)">
       <use xlink:href="#DejaVuSans-2212"/>
       <use x="83.789062" xlink:href="#DejaVuSans-30"/>
       <use x="147.412109" xlink:href="#DejaVuSans-2e"/>
       <use x="179.199219" xlink:href="#DejaVuSans-35"/>
      </g>
     </g>
    </g>
    <g id="ytick_3">
     <g id="line2d_12">
      <g>
       <use style="stroke:#000000;stroke-width:0.8;" x="54" xlink:href="#ma68a65746b" y="155.082013"/>
      </g>
     </g>
     <g id="text_12">
      <!-- 0.0 -->
      <g transform="translate(31.096875 158.881232)scale(0.1 -0.1)">
       <use xlink:href="#DejaVuSans-30"/>
       <use x="63.623047" xlink:href="#DejaVuSans-2e"/>
       <use x="95.410156" xlink:href="#DejaVuSans-30"/>
      </g>
     </g>
    </g>
    <g id="ytick_4">
     <g id="line2d_13">
      <g>
       <use style="stroke:#000000;stroke-width:0.8;" x="54" xlink:href="#ma68a65746b" y="122.718706"/>
      </g>
     </g>
     <g id="text_13">
      <!-- 0.5 -->
      <g transform="translate(31.096875 126.517925)scale(0.1 -0.1)">
       <use xlink:href="#DejaVuSans-30"/>
       <use x="63.623047" xlink:href="#DejaVuSans-2e"/>
       <use x="95.410156" xlink:href="#DejaVuSans-35"/>
      </g>
     </g>
    </g>
    <g id="ytick_5">
     <g id="line2d_14">
      <g>
       <use style="stroke:#000000;stroke-width:0.8;" x="54" xlink:href="#ma68a65746b" y="90.355399"/>
      </g>
     </g>
     <g id="text_14">
      <!-- 1.0 -->
      <g transform="translate(31.096875 94.154618)scale(0.1 -0.1)">
       <use xlink:href="#DejaVuSans-31"/>
       <use x="63.623047" xlink:href="#DejaVuSans-2e"/>
       <use x="95.410156" xlink:href="#DejaVuSans-30"/>
      </g>
     </g>
    </g>
    <g id="ytick_6">
     <g id="line2d_15">
      <g>
       <use style="stroke:#000000;stroke-width:0.8;" x="54" xlink:href="#ma68a65746b" y="57.992092"/>
      </g>
     </g>
     <g id="text_15">
      <!-- 1.5 -->
      <g transform="translate(31.096875 61.791311)scale(0.1 -0.1)">
       <use xlink:href="#DejaVuSans-31"/>
       <use x="63.623047" xlink:href="#DejaVuSans-2e"/>
       <use x="95.410156" xlink:href="#DejaVuSans-35"/>
      </g>
     </g>
    </g>
   </g>
   <g id="line2d_16">
    <path clip-path="url(#p7d30caa8e4)" d="M 69.218182 155.082013 
L 169.506 154.98339 
L 170.114727 154.795494 
L 170.571273 154.477947 
L 171.027818 153.88444 
L 171.484364 152.854972 
L 171.940909 151.199788 
L 172.397455 148.75092 
L 173.006182 144.211632 
L 174.071455 135.774097 
L 174.375818 134.84159 
L 174.528 134.928573 
L 174.680182 135.477381 
L 174.984545 138.2264 
L 175.288909 143.552144 
L 175.745455 156.91314 
L 176.354182 183.753362 
L 177.419455 233.51449 
L 177.723818 240.708037 
L 177.876 242.116364 
L 178.028182 241.865131 
L 178.180364 239.850201 
L 178.484727 230.339381 
L 178.941273 202.991618 
L 179.702182 134.426611 
L 180.463091 69.720865 
L 180.919636 48.422383 
L 181.224 44.443636 
L 181.376182 45.603014 
L 181.680545 53.796988 
L 182.137091 78.103851 
L 183.811091 187.711611 
L 184.267636 200.389222 
L 184.572 203.328811 
L 184.724182 203.348264 
L 184.876364 202.53032 
L 185.180727 198.825946 
L 185.789455 186.353319 
L 186.854727 164.065039 
L 187.311273 158.049396 
L 187.767818 154.364051 
L 188.224364 152.352121 
L 188.680909 151.30783 
L 189.137455 150.831408 
L 189.441818 150.796362 
L 189.746182 151.010736 
L 190.202727 151.771593 
L 191.268 153.907494 
L 191.724545 154.211392 
L 192.942 154.46497 
L 193.855091 154.951133 
L 194.311636 154.897673 
L 195.072545 154.735917 
L 195.681273 154.928619 
L 196.29 155.107857 
L 196.898727 154.986714 
L 197.507455 154.868928 
L 198.116182 155.019819 
L 198.724909 155.148892 
L 199.485818 154.979745 
L 200.094545 154.947049 
L 201.312 155.138134 
L 202.529455 154.989283 
L 203.594727 155.149267 
L 204.964364 155.024994 
L 205.877455 155.152027 
L 207.399273 155.058196 
L 208.160182 155.151158 
L 209.834182 155.088708 
L 210.595091 155.135424 
L 211.812545 155.033526 
L 212.877818 155.133868 
L 214.095273 155.036891 
L 215.312727 155.112232 
L 216.378 155.041377 
L 217.595455 155.119538 
L 218.508545 155.075113 
L 220.486909 155.505272 
L 222.008727 155.949336 
L 222.465273 155.676909 
L 223.074 154.936026 
L 223.834909 153.520493 
L 224.748 151.746688 
L 225.052364 151.48806 
L 225.356727 151.538285 
L 225.661091 151.92547 
L 226.117636 153.072818 
L 227.030727 156.438017 
L 227.791636 158.857448 
L 228.096 159.381117 
L 228.400364 159.548883 
L 228.704727 159.347796 
L 229.009091 158.819926 
L 229.617818 157.161936 
L 230.530909 154.652643 
L 231.139636 153.583442 
L 231.596182 153.207588 
L 231.900545 153.172277 
L 232.357091 153.393733 
L 234.183273 154.789521 
L 235.096364 155.152835 
L 235.857273 155.216995 
L 241.944545 155.123001 
L 242.857636 155.081671 
L 243.922909 155.083666 
L 244.988182 155.091287 
L 246.205636 155.085183 
L 247.575273 155.066586 
L 250.771091 155.097843 
L 253.662545 155.094706 
L 255.032182 155.087592 
L 256.249636 155.071151 
L 257.314909 155.088145 
L 258.380182 155.084232 
L 259.597636 155.088037 
L 260.662909 155.086648 
L 261.880364 155.091973 
L 262.945636 155.09287 
L 264.163091 155.084196 
L 265.228364 155.06565 
L 266.293636 155.04216 
L 267.815455 155.065011 
L 274.968 155.068178 
L 277.250727 155.189021 
L 278.772545 155.022463 
L 279.837818 154.912814 
L 282.272727 155.110826 
L 283.490182 155.143229 
L 286.990364 155.087751 
L 292.621091 155.075347 
L 298.099636 155.087345 
L 301.599818 155.072501 
L 306.774 155.073282 
L 310.122 155.092262 
L 313.774364 155.080075 
L 316.970182 155.090536 
L 320.774727 155.086931 
L 326.101091 155.095177 
L 329.601273 155.071599 
L 332.949273 155.095443 
L 336.297273 155.069928 
L 339.949636 155.084001 
L 343.145455 155.073146 
L 346.797818 155.083246 
L 349.993636 155.072058 
L 353.798182 155.077704 
L 357.146182 155.08338 
L 360.494182 155.084656 
L 363.994364 155.083532 
L 367.646727 155.078915 
L 373.277455 155.083479 
L 373.581818 155.088852 
L 373.581818 155.088852 
" style="fill:none;stroke:#1f77b4;stroke-linecap:square;stroke-width:1.5;"/>
   </g>
   <g id="patch_3">
    <path d="M 54 252 
L 54 34.56 
" style="fill:none;stroke:#000000;stroke-linecap:square;stroke-linejoin:miter;stroke-width:0.8;"/>
   </g>
   <g id="patch_4">
    <path d="M 388.8 252 
L 388.8 34.56 
" style="fill:none;stroke:#000000;stroke-linecap:square;stroke-linejoin:miter;stroke-width:0.8;"/>
   </g>
   <g id="patch_5">
    <path d="M 54 252 
L 388.8 252 
" style="fill:none;stroke:#000000;stroke-linecap:square;stroke-linejoin:miter;stroke-width:0.8;"/>
   </g>
   <g id="patch_6">
    <path d="M 54 34.56 
L 388.8 34.56 
" style="fill:none;stroke:#000000;stroke-linecap:square;stroke-linejoin:miter;stroke-width:0.8;"/>
   </g>
  </g>
 </g>
 <defs>
  <clipPath id="p7d30caa8e4">
   <rect height="217.44" width="334.8" x="54" y="34.56"/>
  </clipPath>
 </defs>
</svg>
