<?xml version="1.0" encoding="utf-8" standalone="no"?>
<!DOCTYPE svg PUBLIC "-//W3C//DTD SVG 1.1//EN"
  "http://www.w3.org/Graphics/SVG/1.1/DTD/svg11.dtd">
<svg height="288pt" version="1.1" viewBox="0 0 432 288" width="432pt" xmlns="http://www.w3.org/2000/svg" xmlns:xlink="http://www.w3.org/1999/xlink">
 <metadata>
  <rdf:RDF xmlns:cc="http://creativecommons.org/ns#" xmlns:dc="http://purl.org/dc/elements/1.1/" xmlns:rdf="http://www.w3.org/1999/02/22-rdf-syntax-ns#">
   <cc:Work>
    <dc:type rdf:resource="http://purl.org/dc/dcmitype/StillImage"/>
    <dc:date>2022-04-22T12:50:12.018371</dc:date>
    <dc:format>image/svg+xml</dc:format>
    <dc:creator>
     <cc:Agent>
      <dc:title>Matplotlib v3.4.3, https://matplotlib.org/</dc:title>
     </cc:Agent>
    </dc:creator>
   </cc:Work>
  </rdf:RDF>
 </metadata>
 <defs>
  <style type="text/css">*{stroke-linecap:butt;stroke-linejoin:round;}</style>
 </defs>
 <g id="figure_1">
  <g id="patch_1">
   <path d="M 0 288 
L 432 288 
L 432 0 
L 0 0 
z
" style="fill:none;"/>
  </g>
  <g id="axes_1">
   <g id="patch_2">
    <path d="M 54 252 
L 388.8 252 
L 388.8 34.56 
L 54 34.56 
z
" style="fill:#ffffff;"/>
   </g>
   <g id="matplotlib.axis_1">
    <g id="xtick_1">
     <g id="line2d_1">
      <defs>
       <path d="M 0 0 
L 0 3.5 
" id="m39ecddd8ce" style="stroke:#000000;stroke-width:0.8;"/>
      </defs>
      <g>
       <use style="stroke:#000000;stroke-width:0.8;" x="69.218182" xlink:href="#m39ecddd8ce" y="252"/>
      </g>
     </g>
     <g id="text_1">
      <!-- 0 -->
      <g transform="translate(66.036932 266.598437)scale(0.1 -0.1)">
       <defs>
        <path d="M 2034 4250 
Q 1547 4250 1301 3770 
Q 1056 3291 1056 2328 
Q 1056 1369 1301 889 
Q 1547 409 2034 409 
Q 2525 409 2770 889 
Q 3016 1369 3016 2328 
Q 3016 3291 2770 3770 
Q 2525 4250 2034 4250 
z
M 2034 4750 
Q 2819 4750 3233 4129 
Q 3647 3509 3647 2328 
Q 3647 1150 3233 529 
Q 2819 -91 2034 -91 
Q 1250 -91 836 529 
Q 422 1150 422 2328 
Q 422 3509 836 4129 
Q 1250 4750 2034 4750 
z
" id="DejaVuSans-30" transform="scale(0.015625)"/>
       </defs>
       <use xlink:href="#DejaVuSans-30"/>
      </g>
     </g>
    </g>
    <g id="xtick_2">
     <g id="line2d_2">
      <g>
       <use style="stroke:#000000;stroke-width:0.8;" x="107.263636" xlink:href="#m39ecddd8ce" y="252"/>
      </g>
     </g>
     <g id="text_2">
      <!-- 250 -->
      <g transform="translate(97.719886 266.598437)scale(0.1 -0.1)">
       <defs>
        <path d="M 1228 531 
L 3431 531 
L 3431 0 
L 469 0 
L 469 531 
Q 828 903 1448 1529 
Q 2069 2156 2228 2338 
Q 2531 2678 2651 2914 
Q 2772 3150 2772 3378 
Q 2772 3750 2511 3984 
Q 2250 4219 1831 4219 
Q 1534 4219 1204 4116 
Q 875 4013 500 3803 
L 500 4441 
Q 881 4594 1212 4672 
Q 1544 4750 1819 4750 
Q 2544 4750 2975 4387 
Q 3406 4025 3406 3419 
Q 3406 3131 3298 2873 
Q 3191 2616 2906 2266 
Q 2828 2175 2409 1742 
Q 1991 1309 1228 531 
z
" id="DejaVuSans-32" transform="scale(0.015625)"/>
        <path d="M 691 4666 
L 3169 4666 
L 3169 4134 
L 1269 4134 
L 1269 2991 
Q 1406 3038 1543 3061 
Q 1681 3084 1819 3084 
Q 2600 3084 3056 2656 
Q 3513 2228 3513 1497 
Q 3513 744 3044 326 
Q 2575 -91 1722 -91 
Q 1428 -91 1123 -41 
Q 819 9 494 109 
L 494 744 
Q 775 591 1075 516 
Q 1375 441 1709 441 
Q 2250 441 2565 725 
Q 2881 1009 2881 1497 
Q 2881 1984 2565 2268 
Q 2250 2553 1709 2553 
Q 1456 2553 1204 2497 
Q 953 2441 691 2322 
L 691 4666 
z
" id="DejaVuSans-35" transform="scale(0.015625)"/>
       </defs>
       <use xlink:href="#DejaVuSans-32"/>
       <use x="63.623047" xlink:href="#DejaVuSans-35"/>
       <use x="127.246094" xlink:href="#DejaVuSans-30"/>
      </g>
     </g>
    </g>
    <g id="xtick_3">
     <g id="line2d_3">
      <g>
       <use style="stroke:#000000;stroke-width:0.8;" x="145.309091" xlink:href="#m39ecddd8ce" y="252"/>
      </g>
     </g>
     <g id="text_3">
      <!-- 500 -->
      <g transform="translate(135.765341 266.598437)scale(0.1 -0.1)">
       <use xlink:href="#DejaVuSans-35"/>
       <use x="63.623047" xlink:href="#DejaVuSans-30"/>
       <use x="127.246094" xlink:href="#DejaVuSans-30"/>
      </g>
     </g>
    </g>
    <g id="xtick_4">
     <g id="line2d_4">
      <g>
       <use style="stroke:#000000;stroke-width:0.8;" x="183.354545" xlink:href="#m39ecddd8ce" y="252"/>
      </g>
     </g>
     <g id="text_4">
      <!-- 750 -->
      <g transform="translate(173.810795 266.598437)scale(0.1 -0.1)">
       <defs>
        <path d="M 525 4666 
L 3525 4666 
L 3525 4397 
L 1831 0 
L 1172 0 
L 2766 4134 
L 525 4134 
L 525 4666 
z
" id="DejaVuSans-37" transform="scale(0.015625)"/>
       </defs>
       <use xlink:href="#DejaVuSans-37"/>
       <use x="63.623047" xlink:href="#DejaVuSans-35"/>
       <use x="127.246094" xlink:href="#DejaVuSans-30"/>
      </g>
     </g>
    </g>
    <g id="xtick_5">
     <g id="line2d_5">
      <g>
       <use style="stroke:#000000;stroke-width:0.8;" x="221.4" xlink:href="#m39ecddd8ce" y="252"/>
      </g>
     </g>
     <g id="text_5">
      <!-- 1000 -->
      <g transform="translate(208.675 266.598437)scale(0.1 -0.1)">
       <defs>
        <path d="M 794 531 
L 1825 531 
L 1825 4091 
L 703 3866 
L 703 4441 
L 1819 4666 
L 2450 4666 
L 2450 531 
L 3481 531 
L 3481 0 
L 794 0 
L 794 531 
z
" id="DejaVuSans-31" transform="scale(0.015625)"/>
       </defs>
       <use xlink:href="#DejaVuSans-31"/>
       <use x="63.623047" xlink:href="#DejaVuSans-30"/>
       <use x="127.246094" xlink:href="#DejaVuSans-30"/>
       <use x="190.869141" xlink:href="#DejaVuSans-30"/>
      </g>
     </g>
    </g>
    <g id="xtick_6">
     <g id="line2d_6">
      <g>
       <use style="stroke:#000000;stroke-width:0.8;" x="259.445455" xlink:href="#m39ecddd8ce" y="252"/>
      </g>
     </g>
     <g id="text_6">
      <!-- 1250 -->
      <g transform="translate(246.720455 266.598437)scale(0.1 -0.1)">
       <use xlink:href="#DejaVuSans-31"/>
       <use x="63.623047" xlink:href="#DejaVuSans-32"/>
       <use x="127.246094" xlink:href="#DejaVuSans-35"/>
       <use x="190.869141" xlink:href="#DejaVuSans-30"/>
      </g>
     </g>
    </g>
    <g id="xtick_7">
     <g id="line2d_7">
      <g>
       <use style="stroke:#000000;stroke-width:0.8;" x="297.490909" xlink:href="#m39ecddd8ce" y="252"/>
      </g>
     </g>
     <g id="text_7">
      <!-- 1500 -->
      <g transform="translate(284.765909 266.598437)scale(0.1 -0.1)">
       <use xlink:href="#DejaVuSans-31"/>
       <use x="63.623047" xlink:href="#DejaVuSans-35"/>
       <use x="127.246094" xlink:href="#DejaVuSans-30"/>
       <use x="190.869141" xlink:href="#DejaVuSans-30"/>
      </g>
     </g>
    </g>
    <g id="xtick_8">
     <g id="line2d_8">
      <g>
       <use style="stroke:#000000;stroke-width:0.8;" x="335.536364" xlink:href="#m39ecddd8ce" y="252"/>
      </g>
     </g>
     <g id="text_8">
      <!-- 1750 -->
      <g transform="translate(322.811364 266.598437)scale(0.1 -0.1)">
       <use xlink:href="#DejaVuSans-31"/>
       <use x="63.623047" xlink:href="#DejaVuSans-37"/>
       <use x="127.246094" xlink:href="#DejaVuSans-35"/>
       <use x="190.869141" xlink:href="#DejaVuSans-30"/>
      </g>
     </g>
    </g>
    <g id="xtick_9">
     <g id="line2d_9">
      <g>
       <use style="stroke:#000000;stroke-width:0.8;" x="373.581818" xlink:href="#m39ecddd8ce" y="252"/>
      </g>
     </g>
     <g id="text_9">
      <!-- 2000 -->
      <g transform="translate(360.856818 266.598437)scale(0.1 -0.1)">
       <use xlink:href="#DejaVuSans-32"/>
       <use x="63.623047" xlink:href="#DejaVuSans-30"/>
       <use x="127.246094" xlink:href="#DejaVuSans-30"/>
       <use x="190.869141" xlink:href="#DejaVuSans-30"/>
      </g>
     </g>
    </g>
   </g>
   <g id="matplotlib.axis_2">
    <g id="ytick_1">
     <g id="line2d_10">
      <defs>
       <path d="M 0 0 
L -3.5 0 
" id="m348fcc25b6" style="stroke:#000000;stroke-width:0.8;"/>
      </defs>
      <g>
       <use style="stroke:#000000;stroke-width:0.8;" x="54" xlink:href="#m348fcc25b6" y="224.16077"/>
      </g>
     </g>
     <g id="text_10">
      <!-- −0.4 -->
      <g transform="translate(22.717187 227.959989)scale(0.1 -0.1)">
       <defs>
        <path d="M 678 2272 
L 4684 2272 
L 4684 1741 
L 678 1741 
L 678 2272 
z
" id="DejaVuSans-2212" transform="scale(0.015625)"/>
        <path d="M 684 794 
L 1344 794 
L 1344 0 
L 684 0 
L 684 794 
z
" id="DejaVuSans-2e" transform="scale(0.015625)"/>
        <path d="M 2419 4116 
L 825 1625 
L 2419 1625 
L 2419 4116 
z
M 2253 4666 
L 3047 4666 
L 3047 1625 
L 3713 1625 
L 3713 1100 
L 3047 1100 
L 3047 0 
L 2419 0 
L 2419 1100 
L 313 1100 
L 313 1709 
L 2253 4666 
z
" id="DejaVuSans-34" transform="scale(0.015625)"/>
       </defs>
       <use xlink:href="#DejaVuSans-2212"/>
       <use x="83.789062" xlink:href="#DejaVuSans-30"/>
       <use x="147.412109" xlink:href="#DejaVuSans-2e"/>
       <use x="179.199219" xlink:href="#DejaVuSans-34"/>
      </g>
     </g>
    </g>
    <g id="ytick_2">
     <g id="line2d_11">
      <g>
       <use style="stroke:#000000;stroke-width:0.8;" x="54" xlink:href="#m348fcc25b6" y="184.203939"/>
      </g>
     </g>
     <g id="text_11">
      <!-- −0.2 -->
      <g transform="translate(22.717187 188.003158)scale(0.1 -0.1)">
       <use xlink:href="#DejaVuSans-2212"/>
       <use x="83.789062" xlink:href="#DejaVuSans-30"/>
       <use x="147.412109" xlink:href="#DejaVuSans-2e"/>
       <use x="179.199219" xlink:href="#DejaVuSans-32"/>
      </g>
     </g>
    </g>
    <g id="ytick_3">
     <g id="line2d_12">
      <g>
       <use style="stroke:#000000;stroke-width:0.8;" x="54" xlink:href="#m348fcc25b6" y="144.247107"/>
      </g>
     </g>
     <g id="text_12">
      <!-- 0.0 -->
      <g transform="translate(31.096875 148.046326)scale(0.1 -0.1)">
       <use xlink:href="#DejaVuSans-30"/>
       <use x="63.623047" xlink:href="#DejaVuSans-2e"/>
       <use x="95.410156" xlink:href="#DejaVuSans-30"/>
      </g>
     </g>
    </g>
    <g id="ytick_4">
     <g id="line2d_13">
      <g>
       <use style="stroke:#000000;stroke-width:0.8;" x="54" xlink:href="#m348fcc25b6" y="104.290276"/>
      </g>
     </g>
     <g id="text_13">
      <!-- 0.2 -->
      <g transform="translate(31.096875 108.089494)scale(0.1 -0.1)">
       <use xlink:href="#DejaVuSans-30"/>
       <use x="63.623047" xlink:href="#DejaVuSans-2e"/>
       <use x="95.410156" xlink:href="#DejaVuSans-32"/>
      </g>
     </g>
    </g>
    <g id="ytick_5">
     <g id="line2d_14">
      <g>
       <use style="stroke:#000000;stroke-width:0.8;" x="54" xlink:href="#m348fcc25b6" y="64.333444"/>
      </g>
     </g>
     <g id="text_14">
      <!-- 0.4 -->
      <g transform="translate(31.096875 68.132663)scale(0.1 -0.1)">
       <use xlink:href="#DejaVuSans-30"/>
       <use x="63.623047" xlink:href="#DejaVuSans-2e"/>
       <use x="95.410156" xlink:href="#DejaVuSans-34"/>
      </g>
     </g>
    </g>
   </g>
   <g id="line2d_15">
    <path clip-path="url(#pd69b78404f)" d="M 69.218182 144.247107 
L 236.009455 144.138161 
L 236.770364 143.915891 
L 237.379091 143.539917 
L 237.987818 142.905507 
L 238.748727 141.737574 
L 239.814 140.08335 
L 240.118364 139.887048 
L 240.422727 139.943405 
L 240.727091 140.318356 
L 241.031455 141.059962 
L 241.488 142.892734 
L 242.096727 146.477252 
L 243.314182 153.982877 
L 243.770727 155.290616 
L 243.922909 155.415651 
L 244.075091 155.373207 
L 244.379455 154.78334 
L 244.683818 153.554723 
L 245.140364 150.729885 
L 246.814364 138.695903 
L 247.270909 137.077243 
L 247.575273 136.580534 
L 247.879636 136.501128 
L 248.184 136.761616 
L 248.640545 137.572037 
L 249.553636 139.381682 
L 250.010182 139.782828 
L 250.314545 139.758235 
L 250.771091 139.338418 
L 251.379818 138.606201 
L 251.684182 138.589787 
L 251.836364 138.783818 
L 252.140727 139.769762 
L 252.445091 141.815758 
L 252.749455 145.204661 
L 253.206 153.180492 
L 253.814727 168.770347 
L 254.727818 193.418086 
L 255.032182 197.845601 
L 255.184364 198.672425 
L 255.336545 198.397646 
L 255.488727 196.914055 
L 255.793091 190.034969 
L 256.249636 169.817198 
L 256.858364 128.366906 
L 257.771455 64.202543 
L 258.228 46.921501 
L 258.380182 44.718332 
L 258.532364 44.443636 
L 258.684545 46.108014 
L 258.988909 55.028261 
L 259.445455 80.259316 
L 261.119455 194.037795 
L 261.423818 203.157358 
L 261.728182 206.971607 
L 261.880364 207.030861 
L 262.032545 205.987942 
L 262.336909 201.093785 
L 262.793455 188.808976 
L 264.163091 147.442297 
L 264.619636 139.470883 
L 265.076182 135.48627 
L 265.380545 134.557665 
L 265.532727 134.439353 
L 265.837091 134.606169 
L 266.445818 135.544373 
L 266.902364 136.589133 
L 267.358909 138.220538 
L 268.272 141.917624 
L 268.728545 142.786549 
L 270.250364 144.119421 
L 270.554727 144.210617 
L 271.011273 144.04976 
L 271.467818 143.916604 
L 271.924364 144.101976 
L 272.533091 144.412091 
L 273.446182 144.474555 
L 273.750545 144.825664 
L 274.207091 145.828523 
L 274.815818 147.752914 
L 275.272364 149.777173 
L 275.881091 153.664567 
L 276.489818 157.446838 
L 276.794182 158.221006 
L 276.946364 158.12873 
L 277.098545 157.650265 
L 277.402909 155.353894 
L 277.707273 150.994448 
L 278.163818 140.054984 
L 278.772545 117.892132 
L 279.685636 84.067564 
L 279.99 78.82231 
L 280.142182 78.154364 
L 280.294364 78.958397 
L 280.598727 85.286283 
L 280.903091 98.01449 
L 281.359636 127.756285 
L 282.729273 230.360436 
L 283.033636 240.203988 
L 283.185818 242.116364 
L 283.338 241.971406 
L 283.490182 239.800328 
L 283.794545 229.762367 
L 284.251091 203.101414 
L 285.620727 107.740854 
L 286.077273 92.067079 
L 286.381636 88.076604 
L 286.533818 87.860664 
L 286.686 88.711279 
L 286.990364 93.170957 
L 287.446909 104.848005 
L 288.664364 140.226893 
L 289.120909 148.253349 
L 289.577455 152.498946 
L 289.881818 153.551519 
L 290.034 153.673757 
L 290.186182 153.600108 
L 290.490545 153.096738 
L 291.860182 150.114938 
L 292.468909 147.389298 
L 292.925455 145.479759 
L 293.229818 144.778863 
L 293.534182 144.540654 
L 294.447273 144.380577 
L 295.208182 143.899994 
L 295.512545 143.948424 
L 296.121273 144.388031 
L 296.577818 144.665028 
L 297.034364 144.684201 
L 298.251818 144.329856 
L 299.012727 144.58283 
L 299.317091 144.459418 
L 300.230182 143.840832 
L 300.534545 143.994662 
L 301.143273 144.417811 
L 301.447636 144.346626 
L 302.208545 143.859676 
L 302.512909 143.981648 
L 303.273818 144.509236 
L 303.578182 144.401125 
L 304.186909 144.009326 
L 304.491273 144.043569 
L 305.404364 144.457802 
L 306.013091 144.188033 
L 306.469636 144.106929 
L 307.839273 144.30781 
L 308.904545 144.183528 
L 310.578545 144.244418 
L 311.187273 144.115639 
L 311.796 144.311512 
L 312.252545 144.37398 
L 312.709091 144.151628 
L 313.165636 143.937152 
L 313.622182 144.01159 
L 314.078727 144.117076 
L 314.383091 143.999373 
L 315.144 143.476588 
L 315.448364 143.559422 
L 316.970182 144.859136 
L 317.426727 145.60364 
L 318.035455 146.683914 
L 318.339818 146.848928 
L 318.644182 146.684732 
L 319.100727 146.038436 
L 319.709455 144.818396 
L 320.470364 142.630044 
L 321.079091 141.152808 
L 321.383455 140.868012 
L 321.687818 140.900367 
L 321.992182 141.178636 
L 322.448727 141.919919 
L 323.361818 144.061707 
L 323.970545 145.266146 
L 324.427091 145.799442 
L 324.883636 146.019734 
L 325.188 145.97909 
L 325.644545 145.662956 
L 326.557636 144.909356 
L 328.231636 144.006681 
L 329.296909 144.080713 
L 329.905636 143.876659 
L 330.362182 144.016422 
L 330.970909 144.2963 
L 331.427455 144.197657 
L 332.036182 144.054505 
L 333.253636 144.309344 
L 334.014545 144.125047 
L 335.079818 144.325858 
L 335.992909 144.155734 
L 337.058182 144.29658 
L 337.819091 144.162572 
L 339.188727 144.236401 
L 339.797455 144.186069 
L 341.167091 144.24099 
L 343.145455 144.287402 
L 344.210727 144.291999 
L 345.123818 144.167211 
L 346.036909 144.22642 
L 346.95 144.096724 
L 348.015273 144.31135 
L 348.928364 144.180349 
L 349.993636 144.36875 
L 350.906727 144.18515 
L 351.972 144.333068 
L 352.732909 144.147437 
L 354.254727 144.19986 
L 354.863455 144.164265 
L 355.776545 144.29423 
L 356.841818 144.198328 
L 357.754909 144.292672 
L 358.668 144.219723 
L 359.733273 144.293127 
L 360.646364 144.226422 
L 361.559455 144.231756 
L 362.472545 144.141823 
L 363.842182 144.196246 
L 364.603091 144.305918 
L 365.364 144.359166 
L 366.429273 144.34256 
L 367.190182 144.301327 
L 368.103273 144.193257 
L 369.168545 144.198715 
L 369.929455 144.153025 
L 370.994727 144.264932 
L 371.907818 144.201103 
L 372.820909 144.321367 
L 373.581818 144.186744 
L 373.581818 144.186744 
" style="fill:none;stroke:#1f77b4;stroke-linecap:square;stroke-width:1.5;"/>
   </g>
   <g id="patch_3">
    <path d="M 54 252 
L 54 34.56 
" style="fill:none;stroke:#000000;stroke-linecap:square;stroke-linejoin:miter;stroke-width:0.8;"/>
   </g>
   <g id="patch_4">
    <path d="M 388.8 252 
L 388.8 34.56 
" style="fill:none;stroke:#000000;stroke-linecap:square;stroke-linejoin:miter;stroke-width:0.8;"/>
   </g>
   <g id="patch_5">
    <path d="M 54 252 
L 388.8 252 
" style="fill:none;stroke:#000000;stroke-linecap:square;stroke-linejoin:miter;stroke-width:0.8;"/>
   </g>
   <g id="patch_6">
    <path d="M 54 34.56 
L 388.8 34.56 
" style="fill:none;stroke:#000000;stroke-linecap:square;stroke-linejoin:miter;stroke-width:0.8;"/>
   </g>
  </g>
 </g>
 <defs>
  <clipPath id="pd69b78404f">
   <rect height="217.44" width="334.8" x="54" y="34.56"/>
  </clipPath>
 </defs>
</svg>
