<?xml version="1.0" encoding="utf-8" standalone="no"?>
<!DOCTYPE svg PUBLIC "-//W3C//DTD SVG 1.1//EN"
  "http://www.w3.org/Graphics/SVG/1.1/DTD/svg11.dtd">
<svg height="288pt" version="1.1" viewBox="0 0 432 288" width="432pt" xmlns="http://www.w3.org/2000/svg" xmlns:xlink="http://www.w3.org/1999/xlink">
 <metadata>
  <rdf:RDF xmlns:cc="http://creativecommons.org/ns#" xmlns:dc="http://purl.org/dc/elements/1.1/" xmlns:rdf="http://www.w3.org/1999/02/22-rdf-syntax-ns#">
   <cc:Work>
    <dc:type rdf:resource="http://purl.org/dc/dcmitype/StillImage"/>
    <dc:date>2022-04-22T21:35:36.046143</dc:date>
    <dc:format>image/svg+xml</dc:format>
    <dc:creator>
     <cc:Agent>
      <dc:title>Matplotlib v3.4.3, https://matplotlib.org/</dc:title>
     </cc:Agent>
    </dc:creator>
   </cc:Work>
  </rdf:RDF>
 </metadata>
 <defs>
  <style type="text/css">*{stroke-linecap:butt;stroke-linejoin:round;}</style>
 </defs>
 <g id="figure_1">
  <g id="patch_1">
   <path d="M 0 288 
L 432 288 
L 432 0 
L 0 0 
z
" style="fill:none;"/>
  </g>
  <g id="axes_1">
   <g id="patch_2">
    <path d="M 54 252 
L 388.8 252 
L 388.8 34.56 
L 54 34.56 
z
" style="fill:#ffffff;"/>
   </g>
   <g id="matplotlib.axis_1">
    <g id="xtick_1">
     <g id="line2d_1">
      <defs>
       <path d="M 0 0 
L 0 3.5 
" id="m4a1e6dc719" style="stroke:#000000;stroke-width:0.8;"/>
      </defs>
      <g>
       <use style="stroke:#000000;stroke-width:0.8;" x="69.218182" xlink:href="#m4a1e6dc719" y="252"/>
      </g>
     </g>
     <g id="text_1">
      <!-- 0 -->
      <g transform="translate(66.036932 266.598437)scale(0.1 -0.1)">
       <defs>
        <path d="M 2034 4250 
Q 1547 4250 1301 3770 
Q 1056 3291 1056 2328 
Q 1056 1369 1301 889 
Q 1547 409 2034 409 
Q 2525 409 2770 889 
Q 3016 1369 3016 2328 
Q 3016 3291 2770 3770 
Q 2525 4250 2034 4250 
z
M 2034 4750 
Q 2819 4750 3233 4129 
Q 3647 3509 3647 2328 
Q 3647 1150 3233 529 
Q 2819 -91 2034 -91 
Q 1250 -91 836 529 
Q 422 1150 422 2328 
Q 422 3509 836 4129 
Q 1250 4750 2034 4750 
z
" id="DejaVuSans-30" transform="scale(0.015625)"/>
       </defs>
       <use xlink:href="#DejaVuSans-30"/>
      </g>
     </g>
    </g>
    <g id="xtick_2">
     <g id="line2d_2">
      <g>
       <use style="stroke:#000000;stroke-width:0.8;" x="107.263636" xlink:href="#m4a1e6dc719" y="252"/>
      </g>
     </g>
     <g id="text_2">
      <!-- 250 -->
      <g transform="translate(97.719886 266.598437)scale(0.1 -0.1)">
       <defs>
        <path d="M 1228 531 
L 3431 531 
L 3431 0 
L 469 0 
L 469 531 
Q 828 903 1448 1529 
Q 2069 2156 2228 2338 
Q 2531 2678 2651 2914 
Q 2772 3150 2772 3378 
Q 2772 3750 2511 3984 
Q 2250 4219 1831 4219 
Q 1534 4219 1204 4116 
Q 875 4013 500 3803 
L 500 4441 
Q 881 4594 1212 4672 
Q 1544 4750 1819 4750 
Q 2544 4750 2975 4387 
Q 3406 4025 3406 3419 
Q 3406 3131 3298 2873 
Q 3191 2616 2906 2266 
Q 2828 2175 2409 1742 
Q 1991 1309 1228 531 
z
" id="DejaVuSans-32" transform="scale(0.015625)"/>
        <path d="M 691 4666 
L 3169 4666 
L 3169 4134 
L 1269 4134 
L 1269 2991 
Q 1406 3038 1543 3061 
Q 1681 3084 1819 3084 
Q 2600 3084 3056 2656 
Q 3513 2228 3513 1497 
Q 3513 744 3044 326 
Q 2575 -91 1722 -91 
Q 1428 -91 1123 -41 
Q 819 9 494 109 
L 494 744 
Q 775 591 1075 516 
Q 1375 441 1709 441 
Q 2250 441 2565 725 
Q 2881 1009 2881 1497 
Q 2881 1984 2565 2268 
Q 2250 2553 1709 2553 
Q 1456 2553 1204 2497 
Q 953 2441 691 2322 
L 691 4666 
z
" id="DejaVuSans-35" transform="scale(0.015625)"/>
       </defs>
       <use xlink:href="#DejaVuSans-32"/>
       <use x="63.623047" xlink:href="#DejaVuSans-35"/>
       <use x="127.246094" xlink:href="#DejaVuSans-30"/>
      </g>
     </g>
    </g>
    <g id="xtick_3">
     <g id="line2d_3">
      <g>
       <use style="stroke:#000000;stroke-width:0.8;" x="145.309091" xlink:href="#m4a1e6dc719" y="252"/>
      </g>
     </g>
     <g id="text_3">
      <!-- 500 -->
      <g transform="translate(135.765341 266.598437)scale(0.1 -0.1)">
       <use xlink:href="#DejaVuSans-35"/>
       <use x="63.623047" xlink:href="#DejaVuSans-30"/>
       <use x="127.246094" xlink:href="#DejaVuSans-30"/>
      </g>
     </g>
    </g>
    <g id="xtick_4">
     <g id="line2d_4">
      <g>
       <use style="stroke:#000000;stroke-width:0.8;" x="183.354545" xlink:href="#m4a1e6dc719" y="252"/>
      </g>
     </g>
     <g id="text_4">
      <!-- 750 -->
      <g transform="translate(173.810795 266.598437)scale(0.1 -0.1)">
       <defs>
        <path d="M 525 4666 
L 3525 4666 
L 3525 4397 
L 1831 0 
L 1172 0 
L 2766 4134 
L 525 4134 
L 525 4666 
z
" id="DejaVuSans-37" transform="scale(0.015625)"/>
       </defs>
       <use xlink:href="#DejaVuSans-37"/>
       <use x="63.623047" xlink:href="#DejaVuSans-35"/>
       <use x="127.246094" xlink:href="#DejaVuSans-30"/>
      </g>
     </g>
    </g>
    <g id="xtick_5">
     <g id="line2d_5">
      <g>
       <use style="stroke:#000000;stroke-width:0.8;" x="221.4" xlink:href="#m4a1e6dc719" y="252"/>
      </g>
     </g>
     <g id="text_5">
      <!-- 1000 -->
      <g transform="translate(208.675 266.598437)scale(0.1 -0.1)">
       <defs>
        <path d="M 794 531 
L 1825 531 
L 1825 4091 
L 703 3866 
L 703 4441 
L 1819 4666 
L 2450 4666 
L 2450 531 
L 3481 531 
L 3481 0 
L 794 0 
L 794 531 
z
" id="DejaVuSans-31" transform="scale(0.015625)"/>
       </defs>
       <use xlink:href="#DejaVuSans-31"/>
       <use x="63.623047" xlink:href="#DejaVuSans-30"/>
       <use x="127.246094" xlink:href="#DejaVuSans-30"/>
       <use x="190.869141" xlink:href="#DejaVuSans-30"/>
      </g>
     </g>
    </g>
    <g id="xtick_6">
     <g id="line2d_6">
      <g>
       <use style="stroke:#000000;stroke-width:0.8;" x="259.445455" xlink:href="#m4a1e6dc719" y="252"/>
      </g>
     </g>
     <g id="text_6">
      <!-- 1250 -->
      <g transform="translate(246.720455 266.598437)scale(0.1 -0.1)">
       <use xlink:href="#DejaVuSans-31"/>
       <use x="63.623047" xlink:href="#DejaVuSans-32"/>
       <use x="127.246094" xlink:href="#DejaVuSans-35"/>
       <use x="190.869141" xlink:href="#DejaVuSans-30"/>
      </g>
     </g>
    </g>
    <g id="xtick_7">
     <g id="line2d_7">
      <g>
       <use style="stroke:#000000;stroke-width:0.8;" x="297.490909" xlink:href="#m4a1e6dc719" y="252"/>
      </g>
     </g>
     <g id="text_7">
      <!-- 1500 -->
      <g transform="translate(284.765909 266.598437)scale(0.1 -0.1)">
       <use xlink:href="#DejaVuSans-31"/>
       <use x="63.623047" xlink:href="#DejaVuSans-35"/>
       <use x="127.246094" xlink:href="#DejaVuSans-30"/>
       <use x="190.869141" xlink:href="#DejaVuSans-30"/>
      </g>
     </g>
    </g>
    <g id="xtick_8">
     <g id="line2d_8">
      <g>
       <use style="stroke:#000000;stroke-width:0.8;" x="335.536364" xlink:href="#m4a1e6dc719" y="252"/>
      </g>
     </g>
     <g id="text_8">
      <!-- 1750 -->
      <g transform="translate(322.811364 266.598437)scale(0.1 -0.1)">
       <use xlink:href="#DejaVuSans-31"/>
       <use x="63.623047" xlink:href="#DejaVuSans-37"/>
       <use x="127.246094" xlink:href="#DejaVuSans-35"/>
       <use x="190.869141" xlink:href="#DejaVuSans-30"/>
      </g>
     </g>
    </g>
    <g id="xtick_9">
     <g id="line2d_9">
      <g>
       <use style="stroke:#000000;stroke-width:0.8;" x="373.581818" xlink:href="#m4a1e6dc719" y="252"/>
      </g>
     </g>
     <g id="text_9">
      <!-- 2000 -->
      <g transform="translate(360.856818 266.598437)scale(0.1 -0.1)">
       <use xlink:href="#DejaVuSans-32"/>
       <use x="63.623047" xlink:href="#DejaVuSans-30"/>
       <use x="127.246094" xlink:href="#DejaVuSans-30"/>
       <use x="190.869141" xlink:href="#DejaVuSans-30"/>
      </g>
     </g>
    </g>
   </g>
   <g id="matplotlib.axis_2">
    <g id="ytick_1">
     <g id="line2d_10">
      <defs>
       <path d="M 0 0 
L -3.5 0 
" id="m819229f8e9" style="stroke:#000000;stroke-width:0.8;"/>
      </defs>
      <g>
       <use style="stroke:#000000;stroke-width:0.8;" x="54" xlink:href="#m819229f8e9" y="235.345741"/>
      </g>
     </g>
     <g id="text_10">
      <!-- −0.75 -->
      <g transform="translate(16.354687 239.144959)scale(0.1 -0.1)">
       <defs>
        <path d="M 678 2272 
L 4684 2272 
L 4684 1741 
L 678 1741 
L 678 2272 
z
" id="DejaVuSans-2212" transform="scale(0.015625)"/>
        <path d="M 684 794 
L 1344 794 
L 1344 0 
L 684 0 
L 684 794 
z
" id="DejaVuSans-2e" transform="scale(0.015625)"/>
       </defs>
       <use xlink:href="#DejaVuSans-2212"/>
       <use x="83.789062" xlink:href="#DejaVuSans-30"/>
       <use x="147.412109" xlink:href="#DejaVuSans-2e"/>
       <use x="179.199219" xlink:href="#DejaVuSans-37"/>
       <use x="242.822266" xlink:href="#DejaVuSans-35"/>
      </g>
     </g>
    </g>
    <g id="ytick_2">
     <g id="line2d_11">
      <g>
       <use style="stroke:#000000;stroke-width:0.8;" x="54" xlink:href="#m819229f8e9" y="208.074011"/>
      </g>
     </g>
     <g id="text_11">
      <!-- −0.50 -->
      <g transform="translate(16.354687 211.87323)scale(0.1 -0.1)">
       <use xlink:href="#DejaVuSans-2212"/>
       <use x="83.789062" xlink:href="#DejaVuSans-30"/>
       <use x="147.412109" xlink:href="#DejaVuSans-2e"/>
       <use x="179.199219" xlink:href="#DejaVuSans-35"/>
       <use x="242.822266" xlink:href="#DejaVuSans-30"/>
      </g>
     </g>
    </g>
    <g id="ytick_3">
     <g id="line2d_12">
      <g>
       <use style="stroke:#000000;stroke-width:0.8;" x="54" xlink:href="#m819229f8e9" y="180.802282"/>
      </g>
     </g>
     <g id="text_12">
      <!-- −0.25 -->
      <g transform="translate(16.354687 184.601501)scale(0.1 -0.1)">
       <use xlink:href="#DejaVuSans-2212"/>
       <use x="83.789062" xlink:href="#DejaVuSans-30"/>
       <use x="147.412109" xlink:href="#DejaVuSans-2e"/>
       <use x="179.199219" xlink:href="#DejaVuSans-32"/>
       <use x="242.822266" xlink:href="#DejaVuSans-35"/>
      </g>
     </g>
    </g>
    <g id="ytick_4">
     <g id="line2d_13">
      <g>
       <use style="stroke:#000000;stroke-width:0.8;" x="54" xlink:href="#m819229f8e9" y="153.530553"/>
      </g>
     </g>
     <g id="text_13">
      <!-- 0.00 -->
      <g transform="translate(24.734375 157.329772)scale(0.1 -0.1)">
       <use xlink:href="#DejaVuSans-30"/>
       <use x="63.623047" xlink:href="#DejaVuSans-2e"/>
       <use x="95.410156" xlink:href="#DejaVuSans-30"/>
       <use x="159.033203" xlink:href="#DejaVuSans-30"/>
      </g>
     </g>
    </g>
    <g id="ytick_5">
     <g id="line2d_14">
      <g>
       <use style="stroke:#000000;stroke-width:0.8;" x="54" xlink:href="#m819229f8e9" y="126.258824"/>
      </g>
     </g>
     <g id="text_14">
      <!-- 0.25 -->
      <g transform="translate(24.734375 130.058043)scale(0.1 -0.1)">
       <use xlink:href="#DejaVuSans-30"/>
       <use x="63.623047" xlink:href="#DejaVuSans-2e"/>
       <use x="95.410156" xlink:href="#DejaVuSans-32"/>
       <use x="159.033203" xlink:href="#DejaVuSans-35"/>
      </g>
     </g>
    </g>
    <g id="ytick_6">
     <g id="line2d_15">
      <g>
       <use style="stroke:#000000;stroke-width:0.8;" x="54" xlink:href="#m819229f8e9" y="98.987095"/>
      </g>
     </g>
     <g id="text_15">
      <!-- 0.50 -->
      <g transform="translate(24.734375 102.786313)scale(0.1 -0.1)">
       <use xlink:href="#DejaVuSans-30"/>
       <use x="63.623047" xlink:href="#DejaVuSans-2e"/>
       <use x="95.410156" xlink:href="#DejaVuSans-35"/>
       <use x="159.033203" xlink:href="#DejaVuSans-30"/>
      </g>
     </g>
    </g>
    <g id="ytick_7">
     <g id="line2d_16">
      <g>
       <use style="stroke:#000000;stroke-width:0.8;" x="54" xlink:href="#m819229f8e9" y="71.715366"/>
      </g>
     </g>
     <g id="text_16">
      <!-- 0.75 -->
      <g transform="translate(24.734375 75.514584)scale(0.1 -0.1)">
       <use xlink:href="#DejaVuSans-30"/>
       <use x="63.623047" xlink:href="#DejaVuSans-2e"/>
       <use x="95.410156" xlink:href="#DejaVuSans-37"/>
       <use x="159.033203" xlink:href="#DejaVuSans-35"/>
      </g>
     </g>
    </g>
    <g id="ytick_8">
     <g id="line2d_17">
      <g>
       <use style="stroke:#000000;stroke-width:0.8;" x="54" xlink:href="#m819229f8e9" y="44.443636"/>
      </g>
     </g>
     <g id="text_17">
      <!-- 1.00 -->
      <g transform="translate(24.734375 48.242855)scale(0.1 -0.1)">
       <use xlink:href="#DejaVuSans-31"/>
       <use x="63.623047" xlink:href="#DejaVuSans-2e"/>
       <use x="95.410156" xlink:href="#DejaVuSans-30"/>
       <use x="159.033203" xlink:href="#DejaVuSans-30"/>
      </g>
     </g>
    </g>
   </g>
   <g id="line2d_18">
    <path clip-path="url(#pd6873f1db7)" d="M 69.218182 153.530553 
L 232.509273 153.431536 
L 233.270182 153.222114 
L 233.878909 152.858271 
L 234.487636 152.226965 
L 235.248545 151.017028 
L 236.466 148.949225 
L 236.770364 148.755021 
L 237.074727 148.842327 
L 237.379091 149.281206 
L 237.683455 150.121138 
L 238.14 152.160894 
L 238.748727 156.095737 
L 239.814 163.429981 
L 240.270545 165.226032 
L 240.574909 165.605751 
L 240.727091 165.523144 
L 241.031455 164.808793 
L 241.335818 163.406136 
L 241.944545 159.012374 
L 243.314182 147.914468 
L 243.770727 145.693989 
L 244.227273 144.533368 
L 244.531636 144.26558 
L 244.836 144.291127 
L 245.444727 144.761457 
L 246.053455 145.157254 
L 246.814364 145.404287 
L 247.118727 145.809515 
L 247.423091 146.764355 
L 247.727455 148.601926 
L 248.031818 151.665893 
L 248.488364 159.165919 
L 249.097091 174.880409 
L 250.314545 210.298908 
L 250.618909 213.681749 
L 250.771091 213.677835 
L 250.923273 212.373607 
L 251.227636 205.524881 
L 251.532 192.830759 
L 251.988545 163.858253 
L 253.510364 53.227826 
L 253.814727 45.304428 
L 253.966909 44.443636 
L 254.119091 45.703689 
L 254.423455 54.393416 
L 254.88 80.702979 
L 256.706182 211.676558 
L 257.010545 219.432136 
L 257.162727 221.167394 
L 257.314909 221.568156 
L 257.467091 220.740954 
L 257.771455 215.930158 
L 258.228 203.070402 
L 259.749818 154.581762 
L 260.206364 147.084242 
L 260.510727 144.44063 
L 260.815091 143.28215 
L 260.967273 143.103375 
L 261.119455 143.104417 
L 261.423818 143.422602 
L 262.032545 144.491916 
L 262.489091 145.706878 
L 263.097818 148.311293 
L 263.706545 150.928859 
L 264.163091 151.945568 
L 264.619636 152.321286 
L 265.076182 152.689205 
L 265.837091 153.445652 
L 266.141455 153.477323 
L 267.054545 153.168846 
L 267.511091 153.412019 
L 267.967636 153.629006 
L 268.424182 153.513599 
L 268.880727 153.329914 
L 269.185091 153.394346 
L 269.641636 153.79685 
L 270.706909 154.979939 
L 271.011273 155.707057 
L 271.467818 157.584594 
L 273.141818 166.082588 
L 273.294 166.235893 
L 273.446182 166.089157 
L 273.598364 165.568687 
L 273.902727 163.124807 
L 274.207091 158.459404 
L 274.663636 147.092872 
L 275.424545 120.274085 
L 276.033273 100.323387 
L 276.337636 94.492553 
L 276.489818 93.244965 
L 276.642 93.315825 
L 276.794182 94.820967 
L 277.098545 102.374958 
L 277.555091 124.582781 
L 278.316 179.560016 
L 279.076909 228.407038 
L 279.381273 238.880932 
L 279.533455 241.442982 
L 279.685636 242.116364 
L 279.837818 240.895545 
L 280.142182 233.053033 
L 280.598727 210.248049 
L 282.120545 117.919891 
L 282.577091 105.729925 
L 282.881455 103.440566 
L 283.033636 103.872561 
L 283.338 107.334724 
L 283.794545 117.039069 
L 285.316364 153.83742 
L 285.772909 159.076429 
L 286.077273 160.643132 
L 286.381636 161.155179 
L 286.686 161.116818 
L 287.294727 160.602414 
L 287.751273 159.937022 
L 288.207818 158.774886 
L 289.729636 154.199251 
L 290.034 153.914279 
L 290.490545 153.903641 
L 290.947091 153.872778 
L 291.403636 153.444332 
L 291.860182 152.980548 
L 292.164545 152.969782 
L 292.621091 153.416997 
L 293.077636 153.800635 
L 293.382 153.746015 
L 294.142909 153.356841 
L 294.447273 153.545477 
L 295.056 154.113496 
L 295.360364 154.121661 
L 295.969091 153.664895 
L 296.425636 153.517714 
L 297.490909 153.644298 
L 298.556182 153.302023 
L 299.317091 153.403429 
L 300.230182 153.539125 
L 301.447636 153.427253 
L 302.208545 153.71996 
L 302.665091 153.552223 
L 303.121636 153.332543 
L 303.426 153.368999 
L 304.339091 153.759425 
L 304.795636 153.49334 
L 305.252182 153.297905 
L 305.556545 153.400667 
L 306.165273 153.753666 
L 306.469636 153.710093 
L 307.230545 153.323685 
L 307.687091 153.481789 
L 308.143636 153.699404 
L 308.448 153.67474 
L 309.361091 153.359482 
L 310.426364 153.476378 
L 311.643818 153.085036 
L 312.709091 153.099793 
L 313.165636 153.327275 
L 313.774364 153.8977 
L 314.687455 155.121251 
L 315.144 155.641008 
L 315.448364 155.739467 
L 315.752727 155.585346 
L 316.209273 154.994754 
L 316.970182 153.542834 
L 318.187636 150.708224 
L 318.492 150.558286 
L 318.796364 150.726245 
L 319.557273 151.68522 
L 320.166 152.715877 
L 321.231273 154.800995 
L 321.535636 154.936081 
L 322.753091 154.765169 
L 323.209636 154.523242 
L 324.274909 153.584545 
L 326.709818 153.380852 
L 327.318545 153.412154 
L 328.079455 153.414396 
L 328.992545 153.5152 
L 330.057818 153.508474 
L 330.818727 153.537151 
L 331.731818 153.506366 
L 332.644909 153.531814 
L 333.405818 153.480421 
L 334.318909 153.585264 
L 335.384182 153.476829 
L 336.145091 153.631059 
L 337.362545 153.453589 
L 338.123455 153.635213 
L 339.340909 153.464307 
L 340.101818 153.684253 
L 341.471455 153.584472 
L 342.080182 153.681843 
L 343.297636 153.454627 
L 344.058545 153.539417 
L 345.123818 153.411969 
L 346.036909 153.558922 
L 347.102182 153.529368 
L 347.863091 153.613723 
L 349.080545 153.547276 
L 349.841455 153.562737 
L 350.754545 153.487401 
L 351.819818 153.525325 
L 352.732909 153.501203 
L 353.646 153.545892 
L 354.559091 153.507948 
L 355.472182 153.571509 
L 356.385273 153.506239 
L 357.298364 153.601441 
L 358.515818 153.511149 
L 359.276727 153.541325 
L 360.189818 153.391719 
L 361.407273 153.539193 
L 362.168182 153.49916 
L 363.233455 153.681636 
L 364.298727 153.534064 
L 365.211818 153.591291 
L 366.124909 153.420942 
L 367.342364 153.526143 
L 368.103273 153.449669 
L 369.320727 153.565628 
L 370.233818 153.509704 
L 371.146909 153.575586 
L 372.212182 153.49858 
L 373.277455 153.523756 
L 373.581818 153.492591 
L 373.581818 153.492591 
" style="fill:none;stroke:#1f77b4;stroke-linecap:square;stroke-width:1.5;"/>
   </g>
   <g id="patch_3">
    <path d="M 54 252 
L 54 34.56 
" style="fill:none;stroke:#000000;stroke-linecap:square;stroke-linejoin:miter;stroke-width:0.8;"/>
   </g>
   <g id="patch_4">
    <path d="M 388.8 252 
L 388.8 34.56 
" style="fill:none;stroke:#000000;stroke-linecap:square;stroke-linejoin:miter;stroke-width:0.8;"/>
   </g>
   <g id="patch_5">
    <path d="M 54 252 
L 388.8 252 
" style="fill:none;stroke:#000000;stroke-linecap:square;stroke-linejoin:miter;stroke-width:0.8;"/>
   </g>
   <g id="patch_6">
    <path d="M 54 34.56 
L 388.8 34.56 
" style="fill:none;stroke:#000000;stroke-linecap:square;stroke-linejoin:miter;stroke-width:0.8;"/>
   </g>
  </g>
 </g>
 <defs>
  <clipPath id="pd6873f1db7">
   <rect height="217.44" width="334.8" x="54" y="34.56"/>
  </clipPath>
 </defs>
</svg>
