<?xml version="1.0" encoding="utf-8" standalone="no"?>
<!DOCTYPE svg PUBLIC "-//W3C//DTD SVG 1.1//EN"
  "http://www.w3.org/Graphics/SVG/1.1/DTD/svg11.dtd">
<svg height="288pt" version="1.1" viewBox="0 0 432 288" width="432pt" xmlns="http://www.w3.org/2000/svg" xmlns:xlink="http://www.w3.org/1999/xlink">
 <metadata>
  <rdf:RDF xmlns:cc="http://creativecommons.org/ns#" xmlns:dc="http://purl.org/dc/elements/1.1/" xmlns:rdf="http://www.w3.org/1999/02/22-rdf-syntax-ns#">
   <cc:Work>
    <dc:type rdf:resource="http://purl.org/dc/dcmitype/StillImage"/>
    <dc:date>2022-04-22T21:35:36.308202</dc:date>
    <dc:format>image/svg+xml</dc:format>
    <dc:creator>
     <cc:Agent>
      <dc:title>Matplotlib v3.4.3, https://matplotlib.org/</dc:title>
     </cc:Agent>
    </dc:creator>
   </cc:Work>
  </rdf:RDF>
 </metadata>
 <defs>
  <style type="text/css">*{stroke-linecap:butt;stroke-linejoin:round;}</style>
 </defs>
 <g id="figure_1">
  <g id="patch_1">
   <path d="M 0 288 
L 432 288 
L 432 0 
L 0 0 
z
" style="fill:none;"/>
  </g>
  <g id="axes_1">
   <g id="patch_2">
    <path d="M 54 252 
L 388.8 252 
L 388.8 34.56 
L 54 34.56 
z
" style="fill:#ffffff;"/>
   </g>
   <g id="matplotlib.axis_1">
    <g id="xtick_1">
     <g id="line2d_1">
      <defs>
       <path d="M 0 0 
L 0 3.5 
" id="mf1a370d28f" style="stroke:#000000;stroke-width:0.8;"/>
      </defs>
      <g>
       <use style="stroke:#000000;stroke-width:0.8;" x="69.218182" xlink:href="#mf1a370d28f" y="252"/>
      </g>
     </g>
     <g id="text_1">
      <!-- 0 -->
      <g transform="translate(66.036932 266.598437)scale(0.1 -0.1)">
       <defs>
        <path d="M 2034 4250 
Q 1547 4250 1301 3770 
Q 1056 3291 1056 2328 
Q 1056 1369 1301 889 
Q 1547 409 2034 409 
Q 2525 409 2770 889 
Q 3016 1369 3016 2328 
Q 3016 3291 2770 3770 
Q 2525 4250 2034 4250 
z
M 2034 4750 
Q 2819 4750 3233 4129 
Q 3647 3509 3647 2328 
Q 3647 1150 3233 529 
Q 2819 -91 2034 -91 
Q 1250 -91 836 529 
Q 422 1150 422 2328 
Q 422 3509 836 4129 
Q 1250 4750 2034 4750 
z
" id="DejaVuSans-30" transform="scale(0.015625)"/>
       </defs>
       <use xlink:href="#DejaVuSans-30"/>
      </g>
     </g>
    </g>
    <g id="xtick_2">
     <g id="line2d_2">
      <g>
       <use style="stroke:#000000;stroke-width:0.8;" x="107.263636" xlink:href="#mf1a370d28f" y="252"/>
      </g>
     </g>
     <g id="text_2">
      <!-- 250 -->
      <g transform="translate(97.719886 266.598437)scale(0.1 -0.1)">
       <defs>
        <path d="M 1228 531 
L 3431 531 
L 3431 0 
L 469 0 
L 469 531 
Q 828 903 1448 1529 
Q 2069 2156 2228 2338 
Q 2531 2678 2651 2914 
Q 2772 3150 2772 3378 
Q 2772 3750 2511 3984 
Q 2250 4219 1831 4219 
Q 1534 4219 1204 4116 
Q 875 4013 500 3803 
L 500 4441 
Q 881 4594 1212 4672 
Q 1544 4750 1819 4750 
Q 2544 4750 2975 4387 
Q 3406 4025 3406 3419 
Q 3406 3131 3298 2873 
Q 3191 2616 2906 2266 
Q 2828 2175 2409 1742 
Q 1991 1309 1228 531 
z
" id="DejaVuSans-32" transform="scale(0.015625)"/>
        <path d="M 691 4666 
L 3169 4666 
L 3169 4134 
L 1269 4134 
L 1269 2991 
Q 1406 3038 1543 3061 
Q 1681 3084 1819 3084 
Q 2600 3084 3056 2656 
Q 3513 2228 3513 1497 
Q 3513 744 3044 326 
Q 2575 -91 1722 -91 
Q 1428 -91 1123 -41 
Q 819 9 494 109 
L 494 744 
Q 775 591 1075 516 
Q 1375 441 1709 441 
Q 2250 441 2565 725 
Q 2881 1009 2881 1497 
Q 2881 1984 2565 2268 
Q 2250 2553 1709 2553 
Q 1456 2553 1204 2497 
Q 953 2441 691 2322 
L 691 4666 
z
" id="DejaVuSans-35" transform="scale(0.015625)"/>
       </defs>
       <use xlink:href="#DejaVuSans-32"/>
       <use x="63.623047" xlink:href="#DejaVuSans-35"/>
       <use x="127.246094" xlink:href="#DejaVuSans-30"/>
      </g>
     </g>
    </g>
    <g id="xtick_3">
     <g id="line2d_3">
      <g>
       <use style="stroke:#000000;stroke-width:0.8;" x="145.309091" xlink:href="#mf1a370d28f" y="252"/>
      </g>
     </g>
     <g id="text_3">
      <!-- 500 -->
      <g transform="translate(135.765341 266.598437)scale(0.1 -0.1)">
       <use xlink:href="#DejaVuSans-35"/>
       <use x="63.623047" xlink:href="#DejaVuSans-30"/>
       <use x="127.246094" xlink:href="#DejaVuSans-30"/>
      </g>
     </g>
    </g>
    <g id="xtick_4">
     <g id="line2d_4">
      <g>
       <use style="stroke:#000000;stroke-width:0.8;" x="183.354545" xlink:href="#mf1a370d28f" y="252"/>
      </g>
     </g>
     <g id="text_4">
      <!-- 750 -->
      <g transform="translate(173.810795 266.598437)scale(0.1 -0.1)">
       <defs>
        <path d="M 525 4666 
L 3525 4666 
L 3525 4397 
L 1831 0 
L 1172 0 
L 2766 4134 
L 525 4134 
L 525 4666 
z
" id="DejaVuSans-37" transform="scale(0.015625)"/>
       </defs>
       <use xlink:href="#DejaVuSans-37"/>
       <use x="63.623047" xlink:href="#DejaVuSans-35"/>
       <use x="127.246094" xlink:href="#DejaVuSans-30"/>
      </g>
     </g>
    </g>
    <g id="xtick_5">
     <g id="line2d_5">
      <g>
       <use style="stroke:#000000;stroke-width:0.8;" x="221.4" xlink:href="#mf1a370d28f" y="252"/>
      </g>
     </g>
     <g id="text_5">
      <!-- 1000 -->
      <g transform="translate(208.675 266.598437)scale(0.1 -0.1)">
       <defs>
        <path d="M 794 531 
L 1825 531 
L 1825 4091 
L 703 3866 
L 703 4441 
L 1819 4666 
L 2450 4666 
L 2450 531 
L 3481 531 
L 3481 0 
L 794 0 
L 794 531 
z
" id="DejaVuSans-31" transform="scale(0.015625)"/>
       </defs>
       <use xlink:href="#DejaVuSans-31"/>
       <use x="63.623047" xlink:href="#DejaVuSans-30"/>
       <use x="127.246094" xlink:href="#DejaVuSans-30"/>
       <use x="190.869141" xlink:href="#DejaVuSans-30"/>
      </g>
     </g>
    </g>
    <g id="xtick_6">
     <g id="line2d_6">
      <g>
       <use style="stroke:#000000;stroke-width:0.8;" x="259.445455" xlink:href="#mf1a370d28f" y="252"/>
      </g>
     </g>
     <g id="text_6">
      <!-- 1250 -->
      <g transform="translate(246.720455 266.598437)scale(0.1 -0.1)">
       <use xlink:href="#DejaVuSans-31"/>
       <use x="63.623047" xlink:href="#DejaVuSans-32"/>
       <use x="127.246094" xlink:href="#DejaVuSans-35"/>
       <use x="190.869141" xlink:href="#DejaVuSans-30"/>
      </g>
     </g>
    </g>
    <g id="xtick_7">
     <g id="line2d_7">
      <g>
       <use style="stroke:#000000;stroke-width:0.8;" x="297.490909" xlink:href="#mf1a370d28f" y="252"/>
      </g>
     </g>
     <g id="text_7">
      <!-- 1500 -->
      <g transform="translate(284.765909 266.598437)scale(0.1 -0.1)">
       <use xlink:href="#DejaVuSans-31"/>
       <use x="63.623047" xlink:href="#DejaVuSans-35"/>
       <use x="127.246094" xlink:href="#DejaVuSans-30"/>
       <use x="190.869141" xlink:href="#DejaVuSans-30"/>
      </g>
     </g>
    </g>
    <g id="xtick_8">
     <g id="line2d_8">
      <g>
       <use style="stroke:#000000;stroke-width:0.8;" x="335.536364" xlink:href="#mf1a370d28f" y="252"/>
      </g>
     </g>
     <g id="text_8">
      <!-- 1750 -->
      <g transform="translate(322.811364 266.598437)scale(0.1 -0.1)">
       <use xlink:href="#DejaVuSans-31"/>
       <use x="63.623047" xlink:href="#DejaVuSans-37"/>
       <use x="127.246094" xlink:href="#DejaVuSans-35"/>
       <use x="190.869141" xlink:href="#DejaVuSans-30"/>
      </g>
     </g>
    </g>
    <g id="xtick_9">
     <g id="line2d_9">
      <g>
       <use style="stroke:#000000;stroke-width:0.8;" x="373.581818" xlink:href="#mf1a370d28f" y="252"/>
      </g>
     </g>
     <g id="text_9">
      <!-- 2000 -->
      <g transform="translate(360.856818 266.598437)scale(0.1 -0.1)">
       <use xlink:href="#DejaVuSans-32"/>
       <use x="63.623047" xlink:href="#DejaVuSans-30"/>
       <use x="127.246094" xlink:href="#DejaVuSans-30"/>
       <use x="190.869141" xlink:href="#DejaVuSans-30"/>
      </g>
     </g>
    </g>
   </g>
   <g id="matplotlib.axis_2">
    <g id="ytick_1">
     <g id="line2d_10">
      <defs>
       <path d="M 0 0 
L -3.5 0 
" id="m51fc2a22cb" style="stroke:#000000;stroke-width:0.8;"/>
      </defs>
      <g>
       <use style="stroke:#000000;stroke-width:0.8;" x="54" xlink:href="#m51fc2a22cb" y="245.434339"/>
      </g>
     </g>
     <g id="text_10">
      <!-- −0.75 -->
      <g transform="translate(16.354687 249.233557)scale(0.1 -0.1)">
       <defs>
        <path d="M 678 2272 
L 4684 2272 
L 4684 1741 
L 678 1741 
L 678 2272 
z
" id="DejaVuSans-2212" transform="scale(0.015625)"/>
        <path d="M 684 794 
L 1344 794 
L 1344 0 
L 684 0 
L 684 794 
z
" id="DejaVuSans-2e" transform="scale(0.015625)"/>
       </defs>
       <use xlink:href="#DejaVuSans-2212"/>
       <use x="83.789062" xlink:href="#DejaVuSans-30"/>
       <use x="147.412109" xlink:href="#DejaVuSans-2e"/>
       <use x="179.199219" xlink:href="#DejaVuSans-37"/>
       <use x="242.822266" xlink:href="#DejaVuSans-35"/>
      </g>
     </g>
    </g>
    <g id="ytick_2">
     <g id="line2d_11">
      <g>
       <use style="stroke:#000000;stroke-width:0.8;" x="54" xlink:href="#m51fc2a22cb" y="216.721381"/>
      </g>
     </g>
     <g id="text_11">
      <!-- −0.50 -->
      <g transform="translate(16.354687 220.5206)scale(0.1 -0.1)">
       <use xlink:href="#DejaVuSans-2212"/>
       <use x="83.789062" xlink:href="#DejaVuSans-30"/>
       <use x="147.412109" xlink:href="#DejaVuSans-2e"/>
       <use x="179.199219" xlink:href="#DejaVuSans-35"/>
       <use x="242.822266" xlink:href="#DejaVuSans-30"/>
      </g>
     </g>
    </g>
    <g id="ytick_3">
     <g id="line2d_12">
      <g>
       <use style="stroke:#000000;stroke-width:0.8;" x="54" xlink:href="#m51fc2a22cb" y="188.008424"/>
      </g>
     </g>
     <g id="text_12">
      <!-- −0.25 -->
      <g transform="translate(16.354687 191.807643)scale(0.1 -0.1)">
       <use xlink:href="#DejaVuSans-2212"/>
       <use x="83.789062" xlink:href="#DejaVuSans-30"/>
       <use x="147.412109" xlink:href="#DejaVuSans-2e"/>
       <use x="179.199219" xlink:href="#DejaVuSans-32"/>
       <use x="242.822266" xlink:href="#DejaVuSans-35"/>
      </g>
     </g>
    </g>
    <g id="ytick_4">
     <g id="line2d_13">
      <g>
       <use style="stroke:#000000;stroke-width:0.8;" x="54" xlink:href="#m51fc2a22cb" y="159.295466"/>
      </g>
     </g>
     <g id="text_13">
      <!-- 0.00 -->
      <g transform="translate(24.734375 163.094685)scale(0.1 -0.1)">
       <use xlink:href="#DejaVuSans-30"/>
       <use x="63.623047" xlink:href="#DejaVuSans-2e"/>
       <use x="95.410156" xlink:href="#DejaVuSans-30"/>
       <use x="159.033203" xlink:href="#DejaVuSans-30"/>
      </g>
     </g>
    </g>
    <g id="ytick_5">
     <g id="line2d_14">
      <g>
       <use style="stroke:#000000;stroke-width:0.8;" x="54" xlink:href="#m51fc2a22cb" y="130.582509"/>
      </g>
     </g>
     <g id="text_14">
      <!-- 0.25 -->
      <g transform="translate(24.734375 134.381728)scale(0.1 -0.1)">
       <use xlink:href="#DejaVuSans-30"/>
       <use x="63.623047" xlink:href="#DejaVuSans-2e"/>
       <use x="95.410156" xlink:href="#DejaVuSans-32"/>
       <use x="159.033203" xlink:href="#DejaVuSans-35"/>
      </g>
     </g>
    </g>
    <g id="ytick_6">
     <g id="line2d_15">
      <g>
       <use style="stroke:#000000;stroke-width:0.8;" x="54" xlink:href="#m51fc2a22cb" y="101.869551"/>
      </g>
     </g>
     <g id="text_15">
      <!-- 0.50 -->
      <g transform="translate(24.734375 105.66877)scale(0.1 -0.1)">
       <use xlink:href="#DejaVuSans-30"/>
       <use x="63.623047" xlink:href="#DejaVuSans-2e"/>
       <use x="95.410156" xlink:href="#DejaVuSans-35"/>
       <use x="159.033203" xlink:href="#DejaVuSans-30"/>
      </g>
     </g>
    </g>
    <g id="ytick_7">
     <g id="line2d_16">
      <g>
       <use style="stroke:#000000;stroke-width:0.8;" x="54" xlink:href="#m51fc2a22cb" y="73.156594"/>
      </g>
     </g>
     <g id="text_16">
      <!-- 0.75 -->
      <g transform="translate(24.734375 76.955813)scale(0.1 -0.1)">
       <use xlink:href="#DejaVuSans-30"/>
       <use x="63.623047" xlink:href="#DejaVuSans-2e"/>
       <use x="95.410156" xlink:href="#DejaVuSans-37"/>
       <use x="159.033203" xlink:href="#DejaVuSans-35"/>
      </g>
     </g>
    </g>
    <g id="ytick_8">
     <g id="line2d_17">
      <g>
       <use style="stroke:#000000;stroke-width:0.8;" x="54" xlink:href="#m51fc2a22cb" y="44.443636"/>
      </g>
     </g>
     <g id="text_17">
      <!-- 1.00 -->
      <g transform="translate(24.734375 48.242855)scale(0.1 -0.1)">
       <use xlink:href="#DejaVuSans-31"/>
       <use x="63.623047" xlink:href="#DejaVuSans-2e"/>
       <use x="95.410156" xlink:href="#DejaVuSans-30"/>
       <use x="159.033203" xlink:href="#DejaVuSans-30"/>
      </g>
     </g>
    </g>
   </g>
   <g id="line2d_18">
    <path clip-path="url(#pa1f292b5c2)" d="M 69.218182 159.295466 
L 230.530909 159.198186 
L 231.291818 158.989727 
L 231.900545 158.624184 
L 232.509273 157.983221 
L 233.118 157.020365 
L 234.639818 154.3604 
L 234.944182 154.24443 
L 235.248545 154.450183 
L 235.552909 155.045492 
L 236.009455 156.752136 
L 236.618182 160.457493 
L 238.14 170.874218 
L 238.444364 171.746991 
L 238.596545 171.912231 
L 238.748727 171.886348 
L 239.053091 171.25597 
L 239.357455 169.888999 
L 239.814 166.689065 
L 241.792364 150.7057 
L 242.248909 149.073646 
L 242.705455 148.287815 
L 243.162 148.04769 
L 243.618545 148.097204 
L 244.075091 148.407029 
L 244.379455 148.911971 
L 244.683818 149.889937 
L 244.988182 151.629901 
L 245.292545 154.466131 
L 245.749091 161.467798 
L 246.205636 172.310432 
L 246.966545 197.151743 
L 247.575273 216.113428 
L 247.879636 221.845807 
L 248.031818 223.16162 
L 248.184 223.234526 
L 248.336182 221.934774 
L 248.640545 214.855191 
L 248.944909 201.593183 
L 249.401455 171.174632 
L 250.923273 54.110309 
L 251.227636 45.494041 
L 251.379818 44.443636 
L 251.532 45.626129 
L 251.836364 54.500959 
L 252.292909 81.8704 
L 254.119091 219.811922 
L 254.423455 228.137473 
L 254.575636 230.049471 
L 254.727818 230.557046 
L 254.88 229.770358 
L 255.184364 224.862469 
L 255.640909 211.512353 
L 257.162727 160.690086 
L 257.619273 152.770268 
L 257.923636 149.953387 
L 258.228 148.697387 
L 258.380182 148.492893 
L 258.532364 148.480031 
L 258.836727 148.794626 
L 259.445455 149.890814 
L 259.902 151.130192 
L 260.510727 153.806995 
L 261.119455 156.545609 
L 261.576 157.63044 
L 262.032545 158.027993 
L 262.489091 158.398004 
L 263.25 159.190284 
L 263.554364 159.235773 
L 264.619636 158.960063 
L 265.532727 159.39325 
L 265.989273 159.187163 
L 266.445818 159.032756 
L 266.750182 159.137236 
L 267.663273 159.688869 
L 268.119818 159.818629 
L 268.424182 160.125615 
L 268.728545 160.768367 
L 269.185091 162.331037 
L 270.098182 166.576198 
L 271.011273 171.17601 
L 271.163455 171.51263 
L 271.315636 171.553477 
L 271.467818 171.232269 
L 271.772182 169.288449 
L 272.076545 165.382807 
L 272.533091 155.714158 
L 273.141818 136.812855 
L 274.054909 107.571926 
L 274.359273 102.829199 
L 274.511455 102.182677 
L 274.663636 102.845122 
L 274.968 108.334407 
L 275.272364 119.341834 
L 275.728909 144.689886 
L 277.098545 231.890048 
L 277.402909 240.439933 
L 277.555091 242.116364 
L 277.707273 242.017614 
L 277.859455 240.183048 
L 278.163818 231.712997 
L 278.620364 209.502855 
L 280.142182 124.453058 
L 280.446545 116.6748 
L 280.750909 113.277216 
L 280.903091 113.066259 
L 281.055273 113.722748 
L 281.359636 117.215409 
L 281.816182 126.341062 
L 283.185818 157.800777 
L 283.642364 163.202899 
L 283.946727 165.104268 
L 284.251091 166.028511 
L 284.555455 166.307121 
L 284.859818 166.192824 
L 285.316364 165.653768 
L 286.077273 164.387916 
L 286.533818 163.21566 
L 287.599091 159.984355 
L 287.903455 159.752528 
L 288.36 159.91471 
L 288.664364 159.960502 
L 288.968727 159.74683 
L 289.729636 158.870186 
L 290.034 158.881918 
L 290.947091 159.355947 
L 291.555818 159.044545 
L 291.860182 158.966005 
L 292.316727 159.138403 
L 293.077636 159.565059 
L 293.686364 159.61494 
L 295.512545 159.559398 
L 295.969091 159.517078 
L 297.034364 159.026923 
L 297.490909 159.251218 
L 297.947455 159.420327 
L 298.251818 159.317631 
L 298.860545 158.969112 
L 299.164909 159.025205 
L 300.078 159.501811 
L 300.534545 159.23859 
L 300.991091 159.048973 
L 301.295455 159.154135 
L 301.904182 159.500914 
L 302.208545 159.466687 
L 303.121636 159.138661 
L 304.186909 159.412202 
L 305.1 159.2148 
L 306.469636 159.307386 
L 309.513273 159.000475 
L 310.122 158.767587 
L 310.578545 158.861121 
L 311.339455 159.071013 
L 311.796 159.200818 
L 312.100364 159.4858 
L 313.317818 161.148639 
L 313.774364 161.141731 
L 314.383091 160.907723 
L 314.687455 160.628865 
L 314.991818 160.103872 
L 316.361455 156.975335 
L 316.818 156.782373 
L 317.274545 156.821031 
L 317.578909 156.99991 
L 317.883273 157.387015 
L 318.492 158.692521 
L 319.100727 159.826279 
L 319.557273 160.242258 
L 320.318182 160.613862 
L 320.774727 160.597946 
L 321.231273 160.302436 
L 321.992182 159.74702 
L 323.361818 159.215428 
L 324.274909 159.182998 
L 325.492364 159.127737 
L 326.405455 159.262977 
L 327.318545 159.20998 
L 328.231636 159.341055 
L 329.144727 159.208718 
L 330.21 159.358166 
L 330.970909 159.170997 
L 332.340545 159.312364 
L 332.949273 159.159248 
L 334.318909 159.314672 
L 334.927636 159.163569 
L 336.297273 159.301553 
L 336.906 159.181224 
L 338.275636 159.310357 
L 338.884364 159.258894 
L 340.101818 159.378046 
L 340.862727 159.310533 
L 341.775818 159.331261 
L 342.841091 159.216237 
L 343.754182 159.245682 
L 344.515091 159.218131 
L 345.732545 159.320305 
L 346.493455 159.296017 
L 347.406545 159.35417 
L 348.471818 159.265578 
L 349.384909 159.313023 
L 350.298 159.239338 
L 351.211091 159.348143 
L 352.276364 159.252069 
L 353.189455 159.360438 
L 354.102545 159.226809 
L 355.32 159.342127 
L 356.080909 159.232668 
L 357.146182 159.354518 
L 358.059273 159.169125 
L 359.276727 159.271809 
L 360.037636 159.204573 
L 361.255091 159.393915 
L 362.168182 159.331566 
L 363.081273 159.383808 
L 364.146545 159.249563 
L 365.211818 159.273003 
L 366.124909 159.249682 
L 367.038 159.302222 
L 368.103273 159.288681 
L 369.016364 159.303734 
L 369.929455 159.28936 
L 370.842545 159.326413 
L 371.907818 159.300318 
L 372.820909 159.322364 
L 373.581818 159.244039 
L 373.581818 159.244039 
" style="fill:none;stroke:#1f77b4;stroke-linecap:square;stroke-width:1.5;"/>
   </g>
   <g id="patch_3">
    <path d="M 54 252 
L 54 34.56 
" style="fill:none;stroke:#000000;stroke-linecap:square;stroke-linejoin:miter;stroke-width:0.8;"/>
   </g>
   <g id="patch_4">
    <path d="M 388.8 252 
L 388.8 34.56 
" style="fill:none;stroke:#000000;stroke-linecap:square;stroke-linejoin:miter;stroke-width:0.8;"/>
   </g>
   <g id="patch_5">
    <path d="M 54 252 
L 388.8 252 
" style="fill:none;stroke:#000000;stroke-linecap:square;stroke-linejoin:miter;stroke-width:0.8;"/>
   </g>
   <g id="patch_6">
    <path d="M 54 34.56 
L 388.8 34.56 
" style="fill:none;stroke:#000000;stroke-linecap:square;stroke-linejoin:miter;stroke-width:0.8;"/>
   </g>
  </g>
 </g>
 <defs>
  <clipPath id="pa1f292b5c2">
   <rect height="217.44" width="334.8" x="54" y="34.56"/>
  </clipPath>
 </defs>
</svg>
