<?xml version="1.0" encoding="utf-8" standalone="no"?>
<!DOCTYPE svg PUBLIC "-//W3C//DTD SVG 1.1//EN"
  "http://www.w3.org/Graphics/SVG/1.1/DTD/svg11.dtd">
<svg height="288pt" version="1.1" viewBox="0 0 432 288" width="432pt" xmlns="http://www.w3.org/2000/svg" xmlns:xlink="http://www.w3.org/1999/xlink">
 <metadata>
  <rdf:RDF xmlns:cc="http://creativecommons.org/ns#" xmlns:dc="http://purl.org/dc/elements/1.1/" xmlns:rdf="http://www.w3.org/1999/02/22-rdf-syntax-ns#">
   <cc:Work>
    <dc:type rdf:resource="http://purl.org/dc/dcmitype/StillImage"/>
    <dc:date>2022-04-22T21:35:58.914612</dc:date>
    <dc:format>image/svg+xml</dc:format>
    <dc:creator>
     <cc:Agent>
      <dc:title>Matplotlib v3.4.3, https://matplotlib.org/</dc:title>
     </cc:Agent>
    </dc:creator>
   </cc:Work>
  </rdf:RDF>
 </metadata>
 <defs>
  <style type="text/css">*{stroke-linecap:butt;stroke-linejoin:round;}</style>
 </defs>
 <g id="figure_1">
  <g id="patch_1">
   <path d="M 0 288 
L 432 288 
L 432 0 
L 0 0 
z
" style="fill:none;"/>
  </g>
  <g id="axes_1">
   <g id="patch_2">
    <path d="M 54 252 
L 388.8 252 
L 388.8 34.56 
L 54 34.56 
z
" style="fill:#ffffff;"/>
   </g>
   <g id="matplotlib.axis_1">
    <g id="xtick_1">
     <g id="line2d_1">
      <defs>
       <path d="M 0 0 
L 0 3.5 
" id="m9b3321aa20" style="stroke:#000000;stroke-width:0.8;"/>
      </defs>
      <g>
       <use style="stroke:#000000;stroke-width:0.8;" x="69.218182" xlink:href="#m9b3321aa20" y="252"/>
      </g>
     </g>
     <g id="text_1">
      <!-- 0 -->
      <g transform="translate(66.036932 266.598437)scale(0.1 -0.1)">
       <defs>
        <path d="M 2034 4250 
Q 1547 4250 1301 3770 
Q 1056 3291 1056 2328 
Q 1056 1369 1301 889 
Q 1547 409 2034 409 
Q 2525 409 2770 889 
Q 3016 1369 3016 2328 
Q 3016 3291 2770 3770 
Q 2525 4250 2034 4250 
z
M 2034 4750 
Q 2819 4750 3233 4129 
Q 3647 3509 3647 2328 
Q 3647 1150 3233 529 
Q 2819 -91 2034 -91 
Q 1250 -91 836 529 
Q 422 1150 422 2328 
Q 422 3509 836 4129 
Q 1250 4750 2034 4750 
z
" id="DejaVuSans-30" transform="scale(0.015625)"/>
       </defs>
       <use xlink:href="#DejaVuSans-30"/>
      </g>
     </g>
    </g>
    <g id="xtick_2">
     <g id="line2d_2">
      <g>
       <use style="stroke:#000000;stroke-width:0.8;" x="107.263636" xlink:href="#m9b3321aa20" y="252"/>
      </g>
     </g>
     <g id="text_2">
      <!-- 250 -->
      <g transform="translate(97.719886 266.598437)scale(0.1 -0.1)">
       <defs>
        <path d="M 1228 531 
L 3431 531 
L 3431 0 
L 469 0 
L 469 531 
Q 828 903 1448 1529 
Q 2069 2156 2228 2338 
Q 2531 2678 2651 2914 
Q 2772 3150 2772 3378 
Q 2772 3750 2511 3984 
Q 2250 4219 1831 4219 
Q 1534 4219 1204 4116 
Q 875 4013 500 3803 
L 500 4441 
Q 881 4594 1212 4672 
Q 1544 4750 1819 4750 
Q 2544 4750 2975 4387 
Q 3406 4025 3406 3419 
Q 3406 3131 3298 2873 
Q 3191 2616 2906 2266 
Q 2828 2175 2409 1742 
Q 1991 1309 1228 531 
z
" id="DejaVuSans-32" transform="scale(0.015625)"/>
        <path d="M 691 4666 
L 3169 4666 
L 3169 4134 
L 1269 4134 
L 1269 2991 
Q 1406 3038 1543 3061 
Q 1681 3084 1819 3084 
Q 2600 3084 3056 2656 
Q 3513 2228 3513 1497 
Q 3513 744 3044 326 
Q 2575 -91 1722 -91 
Q 1428 -91 1123 -41 
Q 819 9 494 109 
L 494 744 
Q 775 591 1075 516 
Q 1375 441 1709 441 
Q 2250 441 2565 725 
Q 2881 1009 2881 1497 
Q 2881 1984 2565 2268 
Q 2250 2553 1709 2553 
Q 1456 2553 1204 2497 
Q 953 2441 691 2322 
L 691 4666 
z
" id="DejaVuSans-35" transform="scale(0.015625)"/>
       </defs>
       <use xlink:href="#DejaVuSans-32"/>
       <use x="63.623047" xlink:href="#DejaVuSans-35"/>
       <use x="127.246094" xlink:href="#DejaVuSans-30"/>
      </g>
     </g>
    </g>
    <g id="xtick_3">
     <g id="line2d_3">
      <g>
       <use style="stroke:#000000;stroke-width:0.8;" x="145.309091" xlink:href="#m9b3321aa20" y="252"/>
      </g>
     </g>
     <g id="text_3">
      <!-- 500 -->
      <g transform="translate(135.765341 266.598437)scale(0.1 -0.1)">
       <use xlink:href="#DejaVuSans-35"/>
       <use x="63.623047" xlink:href="#DejaVuSans-30"/>
       <use x="127.246094" xlink:href="#DejaVuSans-30"/>
      </g>
     </g>
    </g>
    <g id="xtick_4">
     <g id="line2d_4">
      <g>
       <use style="stroke:#000000;stroke-width:0.8;" x="183.354545" xlink:href="#m9b3321aa20" y="252"/>
      </g>
     </g>
     <g id="text_4">
      <!-- 750 -->
      <g transform="translate(173.810795 266.598437)scale(0.1 -0.1)">
       <defs>
        <path d="M 525 4666 
L 3525 4666 
L 3525 4397 
L 1831 0 
L 1172 0 
L 2766 4134 
L 525 4134 
L 525 4666 
z
" id="DejaVuSans-37" transform="scale(0.015625)"/>
       </defs>
       <use xlink:href="#DejaVuSans-37"/>
       <use x="63.623047" xlink:href="#DejaVuSans-35"/>
       <use x="127.246094" xlink:href="#DejaVuSans-30"/>
      </g>
     </g>
    </g>
    <g id="xtick_5">
     <g id="line2d_5">
      <g>
       <use style="stroke:#000000;stroke-width:0.8;" x="221.4" xlink:href="#m9b3321aa20" y="252"/>
      </g>
     </g>
     <g id="text_5">
      <!-- 1000 -->
      <g transform="translate(208.675 266.598437)scale(0.1 -0.1)">
       <defs>
        <path d="M 794 531 
L 1825 531 
L 1825 4091 
L 703 3866 
L 703 4441 
L 1819 4666 
L 2450 4666 
L 2450 531 
L 3481 531 
L 3481 0 
L 794 0 
L 794 531 
z
" id="DejaVuSans-31" transform="scale(0.015625)"/>
       </defs>
       <use xlink:href="#DejaVuSans-31"/>
       <use x="63.623047" xlink:href="#DejaVuSans-30"/>
       <use x="127.246094" xlink:href="#DejaVuSans-30"/>
       <use x="190.869141" xlink:href="#DejaVuSans-30"/>
      </g>
     </g>
    </g>
    <g id="xtick_6">
     <g id="line2d_6">
      <g>
       <use style="stroke:#000000;stroke-width:0.8;" x="259.445455" xlink:href="#m9b3321aa20" y="252"/>
      </g>
     </g>
     <g id="text_6">
      <!-- 1250 -->
      <g transform="translate(246.720455 266.598437)scale(0.1 -0.1)">
       <use xlink:href="#DejaVuSans-31"/>
       <use x="63.623047" xlink:href="#DejaVuSans-32"/>
       <use x="127.246094" xlink:href="#DejaVuSans-35"/>
       <use x="190.869141" xlink:href="#DejaVuSans-30"/>
      </g>
     </g>
    </g>
    <g id="xtick_7">
     <g id="line2d_7">
      <g>
       <use style="stroke:#000000;stroke-width:0.8;" x="297.490909" xlink:href="#m9b3321aa20" y="252"/>
      </g>
     </g>
     <g id="text_7">
      <!-- 1500 -->
      <g transform="translate(284.765909 266.598437)scale(0.1 -0.1)">
       <use xlink:href="#DejaVuSans-31"/>
       <use x="63.623047" xlink:href="#DejaVuSans-35"/>
       <use x="127.246094" xlink:href="#DejaVuSans-30"/>
       <use x="190.869141" xlink:href="#DejaVuSans-30"/>
      </g>
     </g>
    </g>
    <g id="xtick_8">
     <g id="line2d_8">
      <g>
       <use style="stroke:#000000;stroke-width:0.8;" x="335.536364" xlink:href="#m9b3321aa20" y="252"/>
      </g>
     </g>
     <g id="text_8">
      <!-- 1750 -->
      <g transform="translate(322.811364 266.598437)scale(0.1 -0.1)">
       <use xlink:href="#DejaVuSans-31"/>
       <use x="63.623047" xlink:href="#DejaVuSans-37"/>
       <use x="127.246094" xlink:href="#DejaVuSans-35"/>
       <use x="190.869141" xlink:href="#DejaVuSans-30"/>
      </g>
     </g>
    </g>
    <g id="xtick_9">
     <g id="line2d_9">
      <g>
       <use style="stroke:#000000;stroke-width:0.8;" x="373.581818" xlink:href="#m9b3321aa20" y="252"/>
      </g>
     </g>
     <g id="text_9">
      <!-- 2000 -->
      <g transform="translate(360.856818 266.598437)scale(0.1 -0.1)">
       <use xlink:href="#DejaVuSans-32"/>
       <use x="63.623047" xlink:href="#DejaVuSans-30"/>
       <use x="127.246094" xlink:href="#DejaVuSans-30"/>
       <use x="190.869141" xlink:href="#DejaVuSans-30"/>
      </g>
     </g>
    </g>
   </g>
   <g id="matplotlib.axis_2">
    <g id="ytick_1">
     <g id="line2d_10">
      <defs>
       <path d="M 0 0 
L -3.5 0 
" id="m5b7703b734" style="stroke:#000000;stroke-width:0.8;"/>
      </defs>
      <g>
       <use style="stroke:#000000;stroke-width:0.8;" x="54" xlink:href="#m5b7703b734" y="250.238117"/>
      </g>
     </g>
     <g id="text_10">
      <!-- −0.75 -->
      <g transform="translate(16.354687 254.037335)scale(0.1 -0.1)">
       <defs>
        <path d="M 678 2272 
L 4684 2272 
L 4684 1741 
L 678 1741 
L 678 2272 
z
" id="DejaVuSans-2212" transform="scale(0.015625)"/>
        <path d="M 684 794 
L 1344 794 
L 1344 0 
L 684 0 
L 684 794 
z
" id="DejaVuSans-2e" transform="scale(0.015625)"/>
       </defs>
       <use xlink:href="#DejaVuSans-2212"/>
       <use x="83.789062" xlink:href="#DejaVuSans-30"/>
       <use x="147.412109" xlink:href="#DejaVuSans-2e"/>
       <use x="179.199219" xlink:href="#DejaVuSans-37"/>
       <use x="242.822266" xlink:href="#DejaVuSans-35"/>
      </g>
     </g>
    </g>
    <g id="ytick_2">
     <g id="line2d_11">
      <g>
       <use style="stroke:#000000;stroke-width:0.8;" x="54" xlink:href="#m5b7703b734" y="220.838905"/>
      </g>
     </g>
     <g id="text_11">
      <!-- −0.50 -->
      <g transform="translate(16.354687 224.638124)scale(0.1 -0.1)">
       <use xlink:href="#DejaVuSans-2212"/>
       <use x="83.789062" xlink:href="#DejaVuSans-30"/>
       <use x="147.412109" xlink:href="#DejaVuSans-2e"/>
       <use x="179.199219" xlink:href="#DejaVuSans-35"/>
       <use x="242.822266" xlink:href="#DejaVuSans-30"/>
      </g>
     </g>
    </g>
    <g id="ytick_3">
     <g id="line2d_12">
      <g>
       <use style="stroke:#000000;stroke-width:0.8;" x="54" xlink:href="#m5b7703b734" y="191.439694"/>
      </g>
     </g>
     <g id="text_12">
      <!-- −0.25 -->
      <g transform="translate(16.354687 195.238913)scale(0.1 -0.1)">
       <use xlink:href="#DejaVuSans-2212"/>
       <use x="83.789062" xlink:href="#DejaVuSans-30"/>
       <use x="147.412109" xlink:href="#DejaVuSans-2e"/>
       <use x="179.199219" xlink:href="#DejaVuSans-32"/>
       <use x="242.822266" xlink:href="#DejaVuSans-35"/>
      </g>
     </g>
    </g>
    <g id="ytick_4">
     <g id="line2d_13">
      <g>
       <use style="stroke:#000000;stroke-width:0.8;" x="54" xlink:href="#m5b7703b734" y="162.040482"/>
      </g>
     </g>
     <g id="text_13">
      <!-- 0.00 -->
      <g transform="translate(24.734375 165.839701)scale(0.1 -0.1)">
       <use xlink:href="#DejaVuSans-30"/>
       <use x="63.623047" xlink:href="#DejaVuSans-2e"/>
       <use x="95.410156" xlink:href="#DejaVuSans-30"/>
       <use x="159.033203" xlink:href="#DejaVuSans-30"/>
      </g>
     </g>
    </g>
    <g id="ytick_5">
     <g id="line2d_14">
      <g>
       <use style="stroke:#000000;stroke-width:0.8;" x="54" xlink:href="#m5b7703b734" y="132.641271"/>
      </g>
     </g>
     <g id="text_14">
      <!-- 0.25 -->
      <g transform="translate(24.734375 136.44049)scale(0.1 -0.1)">
       <use xlink:href="#DejaVuSans-30"/>
       <use x="63.623047" xlink:href="#DejaVuSans-2e"/>
       <use x="95.410156" xlink:href="#DejaVuSans-32"/>
       <use x="159.033203" xlink:href="#DejaVuSans-35"/>
      </g>
     </g>
    </g>
    <g id="ytick_6">
     <g id="line2d_15">
      <g>
       <use style="stroke:#000000;stroke-width:0.8;" x="54" xlink:href="#m5b7703b734" y="103.242059"/>
      </g>
     </g>
     <g id="text_15">
      <!-- 0.50 -->
      <g transform="translate(24.734375 107.041278)scale(0.1 -0.1)">
       <use xlink:href="#DejaVuSans-30"/>
       <use x="63.623047" xlink:href="#DejaVuSans-2e"/>
       <use x="95.410156" xlink:href="#DejaVuSans-35"/>
       <use x="159.033203" xlink:href="#DejaVuSans-30"/>
      </g>
     </g>
    </g>
    <g id="ytick_7">
     <g id="line2d_16">
      <g>
       <use style="stroke:#000000;stroke-width:0.8;" x="54" xlink:href="#m5b7703b734" y="73.842848"/>
      </g>
     </g>
     <g id="text_16">
      <!-- 0.75 -->
      <g transform="translate(24.734375 77.642067)scale(0.1 -0.1)">
       <use xlink:href="#DejaVuSans-30"/>
       <use x="63.623047" xlink:href="#DejaVuSans-2e"/>
       <use x="95.410156" xlink:href="#DejaVuSans-37"/>
       <use x="159.033203" xlink:href="#DejaVuSans-35"/>
      </g>
     </g>
    </g>
    <g id="ytick_8">
     <g id="line2d_17">
      <g>
       <use style="stroke:#000000;stroke-width:0.8;" x="54" xlink:href="#m5b7703b734" y="44.443636"/>
      </g>
     </g>
     <g id="text_17">
      <!-- 1.00 -->
      <g transform="translate(24.734375 48.242855)scale(0.1 -0.1)">
       <use xlink:href="#DejaVuSans-31"/>
       <use x="63.623047" xlink:href="#DejaVuSans-2e"/>
       <use x="95.410156" xlink:href="#DejaVuSans-30"/>
       <use x="159.033203" xlink:href="#DejaVuSans-30"/>
      </g>
     </g>
    </g>
   </g>
   <g id="line2d_18">
    <path clip-path="url(#p5e096ab07a)" d="M 69.218182 162.040482 
L 229.617818 161.931337 
L 230.378727 161.702183 
L 230.987455 161.305652 
L 231.596182 160.619022 
L 232.357091 159.305028 
L 233.574545 157.063037 
L 233.878909 156.850743 
L 234.183273 156.941559 
L 234.487636 157.41124 
L 234.792 158.313768 
L 235.248545 160.510664 
L 235.857273 164.753192 
L 236.922545 172.640565 
L 237.379091 174.55956 
L 237.683455 174.958064 
L 237.835636 174.863848 
L 238.14 174.082594 
L 238.444364 172.554758 
L 238.900909 169.118675 
L 240.727091 153.332495 
L 241.183636 151.233743 
L 241.640182 150.021297 
L 242.096727 149.467483 
L 242.401091 149.377601 
L 242.705455 149.516882 
L 243.009818 149.971999 
L 243.314182 150.916157 
L 243.618545 152.605158 
L 243.922909 155.353001 
L 244.379455 162.156182 
L 244.836 172.816429 
L 245.596909 197.977702 
L 246.357818 222.24986 
L 246.662182 227.275177 
L 246.814364 228.074814 
L 246.966545 227.529545 
L 247.118727 225.519406 
L 247.423091 216.800879 
L 247.879636 191.9862 
L 248.488364 142.124934 
L 249.401455 66.512664 
L 249.858 46.808559 
L 250.010182 44.485082 
L 250.162364 44.443636 
L 250.314545 46.685938 
L 250.618909 57.713685 
L 251.075455 87.96926 
L 252.749455 220.54034 
L 253.053818 230.784224 
L 253.358182 234.858916 
L 253.510364 234.762516 
L 253.662545 233.400788 
L 253.966909 227.47387 
L 254.423455 213.01672 
L 255.793091 165.496221 
L 256.249636 156.534562 
L 256.706182 152.125476 
L 257.010545 151.13205 
L 257.162727 151.019388 
L 257.467091 151.232585 
L 258.075818 152.28209 
L 258.532364 153.436195 
L 258.988909 155.270545 
L 259.902 159.467765 
L 260.358545 160.430839 
L 262.032545 161.962283 
L 262.336909 161.959954 
L 263.25 161.658985 
L 264.315273 162.130174 
L 265.380545 161.81178 
L 266.445818 162.314848 
L 266.902364 162.327009 
L 267.206727 162.555041 
L 267.511091 163.089735 
L 268.119818 164.892552 
L 268.880727 167.966813 
L 270.098182 173.926366 
L 270.250364 174.013653 
L 270.402545 173.763495 
L 270.706909 172.084703 
L 271.011273 168.64518 
L 271.467818 159.926034 
L 272.076545 142.074192 
L 272.989636 112.966921 
L 273.294 107.796055 
L 273.446182 106.810671 
L 273.598364 107.043475 
L 273.750545 108.566776 
L 274.054909 115.598899 
L 274.511455 135.614164 
L 275.272364 185.495762 
L 276.033273 230.130479 
L 276.337636 239.422262 
L 276.489818 241.614251 
L 276.642 242.116364 
L 276.794182 240.951436 
L 277.098545 233.931092 
L 277.555091 213.747287 
L 279.076909 130.457258 
L 279.533455 119.720823 
L 279.837818 117.615357 
L 279.99 117.886085 
L 280.294364 120.645545 
L 280.750909 128.952901 
L 282.272727 161.713277 
L 282.729273 166.296412 
L 283.033636 167.902704 
L 283.338 168.63243 
L 283.642364 168.738416 
L 283.946727 168.479171 
L 285.164182 166.824195 
L 285.620727 165.535018 
L 286.381636 163.035186 
L 286.686 162.620802 
L 286.990364 162.600383 
L 287.446909 162.75884 
L 287.751273 162.648213 
L 288.816545 161.755408 
L 289.273091 161.928883 
L 289.729636 162.06235 
L 290.186182 161.94505 
L 290.794909 161.761553 
L 291.403636 161.843811 
L 293.077636 162.317986 
L 293.838545 162.15671 
L 294.903818 162.394699 
L 295.969091 161.776291 
L 297.034364 162.125598 
L 297.795273 161.684078 
L 298.099636 161.775627 
L 298.860545 162.22158 
L 299.317091 162.05028 
L 299.773636 161.841138 
L 300.230182 161.953065 
L 300.838909 162.198583 
L 301.295455 162.095634 
L 301.904182 161.947755 
L 303.730364 162.036572 
L 306.621818 161.954612 
L 307.078364 161.905599 
L 307.991455 162.039609 
L 308.600182 161.688504 
L 309.056727 161.541369 
L 310.882909 161.820019 
L 311.339455 162.41842 
L 311.948182 163.349685 
L 312.404727 163.652894 
L 313.317818 163.829403 
L 313.622182 163.687767 
L 313.926545 163.268287 
L 314.535273 161.766701 
L 315.144 160.431582 
L 315.600545 159.876973 
L 316.057091 159.564958 
L 316.361455 159.524015 
L 316.665818 159.700982 
L 317.122364 160.398211 
L 318.187636 162.331681 
L 318.948545 163.122823 
L 319.405091 163.337558 
L 319.861636 163.257639 
L 321.535636 162.309864 
L 322.144364 162.021591 
L 322.905273 162.011009 
L 323.514 161.882545 
L 324.122727 161.800104 
L 325.340182 161.980705 
L 325.948909 161.885978 
L 327.318545 162.030507 
L 327.927273 161.910337 
L 329.144727 162.102748 
L 329.905636 161.905589 
L 331.123091 162.112142 
L 331.884 161.914677 
L 333.101455 162.104105 
L 333.862364 161.939497 
L 335.079818 162.073649 
L 335.840727 161.961568 
L 337.058182 162.039789 
L 337.819091 162.011461 
L 338.884364 162.094814 
L 339.797455 162.094944 
L 340.558364 162.120248 
L 341.623636 162.004645 
L 342.536727 162.001964 
L 343.297636 161.92551 
L 344.515091 162.035661 
L 345.276 162.003189 
L 346.341273 162.096007 
L 347.254364 162.00478 
L 348.167455 162.097651 
L 349.232727 161.986937 
L 350.145818 162.099539 
L 351.058909 161.961222 
L 352.124182 162.110295 
L 353.037273 161.964113 
L 354.254727 162.087968 
L 355.015636 161.977361 
L 356.233091 162.075817 
L 356.994 161.937754 
L 358.363636 161.978907 
L 358.972364 161.938991 
L 360.342 162.089737 
L 361.102909 162.089998 
L 362.016 162.130668 
L 363.081273 162.029574 
L 364.146545 162.007039 
L 364.907455 161.987586 
L 365.972727 162.028531 
L 366.885818 162.024073 
L 367.798909 162.062514 
L 368.712 162.014143 
L 369.777273 162.06765 
L 370.690364 162.007967 
L 371.755636 162.068879 
L 372.668727 162.002952 
L 373.581818 162.092006 
L 373.581818 162.092006 
" style="fill:none;stroke:#1f77b4;stroke-linecap:square;stroke-width:1.5;"/>
   </g>
   <g id="patch_3">
    <path d="M 54 252 
L 54 34.56 
" style="fill:none;stroke:#000000;stroke-linecap:square;stroke-linejoin:miter;stroke-width:0.8;"/>
   </g>
   <g id="patch_4">
    <path d="M 388.8 252 
L 388.8 34.56 
" style="fill:none;stroke:#000000;stroke-linecap:square;stroke-linejoin:miter;stroke-width:0.8;"/>
   </g>
   <g id="patch_5">
    <path d="M 54 252 
L 388.8 252 
" style="fill:none;stroke:#000000;stroke-linecap:square;stroke-linejoin:miter;stroke-width:0.8;"/>
   </g>
   <g id="patch_6">
    <path d="M 54 34.56 
L 388.8 34.56 
" style="fill:none;stroke:#000000;stroke-linecap:square;stroke-linejoin:miter;stroke-width:0.8;"/>
   </g>
  </g>
 </g>
 <defs>
  <clipPath id="p5e096ab07a">
   <rect height="217.44" width="334.8" x="54" y="34.56"/>
  </clipPath>
 </defs>
</svg>
