<?xml version="1.0" encoding="utf-8" standalone="no"?>
<!DOCTYPE svg PUBLIC "-//W3C//DTD SVG 1.1//EN"
  "http://www.w3.org/Graphics/SVG/1.1/DTD/svg11.dtd">
<svg height="288pt" version="1.1" viewBox="0 0 432 288" width="432pt" xmlns="http://www.w3.org/2000/svg" xmlns:xlink="http://www.w3.org/1999/xlink">
 <metadata>
  <rdf:RDF xmlns:cc="http://creativecommons.org/ns#" xmlns:dc="http://purl.org/dc/elements/1.1/" xmlns:rdf="http://www.w3.org/1999/02/22-rdf-syntax-ns#">
   <cc:Work>
    <dc:type rdf:resource="http://purl.org/dc/dcmitype/StillImage"/>
    <dc:date>2022-04-22T21:35:58.983269</dc:date>
    <dc:format>image/svg+xml</dc:format>
    <dc:creator>
     <cc:Agent>
      <dc:title>Matplotlib v3.4.3, https://matplotlib.org/</dc:title>
     </cc:Agent>
    </dc:creator>
   </cc:Work>
  </rdf:RDF>
 </metadata>
 <defs>
  <style type="text/css">*{stroke-linecap:butt;stroke-linejoin:round;}</style>
 </defs>
 <g id="figure_1">
  <g id="patch_1">
   <path d="M 0 288 
L 432 288 
L 432 0 
L 0 0 
z
" style="fill:none;"/>
  </g>
  <g id="axes_1">
   <g id="patch_2">
    <path d="M 54 252 
L 388.8 252 
L 388.8 34.56 
L 54 34.56 
z
" style="fill:#ffffff;"/>
   </g>
   <g id="matplotlib.axis_1">
    <g id="xtick_1">
     <g id="line2d_1">
      <defs>
       <path d="M 0 0 
L 0 3.5 
" id="mc20a65ad40" style="stroke:#000000;stroke-width:0.8;"/>
      </defs>
      <g>
       <use style="stroke:#000000;stroke-width:0.8;" x="69.218182" xlink:href="#mc20a65ad40" y="252"/>
      </g>
     </g>
     <g id="text_1">
      <!-- 0 -->
      <g transform="translate(66.036932 266.598437)scale(0.1 -0.1)">
       <defs>
        <path d="M 2034 4250 
Q 1547 4250 1301 3770 
Q 1056 3291 1056 2328 
Q 1056 1369 1301 889 
Q 1547 409 2034 409 
Q 2525 409 2770 889 
Q 3016 1369 3016 2328 
Q 3016 3291 2770 3770 
Q 2525 4250 2034 4250 
z
M 2034 4750 
Q 2819 4750 3233 4129 
Q 3647 3509 3647 2328 
Q 3647 1150 3233 529 
Q 2819 -91 2034 -91 
Q 1250 -91 836 529 
Q 422 1150 422 2328 
Q 422 3509 836 4129 
Q 1250 4750 2034 4750 
z
" id="DejaVuSans-30" transform="scale(0.015625)"/>
       </defs>
       <use xlink:href="#DejaVuSans-30"/>
      </g>
     </g>
    </g>
    <g id="xtick_2">
     <g id="line2d_2">
      <g>
       <use style="stroke:#000000;stroke-width:0.8;" x="107.263636" xlink:href="#mc20a65ad40" y="252"/>
      </g>
     </g>
     <g id="text_2">
      <!-- 250 -->
      <g transform="translate(97.719886 266.598437)scale(0.1 -0.1)">
       <defs>
        <path d="M 1228 531 
L 3431 531 
L 3431 0 
L 469 0 
L 469 531 
Q 828 903 1448 1529 
Q 2069 2156 2228 2338 
Q 2531 2678 2651 2914 
Q 2772 3150 2772 3378 
Q 2772 3750 2511 3984 
Q 2250 4219 1831 4219 
Q 1534 4219 1204 4116 
Q 875 4013 500 3803 
L 500 4441 
Q 881 4594 1212 4672 
Q 1544 4750 1819 4750 
Q 2544 4750 2975 4387 
Q 3406 4025 3406 3419 
Q 3406 3131 3298 2873 
Q 3191 2616 2906 2266 
Q 2828 2175 2409 1742 
Q 1991 1309 1228 531 
z
" id="DejaVuSans-32" transform="scale(0.015625)"/>
        <path d="M 691 4666 
L 3169 4666 
L 3169 4134 
L 1269 4134 
L 1269 2991 
Q 1406 3038 1543 3061 
Q 1681 3084 1819 3084 
Q 2600 3084 3056 2656 
Q 3513 2228 3513 1497 
Q 3513 744 3044 326 
Q 2575 -91 1722 -91 
Q 1428 -91 1123 -41 
Q 819 9 494 109 
L 494 744 
Q 775 591 1075 516 
Q 1375 441 1709 441 
Q 2250 441 2565 725 
Q 2881 1009 2881 1497 
Q 2881 1984 2565 2268 
Q 2250 2553 1709 2553 
Q 1456 2553 1204 2497 
Q 953 2441 691 2322 
L 691 4666 
z
" id="DejaVuSans-35" transform="scale(0.015625)"/>
       </defs>
       <use xlink:href="#DejaVuSans-32"/>
       <use x="63.623047" xlink:href="#DejaVuSans-35"/>
       <use x="127.246094" xlink:href="#DejaVuSans-30"/>
      </g>
     </g>
    </g>
    <g id="xtick_3">
     <g id="line2d_3">
      <g>
       <use style="stroke:#000000;stroke-width:0.8;" x="145.309091" xlink:href="#mc20a65ad40" y="252"/>
      </g>
     </g>
     <g id="text_3">
      <!-- 500 -->
      <g transform="translate(135.765341 266.598437)scale(0.1 -0.1)">
       <use xlink:href="#DejaVuSans-35"/>
       <use x="63.623047" xlink:href="#DejaVuSans-30"/>
       <use x="127.246094" xlink:href="#DejaVuSans-30"/>
      </g>
     </g>
    </g>
    <g id="xtick_4">
     <g id="line2d_4">
      <g>
       <use style="stroke:#000000;stroke-width:0.8;" x="183.354545" xlink:href="#mc20a65ad40" y="252"/>
      </g>
     </g>
     <g id="text_4">
      <!-- 750 -->
      <g transform="translate(173.810795 266.598437)scale(0.1 -0.1)">
       <defs>
        <path d="M 525 4666 
L 3525 4666 
L 3525 4397 
L 1831 0 
L 1172 0 
L 2766 4134 
L 525 4134 
L 525 4666 
z
" id="DejaVuSans-37" transform="scale(0.015625)"/>
       </defs>
       <use xlink:href="#DejaVuSans-37"/>
       <use x="63.623047" xlink:href="#DejaVuSans-35"/>
       <use x="127.246094" xlink:href="#DejaVuSans-30"/>
      </g>
     </g>
    </g>
    <g id="xtick_5">
     <g id="line2d_5">
      <g>
       <use style="stroke:#000000;stroke-width:0.8;" x="221.4" xlink:href="#mc20a65ad40" y="252"/>
      </g>
     </g>
     <g id="text_5">
      <!-- 1000 -->
      <g transform="translate(208.675 266.598437)scale(0.1 -0.1)">
       <defs>
        <path d="M 794 531 
L 1825 531 
L 1825 4091 
L 703 3866 
L 703 4441 
L 1819 4666 
L 2450 4666 
L 2450 531 
L 3481 531 
L 3481 0 
L 794 0 
L 794 531 
z
" id="DejaVuSans-31" transform="scale(0.015625)"/>
       </defs>
       <use xlink:href="#DejaVuSans-31"/>
       <use x="63.623047" xlink:href="#DejaVuSans-30"/>
       <use x="127.246094" xlink:href="#DejaVuSans-30"/>
       <use x="190.869141" xlink:href="#DejaVuSans-30"/>
      </g>
     </g>
    </g>
    <g id="xtick_6">
     <g id="line2d_6">
      <g>
       <use style="stroke:#000000;stroke-width:0.8;" x="259.445455" xlink:href="#mc20a65ad40" y="252"/>
      </g>
     </g>
     <g id="text_6">
      <!-- 1250 -->
      <g transform="translate(246.720455 266.598437)scale(0.1 -0.1)">
       <use xlink:href="#DejaVuSans-31"/>
       <use x="63.623047" xlink:href="#DejaVuSans-32"/>
       <use x="127.246094" xlink:href="#DejaVuSans-35"/>
       <use x="190.869141" xlink:href="#DejaVuSans-30"/>
      </g>
     </g>
    </g>
    <g id="xtick_7">
     <g id="line2d_7">
      <g>
       <use style="stroke:#000000;stroke-width:0.8;" x="297.490909" xlink:href="#mc20a65ad40" y="252"/>
      </g>
     </g>
     <g id="text_7">
      <!-- 1500 -->
      <g transform="translate(284.765909 266.598437)scale(0.1 -0.1)">
       <use xlink:href="#DejaVuSans-31"/>
       <use x="63.623047" xlink:href="#DejaVuSans-35"/>
       <use x="127.246094" xlink:href="#DejaVuSans-30"/>
       <use x="190.869141" xlink:href="#DejaVuSans-30"/>
      </g>
     </g>
    </g>
    <g id="xtick_8">
     <g id="line2d_8">
      <g>
       <use style="stroke:#000000;stroke-width:0.8;" x="335.536364" xlink:href="#mc20a65ad40" y="252"/>
      </g>
     </g>
     <g id="text_8">
      <!-- 1750 -->
      <g transform="translate(322.811364 266.598437)scale(0.1 -0.1)">
       <use xlink:href="#DejaVuSans-31"/>
       <use x="63.623047" xlink:href="#DejaVuSans-37"/>
       <use x="127.246094" xlink:href="#DejaVuSans-35"/>
       <use x="190.869141" xlink:href="#DejaVuSans-30"/>
      </g>
     </g>
    </g>
    <g id="xtick_9">
     <g id="line2d_9">
      <g>
       <use style="stroke:#000000;stroke-width:0.8;" x="373.581818" xlink:href="#mc20a65ad40" y="252"/>
      </g>
     </g>
     <g id="text_9">
      <!-- 2000 -->
      <g transform="translate(360.856818 266.598437)scale(0.1 -0.1)">
       <use xlink:href="#DejaVuSans-32"/>
       <use x="63.623047" xlink:href="#DejaVuSans-30"/>
       <use x="127.246094" xlink:href="#DejaVuSans-30"/>
       <use x="190.869141" xlink:href="#DejaVuSans-30"/>
      </g>
     </g>
    </g>
   </g>
   <g id="matplotlib.axis_2">
    <g id="ytick_1">
     <g id="line2d_10">
      <defs>
       <path d="M 0 0 
L -3.5 0 
" id="m405550c658" style="stroke:#000000;stroke-width:0.8;"/>
      </defs>
      <g>
       <use style="stroke:#000000;stroke-width:0.8;" x="54" xlink:href="#m405550c658" y="247.779007"/>
      </g>
     </g>
     <g id="text_10">
      <!-- −0.75 -->
      <g transform="translate(16.354687 251.578226)scale(0.1 -0.1)">
       <defs>
        <path d="M 678 2272 
L 4684 2272 
L 4684 1741 
L 678 1741 
L 678 2272 
z
" id="DejaVuSans-2212" transform="scale(0.015625)"/>
        <path d="M 684 794 
L 1344 794 
L 1344 0 
L 684 0 
L 684 794 
z
" id="DejaVuSans-2e" transform="scale(0.015625)"/>
       </defs>
       <use xlink:href="#DejaVuSans-2212"/>
       <use x="83.789062" xlink:href="#DejaVuSans-30"/>
       <use x="147.412109" xlink:href="#DejaVuSans-2e"/>
       <use x="179.199219" xlink:href="#DejaVuSans-37"/>
       <use x="242.822266" xlink:href="#DejaVuSans-35"/>
      </g>
     </g>
    </g>
    <g id="ytick_2">
     <g id="line2d_11">
      <g>
       <use style="stroke:#000000;stroke-width:0.8;" x="54" xlink:href="#m405550c658" y="218.731097"/>
      </g>
     </g>
     <g id="text_11">
      <!-- −0.50 -->
      <g transform="translate(16.354687 222.530316)scale(0.1 -0.1)">
       <use xlink:href="#DejaVuSans-2212"/>
       <use x="83.789062" xlink:href="#DejaVuSans-30"/>
       <use x="147.412109" xlink:href="#DejaVuSans-2e"/>
       <use x="179.199219" xlink:href="#DejaVuSans-35"/>
       <use x="242.822266" xlink:href="#DejaVuSans-30"/>
      </g>
     </g>
    </g>
    <g id="ytick_3">
     <g id="line2d_12">
      <g>
       <use style="stroke:#000000;stroke-width:0.8;" x="54" xlink:href="#m405550c658" y="189.683187"/>
      </g>
     </g>
     <g id="text_12">
      <!-- −0.25 -->
      <g transform="translate(16.354687 193.482406)scale(0.1 -0.1)">
       <use xlink:href="#DejaVuSans-2212"/>
       <use x="83.789062" xlink:href="#DejaVuSans-30"/>
       <use x="147.412109" xlink:href="#DejaVuSans-2e"/>
       <use x="179.199219" xlink:href="#DejaVuSans-32"/>
       <use x="242.822266" xlink:href="#DejaVuSans-35"/>
      </g>
     </g>
    </g>
    <g id="ytick_4">
     <g id="line2d_13">
      <g>
       <use style="stroke:#000000;stroke-width:0.8;" x="54" xlink:href="#m405550c658" y="160.635277"/>
      </g>
     </g>
     <g id="text_13">
      <!-- 0.00 -->
      <g transform="translate(24.734375 164.434496)scale(0.1 -0.1)">
       <use xlink:href="#DejaVuSans-30"/>
       <use x="63.623047" xlink:href="#DejaVuSans-2e"/>
       <use x="95.410156" xlink:href="#DejaVuSans-30"/>
       <use x="159.033203" xlink:href="#DejaVuSans-30"/>
      </g>
     </g>
    </g>
    <g id="ytick_5">
     <g id="line2d_14">
      <g>
       <use style="stroke:#000000;stroke-width:0.8;" x="54" xlink:href="#m405550c658" y="131.587367"/>
      </g>
     </g>
     <g id="text_14">
      <!-- 0.25 -->
      <g transform="translate(24.734375 135.386586)scale(0.1 -0.1)">
       <use xlink:href="#DejaVuSans-30"/>
       <use x="63.623047" xlink:href="#DejaVuSans-2e"/>
       <use x="95.410156" xlink:href="#DejaVuSans-32"/>
       <use x="159.033203" xlink:href="#DejaVuSans-35"/>
      </g>
     </g>
    </g>
    <g id="ytick_6">
     <g id="line2d_15">
      <g>
       <use style="stroke:#000000;stroke-width:0.8;" x="54" xlink:href="#m405550c658" y="102.539457"/>
      </g>
     </g>
     <g id="text_15">
      <!-- 0.50 -->
      <g transform="translate(24.734375 106.338675)scale(0.1 -0.1)">
       <use xlink:href="#DejaVuSans-30"/>
       <use x="63.623047" xlink:href="#DejaVuSans-2e"/>
       <use x="95.410156" xlink:href="#DejaVuSans-35"/>
       <use x="159.033203" xlink:href="#DejaVuSans-30"/>
      </g>
     </g>
    </g>
    <g id="ytick_7">
     <g id="line2d_16">
      <g>
       <use style="stroke:#000000;stroke-width:0.8;" x="54" xlink:href="#m405550c658" y="73.491547"/>
      </g>
     </g>
     <g id="text_16">
      <!-- 0.75 -->
      <g transform="translate(24.734375 77.290765)scale(0.1 -0.1)">
       <use xlink:href="#DejaVuSans-30"/>
       <use x="63.623047" xlink:href="#DejaVuSans-2e"/>
       <use x="95.410156" xlink:href="#DejaVuSans-37"/>
       <use x="159.033203" xlink:href="#DejaVuSans-35"/>
      </g>
     </g>
    </g>
    <g id="ytick_8">
     <g id="line2d_17">
      <g>
       <use style="stroke:#000000;stroke-width:0.8;" x="54" xlink:href="#m405550c658" y="44.443636"/>
      </g>
     </g>
     <g id="text_17">
      <!-- 1.00 -->
      <g transform="translate(24.734375 48.242855)scale(0.1 -0.1)">
       <use xlink:href="#DejaVuSans-31"/>
       <use x="63.623047" xlink:href="#DejaVuSans-2e"/>
       <use x="95.410156" xlink:href="#DejaVuSans-30"/>
       <use x="159.033203" xlink:href="#DejaVuSans-30"/>
      </g>
     </g>
    </g>
   </g>
   <g id="line2d_18">
    <path clip-path="url(#p9832958f19)" d="M 69.218182 160.635277 
L 230.074364 160.532302 
L 230.835273 160.313868 
L 231.444 159.933385 
L 232.052727 159.270405 
L 232.813636 157.990691 
L 234.031091 155.759741 
L 234.335455 155.529907 
L 234.639818 155.59235 
L 234.944182 156.022881 
L 235.248545 156.876867 
L 235.705091 158.990146 
L 236.313818 163.127033 
L 237.531273 171.774168 
L 237.835636 172.938134 
L 238.14 173.395412 
L 238.292182 173.335923 
L 238.596545 172.631748 
L 238.900909 171.186664 
L 239.357455 167.873053 
L 241.183636 152.399835 
L 241.640182 150.377527 
L 242.096727 149.257039 
L 242.553273 148.779615 
L 243.009818 148.711651 
L 243.314182 148.870813 
L 243.618545 149.279101 
L 243.922909 150.106818 
L 244.227273 151.608357 
L 244.531636 154.09948 
L 244.988182 160.405822 
L 245.444727 170.49184 
L 246.053455 189.48446 
L 246.966545 219.116879 
L 247.270909 224.503324 
L 247.423091 225.565996 
L 247.575273 225.335375 
L 247.727455 223.686454 
L 248.031818 215.800286 
L 248.488364 192.35224 
L 249.097091 143.993025 
L 250.010182 68.528017 
L 250.466727 47.784964 
L 250.618909 44.99327 
L 250.771091 44.443636 
L 250.923273 46.152235 
L 251.227636 56.096067 
L 251.684182 84.89866 
L 253.358182 216.895636 
L 253.662545 227.710337 
L 253.966909 232.398991 
L 254.119091 232.603246 
L 254.271273 231.527956 
L 254.575636 226.109279 
L 255.032182 212.206065 
L 256.401818 164.885436 
L 256.858364 155.67284 
L 257.314909 151.004885 
L 257.619273 149.883912 
L 257.771455 149.72698 
L 257.923636 149.74839 
L 258.228 150.099071 
L 258.836727 151.22439 
L 259.293273 152.519518 
L 259.902 155.272834 
L 260.510727 157.978817 
L 260.967273 159.001855 
L 261.423818 159.377198 
L 261.880364 159.765632 
L 262.641273 160.545613 
L 262.945636 160.567047 
L 263.858727 160.251628 
L 264.315273 160.518163 
L 264.771818 160.739159 
L 265.076182 160.678984 
L 265.837091 160.366218 
L 266.293636 160.588492 
L 266.902364 160.941561 
L 267.663273 161.127864 
L 267.967636 161.545916 
L 268.424182 162.772813 
L 269.185091 165.763302 
L 269.946 169.742848 
L 270.554727 172.543859 
L 270.706909 172.764441 
L 270.859091 172.662384 
L 271.011273 172.182192 
L 271.315636 169.920279 
L 271.62 165.756531 
L 272.076545 155.844454 
L 272.685273 136.812365 
L 273.598364 108.648782 
L 273.902727 104.739572 
L 274.054909 104.545189 
L 274.207091 105.655495 
L 274.511455 111.954699 
L 274.968 131.199892 
L 275.576727 170.214149 
L 276.489818 227.745734 
L 276.794182 238.261506 
L 277.098545 242.116364 
L 277.250727 241.456136 
L 277.555091 235.238499 
L 278.011636 215.714433 
L 279.685636 125.011588 
L 279.99 118.119421 
L 280.294364 115.414771 
L 280.446545 115.461986 
L 280.598727 116.321307 
L 280.903091 120.085651 
L 281.359636 129.390741 
L 282.577091 157.396594 
L 283.033636 163.415968 
L 283.490182 166.462353 
L 283.794545 167.295624 
L 284.098909 167.49923 
L 284.403273 167.312509 
L 285.164182 166.305937 
L 285.620727 165.560957 
L 286.077273 164.352958 
L 286.990364 161.459432 
L 287.294727 161.140445 
L 287.599091 161.183295 
L 288.055636 161.338687 
L 288.36 161.178502 
L 289.273091 160.266288 
L 289.577455 160.33889 
L 290.186182 160.66966 
L 290.490545 160.646756 
L 291.403636 160.329965 
L 291.860182 160.4774 
L 292.925455 160.920857 
L 293.534182 160.931569 
L 294.447273 160.784165 
L 295.360364 160.944014 
L 295.816909 160.652679 
L 296.273455 160.355919 
L 296.577818 160.37322 
L 297.490909 160.751448 
L 297.947455 160.473892 
L 298.404 160.288499 
L 298.708364 160.415688 
L 299.317091 160.830035 
L 299.621455 160.804213 
L 300.534545 160.427305 
L 301.599818 160.805911 
L 302.512909 160.507949 
L 303.882545 160.666782 
L 304.643455 160.602222 
L 306.469636 160.674249 
L 307.230545 160.55358 
L 307.839273 160.541071 
L 308.448 160.601412 
L 308.904545 160.413585 
L 309.513273 160.124843 
L 309.969818 160.202977 
L 310.578545 160.370275 
L 311.339455 160.468612 
L 311.643818 160.786997 
L 312.709091 162.304888 
L 313.165636 162.413349 
L 313.926545 162.318977 
L 314.230909 162.052576 
L 314.535273 161.506896 
L 315.752727 158.641911 
L 316.209273 158.259936 
L 316.665818 158.123669 
L 316.970182 158.194727 
L 317.274545 158.480649 
L 317.731091 159.316257 
L 318.492 160.836057 
L 319.100727 161.504378 
L 319.709455 161.902528 
L 320.166 161.950248 
L 320.622545 161.722056 
L 321.84 160.985039 
L 322.753091 160.583152 
L 324.731455 160.413026 
L 325.948909 160.573407 
L 326.557636 160.501194 
L 327.775091 160.657161 
L 328.536 160.524379 
L 329.601273 160.720119 
L 330.514364 160.514865 
L 331.579636 160.734321 
L 332.492727 160.513697 
L 333.558 160.729751 
L 334.471091 160.528037 
L 335.536364 160.699333 
L 336.449455 160.545591 
L 337.514727 160.669132 
L 338.427818 160.612529 
L 339.340909 160.723731 
L 340.406182 160.682655 
L 341.167091 160.694997 
L 342.232364 160.578097 
L 343.145455 160.585822 
L 343.906364 160.535747 
L 345.123818 160.641629 
L 345.884727 160.617881 
L 346.797818 160.705752 
L 347.863091 160.607311 
L 348.776182 160.673931 
L 349.689273 160.568114 
L 350.754545 160.67599 
L 351.667636 160.571895 
L 352.580727 160.714468 
L 353.646 160.575039 
L 354.559091 160.728099 
L 355.776545 160.616484 
L 356.537455 160.714915 
L 357.754909 160.551637 
L 358.515818 160.644119 
L 359.581091 160.550945 
L 360.646364 160.72816 
L 361.711636 160.690208 
L 362.472545 160.736501 
L 363.842182 160.628257 
L 364.755273 160.596684 
L 365.516182 160.585899 
L 366.581455 160.624834 
L 367.494545 160.62667 
L 368.407636 160.649888 
L 369.320727 160.620456 
L 370.233818 160.669559 
L 371.299091 160.616527 
L 372.212182 160.670907 
L 373.277455 160.612802 
L 373.581818 160.664148 
L 373.581818 160.664148 
" style="fill:none;stroke:#1f77b4;stroke-linecap:square;stroke-width:1.5;"/>
   </g>
   <g id="patch_3">
    <path d="M 54 252 
L 54 34.56 
" style="fill:none;stroke:#000000;stroke-linecap:square;stroke-linejoin:miter;stroke-width:0.8;"/>
   </g>
   <g id="patch_4">
    <path d="M 388.8 252 
L 388.8 34.56 
" style="fill:none;stroke:#000000;stroke-linecap:square;stroke-linejoin:miter;stroke-width:0.8;"/>
   </g>
   <g id="patch_5">
    <path d="M 54 252 
L 388.8 252 
" style="fill:none;stroke:#000000;stroke-linecap:square;stroke-linejoin:miter;stroke-width:0.8;"/>
   </g>
   <g id="patch_6">
    <path d="M 54 34.56 
L 388.8 34.56 
" style="fill:none;stroke:#000000;stroke-linecap:square;stroke-linejoin:miter;stroke-width:0.8;"/>
   </g>
  </g>
 </g>
 <defs>
  <clipPath id="p9832958f19">
   <rect height="217.44" width="334.8" x="54" y="34.56"/>
  </clipPath>
 </defs>
</svg>
