<?xml version="1.0" encoding="utf-8" standalone="no"?>
<!DOCTYPE svg PUBLIC "-//W3C//DTD SVG 1.1//EN"
  "http://www.w3.org/Graphics/SVG/1.1/DTD/svg11.dtd">
<svg height="288pt" version="1.1" viewBox="0 0 432 288" width="432pt" xmlns="http://www.w3.org/2000/svg" xmlns:xlink="http://www.w3.org/1999/xlink">
 <metadata>
  <rdf:RDF xmlns:cc="http://creativecommons.org/ns#" xmlns:dc="http://purl.org/dc/elements/1.1/" xmlns:rdf="http://www.w3.org/1999/02/22-rdf-syntax-ns#">
   <cc:Work>
    <dc:type rdf:resource="http://purl.org/dc/dcmitype/StillImage"/>
    <dc:date>2022-04-22T21:36:04.612815</dc:date>
    <dc:format>image/svg+xml</dc:format>
    <dc:creator>
     <cc:Agent>
      <dc:title>Matplotlib v3.4.3, https://matplotlib.org/</dc:title>
     </cc:Agent>
    </dc:creator>
   </cc:Work>
  </rdf:RDF>
 </metadata>
 <defs>
  <style type="text/css">*{stroke-linecap:butt;stroke-linejoin:round;}</style>
 </defs>
 <g id="figure_1">
  <g id="patch_1">
   <path d="M 0 288 
L 432 288 
L 432 0 
L 0 0 
z
" style="fill:none;"/>
  </g>
  <g id="axes_1">
   <g id="patch_2">
    <path d="M 54 252 
L 388.8 252 
L 388.8 34.56 
L 54 34.56 
z
" style="fill:#ffffff;"/>
   </g>
   <g id="matplotlib.axis_1">
    <g id="xtick_1">
     <g id="line2d_1">
      <defs>
       <path d="M 0 0 
L 0 3.5 
" id="mc9f606b8b3" style="stroke:#000000;stroke-width:0.8;"/>
      </defs>
      <g>
       <use style="stroke:#000000;stroke-width:0.8;" x="69.218182" xlink:href="#mc9f606b8b3" y="252"/>
      </g>
     </g>
     <g id="text_1">
      <!-- 0 -->
      <g transform="translate(66.036932 266.598437)scale(0.1 -0.1)">
       <defs>
        <path d="M 2034 4250 
Q 1547 4250 1301 3770 
Q 1056 3291 1056 2328 
Q 1056 1369 1301 889 
Q 1547 409 2034 409 
Q 2525 409 2770 889 
Q 3016 1369 3016 2328 
Q 3016 3291 2770 3770 
Q 2525 4250 2034 4250 
z
M 2034 4750 
Q 2819 4750 3233 4129 
Q 3647 3509 3647 2328 
Q 3647 1150 3233 529 
Q 2819 -91 2034 -91 
Q 1250 -91 836 529 
Q 422 1150 422 2328 
Q 422 3509 836 4129 
Q 1250 4750 2034 4750 
z
" id="DejaVuSans-30" transform="scale(0.015625)"/>
       </defs>
       <use xlink:href="#DejaVuSans-30"/>
      </g>
     </g>
    </g>
    <g id="xtick_2">
     <g id="line2d_2">
      <g>
       <use style="stroke:#000000;stroke-width:0.8;" x="107.263636" xlink:href="#mc9f606b8b3" y="252"/>
      </g>
     </g>
     <g id="text_2">
      <!-- 250 -->
      <g transform="translate(97.719886 266.598437)scale(0.1 -0.1)">
       <defs>
        <path d="M 1228 531 
L 3431 531 
L 3431 0 
L 469 0 
L 469 531 
Q 828 903 1448 1529 
Q 2069 2156 2228 2338 
Q 2531 2678 2651 2914 
Q 2772 3150 2772 3378 
Q 2772 3750 2511 3984 
Q 2250 4219 1831 4219 
Q 1534 4219 1204 4116 
Q 875 4013 500 3803 
L 500 4441 
Q 881 4594 1212 4672 
Q 1544 4750 1819 4750 
Q 2544 4750 2975 4387 
Q 3406 4025 3406 3419 
Q 3406 3131 3298 2873 
Q 3191 2616 2906 2266 
Q 2828 2175 2409 1742 
Q 1991 1309 1228 531 
z
" id="DejaVuSans-32" transform="scale(0.015625)"/>
        <path d="M 691 4666 
L 3169 4666 
L 3169 4134 
L 1269 4134 
L 1269 2991 
Q 1406 3038 1543 3061 
Q 1681 3084 1819 3084 
Q 2600 3084 3056 2656 
Q 3513 2228 3513 1497 
Q 3513 744 3044 326 
Q 2575 -91 1722 -91 
Q 1428 -91 1123 -41 
Q 819 9 494 109 
L 494 744 
Q 775 591 1075 516 
Q 1375 441 1709 441 
Q 2250 441 2565 725 
Q 2881 1009 2881 1497 
Q 2881 1984 2565 2268 
Q 2250 2553 1709 2553 
Q 1456 2553 1204 2497 
Q 953 2441 691 2322 
L 691 4666 
z
" id="DejaVuSans-35" transform="scale(0.015625)"/>
       </defs>
       <use xlink:href="#DejaVuSans-32"/>
       <use x="63.623047" xlink:href="#DejaVuSans-35"/>
       <use x="127.246094" xlink:href="#DejaVuSans-30"/>
      </g>
     </g>
    </g>
    <g id="xtick_3">
     <g id="line2d_3">
      <g>
       <use style="stroke:#000000;stroke-width:0.8;" x="145.309091" xlink:href="#mc9f606b8b3" y="252"/>
      </g>
     </g>
     <g id="text_3">
      <!-- 500 -->
      <g transform="translate(135.765341 266.598437)scale(0.1 -0.1)">
       <use xlink:href="#DejaVuSans-35"/>
       <use x="63.623047" xlink:href="#DejaVuSans-30"/>
       <use x="127.246094" xlink:href="#DejaVuSans-30"/>
      </g>
     </g>
    </g>
    <g id="xtick_4">
     <g id="line2d_4">
      <g>
       <use style="stroke:#000000;stroke-width:0.8;" x="183.354545" xlink:href="#mc9f606b8b3" y="252"/>
      </g>
     </g>
     <g id="text_4">
      <!-- 750 -->
      <g transform="translate(173.810795 266.598437)scale(0.1 -0.1)">
       <defs>
        <path d="M 525 4666 
L 3525 4666 
L 3525 4397 
L 1831 0 
L 1172 0 
L 2766 4134 
L 525 4134 
L 525 4666 
z
" id="DejaVuSans-37" transform="scale(0.015625)"/>
       </defs>
       <use xlink:href="#DejaVuSans-37"/>
       <use x="63.623047" xlink:href="#DejaVuSans-35"/>
       <use x="127.246094" xlink:href="#DejaVuSans-30"/>
      </g>
     </g>
    </g>
    <g id="xtick_5">
     <g id="line2d_5">
      <g>
       <use style="stroke:#000000;stroke-width:0.8;" x="221.4" xlink:href="#mc9f606b8b3" y="252"/>
      </g>
     </g>
     <g id="text_5">
      <!-- 1000 -->
      <g transform="translate(208.675 266.598437)scale(0.1 -0.1)">
       <defs>
        <path d="M 794 531 
L 1825 531 
L 1825 4091 
L 703 3866 
L 703 4441 
L 1819 4666 
L 2450 4666 
L 2450 531 
L 3481 531 
L 3481 0 
L 794 0 
L 794 531 
z
" id="DejaVuSans-31" transform="scale(0.015625)"/>
       </defs>
       <use xlink:href="#DejaVuSans-31"/>
       <use x="63.623047" xlink:href="#DejaVuSans-30"/>
       <use x="127.246094" xlink:href="#DejaVuSans-30"/>
       <use x="190.869141" xlink:href="#DejaVuSans-30"/>
      </g>
     </g>
    </g>
    <g id="xtick_6">
     <g id="line2d_6">
      <g>
       <use style="stroke:#000000;stroke-width:0.8;" x="259.445455" xlink:href="#mc9f606b8b3" y="252"/>
      </g>
     </g>
     <g id="text_6">
      <!-- 1250 -->
      <g transform="translate(246.720455 266.598437)scale(0.1 -0.1)">
       <use xlink:href="#DejaVuSans-31"/>
       <use x="63.623047" xlink:href="#DejaVuSans-32"/>
       <use x="127.246094" xlink:href="#DejaVuSans-35"/>
       <use x="190.869141" xlink:href="#DejaVuSans-30"/>
      </g>
     </g>
    </g>
    <g id="xtick_7">
     <g id="line2d_7">
      <g>
       <use style="stroke:#000000;stroke-width:0.8;" x="297.490909" xlink:href="#mc9f606b8b3" y="252"/>
      </g>
     </g>
     <g id="text_7">
      <!-- 1500 -->
      <g transform="translate(284.765909 266.598437)scale(0.1 -0.1)">
       <use xlink:href="#DejaVuSans-31"/>
       <use x="63.623047" xlink:href="#DejaVuSans-35"/>
       <use x="127.246094" xlink:href="#DejaVuSans-30"/>
       <use x="190.869141" xlink:href="#DejaVuSans-30"/>
      </g>
     </g>
    </g>
    <g id="xtick_8">
     <g id="line2d_8">
      <g>
       <use style="stroke:#000000;stroke-width:0.8;" x="335.536364" xlink:href="#mc9f606b8b3" y="252"/>
      </g>
     </g>
     <g id="text_8">
      <!-- 1750 -->
      <g transform="translate(322.811364 266.598437)scale(0.1 -0.1)">
       <use xlink:href="#DejaVuSans-31"/>
       <use x="63.623047" xlink:href="#DejaVuSans-37"/>
       <use x="127.246094" xlink:href="#DejaVuSans-35"/>
       <use x="190.869141" xlink:href="#DejaVuSans-30"/>
      </g>
     </g>
    </g>
    <g id="xtick_9">
     <g id="line2d_9">
      <g>
       <use style="stroke:#000000;stroke-width:0.8;" x="373.581818" xlink:href="#mc9f606b8b3" y="252"/>
      </g>
     </g>
     <g id="text_9">
      <!-- 2000 -->
      <g transform="translate(360.856818 266.598437)scale(0.1 -0.1)">
       <use xlink:href="#DejaVuSans-32"/>
       <use x="63.623047" xlink:href="#DejaVuSans-30"/>
       <use x="127.246094" xlink:href="#DejaVuSans-30"/>
       <use x="190.869141" xlink:href="#DejaVuSans-30"/>
      </g>
     </g>
    </g>
   </g>
   <g id="matplotlib.axis_2">
    <g id="ytick_1">
     <g id="line2d_10">
      <defs>
       <path d="M 0 0 
L -3.5 0 
" id="m9e43709af2" style="stroke:#000000;stroke-width:0.8;"/>
      </defs>
      <g>
       <use style="stroke:#000000;stroke-width:0.8;" x="54" xlink:href="#m9e43709af2" y="242.116364"/>
      </g>
     </g>
     <g id="text_10">
      <!-- −1.00 -->
      <g transform="translate(16.354687 245.915582)scale(0.1 -0.1)">
       <defs>
        <path d="M 678 2272 
L 4684 2272 
L 4684 1741 
L 678 1741 
L 678 2272 
z
" id="DejaVuSans-2212" transform="scale(0.015625)"/>
        <path d="M 684 794 
L 1344 794 
L 1344 0 
L 684 0 
L 684 794 
z
" id="DejaVuSans-2e" transform="scale(0.015625)"/>
       </defs>
       <use xlink:href="#DejaVuSans-2212"/>
       <use x="83.789062" xlink:href="#DejaVuSans-31"/>
       <use x="147.412109" xlink:href="#DejaVuSans-2e"/>
       <use x="179.199219" xlink:href="#DejaVuSans-30"/>
       <use x="242.822266" xlink:href="#DejaVuSans-30"/>
      </g>
     </g>
    </g>
    <g id="ytick_2">
     <g id="line2d_11">
      <g>
       <use style="stroke:#000000;stroke-width:0.8;" x="54" xlink:href="#m9e43709af2" y="216.045932"/>
      </g>
     </g>
     <g id="text_11">
      <!-- −0.75 -->
      <g transform="translate(16.354687 219.845151)scale(0.1 -0.1)">
       <use xlink:href="#DejaVuSans-2212"/>
       <use x="83.789062" xlink:href="#DejaVuSans-30"/>
       <use x="147.412109" xlink:href="#DejaVuSans-2e"/>
       <use x="179.199219" xlink:href="#DejaVuSans-37"/>
       <use x="242.822266" xlink:href="#DejaVuSans-35"/>
      </g>
     </g>
    </g>
    <g id="ytick_3">
     <g id="line2d_12">
      <g>
       <use style="stroke:#000000;stroke-width:0.8;" x="54" xlink:href="#m9e43709af2" y="189.9755"/>
      </g>
     </g>
     <g id="text_12">
      <!-- −0.50 -->
      <g transform="translate(16.354687 193.774719)scale(0.1 -0.1)">
       <use xlink:href="#DejaVuSans-2212"/>
       <use x="83.789062" xlink:href="#DejaVuSans-30"/>
       <use x="147.412109" xlink:href="#DejaVuSans-2e"/>
       <use x="179.199219" xlink:href="#DejaVuSans-35"/>
       <use x="242.822266" xlink:href="#DejaVuSans-30"/>
      </g>
     </g>
    </g>
    <g id="ytick_4">
     <g id="line2d_13">
      <g>
       <use style="stroke:#000000;stroke-width:0.8;" x="54" xlink:href="#m9e43709af2" y="163.905068"/>
      </g>
     </g>
     <g id="text_13">
      <!-- −0.25 -->
      <g transform="translate(16.354687 167.704287)scale(0.1 -0.1)">
       <use xlink:href="#DejaVuSans-2212"/>
       <use x="83.789062" xlink:href="#DejaVuSans-30"/>
       <use x="147.412109" xlink:href="#DejaVuSans-2e"/>
       <use x="179.199219" xlink:href="#DejaVuSans-32"/>
       <use x="242.822266" xlink:href="#DejaVuSans-35"/>
      </g>
     </g>
    </g>
    <g id="ytick_5">
     <g id="line2d_14">
      <g>
       <use style="stroke:#000000;stroke-width:0.8;" x="54" xlink:href="#m9e43709af2" y="137.834636"/>
      </g>
     </g>
     <g id="text_14">
      <!-- 0.00 -->
      <g transform="translate(24.734375 141.633855)scale(0.1 -0.1)">
       <use xlink:href="#DejaVuSans-30"/>
       <use x="63.623047" xlink:href="#DejaVuSans-2e"/>
       <use x="95.410156" xlink:href="#DejaVuSans-30"/>
       <use x="159.033203" xlink:href="#DejaVuSans-30"/>
      </g>
     </g>
    </g>
    <g id="ytick_6">
     <g id="line2d_15">
      <g>
       <use style="stroke:#000000;stroke-width:0.8;" x="54" xlink:href="#m9e43709af2" y="111.764205"/>
      </g>
     </g>
     <g id="text_15">
      <!-- 0.25 -->
      <g transform="translate(24.734375 115.563423)scale(0.1 -0.1)">
       <use xlink:href="#DejaVuSans-30"/>
       <use x="63.623047" xlink:href="#DejaVuSans-2e"/>
       <use x="95.410156" xlink:href="#DejaVuSans-32"/>
       <use x="159.033203" xlink:href="#DejaVuSans-35"/>
      </g>
     </g>
    </g>
    <g id="ytick_7">
     <g id="line2d_16">
      <g>
       <use style="stroke:#000000;stroke-width:0.8;" x="54" xlink:href="#m9e43709af2" y="85.693773"/>
      </g>
     </g>
     <g id="text_16">
      <!-- 0.50 -->
      <g transform="translate(24.734375 89.492992)scale(0.1 -0.1)">
       <use xlink:href="#DejaVuSans-30"/>
       <use x="63.623047" xlink:href="#DejaVuSans-2e"/>
       <use x="95.410156" xlink:href="#DejaVuSans-35"/>
       <use x="159.033203" xlink:href="#DejaVuSans-30"/>
      </g>
     </g>
    </g>
    <g id="ytick_8">
     <g id="line2d_17">
      <g>
       <use style="stroke:#000000;stroke-width:0.8;" x="54" xlink:href="#m9e43709af2" y="59.623341"/>
      </g>
     </g>
     <g id="text_17">
      <!-- 0.75 -->
      <g transform="translate(24.734375 63.42256)scale(0.1 -0.1)">
       <use xlink:href="#DejaVuSans-30"/>
       <use x="63.623047" xlink:href="#DejaVuSans-2e"/>
       <use x="95.410156" xlink:href="#DejaVuSans-37"/>
       <use x="159.033203" xlink:href="#DejaVuSans-35"/>
      </g>
     </g>
    </g>
   </g>
   <g id="line2d_18">
    <path clip-path="url(#p6737559f29)" d="M 69.218182 137.834636 
L 274.511455 137.735582 
L 275.424545 137.483761 
L 276.185455 137.026551 
L 277.098545 136.162214 
L 278.011636 135.374264 
L 278.468182 135.309446 
L 278.772545 135.486027 
L 279.076909 135.877167 
L 279.533455 136.895164 
L 280.142182 138.961642 
L 281.359636 143.501891 
L 281.816182 144.378051 
L 282.120545 144.503814 
L 282.424909 144.232006 
L 282.729273 143.577003 
L 283.185818 141.992806 
L 285.012 134.467515 
L 285.468545 133.6765 
L 285.772909 133.499035 
L 286.077273 133.570564 
L 286.533818 134.045717 
L 287.294727 135.372766 
L 288.36 137.16126 
L 288.968727 137.797024 
L 289.577455 138.144421 
L 290.338364 138.300333 
L 291.403636 138.238494 
L 294.295091 137.909338 
L 297.795273 137.802178 
L 300.078 137.642739 
L 300.991091 137.40536 
L 301.752 136.965638 
L 302.512909 136.230149 
L 303.273818 135.455402 
L 303.578182 135.342556 
L 303.882545 135.506443 
L 304.186909 136.088231 
L 304.491273 137.232516 
L 304.947818 140.256993 
L 305.404364 144.953761 
L 306.926182 162.623811 
L 307.078364 163.012242 
L 307.230545 162.866182 
L 307.382727 162.13095 
L 307.687091 158.744292 
L 308.143636 148.785871 
L 308.752364 128.315842 
L 309.665455 96.643978 
L 310.122 88.283543 
L 310.274182 87.299826 
L 310.426364 87.295795 
L 310.578545 88.278213 
L 310.882909 93.093556 
L 311.339455 106.380563 
L 313.013455 166.318755 
L 313.47 172.842075 
L 313.774364 173.921673 
L 313.926545 173.601578 
L 314.230909 171.546498 
L 314.687455 165.951865 
L 316.361455 142.317609 
L 317.122364 135.875284 
L 318.339818 125.82154 
L 318.948545 121.560522 
L 319.252909 120.424471 
L 319.557273 120.100288 
L 319.709455 120.233943 
L 320.013818 121.027464 
L 320.470364 123.24651 
L 321.535636 129.011219 
L 321.687818 129.24254 
L 321.84 129.174076 
L 321.992182 128.770667 
L 322.296545 126.898338 
L 322.753091 121.723855 
L 323.514 111.707194 
L 323.818364 109.89122 
L 323.970545 109.970271 
L 324.122727 110.870117 
L 324.427091 115.543888 
L 324.731455 124.519011 
L 325.188 146.145586 
L 326.862 240.118335 
L 327.014182 242.116364 
L 327.166364 242.107792 
L 327.318545 240.022415 
L 327.622909 229.624951 
L 328.079455 200.000091 
L 329.905636 52.648875 
L 330.21 45.347172 
L 330.362182 44.443636 
L 330.514364 45.279607 
L 330.818727 51.659824 
L 331.275273 70.328605 
L 332.949273 150.732138 
L 333.405818 160.804862 
L 333.710182 163.810913 
L 333.862364 164.30749 
L 334.014545 164.217481 
L 334.318909 162.618646 
L 334.927636 156.496268 
L 335.688545 149.308063 
L 337.058182 139.439189 
L 337.514727 137.583622 
L 337.819091 137.079345 
L 338.123455 136.971423 
L 338.884364 136.961824 
L 339.493091 136.803818 
L 339.797455 136.902419 
L 341.014909 137.688646 
L 342.080182 137.46297 
L 343.145455 137.910919 
L 344.210727 137.577358 
L 345.123818 138.007641 
L 345.580364 137.789436 
L 346.036909 137.574583 
L 346.341273 137.643478 
L 347.102182 138.039118 
L 347.406545 137.9436 
L 348.015273 137.5944 
L 348.319636 137.629794 
L 349.080545 137.97543 
L 349.384909 137.843499 
L 350.450182 137.02726 
L 350.906727 136.752476 
L 351.211091 136.315675 
L 352.124182 134.572452 
L 352.428545 134.533241 
L 352.732909 134.947947 
L 353.037273 135.806332 
L 353.493818 137.987053 
L 353.950364 141.462655 
L 355.167818 152.527323 
L 355.472182 153.247925 
L 355.624364 153.034292 
L 355.928727 151.393403 
L 356.233091 148.166152 
L 356.689636 140.744583 
L 358.059273 115.614478 
L 358.363636 113.714565 
L 358.515818 113.604898 
L 358.668 114.052751 
L 358.972364 116.503188 
L 359.428909 123.284465 
L 360.950727 150.173981 
L 361.255091 152.559944 
L 361.559455 153.407338 
L 361.711636 153.306075 
L 362.016 152.248901 
L 362.472545 149.201924 
L 364.146545 135.912614 
L 364.450909 134.916047 
L 364.755273 134.572993 
L 365.059636 134.659215 
L 366.885818 136.199093 
L 367.646727 137.087079 
L 368.559818 137.692758 
L 369.016364 137.75454 
L 369.929455 137.564085 
L 370.386 137.825896 
L 370.842545 138.063395 
L 371.146909 138.01272 
L 371.907818 137.674331 
L 372.212182 137.799901 
L 372.820909 138.206977 
L 373.125273 138.178127 
L 373.581818 137.859783 
L 373.581818 137.859783 
" style="fill:none;stroke:#1f77b4;stroke-linecap:square;stroke-width:1.5;"/>
   </g>
   <g id="patch_3">
    <path d="M 54 252 
L 54 34.56 
" style="fill:none;stroke:#000000;stroke-linecap:square;stroke-linejoin:miter;stroke-width:0.8;"/>
   </g>
   <g id="patch_4">
    <path d="M 388.8 252 
L 388.8 34.56 
" style="fill:none;stroke:#000000;stroke-linecap:square;stroke-linejoin:miter;stroke-width:0.8;"/>
   </g>
   <g id="patch_5">
    <path d="M 54 252 
L 388.8 252 
" style="fill:none;stroke:#000000;stroke-linecap:square;stroke-linejoin:miter;stroke-width:0.8;"/>
   </g>
   <g id="patch_6">
    <path d="M 54 34.56 
L 388.8 34.56 
" style="fill:none;stroke:#000000;stroke-linecap:square;stroke-linejoin:miter;stroke-width:0.8;"/>
   </g>
  </g>
 </g>
 <defs>
  <clipPath id="p6737559f29">
   <rect height="217.44" width="334.8" x="54" y="34.56"/>
  </clipPath>
 </defs>
</svg>
